<?xml version="1.0" standalone="no"?>
<!DOCTYPE svg PUBLIC "-//W3C//DTD SVG 1.1//EN" "http://www.w3.org/Graphics/SVG/1.1/DTD/svg11.dtd" >
<svg>
<metadata>
Created by FontForge 20090622 at Thu Sep  1 09:40:15 2016
 By deploy user
Copyright (c) 2002, 2005 Parachute&#194;&#168;, www.parachute.gr.  All rights reserved.
</metadata>
<defs>
<font id="PFDinDisplayPro-Light" horiz-adv-x="1818" >
  <font-face 
    font-family="PF DinDisplay Pro Light"
    font-weight="300"
    font-stretch="normal"
    units-per-em="1000"
    panose-1="2 0 5 6 0 0 0 2 0 4"
    ascent="750"
    descent="-250"
    x-height="493"
    cap-height="689"
    bbox="-164 -260 1760 913"
    underline-thickness="50"
    underline-position="-50"
    unicode-range="U+0020-U+FB05"
  />
<missing-glyph horiz-adv-x="436" 
d="M0 700h436v-700h-436v700zM368 659h-300l150 -272zM396 72v557l-153 -279zM368 41l-150 272l-150 -272h300zM40 73l153 277l-153 277v-554z" />
    <glyph glyph-name="ff" unicode="ff" horiz-adv-x="525" 
d="M387 434v-434h-65v434h-168v-434h-65v434h-61v60h61v79q0 31 9.5 54.5t26 39t39 23t47.5 7.5h81v-58h-72q-20 0 -33 -6t-20.5 -16.5t-10 -24t-2.5 -29.5v-69h168v99q0 31 9.5 54.5t26 39t39 23t47.5 7.5h80v-58h-72q-20 0 -32.5 -6t-20 -16.5t-10 -24t-2.5 -29.5v-89h137
v-60h-137z" />
    <glyph glyph-name="fi" unicode="fi" horiz-adv-x="451" 
d="M322 0v434h-168v-434h-65v434h-61v60h61v98q0 31 9.5 54.5t26 39t39 23t47.5 7.5h71v-59h-62q-20 0 -33 -6t-20.5 -16t-10 -24t-2.5 -29v-88h233v-494h-65zM396 652q0 -17 -12.5 -29t-29.5 -12t-28.5 12t-11.5 29t11.5 29.5t28.5 12.5t29.5 -12.5t12.5 -29.5z" />
    <glyph glyph-name="fl" unicode="fl" horiz-adv-x="498" 
d="M386 123q0 -43 17.5 -55t58.5 -10l2 -60q-11 -2 -21 -2.5t-20 -0.5q-60 0 -81 30.5t-21 88.5v546q-19 7 -38 9.5t-41 2.5q-88 0 -88 -85v-93h113v-60h-113v-434h-65v434h-61v60h61v93q0 42 13 70t34.5 44.5t49.5 23.5t58 7q22 0 55.5 -3.5t86.5 -17.5v-588z" />
    <glyph glyph-name="ffi" unicode="ffi" horiz-adv-x="683" 
d="M554 0v434h-168v-434h-65v434h-167v-434h-65v434h-61v60h61v78q0 31 9.5 54.5t26 39t39 23t47.5 7.5h65v-59h-56q-20 0 -33 -6t-20.5 -16t-10 -24t-2.5 -29v-68h167v98q0 31 9.5 54.5t26 39t39 23t47.5 7.5h70v-59h-61q-20 0 -33 -6t-20.5 -16t-10 -24t-2.5 -29v-88h233
v-494h-65zM628 652q0 -17 -12.5 -29t-29.5 -12t-29 12t-12 29t12 29.5t29 12.5t29.5 -12.5t12.5 -29.5z" />
    <glyph glyph-name="ffl" unicode="ffl" horiz-adv-x="729" 
d="M617 123q0 -43 18 -55t59 -10l2 -60q-12 -2 -22 -2.5t-19 -0.5q-60 0 -81 30.5t-21 88.5v546q-20 7 -38.5 9.5t-41.5 2.5q-88 0 -88 -85v-93h113v-60h-113v-434h-65v434h-166v-434h-65v434h-61v60h61v85q0 31 9.5 54.5t26 39t39 23t47.5 7.5h71v-59h-62q-20 0 -33 -6
t-20.5 -16.5t-10 -24t-2.5 -29.5v-74h166v93q0 42 13 70t34.5 44.5t49.5 23.5t58 7q23 0 56 -3.5t86 -17.5v-588z" />
    <glyph glyph-name="ft" unicode="ft" horiz-adv-x="567" 
d="M557 9q-26 -8 -54 -11t-42 -3q-76 0 -107 35t-31 115v289h-169v-434h-65v434h-61v60h61v99q0 31 9.5 54.5t26 39t39 23t47.5 7.5h67v-58h-58q-20 0 -33 -6t-20.5 -16.5t-10 -24t-2.5 -29.5v-89h170l17 116h47v-116h142v-60h-142v-270q0 -62 19 -84.5t63 -22.5q15 0 35 2
t41 6z" />
    <glyph glyph-name="fj" unicode="fj" horiz-adv-x="451" 
d="M322 434h-168v-434h-65v434h-61v60h61v98q0 31 9.5 54.5t26 39t39 23t47.5 7.5h71v-59h-62q-20 0 -33 -6t-20.5 -16t-10 -24t-2.5 -29v-88h233v-563q0 -74 -32.5 -105.5t-95.5 -31.5h-43v59h35q41 0 56 18.5t15 69.5v493zM396 652q0 -17 -12.5 -29t-29.5 -12t-28.5 12
t-11.5 29t11.5 29.5t28.5 12.5t29.5 -12.5t12.5 -29.5z" />
    <glyph glyph-name="ffj" unicode="ffj" horiz-adv-x="683" 
d="M554 434h-168v-434h-65v434h-167v-434h-65v434h-61v60h61v78q0 31 9.5 54.5t26 39t39 23t47.5 7.5h65v-59h-56q-20 0 -33 -6t-20.5 -16t-10 -24t-2.5 -29v-68h167v98q0 31 9.5 54.5t26 39t39 23t47.5 7.5h70v-59h-61q-20 0 -33 -6t-20.5 -16t-10 -24t-2.5 -29v-88h233
v-563q0 -74 -32.5 -105.5t-95.5 -31.5h-43v59h35q40 0 55.5 18.5t15.5 69.5v493zM628 652q0 -17 -12.5 -29t-29.5 -12t-29 12t-12 29t12 29.5t29 12.5t29.5 -12.5t12.5 -29.5z" />
    <glyph glyph-name=".notdef" horiz-adv-x="436" 
d="M0 700h436v-700h-436v700zM368 659h-300l150 -272zM396 72v557l-153 -279zM368 41l-150 272l-150 -272h300zM40 73l153 277l-153 277v-554z" />
    <glyph glyph-name="exclam" unicode="!" horiz-adv-x="224" 
d="M83 170q-1 128 -2.5 263t-3.5 263h69l-7 -526h-56zM64 45q0 17 12 31.5t35 14.5t36.5 -14.5t13.5 -31.5q0 -21 -13.5 -34.5t-36.5 -13.5t-35 13t-12 35z" />
    <glyph glyph-name="quotedbl" unicode="&#x22;" horiz-adv-x="276" 
d="M165 514v182h53v-182h-53zM56 514v182h54v-182h-54z" />
    <glyph glyph-name="numbersign" unicode="#" horiz-adv-x="509" 
d="M381 431l-23 -163h99v-50h-105l-30 -218h-56l31 218h-128l-30 -218h-56l31 218h-93v50h100l22 163h-94v50h102l30 214h52l-28 -214h129l30 214h53l-29 -214h97v-50h-104zM198 431l-22 -163h128l22 163h-128z" />
    <glyph glyph-name="dollar" unicode="$" horiz-adv-x="487" 
d="M266 772v-41t-1 -42q45 -2 88.5 -13t84.5 -35l-30 -57q-38 22 -79.5 33.5t-84.5 11.5q-27 0 -51.5 -8t-44 -23.5t-31 -40t-11.5 -57.5q0 -32 14.5 -52.5t37 -34t49.5 -21.5t53 -14q41 -9 78 -21.5t65.5 -33.5t45 -54t16.5 -84q0 -42 -14.5 -75.5t-40.5 -57.5t-63 -38
t-82 -16l1 -95h-48v95q-54 3 -102 20.5t-92 52.5l36 51q42 -29 89.5 -46.5t97.5 -17.5q70 0 111 33t41 94q0 36 -14.5 59t-37.5 37.5t-52 22t-57 13.5q-36 7 -71.5 19.5t-63.5 33.5t-45.5 53t-17.5 79q0 39 13.5 71.5t37 57t56 39.5t71.5 18v84h48v0z" />
    <glyph glyph-name="ampersand" unicode="&#x26;" horiz-adv-x="811" 
d="M733 -50q-46 20 -92 52.5t-82 67.5q-48 -37 -106.5 -57t-114.5 -20q-44 0 -82.5 12t-67.5 36.5t-45.5 60.5t-16.5 84q0 71 46 123.5t124 95.5q-31 42 -44 74.5t-13 62.5t9.5 56t27 45.5t43 31t57.5 11.5q31 0 57 -10.5t44.5 -28.5t29 -41.5t10.5 -50.5q0 -56 -37 -96.5
t-100 -75.5q37 -56 86 -119t100 -120q54 52 88 121.5t34 150.5q0 66 -19.5 126t-58 105.5t-95 72t-131.5 26.5q-64 0 -116.5 -19.5t-90 -52.5t-58.5 -77t-21 -92q0 -35 11 -70.5t35 -70.5l-46 -29q-28 40 -41 82t-13 84q0 58 24 112t68.5 95t106.5 65.5t138 24.5
q88 0 155.5 -30.5t113 -82.5t69 -121.5t23.5 -147.5q0 -94 -39 -173t-100 -136q38 -36 76.5 -63.5t79.5 -44.5zM459 555q0 34 -25 55.5t-58 21.5q-21 0 -35.5 -8.5t-24 -21.5t-13.5 -28t-4 -28q0 -26 14 -54t37 -60q22 12 42 24.5t35 27.5t23.5 32.5t8.5 38.5zM522 109
l-54 61t-51.5 64l-47 63.5l-41.5 60.5q-30 -16 -56.5 -34t-46 -39t-31 -45t-11.5 -52q0 -36 12 -63t32 -45t47.5 -27t57.5 -9q45 0 94 16t96 49z" />
    <glyph glyph-name="quoteright" unicode="&#x2019;" horiz-adv-x="258" 
d="M83 671q0 20 13.5 34.5t36.5 14.5q29 0 43 -21.5t14 -47.5q0 -22 -7.5 -43t-19.5 -39t-28 -32t-33 -23l-23 30q21 16 33 35t14 45q-20 0 -31.5 13.5t-11.5 33.5z" />
    <glyph glyph-name="parenleft" unicode="(" horiz-adv-x="276" 
d="M234 -120q-35 40 -67 88t-56 102t-38.5 112.5t-14.5 120.5q0 61 13.5 119.5t37 112.5t55 102t67.5 88l34 -21q-31 -42 -56 -90.5t-43 -99.5t-27.5 -103t-9.5 -103q0 -55 10 -109.5t28 -106.5t42.5 -99.5t54.5 -88.5l-30 -24v0z" />
    <glyph glyph-name="parenright" unicode=")" horiz-adv-x="276" 
d="M23 -97q60 83 98 188t38 216q0 51 -9.5 103.5t-27.5 103.5t-43 99t-56 90l34 21q36 -40 67.5 -88t55 -102t37 -112.5t13.5 -119.5t-14.5 -120t-38.5 -113t-55.5 -102t-66.5 -87z" />
    <glyph glyph-name="asterisk" unicode="*" horiz-adv-x="352" 
d="M290 444l-23 -18t-23 -17l-66 106l-14 -22.5l-19 -30.5l-18.5 -30.5l-13.5 -23.5l-46 36l78 93q-9 2 -25 6.5t-33 10t-33 10t-25 6.5q4 11 8 26t8 28l114 -48l-9 122h56l-9 -122l24.5 10.5l32.5 13.5l33 13.5t25 10.5l16 -55l-118 -32z" />
    <glyph glyph-name="plus" unicode="+" horiz-adv-x="487" 
d="M269 262v-193h-51v193h-189v51h189v191h51v-191h188v-51h-188z" />
    <glyph glyph-name="comma" unicode="," horiz-adv-x="225" 
d="M62 43q0 19 14 33t37 14q29 0 42.5 -20.5t13.5 -46.5q0 -23 -7 -44.5t-19 -39.5t-28 -32t-33 -22l-24 29q22 16 34 35t14 45q-20 1 -32 15t-12 34z" />
    <glyph glyph-name="hyphen" unicode="-" horiz-adv-x="381" 
d="M52 237v60h277v-60h-277z" />
    <glyph glyph-name="period" unicode="." horiz-adv-x="204" 
d="M54 46q0 17 13 32t36 15t36.5 -15t13.5 -32q0 -21 -13 -36t-37 -15q-23 0 -36 14t-13 37z" />
    <glyph glyph-name="slash" unicode="/" horiz-adv-x="304" 
d="M53 -34h-53l249 756h52z" />
    <glyph glyph-name="zero" unicode="0" horiz-adv-x="487" 
d="M449 172q0 -41 -17 -73.5t-45.5 -55.5t-65.5 -35.5t-77 -12.5q-41 0 -78 12.5t-65 36t-45 56t-17 72.5v344q0 41 17.5 74t46 56.5t65.5 36.5t76 13q40 0 77 -13t65.5 -36.5t45.5 -56.5t17 -74v-344zM382 499q0 37 -13.5 62.5t-33.5 41.5t-44.5 23t-46.5 7t-46.5 -7
t-44.5 -23t-33.5 -41.5t-13.5 -62.5v-310q0 -37 13.5 -62.5t33.5 -41t44.5 -22.5t46.5 -7t46.5 7t44.5 22.5t33.5 41t13.5 62.5v310z" />
    <glyph glyph-name="one" unicode="1" horiz-adv-x="487" 
d="M259 0v608l-22.5 -17.5l-30 -24l-30.5 -24.5l-22 -18l-36 49l31.5 26l40.5 32.5l40.5 32l31.5 25.5h64v-689h-67z" />
    <glyph glyph-name="two" unicode="2" horiz-adv-x="487" 
d="M447 519q0 -36 -16 -68.5t-40.5 -61.5t-55 -53.5t-59.5 -43.5l-52 -36.5t-54.5 -46t-43 -56.5t-17.5 -67v-27h336v-59h-405v70q0 45 15.5 82.5t41.5 70t60 59.5t70 51q30 19 57.5 40t48 44t33 47.5t12.5 50.5q0 31 -12.5 53.5t-33 36.5t-46.5 21t-53 7q-46 0 -83.5 -15.5
t-65.5 -37.5l-18 25l-18 25q32 26 79 46t104 20q41 0 80 -9.5t69 -31t48.5 -55t18.5 -81.5z" />
    <glyph glyph-name="three" unicode="3" horiz-adv-x="487" 
d="M227 695q36 0 71.5 -9.5t63.5 -30.5t45.5 -54t17.5 -81q0 -26 -6.5 -50t-19 -45t-32 -37t-44.5 -25q27 -10 47 -27.5t32.5 -40t19 -48t6.5 -50.5q0 -50 -17 -88t-46 -63.5t-68 -39t-82 -13.5q-63 0 -111 20.5t-79 46.5q8 12 19 26.5l19 25.5q29 -23 68 -40t80 -17
q67 0 108.5 36.5t41.5 99.5q0 31 -10 56.5t-26.5 43.5t-38.5 27.5t-46 9.5h-77v60h78q18 0 38.5 8t38 23.5t28.5 40t11 57.5q0 32 -11.5 54t-30.5 36t-43 20t-48 6q-40 0 -81.5 -16.5t-68.5 -39.5l-19 25.5l-19 25.5q36 30 83.5 48.5t107.5 18.5z" />
    <glyph glyph-name="four" unicode="4" horiz-adv-x="487" 
d="M399 109v-109h-68v109h-305v59l116.5 260.5l115.5 260.5h71l-230 -519h232v211h68v-211h60v-61h-60z" />
    <glyph glyph-name="five" unicode="5" horiz-adv-x="487" 
d="M441 173q0 -40 -16.5 -73t-45 -56t-67 -36t-81.5 -13q-64 0 -108 20t-76 48l39 52q31 -28 66.5 -43.5t77.5 -15.5q17 0 42 5.5t47.5 19.5t38.5 39t16 64v94q0 57 -27.5 85t-73.5 28q-18 0 -39.5 -6t-43 -15.5t-41.5 -21t-34 -21.5l-64 25v337h371v-62h-303v-227
q45 28 87.5 43t72.5 15q76 0 119 -46.5t43 -124.5v-114v0z" />
    <glyph glyph-name="six" unicode="6" horiz-adv-x="487" 
d="M43 515q0 42 16.5 75.5t44.5 57t65 36t79 12.5q63 0 107 -20t74 -48l-40 -53q-29 28 -63 42.5t-77 14.5q-21 0 -45.5 -7t-45 -23t-34.5 -41.5t-14 -62.5v-132q55 34 99 49t76 15q75 0 117 -47t42 -125v-81q0 -42 -16 -75.5t-43.5 -57t-64.5 -36.5t-78 -13q-42 0 -78.5 12
t-63 35t-42 56t-15.5 75v342zM377 250q0 59 -28 86.5t-72 27.5q-38 0 -80 -18.5t-87 -46.5v-110q0 -36 12.5 -61t32 -41t42.5 -23.5t45 -7.5t45.5 7.5t43.5 23.5t33 41.5t13 60.5v61z" />
    <glyph glyph-name="seven" unicode="7" horiz-adv-x="487" 
d="M186 0h-72l255 628h-262v-106h-64v167h400v-61z" />
    <glyph glyph-name="eight" unicode="8" horiz-adv-x="487" 
d="M243 695q38 0 74 -12.5t64 -36.5t45 -59.5t17 -81.5q0 -48 -24.5 -90.5t-73.5 -62.5q31 -11 52 -29t34 -39.5t18.5 -45.5t5.5 -46q0 -50 -18.5 -87.5t-48.5 -62t-68.5 -36.5t-78.5 -12q-43 0 -81 11.5t-67 35.5t-46 60t-17 85q0 25 7.5 50t21.5 47.5t35 40.5t47 28
q-24 9 -42 24.5t-30 35.5t-18 43.5t-6 48.5q0 47 17 82.5t44.5 59.5t63 36.5t73.5 12.5zM244 632q-25 0 -49 -8t-43 -24t-30.5 -40t-11.5 -55q0 -29 11 -52t29.5 -39t42.5 -25t50 -9q25 0 49 9t42.5 25.5t30 39.5t11.5 52q0 31 -11 54.5t-29.5 39.5t-42.5 24t-49 8zM243 319
q-29 0 -55 -9.5t-46 -27t-31.5 -41.5t-11.5 -54q0 -60 38.5 -95.5t105.5 -35.5q63 0 102.5 35t39.5 98q0 29 -11 53t-30 41t-45 26.5t-56 9.5z" />
    <glyph glyph-name="nine" unicode="9" horiz-adv-x="487" 
d="M439 175q0 -42 -16.5 -75t-44.5 -56.5t-65 -36t-79 -12.5q-64 0 -108 20t-73 48l40 53q29 -28 63 -42.5t76 -14.5q21 0 45 7t45 22.5t34.5 41t13.5 63.5v134q-55 -33 -98 -48.5t-75 -15.5q-75 0 -117.5 45.5t-42.5 127.5v77q0 42 16.5 75.5t44 57.5t64.5 37t78 13
q40 0 76 -12.5t63.5 -35.5t43.5 -56t16 -74v-343zM104 443q0 -59 28.5 -86.5t72.5 -27.5q38 0 79.5 19.5t85.5 45.5v108q0 36 -12 61t-31 40.5t-42 23t-45 7.5t-46 -7.5t-44 -23.5t-33 -41t-13 -60v-59z" />
    <glyph glyph-name="colon" unicode=":" horiz-adv-x="225" 
d="M62 46q0 17 12.5 32t35.5 15t37 -15t14 -32q0 -21 -13.5 -36t-36.5 -15t-36 14t-13 37zM62 358q0 18 12.5 33t35.5 15t37 -15t14 -33q0 -21 -13.5 -36t-36.5 -15t-36 14t-13 37z" />
    <glyph glyph-name="semicolon" unicode=";" horiz-adv-x="225" 
d="M62 358q0 18 12.5 33t35.5 15t37 -15t14 -33q0 -21 -13.5 -36t-36.5 -15t-36 14t-13 37zM58 43q0 19 14 33t37 14q29 0 42.5 -20.5t13.5 -46.5q0 -23 -7 -44.5t-19 -39.5t-28 -32t-33 -22l-24 29q22 16 34 35t14 45q-20 1 -32 15t-12 34z" />
    <glyph glyph-name="less" unicode="&#x3c;" horiz-adv-x="487" 
d="M445 71l-404 193v48l404 192v-56l-341 -160q10 -4 36.5 -16.5l61 -29l73 -35l73 -34.5l61 -28.5t36.5 -16.5v-57z" />
    <glyph glyph-name="equal" unicode="=" horiz-adv-x="487" 
d="M29 349v52h428v-52h-428zM29 164v53h428v-53h-428z" />
    <glyph glyph-name="greater" unicode="&#x3e;" horiz-adv-x="487" 
d="M41 128q10 4 36.5 16.5l60.5 28.5l73 34.5l73 35l60.5 28.5t36.5 17l-340 160v56l404 -192v-48l-404 -193v57z" />
    <glyph glyph-name="question" unicode="?" horiz-adv-x="446" 
d="M208 699q41 0 75 -13t58.5 -35.5t38 -53.5t13.5 -67q0 -44 -22.5 -82t-49.5 -73.5t-49.5 -71t-22.5 -74.5v-54h-64v53q0 35 10 63t25 52.5t33 46.5t33 43.5t25 43.5t10 48q0 48 -32.5 80t-88.5 32q-38 0 -74 -12t-63 -32l-33 52q43 29 86 41.5t92 12.5zM172 45
q0 17 12 32t35 15t36.5 -15t13.5 -32q0 -20 -13 -34.5t-36 -14.5t-35.5 14t-12.5 35z" />
    <glyph glyph-name="at" unicode="@" horiz-adv-x="834" 
d="M798 366q0 -54 -14.5 -94t-38 -66t-52.5 -38.5t-58 -12.5q-32 0 -63.5 13.5t-43.5 43.5q-40 -23 -77 -36.5t-70 -13.5q-54 0 -88 30t-34 84q0 32 13.5 54t34 35.5t44 19.5t43.5 6h123v28q0 26 -7.5 43t-21 26.5t-32.5 13.5t-41 4q-19 0 -45 -6.5t-58 -29.5l-31 41
q36 27 70.5 37t65.5 10q154 0 154 -135v-165q1 -20 17.5 -37.5t50.5 -17.5q20 0 39.5 10.5t34.5 31t24.5 51t9.5 71.5q0 63 -21 117.5t-60.5 94t-95.5 62.5t-126 23q-71 0 -133.5 -24.5t-109.5 -67t-74.5 -101t-27.5 -126.5q0 -69 24 -127.5t67 -101.5t102 -67t129 -24
q30 0 59.5 5t68.5 21l18 -47q-45 -18 -82.5 -23t-63.5 -5q-81 0 -149.5 27.5t-118 76.5t-77.5 116.5t-28 147.5t31.5 147.5t85.5 117t126 77t153 27.5q84 0 149.5 -27t111 -74.5t69.5 -110.5t24 -135zM517 343h-110q-14 0 -30 -2t-29.5 -9t-22.5 -20t-9 -35
q0 -33 21.5 -49.5t53.5 -16.5q30 0 64 15.5t62 33.5v83z" />
    <glyph glyph-name="A" unicode="A" horiz-adv-x="583" 
d="M493 0l-27 80l-27 80h-295l-54 -160h-74l119.5 344.5l119.5 344.5h74l240 -689h-76zM290 598l-25.5 -80l-35 -106.5l-35.5 -106.5l-27 -81h250q-9 30 -26 81l-36 106.5l-36 106.5l-26 80h-3z" />
    <glyph glyph-name="B" unicode="B" horiz-adv-x="584" 
d="M540 195q0 -37 -12.5 -72t-37 -62.5t-60.5 -44t-83 -16.5h-290v689h279q48 0 84 -14.5t60 -39t36.5 -56.5t12.5 -68q0 -21 -5 -42.5t-16 -41t-29.5 -36.5t-46.5 -29q29 -12 49.5 -30.5t33.5 -41t19 -47.5t6 -48zM458 509q0 31 -11 53.5t-29.5 36t-43.5 20t-53 6.5h-194
v-231h204q24 0 47 7.5t41 21.5t28.5 35.5t10.5 50.5zM470 195q0 31 -11.5 56t-30.5 42.5t-44 27t-51 9.5h-206v-267h206q63 0 100 33.5t37 98.5z" />
    <glyph glyph-name="C" unicode="C" horiz-adv-x="515" 
d="M298 696q110 0 186 -57l-36 -55q-30 23 -69.5 35t-80.5 12q-33 0 -64 -10t-56 -31t-40 -54.5t-15 -80.5v-220q0 -47 15.5 -80.5t40 -55t55.5 -32t62 -10.5q42 0 82 11.5t72 37.5l35 -54q-29 -23 -78 -41t-109 -18q-53 0 -97.5 16t-77.5 46t-51.5 72t-18.5 94v249
q0 51 19 92.5t52 71.5t77.5 46t96.5 16z" />
    <glyph glyph-name="D" unicode="D" horiz-adv-x="593" 
d="M543 224q0 -50 -17.5 -91.5t-48 -71t-73 -45.5t-92.5 -16h-255v689h257q51 0 93 -16t72 -45t47 -71t17 -93v-240zM471 451q0 48 -15 81t-39 53.5t-54.5 30t-61.5 9.5h-174v-563h168q31 0 62.5 9t56.5 30t41 54t16 81v215z" />
    <glyph glyph-name="E" unicode="E" horiz-adv-x="545" 
d="M59 0v689h452v-64h-382v-246h328v-64h-328v-252h382v-63h-452z" />
    <glyph glyph-name="F" unicode="F" horiz-adv-x="526" 
d="M129 625v-246h328v-64h-328v-315h-70v689h452v-64h-382z" />
    <glyph glyph-name="G" unicode="G" horiz-adv-x="565" 
d="M513 78q-43 -45 -99 -65t-114 -20q-53 0 -98.5 16t-79 46t-52.5 72t-19 94v249q0 51 19.5 92.5t53.5 71.5t80.5 46t100.5 16t101 -14t85 -43l-36 -55q-29 23 -69.5 35t-80.5 12q-35 0 -67.5 -10t-58.5 -31t-41.5 -54.5t-15.5 -80.5v-220q0 -47 15 -80.5t39.5 -55
t56.5 -32t66 -10.5q24 0 63 8t81 41v182h-115v65h185v-275v0z" />
    <glyph glyph-name="H" unicode="H" horiz-adv-x="607" 
d="M480 0v318h-356v-318h-70v689h70v-307h356v307h73v-689h-73z" />
    <glyph glyph-name="I" unicode="I" horiz-adv-x="234" 
d="M82 0v689h70v-689h-70z" />
    <glyph glyph-name="J" unicode="J" horiz-adv-x="513" 
d="M430 223q0 -52 -17 -94.5t-48.5 -72.5t-75 -46.5t-95.5 -16.5q-47 0 -94 12.5t-80 35.5l34 56q67 -40 131 -40q38 0 70 10.5t55.5 32t36.5 56t13 82.5v451h70v-466v0z" />
    <glyph glyph-name="K" unicode="K" horiz-adv-x="556" 
d="M130 297l318 392h85l-26 -32l-38.5 -47.5l-44.5 -55l-44.5 -55l-38.5 -47.5l-26 -32l245 -420h-82l-26 44.5l-37 63.5l-42.5 73l-42.5 73l-36.5 63.5l-25.5 44.5l-142 -172v-190h-70v689h70v-392h4z" />
    <glyph glyph-name="L" unicode="L" horiz-adv-x="519" 
d="M62 0v689h70v-626h380v-63h-450z" />
    <glyph glyph-name="M" unicode="M" horiz-adv-x="725" 
d="M368 194l235 495h65v-689h-70v523h-3l-202 -417h-55l-204 410h-4l-4 -516h-70v689h68l240 -495h4z" />
    <glyph glyph-name="N" unicode="N" horiz-adv-x="629" 
d="M501 134v555h70v-689h-70l-28 42l-43.5 65.5l-54 81l-59.5 89l-59.5 89l-54.5 80.5l-44 64.5l-28 40.5h-3v-552h-70v689h68l40.5 -61l65 -98l77.5 -116.5l78 -117l66.5 -99.5t43.5 -63h5z" />
    <glyph glyph-name="O" unicode="O" horiz-adv-x="600" 
d="M549 223q0 -53 -18.5 -95.5t-51.5 -72.5t-79 -46t-100 -16q-56 0 -101.5 16.5t-78 46.5t-50.5 72.5t-18 95.5v241q0 51 17.5 93.5t50 73t78.5 47.5t102 17q55 0 101 -17t79 -47.5t51 -73t18 -93.5v-242zM478 455q0 46 -14.5 79t-39 54.5t-56.5 32t-68 10.5
q-37 0 -69.5 -10.5t-56.5 -32t-38 -54.5t-14 -79v-223q0 -47 15 -80t40 -54t57 -31t66 -10q36 0 68.5 10t56.5 31.5t38.5 54.5t14.5 79v223z" />
    <glyph glyph-name="P" unicode="P" horiz-adv-x="547" 
d="M526 487q0 -36 -13 -72t-38 -64.5t-60.5 -46.5t-81.5 -18h-209v-286h-70v689h279q49 0 85.5 -18t60.5 -46.5t35.5 -65t11.5 -72.5zM455 487q0 31 -10.5 56.5t-29 43.5t-43.5 28t-53 10h-195v-273h195q28 0 53 9.5t43.5 26.5t29 42t10.5 57z" />
    <glyph glyph-name="Q" unicode="Q" horiz-adv-x="600" 
d="M549 223q0 -48 -16 -88t-44.5 -69.5t-68 -48t-87.5 -22.5v-25q0 -51 22.5 -68t62.5 -17h10t10 1v-57q-10 -2 -19 -2h-17q-40 0 -66 10.5t-41 28.5t-21 43.5t-6 55.5v30q-49 4 -89 22t-68 48t-43.5 70t-15.5 89v241q0 51 17.5 93.5t50 73t78.5 47.5t102 17q55 0 101 -17
t79 -47.5t51 -73t18 -93.5v-242zM478 455q0 46 -14.5 79t-39 54.5t-56.5 32t-68 10.5q-37 0 -69.5 -10.5t-56.5 -32t-38 -54.5t-14 -79v-223q0 -47 15 -80t40 -54t57 -31t66 -10q36 0 68.5 10t56.5 31.5t38.5 54.5t14.5 79v223z" />
    <glyph glyph-name="R" unicode="R" horiz-adv-x="564" 
d="M126 0h-70v689h278q51 0 87.5 -18t60.5 -46.5t35.5 -65t11.5 -72.5q0 -29 -8.5 -58t-25 -54t-40.5 -45t-56 -31l132 -299h-78l-122 286h-205v-286zM126 624v-273h195q29 0 54.5 9.5t44 27t29 42.5t10.5 57q0 31 -10.5 56.5t-29 43.5t-44 27.5t-54.5 9.5h-195z" />
    <glyph glyph-name="S" unicode="S" horiz-adv-x="546" 
d="M515 186q0 -45 -17.5 -80.5t-49 -60t-76 -38t-98.5 -13.5q-69 0 -128.5 19t-115.5 58l37 52q46 -29 99 -47.5t109 -18.5q75 0 121 33.5t46 95.5q0 37 -16 60t-41.5 37.5t-57 22.5t-62.5 14q-41 7 -79.5 20t-68.5 34.5t-48.5 54t-18.5 80.5q0 42 15 77t43.5 60.5t69 39.5
t91.5 14q57 0 112 -10.5t104 -39.5l-32 -60q-44 24 -92 35t-95 11q-29 0 -55.5 -7.5t-47 -23.5t-32.5 -40.5t-12 -57.5q0 -32 16 -53t41 -35t55 -22t59 -14q45 -10 86 -22.5t71.5 -34t49 -55t18.5 -85.5z" />
    <glyph glyph-name="T" unicode="T" horiz-adv-x="518" 
d="M295 624v-624h-71v624h-208v65h485v-65h-206z" />
    <glyph glyph-name="U" unicode="U" horiz-adv-x="600" 
d="M550 218q0 -52 -19 -93.5t-53 -71t-79.5 -45t-97.5 -15.5q-53 0 -98.5 15.5t-79 45t-52.5 71t-19 94.5v470h71v-457q0 -47 14.5 -80t39.5 -54t57 -31t67 -10q34 0 66.5 10t57 31t39.5 54t15 80v457h71v-471v0z" />
    <glyph glyph-name="V" unicode="V" horiz-adv-x="555" 
d="M280 106l40.5 132.5l40.5 132.5l102 318h76l-112.5 -344.5l-111.5 -344.5h-78l-224 689h77l51.5 -163l51.5 -163l82 -257h5z" />
    <glyph glyph-name="W" unicode="W" horiz-adv-x="850" 
d="M419 558l-17.5 -68.5l-26 -102l-30.5 -117.5l-30 -115.5l-25 -96t-16 -58.5h-81l-183 689h76l146 -585h3l150 585h74l26 -100.5l30 -118l39.5 -155l54.5 -211.5h3l15 61l25.5 101.5l31 122.5l31.5 124.5l26.5 106.5t17.5 69h75l-183 -689h-81l-16 60l-25 96.5l-30 115.5
l-31 117.5l-27 101.5l-18 67h-4z" />
    <glyph glyph-name="X" unicode="X" horiz-adv-x="526" 
d="M434 0l-171 294l-171 -294h-82l213 353l-199 336h82l157 -276l157 276h81l-199 -336l214 -353h-82z" />
    <glyph glyph-name="Y" unicode="Y" horiz-adv-x="514" 
d="M292 0h-71v261l-104 214l-105 214h77l16 -33.5l28 -60l34.5 -74l36 -76l32 -66.5t22.5 -45l18 39l30 64l35.5 76l35 75.5l29.5 63l18 37.5h75l-207 -426v-263z" />
    <glyph glyph-name="Z" unicode="Z" horiz-adv-x="520" 
d="M483 628l-362 -565h361v-63h-444v62l361 563h-346v64h430v-61z" />
    <glyph glyph-name="bracketleft" unicode="[" horiz-adv-x="248" 
d="M74 -107v805h156v-46h-96v-714h96v-45h-156z" />
    <glyph glyph-name="backslash" unicode="\" horiz-adv-x="305" 
d="M-2 725h50l252 -767h-51z" />
    <glyph glyph-name="bracketright" unicode="]" horiz-adv-x="248" 
d="M31 -107v45h95v714h-95v46h155v-805h-155z" />
    <glyph glyph-name="asciicircum" unicode="^" horiz-adv-x="484" 
d="M34 330l187 364h48l186 -363h-56l-155 305q-4 -9 -15.5 -32.5l-27.5 -54.5l-33.5 -65.5l-33.5 -65.5l-27.5 -55t-15.5 -33h-57z" />
    <glyph glyph-name="underscore" unicode="_" horiz-adv-x="497" 
d="M0 -118v49h497v-49h-497z" />
    <glyph glyph-name="quoteleft" unicode="&#x2018;" horiz-adv-x="258" 
d="M187 689q-21 -16 -33 -35t-14 -45h1q18 0 30.5 -14t12.5 -34q0 -19 -14 -33.5t-37 -14.5q-29 0 -43 21t-14 47q0 22 7.5 43.5t19.5 39.5t28 32t33 22z" />
    <glyph glyph-name="a" unicode="a" horiz-adv-x="481" 
d="M367 54q-65 -38 -106 -48.5t-70 -10.5q-70 0 -113 37.5t-43 106.5q0 40 17.5 67.5t43.5 44.5t56 24.5t56 7.5h161v44q0 58 -31.5 85t-93.5 27q-31 0 -68 -8.5t-75 -37.5l-33 50q45 33 90.5 44.5t90.5 11.5q99 0 142 -44t43 -126v-329h-56l-9 53zM369 228h-146
q-18 0 -39 -2.5t-39 -12t-30 -27t-12 -47.5q0 -44 29 -64.5t71 -20.5q20 0 42 6t44 15t42.5 20t37.5 21v112z" />
    <glyph glyph-name="b" unicode="b" horiz-adv-x="491" 
d="M447 167q0 -42 -12 -74t-33.5 -54t-51 -33t-65.5 -11q-14 0 -30 1.5t-36 7.5t-45.5 17t-58.5 30l-9 -51h-57v716h66v-282q36 21 62.5 34t46.5 20t35.5 9t29.5 2q78 0 118 -44t40 -129v-159zM381 315q0 66 -26.5 93t-74.5 27q-32 0 -76.5 -20.5t-88.5 -49.5v-248
q20 -14 42.5 -25t44.5 -18.5t42.5 -12t35.5 -4.5q47 0 74 28.5t27 92.5v137z" />
    <glyph glyph-name="c" unicode="c" horiz-adv-x="420" 
d="M241 500q41 0 83.5 -11t74.5 -44l-40 -50q-31 27 -60.5 35t-53.5 8q-23 0 -46.5 -7t-42.5 -22.5t-30.5 -41t-11.5 -61.5v-118q0 -36 11.5 -61t30 -40.5t42 -23t47.5 -7.5q23 0 56 9t56 30l41 -47q-33 -29 -73.5 -41t-81.5 -12q-44 0 -80 13t-61.5 36.5t-39.5 56t-14 71.5
v147q0 41 15 74.5t41.5 57t61.5 36.5t75 13z" />
    <glyph glyph-name="d" unicode="d" horiz-adv-x="491" 
d="M387 0l-9 58q-32 -20 -57.5 -32.5t-46 -19t-37 -9t-30.5 -2.5q-72 0 -116 41.5t-44 130.5v158q0 84 48.5 129t124.5 45q28 0 66 -7t92 -29v253h65v-716h-56zM378 397q-90 40 -152 40q-53 1 -83.5 -28.5t-30.5 -94.5v-140q0 -65 26.5 -91t73.5 -26q32 0 78 19t88 48v273z
" />
    <glyph glyph-name="e" unicode="e" horiz-adv-x="475" 
d="M114 221v-39q0 -35 11.5 -59.5t30.5 -40t43.5 -22.5t51.5 -7q32 0 65.5 12t62.5 39l41 -45q-35 -35 -79 -49.5t-92 -14.5q-42 0 -78.5 11t-63.5 33.5t-43 56.5t-16 79v134q0 43 14.5 78.5t40.5 60t62 38t79 13.5t78.5 -13t61 -37.5t39.5 -58.5t14 -76v-93h-323zM371 306
q0 36 -10.5 61t-28.5 41t-41 23.5t-47 7.5q-25 0 -48.5 -8t-41.5 -24t-29 -40.5t-11 -58.5v-32h257v30z" />
    <glyph glyph-name="f" unicode="f" horiz-adv-x="293" 
d="M154 434v-434h-65v434h-61v60h61v99q0 31 9.5 54.5t26 39t39 23t47.5 7.5h81v-58h-72q-20 0 -33 -6t-20.5 -16.5t-10 -24t-2.5 -29.5v-89h138v-60h-138z" />
    <glyph glyph-name="g" unicode="g" horiz-adv-x="489" 
d="M205 499q13 0 29.5 -2t37.5 -8.5t46 -18.5t57 -32l9 56h57v-528q0 -42 -16 -75t-44 -55t-65.5 -33.5t-79.5 -11.5t-88 13t-82 44l42 49q12 -11 28 -19t33 -14t34.5 -9t32.5 -3q27 0 52.5 7t44.5 22.5t30.5 40.5t11.5 61v74q-60 -38 -101.5 -50t-70.5 -12q-72 -1 -116 43
t-44 128v160q0 42 12 74.5t33.5 54t51.5 33t65 11.5zM375 369q-45 32 -88.5 49t-75.5 17q-48 0 -75 -27.5t-27 -93.5v-136q0 -65 26 -93t74 -28q34 0 78.5 18t87.5 46v248z" />
    <glyph glyph-name="h" unicode="h" horiz-adv-x="488" 
d="M291 499q78 0 116.5 -44t38.5 -129v-326h-66v315q0 66 -26.5 93t-73.5 27q-33 0 -78.5 -19t-87.5 -46v-370h-66v716h66v-284q64 41 106 54t71 13z" />
    <glyph glyph-name="i" unicode="i" horiz-adv-x="204" 
d="M144 649q0 -17 -12.5 -29.5t-29.5 -12.5t-29.5 12.5t-12.5 29.5q0 18 12.5 30t29.5 12t29.5 -12t12.5 -30zM69 0v494h65v-494h-65z" />
    <glyph glyph-name="j" unicode="j" horiz-adv-x="232" 
d="M167 649q0 -17 -12.5 -29.5t-29.5 -12.5t-29 12.5t-12 29.5q0 18 12 30t29 12t29.5 -12t12.5 -30zM92 493h66v-562q0 -74 -32.5 -105.5t-95.5 -31.5h-44v59h35q41 0 56 18.5t15 69.5v552z" />
    <glyph glyph-name="k" unicode="k" horiz-adv-x="465" 
d="M47 0v716h65v-400h93q31 0 57.5 12t46.5 54l56 114h73l-58 -126q-14 -29 -30 -49t-48 -32q21 -5 34.5 -15.5t23 -24t15.5 -29.5t11 -32l64 -188h-72l-56 165q-9 27 -19 44t-22 26.5t-27.5 13t-37.5 3.5h-104v-252h-65z" />
    <glyph glyph-name="l" unicode="l" horiz-adv-x="264" 
d="M152 123q0 -43 17.5 -55t58.5 -10l2 -60q-11 -2 -21 -2.5t-20 -0.5q-60 0 -81 30.5t-21 88.5v602h65v-593z" />
    <glyph glyph-name="m" unicode="m" horiz-adv-x="748" 
d="M267 499q51 0 80.5 -22.5t43.5 -57.5q31 26 56 42t45.5 24.5t36 11t29.5 2.5q71 0 109 -40.5t38 -121.5v-337h-66v321q0 56 -20.5 85t-71.5 29q-31 0 -66 -18.5t-77 -52.5q2 -11 2.5 -19.5t0.5 -19.5v-325h-66v323q0 112 -86 112q-30 0 -64 -14t-82 -49v-372h-66v494h57
l9 -63q28 21 50.5 34.5t41.5 21t35 10t31 2.5z" />
    <glyph glyph-name="n" unicode="n" horiz-adv-x="489" 
d="M290 499q73 0 113.5 -44t40.5 -129v-326h-66v315q0 66 -27.5 93.5t-74.5 26.5q-33 0 -76.5 -18.5t-87.5 -47.5v-369h-66v494h57l9 -62q67 41 107.5 54t70.5 13z" />
    <glyph glyph-name="o" unicode="o" horiz-adv-x="492" 
d="M446 174q0 -42 -15 -75.5t-42 -56.5t-63.5 -35t-79.5 -12t-79.5 12t-63 35.5t-41.5 56.5t-15 75v146q0 42 16 75t43 56t63.5 35.5t77.5 12.5q43 0 79.5 -12.5t63 -35.5t41.5 -56t15 -75v-146zM381 306q0 36 -12 61t-31.5 41t-43 23t-46.5 7q-24 0 -48 -7t-43.5 -23
t-31.5 -41t-12 -61v-118q0 -36 11 -61.5t29.5 -41.5t43 -23t51.5 -7q25 0 48.5 7.5t42.5 23t30.5 41t11.5 61.5v118z" />
    <glyph glyph-name="p" unicode="p" horiz-adv-x="492" 
d="M106 492l9 -58q32 20 58 33t46.5 20t36.5 9.5t30 2.5q72 0 116.5 -42t44.5 -131v-158q0 -84 -46 -129t-127 -45q-29 0 -66.5 6t-92.5 32v-232h-65v692h56zM115 96q51 -23 86 -32t67 -9q52 0 82.5 27.5t30.5 92.5v143q0 65 -27 91t-73 26q-15 0 -35.5 -5t-42.5 -14
t-44.5 -21.5t-43.5 -26.5v-272z" />
    <glyph glyph-name="q" unicode="q" horiz-adv-x="487" 
d="M377 -201v256q-32 -20 -58 -31.5t-46.5 -18t-37 -8.5t-30.5 -2q-72 0 -116 43.5t-44 128.5v160q0 84 45 128t116 44q14 0 30 -2t36.5 -8t46 -17.5t58.5 -30.5l9 52h56v-694h-65zM377 375q-45 29 -90 45.5t-75 16.5q-48 0 -75 -29t-27 -92v-138q0 -64 26.5 -92.5
t74.5 -27.5q32 0 75.5 16.5t90.5 48.5v252z" />
    <glyph glyph-name="r" unicode="r" horiz-adv-x="314" 
d="M311 428q-67 -7 -111 -26.5t-68 -35.5v-366h-66v494h58l8 -73h1q14 13 34.5 27t44 25t49 18.5t50.5 8.5v-72z" />
    <glyph glyph-name="s" unicode="s" horiz-adv-x="447" 
d="M231 49q21 0 42 4.5t38 15t27.5 27.5t10.5 42q0 32 -21 49t-59 26q-35 9 -74.5 15.5t-72.5 20t-54.5 38t-21.5 68.5q0 32 13 58.5t36 45.5t55.5 29.5t70.5 10.5q54 0 95 -10.5t78 -36.5l-16.5 -24.5l-16.5 -24.5q-33 20 -67 29t-72 9q-51 0 -82 -24t-31 -62
q0 -18 9 -30.5t24.5 -21t37 -14t46.5 -10.5l64.5 -13t61.5 -22t45.5 -40.5t17.5 -67.5q0 -32 -13.5 -58t-38.5 -45t-59.5 -29t-77.5 -10q-50 0 -98 11.5t-95 46.5l35 49q37 -29 76.5 -40.5t86.5 -11.5z" />
    <glyph glyph-name="t" unicode="t" horiz-adv-x="349" 
d="M337 9q-26 -8 -53 -11t-41 -3q-76 0 -108 34.5t-32 115.5v289h-73v60h74l17 116h47v-116h142v-60h-142v-270q0 -62 20.5 -84.5t63.5 -22.5q15 0 34.5 2t40.5 6z" />
    <glyph glyph-name="u" unicode="u" horiz-adv-x="492" 
d="M386 0l-9 60q-32 -20 -57 -32.5t-45 -20t-36 -10t-31 -2.5q-78 0 -120.5 43.5t-42.5 128.5v327h66v-317q0 -65 28 -92.5t75 -27.5q33 0 75.5 19t87.5 51v367h67v-494h-58z" />
    <glyph glyph-name="v" unicode="v" horiz-adv-x="444" 
d="M224 88l62 188l74 217h71l-177 -493h-66l-88.5 246l-88.5 247h71l72 -212l20 -59t18 -55t15 -46.5l11 -32.5h6z" />
    <glyph glyph-name="w" unicode="w" horiz-adv-x="687" 
d="M344 364l-54 -164l-66 -200h-65l-17.5 59l-25.5 87l-29.5 100.5l-29 101l-25 87l-17.5 59.5h68l10 -36.5l14.5 -54l14.5 -54l10 -36.5l60 -216h2l75 224q3 7 9 25l13 38.5l13 38t8 25.5h68l58 -174q2 -5 10.5 -31.5l19 -57l19 -57t10.5 -31.5h3l56 208l51 189h66l-17 -59
l-24.5 -87.5l-28.5 -101l-28.5 -100.5l-24 -87t-16.5 -59h-66l-68 205q-5 13 -13.5 38l-17 50.5l-15.5 45.5t-8 25h-2z" />
    <glyph glyph-name="x" unicode="x" horiz-adv-x="418" 
d="M329 0l-123 200l-124 -200h-79l166 253l-157 241h80l115 -188l116 188h79l-159 -240l166 -254h-80z" />
    <glyph glyph-name="y" unicode="y" horiz-adv-x="448" 
d="M114 -200l73 206l-35 32l-143 455h70q5 -14 14.5 -45.5l19.5 -66l19.5 -66t14.5 -45.5l65 -210h2l75 210l16.5 45.5l23.5 66l23 66l16 45.5h70l-30.5 -83.5l-44.5 -122l-52 -141l-51.5 -141l-44.5 -122l-30 -83.5h-71z" />
    <glyph glyph-name="z" unicode="z" horiz-adv-x="435" 
d="M36 0v53l279 382h-264v58h345v-54l-278 -381h278v-58h-360z" />
    <glyph glyph-name="braceleft" unicode="{" horiz-adv-x="248" 
d="M183 -106q-38 0 -62.5 25.5t-24.5 79.5v139q0 59 -16 94.5t-58 43.5v39q21 4 35.5 17.5t23 32.5t12.5 42.5t4 47.5v135q0 48 24 77t62 29h57v-42h-37q-16 0 -26 -8.5t-15.5 -22t-7.5 -29t-2 -30.5v-130q0 -32 -7.5 -56t-18.5 -40.5t-23 -26.5t-22 -13v-2q10 -3 22.5 -13
t23.5 -26.5t18 -40t7 -53.5v-137q0 -15 2 -31t7.5 -29.5t15.5 -22t26 -8.5h37v-41h-57z" />
    <glyph glyph-name="bar" unicode="|" horiz-adv-x="189" 
d="M71 -162v878h50v-878h-50z" />
    <glyph glyph-name="braceright" unicode="}" horiz-adv-x="248" 
d="M238 276q-42 -8 -58 -43.5t-16 -94.5v-139q0 -48 -24 -76.5t-62 -28.5h-59v41h38q16 0 26 8.5t15.5 22t7.5 29.5t2 31v137q0 30 7 53.5t18 40t23 26.5t23 13v2q-10 3 -22.5 13t-23 26.5t-18 40.5t-7.5 56v130q0 15 -1 30.5t-6 29t-15.5 22t-28.5 8.5h-38v39h57
q44 0 65.5 -29t21.5 -74v-135q0 -24 3.5 -47.5t12.5 -42.5t23.5 -32.5t35.5 -17.5v-39v0z" />
    <glyph glyph-name="asciitilde" unicode="~" horiz-adv-x="487" 
d="M464 304q-24 -38 -51.5 -58.5t-70.5 -20.5q-23 0 -48.5 9.5t-51 21t-50.5 21t-46 9.5q-26 0 -43.5 -13t-36.5 -36l-41 31q24 38 55.5 56.5t66.5 18.5q25 0 50 -9.5t50 -21t49 -21t48 -9.5q26 0 42.5 13t35.5 39l42 -30v0z" />
    <glyph glyph-name="sterling" unicode="&#xa3;" horiz-adv-x="487" 
d="M47 50q20 27 36 53t27 54.5t17 62t6 75.5h-87v51h74q-4 24 -11.5 45.5l-15 43t-13 43t-5.5 44.5q0 34 12 65.5t35 55.5t56.5 38.5t77.5 14.5q65 0 110.5 -20t80.5 -68q-12 -9 -25 -20l-25 -21q-29 38 -65 54t-76 16q-17 0 -36 -5.5t-36 -19t-28 -35.5t-11 -55
q0 -22 5 -43t12.5 -42t14.5 -43.5t12 -47.5h155v-51h-150q-1 -63 -14.5 -121.5t-53.5 -115.5h326v-58h-405v50z" />
    <glyph glyph-name="yen" unicode="&#xa5;" horiz-adv-x="487" 
d="M246 343l78 185l68 161h75l-76 -172.5l-76 -172.5h132v-47h-152l-15 -34v-59h167v-44h-167v-160h-71v160h-165v44h165v57l-16 36h-149v47h129l-153 345h77l70 -167l73 -179h6z" />
    <glyph glyph-name="section" unicode="&#xa7;" horiz-adv-x="442" 
d="M90 26q24 -17 52 -27.5t62 -10.5q22 0 42.5 5.5t36 16.5t24.5 28t9 40q0 41 -28.5 66t-90.5 51q-34 14 -61 28.5t-46.5 33t-30 41.5t-10.5 54q0 30 15 62t48 58q-16 16 -27 38.5t-11 48.5q0 34 12.5 60.5t34 45.5t50.5 29t63 10q36 0 71.5 -10t61.5 -27
q-8 -12 -14.5 -24.5l-13.5 -25.5q-23 17 -49.5 25.5t-58.5 8.5q-19 0 -37 -5.5t-31.5 -16t-21.5 -26t-8 -34.5q0 -53 62 -83q34 -17 70 -33t65 -36.5t47.5 -48.5t18.5 -68q0 -72 -56 -122q14 -17 24 -40t10 -52q0 -36 -13 -64t-35.5 -47t-53.5 -29t-67 -10q-39 0 -76.5 12
t-63.5 32zM105 358q0 -24 10 -40t26 -27.5t35 -20l37 -16.5l40.5 -18.5t37.5 -20.5q24 15 34.5 36t10.5 44q0 30 -17.5 52t-44.5 39t-59 30t-61 26q-21 -17 -35 -39t-14 -45z" />
    <glyph glyph-name="quotesingle" unicode="'" horiz-adv-x="234" 
d="M94 514v182h53v-182h-53z" />
    <glyph glyph-name="quotedblleft" unicode="&#x201c;" horiz-adv-x="369" 
d="M174 689q-21 -16 -33 -35t-14 -45h1q18 0 30 -14t12 -34q0 -19 -13.5 -33.5t-36.5 -14.5q-29 0 -43 21t-14 47q0 22 7 43.5t19 39.5t28 32t34 22zM311 689q-21 -16 -33 -35t-14 -45h1q18 0 30 -14t12 -34q0 -19 -13.5 -33.5t-36.5 -14.5q-29 0 -43 21t-14 47q0 22 7 43.5
t19 39.5t28 32t34 22z" />
    <glyph glyph-name="guillemotleft" unicode="&#xab;" horiz-adv-x="433" 
d="M329 46l-122 180l122 179h61l-119 -179l119 -180h-61zM174 46l-121 180l122 179h62l-120 -179l120 -180h-63z" />
    <glyph glyph-name="endash" unicode="&#x2013;" horiz-adv-x="497" 
d="M20 236v61h457v-61h-457z" />
    <glyph glyph-name="dagger" unicode="&#x2020;" horiz-adv-x="457" 
d="M260 400v-590h-64v590h-173v54h173v242h64v-242h174v-54h-174z" />
    <glyph glyph-name="periodcentered" unicode="&#xb7;" horiz-adv-x="205" 
d="M105 325q22 0 37.5 -15.5t15.5 -38.5q0 -22 -15 -38t-38 -16t-39 16t-16 38q0 23 16 38.5t39 15.5z" />
    <glyph glyph-name="bullet" unicode="&#x2022;" horiz-adv-x="381" 
d="M305 274q0 -23 -9 -43t-24 -35t-35.5 -24t-43.5 -9t-43.5 9t-35.5 24t-24 35t-9 43q0 24 9 44.5t24 35.5t35.5 24t43.5 9t43.5 -9t35.5 -24t24 -35.5t9 -44.5z" />
    <glyph glyph-name="quotedblright" unicode="&#x201d;" horiz-adv-x="369" 
d="M207 671q0 20 13.5 34.5t36.5 14.5q29 0 43 -21.5t14 -47.5q0 -22 -7.5 -43t-19.5 -39t-28 -32t-33 -23l-23 30q21 16 33 35t14 45q-20 0 -31.5 13.5t-11.5 33.5zM69 671q0 20 14 34.5t37 14.5q29 0 43 -21.5t14 -47.5q0 -22 -7 -43t-19 -39t-28 -32t-34 -23l-23 30
q20 16 32.5 35t14.5 45q-20 0 -32 13.5t-12 33.5z" />
    <glyph glyph-name="guillemotright" unicode="&#xbb;" horiz-adv-x="433" 
d="M54 46l118 180l-118 179h61l123 -179l-122 -180h-62zM208 46l119 180l-119 179h61l122 -179l-122 -180h-61z" />
    <glyph glyph-name="ellipsis" unicode="&#x2026;" horiz-adv-x="709" 
d="M61 46q0 17 12.5 32t35.5 15t37 -15t14 -32q0 -21 -14 -36t-37 -15t-35.5 14t-12.5 37zM303 46q0 17 13 32t36 15t37 -15t14 -32q0 -21 -14 -36t-37 -15t-36 14t-13 37zM550 46q0 17 13 32t36 15t37 -15t14 -32q0 -21 -13.5 -36t-37.5 -15q-23 0 -36 14t-13 37z" />
    <glyph glyph-name="grave" unicode="`" horiz-adv-x="487" 
d="M299 557l-99 160l65 22l75 -166z" />
    <glyph glyph-name="dieresis" unicode="&#xa8;" horiz-adv-x="478" 
d="M366 644q0 -17 -12 -28.5t-29 -11.5t-28.5 11.5t-11.5 28.5t11.5 29t28.5 12t29 -12t12 -29zM184 644q0 -17 -12.5 -28.5t-29.5 -11.5q-16 0 -27.5 11.5t-11.5 28.5t11.5 29t27.5 12q17 0 29.5 -12t12.5 -29z" />
    <glyph glyph-name="emdash" unicode="&#x2014;" horiz-adv-x="997" 
d="M20 236v61h957v-61h-957z" />
    <glyph glyph-name="oe" unicode="&#x153;" horiz-adv-x="807" 
d="M447 221v-39q0 -35 11.5 -59.5t30.5 -40t43.5 -22.5t50.5 -7q33 0 66 12t62 39l42 -45q-35 -35 -79.5 -49.5t-92.5 -14.5q-54 0 -98 19t-70 58q-26 -38 -69 -57.5t-98 -19.5q-43 0 -79.5 12t-63 35.5t-41.5 56.5t-15 75v146q0 42 16 75t43 56t63.5 35.5t77.5 12.5
q56 0 99 -20.5t69 -58.5q25 37 66.5 58t94.5 21q43 0 79 -12.5t61.5 -36.5t39.5 -57.5t14 -75.5v-96h-323zM380 311q0 34 -12.5 58t-31.5 39.5t-42.5 22.5t-45.5 7q-24 0 -48 -7t-43.5 -23t-31.5 -41t-12 -61v-118q0 -36 11 -61.5t29.5 -41.5t43 -23t51.5 -7q23 0 46.5 7
t42 21.5t30.5 37.5t13 55v135zM703 306q0 36 -10.5 61t-28 41t-40.5 23.5t-48 7.5q-24 0 -47.5 -8t-41.5 -24t-29 -40.5t-11 -58.5v-32h256v30z" />
    <glyph glyph-name="germandbls" unicode="&#xdf;" horiz-adv-x="491" 
d="M115 0h-65v527q0 43 14 78t39.5 59t59.5 37t75 13q52 0 87 -16t56 -41t30 -54t9 -56q0 -14 -3 -32t-10.5 -36.5t-21.5 -35t-35 -28.5q27 -9 45.5 -26t30 -38.5t16.5 -45.5t5 -46v-90q0 -84 -46 -129t-122 -45h-18.5t-23.5 2l1 57h33q33 0 54.5 10t33.5 27t17 40.5t5 50.5
v80q0 54 -28.5 83.5t-84.5 29.5h-16v56h9q24 0 42 11.5t30 28t18.5 36t6.5 36.5q0 20 -7 40t-21.5 36.5t-37 27t-54.5 10.5q-34 0 -57.5 -11.5t-38 -30t-21 -41t-6.5 -44.5v-530z" />
    <glyph glyph-name="trademark" unicode="&#x2122;" horiz-adv-x="834" 
d="M211 649v-359h-48v359h-125v47h298v-47h-125zM579 412l140 283h48v-405h-47v307h-2q-4 -7 -13 -26t-21.5 -43l-26 -51.5l-26 -52.5l-22.5 -44l-14 -27h-36q-7 11 -24 44.5l-37 72l-38 74l-26 50.5h-3l-2 -304h-47v405h50q5 -9 16 -30.5l25.5 -50l30.5 -60l30 -60
l25.5 -51t16.5 -31.5h3z" />
    <glyph glyph-name="plusminus" unicode="&#xb1;" horiz-adv-x="487" 
d="M269 281v-181h-51v181h-185v51h185v180h51v-180h184v-51h-184zM33 0v51h421v-51h-421z" />
    <glyph glyph-name="divide" unicode="&#xf7;" horiz-adv-x="487" 
d="M294 461q0 -20 -13.5 -34t-33.5 -14t-34.5 14t-14.5 34t14.5 33.5t34.5 13.5q19 0 33 -13.5t14 -33.5zM28 262v50h434v-50h-434zM247 160q19 0 33 -13.5t14 -33.5t-13.5 -34t-33.5 -14t-34.5 14t-14.5 34t14.5 33.5t34.5 13.5z" />
    <glyph glyph-name="degree" unicode="&#xb0;" horiz-adv-x="372" 
d="M315 572q0 -27 -10 -50t-27.5 -40t-41 -27t-50.5 -10t-50.5 10t-41 27t-27.5 40t-10 50t10.5 50.5t28 41t41 27.5t49.5 10q27 0 50.5 -10t41 -27.5t27.5 -41t10 -50.5zM268 572q0 35 -23.5 59.5t-58.5 24.5t-58.5 -24.5t-23.5 -59.5q0 -34 23.5 -58t58.5 -24t58.5 23.5
t23.5 58.5z" />
    <glyph glyph-name="registered" unicode="&#xae;" horiz-adv-x="553" 
d="M484 492q0 -45 -16 -83t-43.5 -65.5t-65.5 -43.5t-82 -16t-81.5 16t-65.5 43.5t-44 65.5t-16 83t16 83.5t44 66.5t65.5 44t81.5 16t82 -16t65.5 -44t43.5 -66.5t16 -83.5zM450 492q0 38 -13.5 71t-36.5 57t-54.5 37.5t-68.5 13.5t-68.5 -13.5t-55 -37.5t-36.5 -57
t-13 -71t13 -70.5t36.5 -56.5t55 -37.5t68.5 -13.5t68.5 13.5t54.5 37.5t36.5 56.5t13.5 70.5zM285 475h-51v-104h-34v242h99q31 0 51.5 -18t20.5 -49q0 -24 -14 -41.5t-37 -24.5l57 -109h-39zM234 583v-76h59q19 0 31.5 10t12.5 29q0 20 -12.5 28.5t-30.5 8.5h-60z" />
    <glyph glyph-name="copyright" unicode="&#xa9;" horiz-adv-x="792" 
d="M399 -9q-74 0 -137.5 26.5t-109.5 73.5t-72 111t-26 139t26.5 139.5t73 111.5t109.5 73.5t136 26.5t136.5 -26.5t110 -73.5t73 -111.5t26.5 -139.5t-26.5 -139t-73 -111t-110 -73.5t-136.5 -26.5zM399 645q-63 0 -116.5 -23.5t-93.5 -64t-62.5 -96.5t-22.5 -120
t22.5 -119t62.5 -95.5t93.5 -64t116.5 -23.5t117 23.5t93.5 64t62 95.5t22.5 119t-22.5 120t-62 96.5t-93.5 64t-117 23.5zM404 555q76 0 127 -39l-26 -40q-20 16 -47 24t-54 8q-22 0 -42.5 -6.5t-37 -20.5t-26.5 -36.5t-10 -53.5v-107q0 -31 10 -53.5t26.5 -36.5t36.5 -21
t41 -7q28 0 55 8t50 25l26 -40q-21 -16 -54.5 -28t-74.5 -12q-36 0 -66.5 11t-53 31.5t-35 49t-12.5 63.5v127q0 35 13 63.5t35.5 48.5t53 31t65.5 11z" />
    <glyph glyph-name="dieresistonos" unicode="&#x385;" horiz-adv-x="478" 
d="M385 644q0 -17 -11.5 -28.5t-28.5 -11.5t-29 11.5t-12 28.5t12 29t29 12t28.5 -12t11.5 -29zM181 644q0 -17 -12 -28.5t-29 -11.5t-28.5 11.5t-11.5 28.5t11.5 29t28.5 12t29 -12t12 -29zM179 578l75 166l65 -22l-99 -160z" />
    <glyph glyph-name="tonos" unicode="&#x384;" horiz-adv-x="487" 
d="M199 573l75 166l66 -22l-100 -160z" />
    <glyph glyph-name="sfthyphen" unicode="&#xad;" horiz-adv-x="381" 
d="M52 237v60h277v-60h-277z" />
    <glyph glyph-name="Gamma" unicode="&#x393;" horiz-adv-x="508" 
d="M130 625v-625h-69v689h451v-64h-382z" />
    <glyph glyph-name="Delta" unicode="&#x394;" horiz-adv-x="583" 
d="M13 0l242 689h73l122 -344.5l121 -344.5h-558zM289 594l-43 -129.5l-44 -129.5l-93 -272h365l-45.5 133l-45.5 133z" />
    <glyph glyph-name="Delta" unicode="&#x2206;" horiz-adv-x="583" 
d="M13 0l242 689h73l122 -344.5l121 -344.5h-558zM289 594l-43 -129.5l-44 -129.5l-93 -272h365l-45.5 133l-45.5 133z" />
    <glyph glyph-name="Theta" unicode="&#x398;" horiz-adv-x="596" 
d="M435 315h-271v68h271v-68zM549 223q0 -53 -18.5 -95.5t-51.5 -72.5t-79 -46t-100 -16q-56 0 -102 16.5t-78.5 46.5t-50.5 72.5t-18 95.5v241q0 51 18 93.5t50.5 73t78.5 47.5t102 17q55 0 100.5 -17t78.5 -47.5t51.5 -73t18.5 -93.5v-242zM477 455q0 46 -14.5 79
t-39 54.5t-56.5 32t-67 10.5q-37 0 -69.5 -10.5t-56.5 -32t-38 -54.5t-14 -79v-223q0 -47 15 -80t40 -54t57 -31t66 -10q36 0 68 10t56.5 31.5t38.5 54.5t14 79v223z" />
    <glyph glyph-name="Lambda" unicode="&#x39b;" horiz-adv-x="579" 
d="M492 0q-7 18 -23 65.5l-36.5 109.5l-43.5 130.5l-43.5 129.5l-36 106.5t-20.5 61.5q-4 -11 -17.5 -51l-32.5 -97l-41.5 -123.5l-43.5 -130l-39.5 -117l-28.5 -84.5h-73l239 689h73l241 -689h-74v0z" />
    <glyph glyph-name="Xi" unicode="&#x39e;" horiz-adv-x="529" 
d="M42 0v63h184v253h-129v65h129v243h-184v65h442v-65h-192v-243h136v-65h-136v-253h192v-63h-442z" />
    <glyph glyph-name="Pi" unicode="&#x3a0;" horiz-adv-x="604" 
d="M479 0v625h-356v-625h-70v689h498v-689h-72z" />
    <glyph glyph-name="Sigma" unicode="&#x3a3;" horiz-adv-x="496" 
d="M31 0v63l175 295l-175 270v61h424v-65h-340l173 -266l-178 -295h354v-63h-433z" />
    <glyph glyph-name="Iotadieresis" unicode="&#x3aa;" horiz-adv-x="234" 
d="M82 0v689h70v-689h-70zM250 803q0 -17 -12 -28.5t-29 -11.5t-28.5 11.5t-11.5 28.5t11.5 29t28.5 12t29 -12t12 -29zM68 803q0 -17 -12.5 -28.5t-29.5 -11.5q-16 0 -27.5 11.5t-11.5 28.5t11.5 29t27.5 12q17 0 29.5 -12t12.5 -29z" />
    <glyph glyph-name="Alpha" unicode="&#x391;" horiz-adv-x="583" 
d="M493 0l-27 80l-27 80h-295l-54 -160h-74l119.5 344.5l119.5 344.5h74l240 -689h-76zM290 598l-25.5 -80l-35 -106.5l-35.5 -106.5l-27 -81h250q-9 30 -26 81l-36 106.5l-36 106.5l-26 80h-3z" />
    <glyph glyph-name="Beta" unicode="&#x392;" horiz-adv-x="584" 
d="M540 195q0 -37 -12.5 -72t-37 -62.5t-60.5 -44t-83 -16.5h-290v689h279q48 0 84 -14.5t60 -39t36.5 -56.5t12.5 -68q0 -21 -5 -42.5t-16 -41t-29.5 -36.5t-46.5 -29q29 -12 49.5 -30.5t33.5 -41t19 -47.5t6 -48zM458 509q0 31 -11 53.5t-29.5 36t-43.5 20t-53 6.5h-194
v-231h204q24 0 47 7.5t41 21.5t28.5 35.5t10.5 50.5zM470 195q0 31 -11.5 56t-30.5 42.5t-44 27t-51 9.5h-206v-267h206q63 0 100 33.5t37 98.5z" />
    <glyph glyph-name="Epsilon" unicode="&#x395;" horiz-adv-x="545" 
d="M59 0v689h452v-64h-382v-246h328v-64h-328v-252h382v-63h-452z" />
    <glyph glyph-name="Zeta" unicode="&#x396;" horiz-adv-x="520" 
d="M483 628l-362 -565h361v-63h-444v62l361 563h-346v64h430v-61z" />
    <glyph glyph-name="Eta" unicode="&#x397;" horiz-adv-x="607" 
d="M480 0v318h-356v-318h-70v689h70v-307h356v307h73v-689h-73z" />
    <glyph glyph-name="Iota" unicode="&#x399;" horiz-adv-x="234" 
d="M82 0v689h70v-689h-70z" />
    <glyph glyph-name="Kappa" unicode="&#x39a;" horiz-adv-x="556" 
d="M130 297l318 392h85l-26 -32l-38.5 -47.5l-44.5 -55l-44.5 -55l-38.5 -47.5l-26 -32l245 -420h-82l-26 44.5l-37 63.5l-42.5 73l-42.5 73l-36.5 63.5l-25.5 44.5l-142 -172v-190h-70v689h70v-392h4z" />
    <glyph glyph-name="Mu" unicode="&#x39c;" horiz-adv-x="725" 
d="M368 194l235 495h65v-689h-70v523h-3l-202 -417h-55l-204 410h-4l-4 -516h-70v689h68l240 -495h4z" />
    <glyph glyph-name="Phi" unicode="&#x3a6;" horiz-adv-x="749" 
d="M127 317q0 -45 16 -81t44.5 -61.5t67 -39t84.5 -14.5v480q-97 -2 -154.5 -55t-57.5 -143v-86zM621 403q0 90 -57.5 143t-154.5 55v-480q46 1 85 14.5t67 39t44 61.5t16 81v86zM409 0h-70v57q-69 2 -121.5 23t-88 55.5t-54 80.5t-18.5 98v98q0 50 18.5 95t54.5 80t88.5 56
t120.5 23v30h70v-30q68 -2 121 -23t89 -55.5t54.5 -80t18.5 -95.5v-97q0 -51 -18.5 -97t-54.5 -81.5t-88.5 -56.5t-121.5 -23v-57z" />
    <glyph glyph-name="Upsilondieresis" unicode="&#x3ab;" horiz-adv-x="514" 
d="M292 0h-71v261l-104 214l-105 214h77l16 -33.5l28 -60l34.5 -74l36 -76l32 -66.5t22.5 -45l18 39l30 64l35.5 76l35 75.5l29.5 63l18 37.5h75l-207 -426v-263zM389 804q0 -17 -12 -28.5t-29 -11.5t-28.5 11.5t-11.5 28.5t11.5 29t28.5 12t29 -12t12 -29zM207 804
q0 -17 -12.5 -28.5t-29.5 -11.5q-16 0 -27.5 11.5t-11.5 28.5t11.5 29t27.5 12q17 0 29.5 -12t12.5 -29z" />
    <glyph glyph-name="Psi" unicode="&#x3a8;" horiz-adv-x="719" 
d="M666 373q0 -51 -22.5 -93.5t-60.5 -73t-87 -48.5t-101 -21v-137h-70v138q-53 1 -101.5 19t-86 49t-60 74t-22.5 95v314h69v-306q0 -45 19.5 -78.5t49 -56t65 -34t67.5 -12.5v492h70v-492q31 1 66.5 12t65.5 33t50 55t20 78v309h69v-316v0z" />
    <glyph glyph-name="Omega" unicode="&#x3a9;" horiz-adv-x="604" 
d="M361 0v76q24 7 46 21t38.5 35.5t26.5 49.5t10 64v210q0 45 -15 78t-39.5 54.5t-57 32t-67.5 10.5q-37 0 -69.5 -10.5t-57 -32t-39 -54.5t-14.5 -78v-210q0 -36 10.5 -64t27.5 -49t39.5 -35t45.5 -21v-77h-207v63h105q-43 28 -67 73t-24 103v229q0 51 19 93t52 72t79 46.5
t100 16.5q53 0 99 -16.5t79.5 -46.5t52.5 -72t19 -93v-230q0 -58 -24 -103.5t-67 -71.5h107v-63h-208z" />
    <glyph glyph-name="alphatonos" unicode="&#x3ac;" horiz-adv-x="491" 
d="M386 0l-9 55q-32 -20 -58 -31.5t-46.5 -18t-37 -8.5t-30.5 -2q-72 0 -116 43.5t-44 128.5v160q0 84 45 128t116 44q14 0 30 -2t36.5 -8t46 -17.5t58.5 -30.5l9 52h56v-493h-56zM377 375q-45 29 -90 45.5t-75 16.5q-48 0 -75 -29t-27 -92v-138q0 -64 26.5 -92.5
t74.5 -27.5q32 0 75.5 16.5t90.5 48.5v252zM210 573l75 166l66 -22l-100 -160z" />
    <glyph glyph-name="Nu" unicode="&#x39d;" horiz-adv-x="629" 
d="M501 134v555h70v-689h-70l-28 42l-43.5 65.5l-54 81l-59.5 89l-59.5 89l-54.5 80.5l-44 64.5l-28 40.5h-3v-552h-70v689h68l40.5 -61l65 -98l77.5 -116.5l78 -117l66.5 -99.5t43.5 -63h5z" />
    <glyph glyph-name="Omicron" unicode="&#x39f;" horiz-adv-x="600" 
d="M549 223q0 -53 -18.5 -95.5t-51.5 -72.5t-79 -46t-100 -16q-56 0 -101.5 16.5t-78 46.5t-50.5 72.5t-18 95.5v241q0 51 17.5 93.5t50 73t78.5 47.5t102 17q55 0 101 -17t79 -47.5t51 -73t18 -93.5v-242zM478 455q0 46 -14.5 79t-39 54.5t-56.5 32t-68 10.5
q-37 0 -69.5 -10.5t-56.5 -32t-38 -54.5t-14 -79v-223q0 -47 15 -80t40 -54t57 -31t66 -10q36 0 68.5 10t56.5 31.5t38.5 54.5t14.5 79v223z" />
    <glyph glyph-name="Rho" unicode="&#x3a1;" horiz-adv-x="547" 
d="M526 487q0 -36 -13 -72t-38 -64.5t-60.5 -46.5t-81.5 -18h-209v-286h-70v689h279q49 0 85.5 -18t60.5 -46.5t35.5 -65t11.5 -72.5zM455 487q0 31 -10.5 56.5t-29 43.5t-43.5 28t-53 10h-195v-273h195q28 0 53 9.5t43.5 26.5t29 42t10.5 57z" />
    <glyph glyph-name="Tau" unicode="&#x3a4;" horiz-adv-x="518" 
d="M295 624v-624h-71v624h-208v65h485v-65h-206z" />
    <glyph glyph-name="Upsilon" unicode="&#x3a5;" horiz-adv-x="514" 
d="M292 0h-71v261l-104 214l-105 214h77l16 -33.5l28 -60l34.5 -74l36 -76l32 -66.5t22.5 -45l18 39l30 64l35.5 76l35 75.5l29.5 63l18 37.5h75l-207 -426v-263z" />
    <glyph glyph-name="Chi" unicode="&#x3a7;" horiz-adv-x="526" 
d="M434 0l-171 294l-171 -294h-82l213 353l-199 336h82l157 -276l157 276h81l-199 -336l214 -353h-82z" />
    <glyph glyph-name="Alphatonos" unicode="&#x386;" horiz-adv-x="583" 
d="M493 0l-27 80l-27 80h-295l-54 -160h-74l119.5 344.5l119.5 344.5h74l240 -689h-76zM290 598l-25.5 -80l-35 -106.5l-35.5 -106.5l-27 -81h250q-9 30 -26 81l-36 106.5l-36 106.5l-26 80h-3zM-9 547l75 166l66 -22l-100 -160z" />
    <glyph glyph-name="Epsilontonos" unicode="&#x388;" horiz-adv-x="545" 
d="M59 0v689h452v-64h-382v-246h328v-64h-328v-252h382v-63h-452zM-126 547l75 166l66 -22l-100 -160z" />
    <glyph glyph-name="afii00208" unicode="&#x2015;" horiz-adv-x="997" 
d="M20 236v61h957v-61h-957z" />
    <glyph glyph-name="Etatonos" unicode="&#x389;" horiz-adv-x="607" 
d="M480 0v318h-356v-318h-70v689h70v-307h356v307h73v-689h-73zM-134 547l75 166l66 -22l-100 -160z" />
    <glyph glyph-name="Iotatonos" unicode="&#x38a;" horiz-adv-x="234" 
d="M82 0v689h70v-689h-70zM-109 547l75 166l66 -22l-100 -160z" />
    <glyph glyph-name="Omicrontonos" unicode="&#x38c;" horiz-adv-x="600" 
d="M549 223q0 -53 -18.5 -95.5t-51.5 -72.5t-79 -46t-100 -16q-56 0 -101.5 16.5t-78 46.5t-50.5 72.5t-18 95.5v241q0 51 17.5 93.5t50 73t78.5 47.5t102 17q55 0 101 -17t79 -47.5t51 -73t18 -93.5v-242zM478 455q0 46 -14.5 79t-39 54.5t-56.5 32t-68 10.5
q-37 0 -69.5 -10.5t-56.5 -32t-38 -54.5t-14 -79v-223q0 -47 15 -80t40 -54t57 -31t66 -10q36 0 68.5 10t56.5 31.5t38.5 54.5t14.5 79v223zM-97 547l75 166l66 -22l-100 -160z" />
    <glyph glyph-name="Upsilontonos" unicode="&#x38e;" horiz-adv-x="514" 
d="M292 0h-71v261l-104 214l-105 214h77l16 -33.5l28 -60l34.5 -74l36 -76l32 -66.5t22.5 -45l18 39l30 64l35.5 76l35 75.5l29.5 63l18 37.5h75l-207 -426v-263zM-144 547l75 166l66 -22l-100 -160z" />
    <glyph glyph-name="epsilontonos" unicode="&#x3ad;" horiz-adv-x="421" 
d="M403 53q-38 -32 -81 -44.5t-89 -12.5q-91 0 -137.5 42t-46.5 105q0 10 3.5 26t12 32t24 31t39.5 24q-24 9 -38.5 22t-21.5 27t-9 27.5t-2 24.5q0 26 11.5 51.5t34.5 45.5t56 32.5t77 12.5q45 0 87 -13.5t76 -43.5l-40 -47q-26 23 -57 33t-63 10q-24 0 -45.5 -6t-37 -17
t-25 -26.5t-9.5 -34.5q0 -35 24.5 -53.5t68.5 -18.5h81v-56h-89q-41 0 -67.5 -21.5t-26.5 -63.5q0 -37 31.5 -61.5t91.5 -24.5q33 0 67 10t60 33zM189 573l75 166l66 -22l-100 -160z" />
    <glyph glyph-name="etatonos" unicode="&#x3ae;" horiz-adv-x="489" 
d="M290 499q73 0 113.5 -44t40.5 -129v-326h-66v315q0 66 -27.5 93.5t-74.5 26.5q-33 0 -76.5 -18.5t-87.5 -47.5v-369h-66v494h57l9 -62q67 41 107.5 54t70.5 13zM189 573l75 166l66 -22l-100 -160z" />
    <glyph glyph-name="iotatonos" unicode="&#x3af;" horiz-adv-x="205" 
d="M70 0v494h65v-494h-65zM73 573l75 166l66 -22l-100 -160z" />
    <glyph glyph-name="omicrontonos" unicode="&#x3cc;" horiz-adv-x="492" 
d="M214 573l75 166l65 -22l-99 -160zM446 174q0 -42 -15 -75.5t-42 -56.5t-63.5 -35t-79.5 -12t-79.5 12t-63 35.5t-41.5 56.5t-15 75v146q0 42 16 75t43 56t63.5 35.5t77.5 12.5q43 0 79.5 -12.5t63 -35.5t41.5 -56t15 -75v-146zM381 306q0 36 -12 61t-31.5 41t-43 23
t-46.5 7q-24 0 -48 -7t-43.5 -23t-31.5 -41t-12 -61v-118q0 -36 11 -61.5t29.5 -41.5t43 -23t51.5 -7q25 0 48.5 7.5t42.5 23t30.5 41t11.5 61.5v118z" />
    <glyph glyph-name="Omegatonos" unicode="&#x38f;" horiz-adv-x="604" 
d="M361 0v76q24 7 46 21t38.5 35.5t26.5 49.5t10 64v210q0 45 -15 78t-39.5 54.5t-57 32t-67.5 10.5q-37 0 -69.5 -10.5t-57 -32t-39 -54.5t-14.5 -78v-210q0 -36 10.5 -64t27.5 -49t39.5 -35t45.5 -21v-77h-207v63h105q-43 28 -67 73t-24 103v229q0 51 19 93t52 72t79 46.5
t100 16.5q53 0 99 -16.5t79.5 -46.5t52.5 -72t19 -93v-230q0 -58 -24 -103.5t-67 -71.5h107v-63h-208zM-95 547l75 166l66 -22l-100 -160z" />
    <glyph glyph-name="upsilontonos" unicode="&#x3cd;" horiz-adv-x="492" 
d="M445 172q0 -44 -17 -77t-44.5 -55t-63.5 -33.5t-75 -11.5t-74.5 11.5t-63.5 34t-44.5 55.5t-16.5 75v323h66v-306q0 -36 11.5 -61t30 -41t43 -23t50.5 -7q23 0 46.5 7t42.5 23t31 41t12 61v306h66v-322zM212 573l75 166l66 -22l-100 -160z" />
    <glyph glyph-name="alpha" unicode="&#x3b1;" horiz-adv-x="491" 
d="M386 0l-9 55q-32 -20 -58 -31.5t-46.5 -18t-37 -8.5t-30.5 -2q-72 0 -116 43.5t-44 128.5v160q0 84 45 128t116 44q14 0 30 -2t36.5 -8t46 -17.5t58.5 -30.5l9 52h56v-493h-56zM377 375q-45 29 -90 45.5t-75 16.5q-48 0 -75 -29t-27 -92v-138q0 -64 26.5 -92.5
t74.5 -27.5q32 0 75.5 16.5t90.5 48.5v252z" />
    <glyph glyph-name="beta" unicode="&#x3b2;" horiz-adv-x="491" 
d="M447 169q0 -84 -44 -129t-120 -45q-29 0 -73.5 12.5t-94.5 44.5l-8 -52h-57v527q0 43 14 78t39.5 59t59.5 37t75 13q52 0 87 -16t56 -41t30 -54t9 -56q0 -14 -3 -32t-10.5 -36.5t-21.5 -35t-35 -28.5q27 -9 45.5 -26t30 -38.5t16.5 -45.5t5 -46v-90zM381 262
q0 54 -31 83.5t-87 29.5h-69v56h62q27 0 46.5 11.5t31.5 28t18 36t6 36.5q0 20 -7 40t-21.5 36.5t-37 27t-54.5 10.5q-34 0 -57.5 -11.5t-38 -30t-21 -41t-6.5 -44.5v-414q21 -12 43 -23t43.5 -19t40.5 -12.5t34 -4.5q30 0 50.5 9.5t32.5 26t17 39.5t5 50v80z" />
    <glyph glyph-name="psi" unicode="&#x3c8;" horiz-adv-x="617" 
d="M568 189q0 -46 -17.5 -82t-48 -61t-72 -38t-89.5 -13v-197h-66v197q-48 0 -89.5 14t-71.5 39t-47.5 60t-17.5 77v308h65v-289q0 -65 41.5 -106.5t119.5 -42.5v438h66v-438q80 1 121 42t41 107v289h65v-304v0z" />
    <glyph glyph-name="delta" unicode="&#x3b4;" horiz-adv-x="491" 
d="M446 173q0 -42 -16 -75t-43.5 -56t-64 -35t-76.5 -12q-42 0 -78 12t-63 35t-42.5 56t-15.5 75v124q0 63 33 109t84 66q-24 12 -39 25t-23.5 26.5t-11.5 27.5t-3 26q0 62 45 99t124 37q93 0 157 -39l-31 -52q-31 17 -58.5 25.5t-62.5 8.5q-46 0 -76 -17.5t-30 -57.5
q0 -16 11 -30t29.5 -26t43 -22t50.5 -18q74 -22 115.5 -66t41.5 -122v-124zM381 275q0 38 -9.5 64.5t-28 45t-47.5 30.5t-68 21q-55 -17 -85 -55t-30 -104v-90q0 -36 12 -62t31.5 -42t43 -23.5t47.5 -7.5q25 0 49 7.5t43 23.5t30.5 42t11.5 62v88z" />
    <glyph glyph-name="epsilon" unicode="&#x3b5;" horiz-adv-x="421" 
d="M403 53q-38 -32 -81 -44.5t-89 -12.5q-91 0 -137.5 42t-46.5 105q0 10 3.5 26t12 32t24 31t39.5 24q-24 9 -38.5 22t-21.5 27t-9 27.5t-2 24.5q0 26 11.5 51.5t34.5 45.5t56 32.5t77 12.5q45 0 87 -13.5t76 -43.5l-40 -47q-26 23 -57 33t-63 10q-24 0 -45.5 -6t-37 -17
t-25 -26.5t-9.5 -34.5q0 -35 24.5 -53.5t68.5 -18.5h81v-56h-89q-41 0 -67.5 -21.5t-26.5 -63.5q0 -37 31.5 -61.5t91.5 -24.5q33 0 67 10t60 33l40 -45v0z" />
    <glyph glyph-name="phi" unicode="&#x3c6;" horiz-adv-x="619" 
d="M573 181q0 -45 -21 -80t-55 -58.5t-75.5 -36t-83.5 -12.5q0 -49 0.5 -97.5t0.5 -98.5h-65v196q-48 0 -89 13.5t-72 38t-48.5 58.5t-17.5 75v143q0 32 11 60.5t29 50.5t42.5 36.5t51.5 20.5l14 -59q-35 -11 -59 -42.5t-24 -84.5v-106q0 -65 43 -103.5t119 -39.5v403
q42 21 74.5 30.5t61.5 9.5q35 0 65 -11t51.5 -32.5t34 -54t12.5 -74.5v-145zM508 315q0 65 -28 91.5t-73 26.5q-13 0 -32 -5.5t-36 -12.5v-360q76 1 122.5 35.5t46.5 107.5v117z" />
    <glyph glyph-name="gamma" unicode="&#x3b3;" horiz-adv-x="441" 
d="M118 437q27 -77 54 -162.5t54 -162.5h3q35 91 69.5 190.5t69.5 189.5h69q-45 -112 -89 -234t-89 -234v-226h-65v220l-47 127.5l-35.5 101.5l-27.5 81.5l-23 68.5q-10 28 -18 34t-25 6h-7l-5 53q21 7 40 7q28 0 44.5 -12.5t27.5 -47.5z" />
    <glyph glyph-name="eta" unicode="&#x3b7;" horiz-adv-x="489" 
d="M290 499q73 0 113.5 -44t40.5 -129v-326h-66v315q0 66 -27.5 93.5t-74.5 26.5q-33 0 -76.5 -18.5t-87.5 -47.5v-369h-66v494h57l9 -62q67 41 107.5 54t70.5 13z" />
    <glyph glyph-name="iota" unicode="&#x3b9;" horiz-adv-x="205" 
d="M70 0v494h65v-494h-65z" />
    <glyph glyph-name="xi" unicode="&#x3be;" horiz-adv-x="423" 
d="M401 620q-36 20 -71 25.5t-64 5.5q-28 0 -53 -8t-43.5 -23t-29.5 -37t-11 -49q0 -30 12.5 -51.5t33.5 -35.5t47.5 -20.5t53.5 -6.5h98v-55h-118q-33 0 -60 -13t-46 -35t-29.5 -50.5t-10.5 -58.5q0 -54 25.5 -85.5t64 -47t85 -20t88.5 -4.5h24l26 -48q-12 -17 -23 -39.5
t-20.5 -48t-17 -51t-12.5 -47.5l-60 14q3 15 8 35.5t11.5 43t15.5 44.5t20 39q-58 0 -112 10t-95.5 34.5t-66.5 65t-25 102.5q0 20 5 47t19 54t37.5 50.5t61.5 36.5q-33 10 -53.5 28t-32 39t-15.5 42.5t-4 37.5q0 37 15.5 68.5t42.5 53.5t64.5 34.5t81.5 12.5q14 0 33.5 -1
t41 -5t44 -10.5t42.5 -18.5z" />
    <glyph glyph-name="kappa" unicode="&#x3ba;" horiz-adv-x="478" 
d="M57 0v494h66v-215h107q14 0 27.5 2t26 9.5t23 21.5t18.5 37l52 145h67l-51 -142q-13 -36 -28 -60.5t-44 -32.5q35 -8 50 -34.5t28 -63.5l54 -161h-69l-48 146q-8 24 -17.5 38.5t-21.5 23t-26.5 11t-31.5 2.5h-116v-221h-66z" />
    <glyph glyph-name="lambda" unicode="&#x3bb;" horiz-adv-x="497" 
d="M381 0v371q-90 40 -153 40q-53 0 -83.5 -29t-30.5 -93v-287h-66v297q0 42 13 74t36.5 54.5t55.5 34t70 11.5q28 0 66 -7t92 -29v82q0 29 -6.5 53.5t-21 42t-37.5 27t-55 9.5q-38 0 -74 -10t-62 -26l-29 52q41 23 82.5 35t89.5 12q94 0 136.5 -50t42.5 -143v-521h-66z" />
    <glyph glyph-name="nu" unicode="&#x3bd;" horiz-adv-x="444" 
d="M224 88l62 188l74 217h71l-177 -493h-66l-88.5 246l-88.5 247h71l72 -212l20 -59t18 -55t15 -46.5l11 -32.5h6z" />
    <glyph glyph-name="omicron" unicode="&#x3bf;" horiz-adv-x="492" 
d="M446 174q0 -42 -15 -75.5t-42 -56.5t-63.5 -35t-79.5 -12t-79.5 12t-63 35.5t-41.5 56.5t-15 75v146q0 42 16 75t43 56t63.5 35.5t77.5 12.5q43 0 79.5 -12.5t63 -35.5t41.5 -56t15 -75v-146zM381 306q0 36 -12 61t-31.5 41t-43 23t-46.5 7q-24 0 -48 -7t-43.5 -23
t-31.5 -41t-12 -61v-118q0 -36 11 -61.5t29.5 -41.5t43 -23t51.5 -7q25 0 48.5 7.5t42.5 23t30.5 41t11.5 61.5v118z" />
    <glyph glyph-name="pi" unicode="&#x3c0;" horiz-adv-x="493" 
d="M380 0v434h-266v-434h-65v493h397v-493h-66z" />
    <glyph glyph-name="omegatonos" unicode="&#x3ce;" horiz-adv-x="753" 
d="M709 174q0 -42 -14.5 -75t-39 -56.5t-58 -35.5t-71.5 -12q-49 0 -88.5 22t-60.5 67q-23 -44 -61.5 -66.5t-88.5 -22.5q-38 0 -70.5 12.5t-57.5 35.5t-39 56.5t-14 75.5v144q0 36 11.5 65t31 51.5t46.5 37.5t57 21l12 -60q-42 -11 -68 -42t-26 -91v-108q0 -36 10 -62
t26.5 -42.5t37.5 -24.5t44 -8t44 8t37 24.5t25.5 42.5t9.5 62l1 175h65v-175q0 -29 7 -53.5t21.5 -43.5t36.5 -29.5t52 -10.5q23 0 44 7.5t37.5 24t26 42.5t9.5 62v109q0 59 -26 90t-63 42l11 60q30 -7 56 -21.5t45.5 -37t30.5 -51.5t11 -64v-145zM336 573l75 166l66 -22
l-100 -160z" />
    <glyph glyph-name="rho" unicode="&#x3c1;" horiz-adv-x="487" 
d="M443 169q0 -84 -46 -129t-122 -45q-27 0 -68.5 6t-95.5 32v-235h-65v525q0 42 17 74.5t44.5 55t63 34.5t73.5 12q37 0 73 -12t64 -34.5t45 -55t17 -74.5v-154zM244 438q-23 0 -46.5 -7t-43 -23t-32 -41t-12.5 -61l1 -208q46 -24 86.5 -33t72.5 -9q51 -1 79.5 29.5
t28.5 95.5l-1 125q0 36 -12 61t-31.5 41t-43 23t-46.5 7z" />
    <glyph glyph-name="sigma" unicode="&#x3c3;" horiz-adv-x="505" 
d="M381 434q31 -19 47 -49.5t16 -65.5v-146q0 -44 -17 -77.5t-45 -56t-64 -33.5t-74 -11t-74 11.5t-64 34t-45 55t-17 74.5v149q0 42 17.5 74.5t45.5 55t64 34.5t73 12h247v-61h-110zM378 302q0 36 -12 61t-31 41t-42.5 23t-47.5 7t-48 -7t-43.5 -23t-31.5 -41t-12 -61v-114
q0 -36 12.5 -61.5t32 -41t43.5 -23t47 -7.5t46.5 7.5t43 23t31.5 41t12 61.5v114z" />
    <glyph glyph-name="tau" unicode="&#x3c4;" horiz-adv-x="368" 
d="M184 164q0 -62 20.5 -84.5t64.5 -22.5q15 0 33.5 2t39.5 6l11 -56q-26 -8 -52.5 -11t-40.5 -3q-77 0 -109.5 34.5t-32.5 115.5v289h-101v60h315v-60h-148v-270z" />
    <glyph glyph-name="theta" unicode="&#x3b8;" horiz-adv-x="488" 
d="M444 171q0 -42 -16 -75t-43.5 -55.5t-64 -34t-76.5 -11.5t-76 11.5t-63.5 34t-43.5 55.5t-16 75v364q0 42 17 74.5t45 55t64 34.5t74 12t74 -12t63.5 -34.5t44.5 -55t17 -74.5v-364zM378 517q0 36 -12 61.5t-31 41.5t-42.5 23t-46.5 7q-24 0 -48 -7t-43.5 -23
t-31.5 -41.5t-12 -61.5v-118h267v118zM111 343v-155q0 -36 12 -61.5t31 -41.5t43.5 -23t48.5 -7q25 0 48.5 7.5t42 23t30 41t11.5 61.5v155h-267z" />
    <glyph glyph-name="omega" unicode="&#x3c9;" horiz-adv-x="753" 
d="M709 174q0 -42 -14.5 -75t-39 -56.5t-58 -35.5t-71.5 -12q-49 0 -88.5 22t-60.5 67q-23 -44 -61.5 -66.5t-88.5 -22.5q-38 0 -70.5 12.5t-57.5 35.5t-39 56.5t-14 75.5v144q0 36 11.5 65t31 51.5t46.5 37.5t57 21l12 -60q-42 -11 -68 -42t-26 -91v-108q0 -36 10 -62
t26.5 -42.5t37.5 -24.5t44 -8t44 8t37 24.5t25.5 42.5t9.5 62l1 175h65v-175q0 -29 7 -53.5t21.5 -43.5t36.5 -29.5t52 -10.5q23 0 44 7.5t37.5 24t26 42.5t9.5 62v109q0 59 -26 90t-63 42l11 60q30 -7 56 -21.5t45.5 -37t30.5 -51.5t11 -64v-145v0z" />
    <glyph glyph-name="sigma1" unicode="&#x3c2;" horiz-adv-x="447" 
d="M231 49q21 0 42 4.5t38 15t27.5 27.5t10.5 42q0 37 -25 54t-62 24l-75.5 14.5t-69.5 21.5t-51 38t-20 65q0 32 13 58.5t36 45t55.5 29t70.5 10.5q54 0 95 -10t78 -36l-16.5 -24.5l-16.5 -24.5q-33 20 -67 29t-72 9q-51 0 -82 -24t-31 -62q0 -18 9 -30.5t24.5 -21t37 -14
t46.5 -10.5l64.5 -13t61.5 -22t45.5 -40.5t17.5 -67.5q0 -32 -13.5 -58t-38.5 -45t-59.5 -29t-77.5 -10q-50 0 -98 11.5t-95 46.5l35 49q37 -29 76.5 -40.5t86.5 -11.5z" />
    <glyph glyph-name="chi" unicode="&#x3c7;" horiz-adv-x="418" 
d="M329 0l-123 200l-124 -200h-79l166 253l-157 241h80l115 -188l116 188h79l-159 -240l166 -254h-80z" />
    <glyph glyph-name="upsilon" unicode="&#x3c5;" horiz-adv-x="492" 
d="M445 172q0 -44 -17 -77t-44.5 -55t-63.5 -33.5t-75 -11.5t-74.5 11.5t-63.5 34t-44.5 55.5t-16.5 75v323h66v-306q0 -36 11.5 -61t30 -41t43 -23t50.5 -7q23 0 46.5 7t42.5 23t31 41t12 61v306h66v-322v0z" />
    <glyph glyph-name="zeta" unicode="&#x3b6;" horiz-adv-x="394" 
d="M425 652q-71 -53 -130.5 -111t-103 -116t-67 -113t-21.5 -102q2 -50 25 -81t58.5 -47.5t79 -22t86.5 -5.5h26l25 -50q-12 -16 -22.5 -39t-20 -49t-17.5 -52.5t-13 -48.5l-59 14q3 15 9 37.5t14.5 46.5t18 47t19.5 38q-51 0 -102 9t-93 31.5t-69 61t-30 97.5q-5 94 69 213
t233 240h-283v57h368v-55v0z" />
    <glyph glyph-name="iotadieresis" unicode="&#x3ca;" horiz-adv-x="205" 
d="M70 0v494h65v-494h-65zM234 644q0 -17 -12 -28.5t-29 -11.5t-28.5 11.5t-11.5 28.5t11.5 29t28.5 12t29 -12t12 -29zM52 644q0 -17 -12.5 -28.5t-29.5 -11.5q-16 0 -27.5 11.5t-11.5 28.5t11.5 29t27.5 12q17 0 29.5 -12t12.5 -29z" />
    <glyph glyph-name="upsilondieresis" unicode="&#x3cb;" horiz-adv-x="492" 
d="M445 172q0 -44 -17 -77t-44.5 -55t-63.5 -33.5t-75 -11.5t-74.5 11.5t-63.5 34t-44.5 55.5t-16.5 75v323h66v-306q0 -36 11.5 -61t30 -41t43 -23t50.5 -7q23 0 46.5 7t42.5 23t31 41t12 61v306h66v-322zM376 644q0 -17 -12 -28.5t-29 -11.5t-28.5 11.5t-11.5 28.5
t11.5 29t28.5 12t29 -12t12 -29zM194 644q0 -17 -12.5 -28.5t-29.5 -11.5q-16 0 -27.5 11.5t-11.5 28.5t11.5 29t27.5 12q17 0 29.5 -12t12.5 -29z" />
    <glyph glyph-name="iotadieresistonos" unicode="&#x390;" horiz-adv-x="205" 
d="M70 0v494h65v-494h-65zM254 644q0 -17 -11.5 -28.5t-28.5 -11.5t-29 11.5t-12 28.5t12 29t29 12t28.5 -12t11.5 -29zM50 644q0 -17 -12 -28.5t-29 -11.5t-28.5 11.5t-11.5 28.5t11.5 29t28.5 12t29 -12t12 -29zM48 578l75 166l65 -22l-99 -160z" />
    <glyph glyph-name="upsilondieresistonos" unicode="&#x3b0;" horiz-adv-x="492" 
d="M445 172q0 -44 -17 -77t-44.5 -55t-63.5 -33.5t-75 -11.5t-74.5 11.5t-63.5 34t-44.5 55.5t-16.5 75v323h66v-306q0 -36 11.5 -61t30 -41t43 -23t50.5 -7q23 0 46.5 7t42.5 23t31 41t12 61v306h66v-322zM387 644q0 -17 -11.5 -28.5t-28.5 -11.5t-29 11.5t-12 28.5t12 29
t29 12t28.5 -12t11.5 -29zM183 644q0 -17 -12 -28.5t-29 -11.5t-28.5 11.5t-11.5 28.5t11.5 29t28.5 12t29 -12t12 -29zM181 578l75 166l65 -22l-99 -160z" />
    <glyph glyph-name="Euro" unicode="&#x20ac;" horiz-adv-x="487" 
d="M32 376v50h49v41q0 51 18 93t50.5 72.5t77.5 47t99 16.5q48 0 88 -9.5t75 -31.5l-33 -57q-29 16 -62.5 24.5t-67.5 8.5q-35 0 -66.5 -10t-55.5 -31t-38 -54.5t-14 -80.5v-29h274v-50h-394zM426 321v-50h-274v-36q0 -47 14 -80t38 -55t55 -32t65 -10q35 0 70 8t65 26
l31 -55q-30 -19 -71.5 -31.5t-92.5 -12.5q-57 0 -102.5 16.5t-77 47t-48.5 73t-17 94.5v47h-49v50h394z" />
    <glyph glyph-name="quotesinglbase" unicode="&#x201a;" horiz-adv-x="225" 
d="M62 43q0 19 14 33t37 14q29 0 42.5 -20.5t13.5 -46.5q0 -23 -7 -44.5t-19 -39.5t-28 -32t-33 -22l-24 29q22 16 34 35t14 45q-23 1 -33.5 13.5t-10.5 35.5z" />
    <glyph glyph-name="quotedblbase" unicode="&#x201e;" horiz-adv-x="382" 
d="M63 43q0 19 14 33t37 14q29 0 42.5 -20.5t13.5 -46.5q0 -23 -7 -44.5t-19 -39.5t-28 -32t-33 -22l-24 29q21 16 33.5 35t14.5 45q-23 1 -33.5 13.5t-10.5 35.5zM221 43q0 19 14 33t37 14q29 0 43 -20.5t14 -46.5q0 -23 -7.5 -44.5t-19.5 -39.5t-28 -32t-33 -22l-23 29
q21 16 33 35t14 45q-23 1 -33.5 13.5t-10.5 35.5z" />
    <glyph glyph-name="florin" unicode="&#x192;" horiz-adv-x="484" 
d="M123 360q0 14 -0.5 26.5t-0.5 26.5h98l15 99t27 92.5t53 68.5t93 27q20 0 40.5 -3.5t36.5 -8.5q-6 -24 -16 -58q-15 5 -32 7.5t-31 2.5q-35 0 -56 -18.5t-33 -50t-18 -72.5l-12 -86h108q0 -14 0.5 -26.5t0.5 -26.5h-117l-33 -236q-6 -49 -17.5 -88.5t-30.5 -67.5
t-48 -43.5t-71 -15.5q-18 0 -41.5 4t-43.5 11l18 53q33 -12 61 -12q45 0 69 36t34 107l36 252h-89v0z" />
    <glyph glyph-name="daggerdbl" unicode="&#x2021;" horiz-adv-x="457" 
d="M196 400h-173v54h173v242h64v-242h174v-54h-174v-222h174v-53h-174v-315h-64v315h-173v53h173v222z" />
    <glyph glyph-name="circumflex" unicode="&#x2c6;" horiz-adv-x="487" 
d="M247 657l-130 -103l-31 30l142 138h45l134 -137l-30 -30z" />
    <glyph glyph-name="tilde" unicode="&#x2dc;" horiz-adv-x="487" 
d="M180 692q17 0 34.5 -7t34.5 -15.5t32.5 -15.5t28.5 -7q30 0 59 43l41 -23q-20 -41 -44 -59t-52 -18q-17 0 -33.5 6.5t-33 14t-32.5 14t-31 6.5q-18 0 -32 -9.5t-31 -30.5l-41 24q20 37 46 57t54 20z" />
    <glyph glyph-name="currency" unicode="&#xa4;" horiz-adv-x="515" 
d="M41 498l39 38l63 -63q53 38 114 38q58 0 112 -37l63 63l38 -39l-63 -62q40 -57 40 -115q0 -30 -10 -58t-28 -55l13.5 -13.5l18 -17.5l18 -17t13.5 -14q-19 -20 -39 -39l-62 63q-50 -38 -114 -40q-64 2 -115 41l-63 -63l-20 19.5t-19 19.5l64 62q-37 55 -37 112
q0 59 38 114zM123 321q0 -28 10.5 -52t28.5 -42t42 -28.5t52 -10.5t52.5 10.5t42.5 28.5t28.5 42t10.5 52t-10.5 52.5t-28.5 42.5t-42.5 28.5t-52.5 10.5t-52 -10.5t-42 -28.5t-28.5 -42.5t-10.5 -52.5z" />
    <glyph glyph-name="brokenbar" unicode="&#xa6;" horiz-adv-x="189" 
d="M71 304v412h50v-412h-50zM121 247v-409h-50v409h50z" />
    <glyph glyph-name="logicalnot" unicode="&#xac;" horiz-adv-x="487" 
d="M456 69h-51v193h-376v51h428z" />
    <glyph glyph-name="acute" unicode="&#xb4;" horiz-adv-x="487" 
d="M199 573l75 166l66 -22l-100 -160z" />
    <glyph glyph-name="paragraph" unicode="&#xb6;" horiz-adv-x="493" 
d="M429 62q0 -44 -7.5 -77.5t-28 -56.5t-56.5 -37t-93 -18l-4 56q48 6 75 18.5t39.5 31.5t15 43t2.5 53v640h57v-653zM224 358q-39 0 -72 14t-56.5 38t-37 56.5t-13.5 69.5q0 36 13.5 68.5t37.5 57t57 39t71 14.5h91v-357h-91z" />
    <glyph glyph-name="cedilla" unicode="&#xb8;" horiz-adv-x="423" 
d="M232 -161q23 0 39.5 9.5t16.5 30.5q0 16 -14 29.5t-40 13.5h-7t-8 -1l-25 14l28 92q10 0 19 -1t18 -1l-21 -66q28 -1 46.5 -9.5t29.5 -20.5t16 -25.5t5 -24.5q0 -12 -5 -25.5t-17 -25.5t-31 -19.5t-47 -7.5q-14 0 -36 2.5t-48 12.5l13 34q19 -6 36.5 -8.5t31.5 -2.5z" />
    <glyph glyph-name="multiply" unicode="&#xd7;" horiz-adv-x="487" 
d="M279 274l161 -162l-36 -35l-161 160l-161 -161l-36 36l162 162l-160 160l36 35l160 -159l160 160l35 -36z" />
    <glyph glyph-name="space" unicode=" " horiz-adv-x="223" 
 />
    <glyph glyph-name="zero.numerator" unicode="&#xe2d0;" horiz-adv-x="317" 
d="M296 386q0 -26 -10.5 -47t-29 -36t-43.5 -23t-54 -8q-30 0 -55 8t-43.5 23t-29 36t-10.5 47v194q0 25 11 46t30 36t44 23t53 8t53 -8t44 -23t29.5 -36t10.5 -46v-194zM241 572q0 19 -8 32.5t-20 22t-26.5 12t-27.5 3.5t-27 -3.5t-26 -12t-20 -22t-8 -32.5v-179
q0 -20 8 -33t20 -21.5t26 -12t27 -3.5t27.5 3.5t26.5 12t20 21.5t8 33v179z" />
    <glyph glyph-name="one.numerator" unicode="&#xe2d1;" horiz-adv-x="272" 
d="M130 276v346l-60 -45l-32 40l98 72h50v-413h-56z" />
    <glyph glyph-name="two.numerator" unicode="&#xe2d2;" horiz-adv-x="317" 
d="M295 585q0 -20 -8.5 -38.5t-23 -35t-32.5 -31.5t-37 -27q-17 -10 -36.5 -23t-37 -28t-29 -32.5t-11.5 -35.5v-9h215v-49h-273v49q0 28 10.5 51t28 42t40 35t46.5 31l30 19.5t29.5 23t22 27t8.5 29.5q0 16 -7.5 27t-19.5 18.5t-27 11t-31 3.5q-28 0 -52.5 -9.5
t-43.5 -23.5l-30 40q24 18 57 31t69 13q27 0 53 -5.5t46 -18.5t32 -34t12 -51z" />
    <glyph glyph-name="three.numerator" unicode="&#xe2d3;" horiz-adv-x="317" 
d="M144 692q24 0 48 -6t42.5 -19t30 -33.5t11.5 -50.5q0 -29 -15.5 -54.5t-49.5 -37.5q39 -14 53.5 -40t14.5 -54q0 -30 -11.5 -53.5t-31 -39.5t-45.5 -24.5t-55 -8.5q-41 0 -74 12.5t-56 29.5l32 42q19 -16 45 -24.5t50 -8.5q38 0 63.5 18.5t25.5 53.5q0 34 -22 51.5
t-52 17.5h-53v50h54q10 0 22.5 4t23.5 13t18 22t7 31q0 16 -7.5 27.5t-19.5 18.5t-26.5 10.5t-28.5 3.5q-23 0 -49 -8t-46 -24l-29 40q26 19 59 30t71 11z" />
    <glyph glyph-name="four.numerator" unicode="&#xe2d4;" horiz-adv-x="317" 
d="M263 339v-63h-55v63h-195v43l15.5 32l27 55l33 66.5l33 66.5l27 54.5t15.5 32.5h60l-149 -301h133v123h55v-123h41v-49h-41z" />
    <glyph glyph-name="five.numerator" unicode="&#xe2d5;" horiz-adv-x="317" 
d="M292 383q0 -25 -11 -45.5t-30 -35t-44.5 -22.5t-55.5 -8q-42 0 -73.5 14t-54.5 33l34 40q45 -36 93 -36q11 0 25.5 2.5t28 10t22.5 20.5t9 33v54q0 30 -15.5 45t-40.5 15q-22 0 -52 -12t-51 -26l-46 21v203h249v-50h-193v-115q25 14 50.5 23t44.5 9q52 0 81.5 -29.5
t29.5 -78.5v-65v0z" />
    <glyph glyph-name="six.numerator" unicode="&#xe2d6;" horiz-adv-x="317" 
d="M23 582q0 25 11.5 46t30.5 35t44 22t52 8q42 0 71.5 -13t52.5 -32l-33 -41q-20 17 -42 26t-48 9q-12 0 -26 -3.5t-26.5 -12t-20.5 -22t-8 -33.5v-68q32 18 59 27t45 9q52 0 80.5 -29t28.5 -77v-49q0 -26 -11.5 -46.5t-30.5 -35t-43.5 -22.5t-50.5 -8t-50.5 7.5t-43.5 22
t-30 35t-11 46.5v199zM237 428q0 30 -16 44.5t-41 14.5q-23 0 -48.5 -11t-50.5 -25v-58q0 -19 7.5 -32.5t18.5 -21.5t25 -12t26 -4t26 4t26 12.5t19.5 21.5t7.5 32v35z" />
    <glyph glyph-name="seven.numerator" unicode="&#xe2d7;" horiz-adv-x="314" 
d="M64 276l82 182l81 182h-150v-62h-55v111h269v-43l-165 -370h-62z" />
    <glyph glyph-name="eight.numerator" unicode="&#xe2d8;" horiz-adv-x="317" 
d="M158 692q25 0 49.5 -7t43 -22t30 -37t11.5 -51q0 -26 -16.5 -51t-45.5 -37q17 -6 29.5 -16.5t20.5 -23t12 -26.5t4 -26q0 -31 -12 -54t-31 -38.5t-44 -23t-50 -7.5q-26 0 -50.5 7.5t-43.5 22.5t-31 37.5t-12 52.5q0 27 16 53t49 41q-30 11 -45.5 36.5t-15.5 52.5
q0 29 11 51t29.5 36.5t42 22t49.5 7.5zM159 460q-33 0 -57 -18.5t-24 -50.5t23 -50t58 -18q34 0 56.5 18t22.5 51q0 31 -23 49.5t-56 18.5zM159 642q-29 0 -53.5 -16t-24.5 -50q0 -30 23.5 -48t54.5 -18q29 0 52.5 18t23.5 48q0 34 -24.5 50t-51.5 16z" />
    <glyph glyph-name="nine.numerator" unicode="&#xe2d9;" horiz-adv-x="317" 
d="M153 693q26 0 50.5 -7.5t43 -22t29.5 -35t11 -45.5v-199q0 -26 -11 -46.5t-30 -35t-44 -22.5t-53 -8q-40 0 -71 13.5t-52 31.5l33 41q20 -17 42 -26t47 -9q13 0 27.5 3.5t26.5 12t20 22t8 33.5v70q-32 -18 -58.5 -27t-45.5 -9q-51 0 -80 29.5t-29 78.5v46q0 25 11.5 45.5
t30.5 35t43.5 22.5t50.5 8zM73 540q0 -31 16 -46t41 -15t49 12.5t51 23.5v60q0 19 -7.5 32t-19 21t-25.5 11.5t-26 3.5t-26 -4t-26 -12t-19.5 -21.5t-7.5 -31.5v-34z" />
    <glyph glyph-name="parenleft.numerator" unicode="&#xe2da;" horiz-adv-x="188" 
d="M32 458q0 36 9 71t24.5 67.5t36.5 61.5t45 54l34 -20q-42 -51 -66 -113t-24 -126q0 -63 24.5 -119.5t63.5 -107.5l-29 -22q-24 25 -45.5 54t-37.5 61.5t-25.5 67.5t-9.5 71z" />
    <glyph glyph-name="parenright.numerator" unicode="&#xe2db;" horiz-adv-x="185" 
d="M162 457q0 -36 -9.5 -71t-26 -67.5t-37.5 -61.5t-45 -53l-29 22q39 49 63.5 110.5t24.5 123.5q0 59 -24 120t-65 112l16 10l16 10q24 -25 45 -54.5t37 -62t25 -67.5t9 -71z" />
    <glyph glyph-name="comma.numerator" unicode="&#xe2dc;" horiz-adv-x="147" 
d="M80 344q17 0 29 -12.5t12 -35.5q0 -25 -15.5 -52t-42.5 -43l-17 21q14 11 21 24.5t9 24.5q-14 1 -24 10.5t-10 26.5q0 16 11.5 26t26.5 10z" />
    <glyph glyph-name="period.numerator" unicode="&#xe2dd;" horiz-adv-x="132" 
d="M31 309q0 14 9.5 24.5t26.5 10.5t27 -10.5t10 -24.5t-10 -25t-27 -11t-26.5 10.5t-9.5 25.5z" />
    <glyph glyph-name="fraction" unicode="&#x2044;" horiz-adv-x="150" 
d="M-111 -17h-53l424 730h54z" />
    <glyph glyph-name="fraction" unicode="&#x2215;" horiz-adv-x="150" 
d="M-111 -17h-53l424 730h54z" />
    <glyph glyph-name="ring" unicode="&#x2da;" horiz-adv-x="483" 
d="M351 644q0 -41 -28.5 -69.5t-69.5 -28.5t-69.5 28.5t-28.5 69.5t28.5 68.5t69.5 27.5t69.5 -27.5t28.5 -68.5zM312 644q0 24 -16.5 41t-42.5 17q-25 0 -42 -17t-17 -41q0 -25 17 -42t42 -17q26 0 42.5 17t16.5 42z" />
    <glyph glyph-name="mu" unicode="&#xb5;" horiz-adv-x="497" 
d="M383 0l-2 59q-32 -21 -56.5 -33.5t-45 -19t-37 -9t-31.5 -2.5q-63 0 -97 35v-231h-65q0 29 -0.5 83.5t-0.5 122.5v142v141.5v122v83.5h66v-315q0 -65 28.5 -93t75.5 -27q33 0 74 18t89 51v366h66v-494h-64z" />
    <glyph glyph-name="mu" unicode="&#x3bc;" horiz-adv-x="497" 
d="M383 0l-2 59q-32 -21 -56.5 -33.5t-45 -19t-37 -9t-31.5 -2.5q-63 0 -97 35v-231h-65q0 29 -0.5 83.5t-0.5 122.5v142v141.5v122v83.5h66v-315q0 -65 28.5 -93t75.5 -27q33 0 74 18t89 51v366h66v-494h-64z" />
    <glyph glyph-name="guilsinglleft" unicode="&#x2039;" horiz-adv-x="288" 
d="M176 46l-122 180l123 179h61l-118 -179l118 -180h-62z" />
    <glyph glyph-name="guilsinglright" unicode="&#x203a;" horiz-adv-x="288" 
d="M54 46l118 180l-118 179h61l123 -179l-122 -180h-62z" />
    <glyph glyph-name="macron" unicode="&#xaf;" horiz-adv-x="483" 
d="M128 597v58h262v-58h-262z" />
    <glyph glyph-name="primemod" unicode="&#x2b9;" horiz-adv-x="232" 
d="M215 670l-131 -257l-45 13l97 264z" />
    <glyph glyph-name="caron" unicode="&#x2c7;" horiz-adv-x="487" 
d="M377 722l30 -29l-134 -138h-45l-142 139l31 29l130 -102z" />
    <glyph glyph-name="breve" unicode="&#x2d8;" horiz-adv-x="505" 
d="M183 686q4 -27 26 -47.5t54 -20.5q35 0 55.5 19.5t24.5 48.5h55q-3 -19 -10.5 -40t-23.5 -39t-40.5 -29.5t-60.5 -11.5q-37 0 -62.5 11.5t-41.5 29.5t-23.5 39t-8.5 40h56z" />
    <glyph glyph-name="dotaccent" unicode="&#x2d9;" horiz-adv-x="483" 
d="M202 641q0 16 11.5 29t31.5 13q22 0 34 -13t12 -29q0 -19 -12 -32.5t-34 -13.5q-20 0 -31.5 13t-11.5 33z" />
    <glyph glyph-name="ogonek" unicode="&#x2db;" horiz-adv-x="342" 
d="M91 -92q0 20 8.5 43t31.5 51h44l1 -2q-17 -23 -25 -43.5t-8 -37.5q0 -24 14 -36t37 -12q12 0 26 4.5t31 12.5l17 -42q-17 -9 -40 -16t-46 -7q-42 0 -66.5 25t-24.5 60z" />
    <glyph glyph-name="hungarumlaut" unicode="&#x2dd;" horiz-adv-x="530" 
d="M165 573l75 166l65 -22l-99 -160zM281 573l75 166l65 -22l-100 -160z" />
    <glyph glyph-name="Circumflex" unicode="&#xf6c0;" horiz-adv-x="600" 
d="M297 820l-138 -85l-23 29l141 119h45l135 -117l-24 -30z" />
    <glyph glyph-name="commaaccent" unicode="&#xf6c3;" horiz-adv-x="588" 
d="M245 -107q0 20 14 34t37 14q29 0 42.5 -20.5t13.5 -46.5q0 -45 -25.5 -81t-60.5 -53l-23 30q20 16 31.5 32.5t13.5 42.5q-19 1 -31 14.5t-12 33.5z" />
    <glyph glyph-name="Acute" unicode="&#xf6c9;" horiz-adv-x="598" 
d="M244 766l142 115l47 -49l-161 -98z" />
    <glyph glyph-name="Caron" unicode="&#xf6ca;" horiz-adv-x="598" 
d="M430 885l24 -30l-135 -118h-45l-141 119l23 30l138 -86z" />
    <glyph glyph-name="Dieresis" unicode="&#xf6cb;" horiz-adv-x="592" 
d="M427 798q0 -17 -12 -28.5t-29 -11.5t-28.5 11.5t-11.5 28.5t11.5 28.5t28.5 11.5t29 -11.5t12 -28.5zM245 798q0 -17 -12.5 -28.5t-29.5 -11.5q-16 0 -27.5 11.5t-11.5 28.5t11.5 28.5t27.5 11.5q17 0 29.5 -11.5t12.5 -28.5z" />
    <glyph glyph-name="DieresisAcute" unicode="&#xf6cc;" horiz-adv-x="592" 
d="M447 798q0 -17 -12 -28.5t-29 -11.5t-28.5 11.5t-11.5 28.5t11.5 28.5t28.5 11.5t29 -11.5t12 -28.5zM225 798q0 -17 -12.5 -28.5t-29.5 -11.5q-16 0 -27.5 11.5t-11.5 28.5t11.5 28.5t27.5 11.5q17 0 29.5 -11.5t12.5 -28.5zM223 755l114 145l56 -38l-134 -131z" />
    <glyph glyph-name="DieresisGrave" unicode="&#xf6cd;" horiz-adv-x="592" 
d="M447 798q0 -17 -12 -28.5t-29 -11.5t-28.5 11.5t-11.5 28.5t11.5 28.5t28.5 11.5t29 -11.5t12 -28.5zM225 798q0 -17 -12.5 -28.5t-29.5 -11.5q-16 0 -27.5 11.5t-11.5 28.5t11.5 28.5t27.5 11.5q17 0 29.5 -11.5t12.5 -28.5zM337 731l-134 131l56 38l114 -145z" />
    <glyph glyph-name="Grave" unicode="&#xf6ce;" horiz-adv-x="572" 
d="M321 734l-161 98l47 49l143 -115z" />
    <glyph glyph-name="Hungarumlaut" unicode="&#xf6cf;" horiz-adv-x="572" 
d="M305 766l142 115l47 -49l-161 -98zM169 766l142 115l48 -49l-162 -98z" />
    <glyph glyph-name="Macron" unicode="&#xf6d0;" horiz-adv-x="592" 
d="M165 775v58h262v-58h-262z" />
    <glyph glyph-name="cyrBreve" unicode="&#xf6d1;" horiz-adv-x="592" 
d="M217 850q3 -25 24.5 -46.5t55.5 -21.5q36 0 56.5 21.5t22.5 46.5h56q-2 -19 -10 -40t-23.5 -38.5t-40.5 -29t-61 -11.5q-37 0 -62.5 11.5t-41.5 29t-24 38.5t-9 40h57z" />
    <glyph glyph-name="cyrbreve" unicode="&#xf6d4;" horiz-adv-x="511" 
d="M192 703q1 -12 8 -24.5t17.5 -22t24.5 -15.5t30 -6q35 0 56.5 21.5t23.5 46.5h55q-2 -19 -10 -40.5t-23.5 -39.5t-40.5 -29.5t-61 -11.5t-61.5 11.5t-41.5 29.5t-24 39.5t-9 40.5h56z" />
    <glyph glyph-name="Scaron" unicode="&#x160;" horiz-adv-x="546" 
d="M515 186q0 -45 -17.5 -80.5t-49 -60t-76 -38t-98.5 -13.5q-69 0 -128.5 19t-115.5 58l37 52q46 -29 99 -47.5t109 -18.5q75 0 121 33.5t46 95.5q0 37 -16 60t-41.5 37.5t-57 22.5t-62.5 14q-41 7 -79.5 20t-68.5 34.5t-48.5 54t-18.5 80.5q0 42 15 77t43.5 60.5t69 39.5
t91.5 14q57 0 112 -10.5t104 -39.5l-32 -60q-44 24 -92 35t-95 11q-29 0 -55.5 -7.5t-47 -23.5t-32.5 -40.5t-12 -57.5q0 -32 16 -53t41 -35t55 -22t59 -14q45 -10 86 -22.5t71.5 -34t49 -55t18.5 -85.5zM415 885l24 -30l-135 -118h-45l-141 119l23 30l138 -86z" />
    <glyph glyph-name="Zcaron" unicode="&#x17d;" horiz-adv-x="520" 
d="M483 628l-362 -565h361v-63h-444v62l361 563h-346v64h430v-61zM398 885l24 -30l-135 -118h-45l-141 119l23 30l138 -86z" />
    <glyph glyph-name="scaron" unicode="&#x161;" horiz-adv-x="447" 
d="M231 49q21 0 42 4.5t38 15t27.5 27.5t10.5 42q0 32 -21 49t-59 26q-35 9 -74.5 15.5t-72.5 20t-54.5 38t-21.5 68.5q0 32 13 58.5t36 45.5t55.5 29.5t70.5 10.5q54 0 95 -10.5t78 -36.5l-16.5 -24.5l-16.5 -24.5q-33 20 -67 29t-72 9q-51 0 -82 -24t-31 -62
q0 -18 9 -30.5t24.5 -21t37 -14t46.5 -10.5l64.5 -13t61.5 -22t45.5 -40.5t17.5 -67.5q0 -32 -13.5 -58t-38.5 -45t-59.5 -29t-77.5 -10q-50 0 -98 11.5t-95 46.5l35 49q37 -29 76.5 -40.5t86.5 -11.5zM360 722l30 -29l-134 -138h-45l-142 139l31 29l130 -102z" />
    <glyph glyph-name="zcaron" unicode="&#x17e;" horiz-adv-x="435" 
d="M36 0v53l279 382h-264v58h345v-54l-278 -381h278v-58h-360zM352 722l30 -29l-134 -138h-45l-142 139l31 29l130 -102z" />
    <glyph glyph-name="Ydieresis" unicode="&#x178;" horiz-adv-x="514" 
d="M292 0h-71v261l-104 214l-105 214h77l16 -33.5l28 -60l34.5 -74l36 -76l32 -66.5t22.5 -45l18 39l30 64l35.5 76l35 75.5l29.5 63l18 37.5h75l-207 -426v-263zM389 798q0 -17 -12 -28.5t-29 -11.5t-28.5 11.5t-11.5 28.5t11.5 28.5t28.5 11.5t29 -11.5t12 -28.5zM207 798
q0 -17 -12.5 -28.5t-29.5 -11.5q-16 0 -27.5 11.5t-11.5 28.5t11.5 28.5t27.5 11.5q17 0 29.5 -11.5t12.5 -28.5z" />
    <glyph glyph-name="Agrave" unicode="&#xc0;" horiz-adv-x="583" 
d="M493 0l-27 80l-27 80h-295l-54 -160h-74l119.5 344.5l119.5 344.5h74l240 -689h-76zM290 598l-25.5 -80l-35 -106.5l-35.5 -106.5l-27 -81h250q-9 30 -26 81l-36 106.5l-36 106.5l-26 80h-3zM296 734l-161 98l47 49l143 -115z" />
    <glyph glyph-name="Aacute" unicode="&#xc1;" horiz-adv-x="583" 
d="M493 0l-27 80l-27 80h-295l-54 -160h-74l119.5 344.5l119.5 344.5h74l240 -689h-76zM290 598l-25.5 -80l-35 -106.5l-35.5 -106.5l-27 -81h250q-9 30 -26 81l-36 106.5l-36 106.5l-26 80h-3zM250 766l142 115l47 -49l-161 -98z" />
    <glyph glyph-name="Acircumflex" unicode="&#xc2;" horiz-adv-x="583" 
d="M493 0l-27 80l-27 80h-295l-54 -160h-74l119.5 344.5l119.5 344.5h74l240 -689h-76zM290 598l-25.5 -80l-35 -106.5l-35.5 -106.5l-27 -81h250q-9 30 -26 81l-36 106.5l-36 106.5l-26 80h-3zM294 820l-138 -85l-23 29l141 119h45l135 -117l-24 -30z" />
    <glyph glyph-name="Atilde" unicode="&#xc3;" horiz-adv-x="583" 
d="M493 0l-27 80l-27 80h-295l-54 -160h-74l119.5 344.5l119.5 344.5h74l240 -689h-76zM290 598l-25.5 -80l-35 -106.5l-35.5 -106.5l-27 -81h250q-9 30 -26 81l-36 106.5l-36 106.5l-26 80h-3zM226 862q17 0 34.5 -7t34.5 -15.5t32.5 -15.5t28.5 -7q30 0 59 43l41 -23
q-20 -41 -44 -59t-52 -18q-17 0 -33.5 6.5t-33 14t-32.5 14t-31 6.5q-18 0 -32 -9.5t-31 -30.5l-41 24q20 37 46 57t54 20z" />
    <glyph glyph-name="Adieresis" unicode="&#xc4;" horiz-adv-x="583" 
d="M493 0l-27 80l-27 80h-295l-54 -160h-74l119.5 344.5l119.5 344.5h74l240 -689h-76zM290 598l-25.5 -80l-35 -106.5l-35.5 -106.5l-27 -81h250q-9 30 -26 81l-36 106.5l-36 106.5l-26 80h-3zM426 798q0 -17 -12 -28.5t-29 -11.5t-28.5 11.5t-11.5 28.5t11.5 28.5
t28.5 11.5t29 -11.5t12 -28.5zM244 798q0 -17 -12.5 -28.5t-29.5 -11.5q-16 0 -27.5 11.5t-11.5 28.5t11.5 28.5t27.5 11.5q17 0 29.5 -11.5t12.5 -28.5z" />
    <glyph glyph-name="Aring" unicode="&#xc5;" horiz-adv-x="583" 
d="M493 0l-27 80l-27 80h-295l-54 -160h-74l119.5 344.5l119.5 344.5h74l240 -689h-76zM290 598l-25.5 -80l-35 -106.5l-35.5 -106.5l-27 -81h250q-9 30 -26 81l-36 106.5l-36 106.5l-26 80h-3zM390 812q0 -41 -28.5 -69.5t-69.5 -28.5t-69.5 28.5t-28.5 69.5t28.5 68.5
t69.5 27.5t69.5 -27.5t28.5 -68.5zM351 812q0 24 -16.5 41t-42.5 17q-25 0 -42 -17t-17 -41q0 -25 17 -42t42 -17q26 0 42.5 17t16.5 42z" />
    <glyph glyph-name="Ccedilla" unicode="&#xc7;" horiz-adv-x="515" 
d="M284 -161q23 0 39.5 9.5t16.5 30.5q0 16 -14 29.5t-40 13.5h-7t-8 -1l-25 14l18 60q-46 5 -85 23t-67 47t-43.5 68.5t-15.5 87.5v249q0 51 19 92.5t52 71.5t77.5 46t96.5 16q110 0 186 -57l-36 -55q-30 23 -69.5 35t-80.5 12q-33 0 -64 -10t-56 -31t-40 -54.5t-15 -80.5
v-220q0 -47 15.5 -80.5t40 -55t55.5 -32t62 -10.5q42 0 82 11.5t72 37.5l35 -54q-29 -23 -77 -40.5t-107 -18.5l-11 -34q28 -1 46.5 -9.5t29.5 -20.5t16 -25.5t5 -24.5q0 -12 -5 -25.5t-17 -25.5t-31 -19.5t-47 -7.5q-14 0 -36 2.5t-48 12.5l13 34q19 -6 36.5 -8.5
t31.5 -2.5z" />
    <glyph glyph-name="Egrave" unicode="&#xc8;" horiz-adv-x="545" 
d="M59 0v689h452v-64h-382v-246h328v-64h-328v-252h382v-63h-452zM308 734l-161 98l47 49l143 -115z" />
    <glyph glyph-name="Eacute" unicode="&#xc9;" horiz-adv-x="545" 
d="M59 0v689h452v-64h-382v-246h328v-64h-328v-252h382v-63h-452zM224 766l142 115l47 -49l-161 -98z" />
    <glyph glyph-name="Ecircumflex" unicode="&#xca;" horiz-adv-x="545" 
d="M59 0v689h452v-64h-382v-246h328v-64h-328v-252h382v-63h-452zM290 820l-138 -85l-23 29l141 119h45l135 -117l-24 -30z" />
    <glyph glyph-name="Edieresis" unicode="&#xcb;" horiz-adv-x="545" 
d="M59 0v689h452v-64h-382v-246h328v-64h-328v-252h382v-63h-452zM416 797q0 -17 -11.5 -29t-28.5 -12t-28.5 12t-11.5 29t11.5 28.5t28.5 11.5t28.5 -11.5t11.5 -28.5zM234 797q0 -17 -12 -29t-29 -12q-16 0 -28 12t-12 29t12 28.5t28 11.5q17 0 29 -11.5t12 -28.5z" />
    <glyph glyph-name="Igrave" unicode="&#xcc;" horiz-adv-x="234" 
d="M82 0v689h70v-689h-70zM123 734l-161 98l47 49l143 -115z" />
    <glyph glyph-name="Iacute" unicode="&#xcd;" horiz-adv-x="234" 
d="M82 0v689h70v-689h-70zM82 766l142 115l47 -49l-161 -98z" />
    <glyph glyph-name="Icircumflex" unicode="&#xce;" horiz-adv-x="234" 
d="M82 0v689h70v-689h-70zM116 820l-138 -85l-23 29l141 119h45l135 -117l-24 -30z" />
    <glyph glyph-name="Idieresis" unicode="&#xcf;" horiz-adv-x="234" 
d="M82 0v689h70v-689h-70zM250 798q0 -17 -12 -28.5t-29 -11.5t-28.5 11.5t-11.5 28.5t11.5 28.5t28.5 11.5t29 -11.5t12 -28.5zM68 798q0 -17 -12.5 -28.5t-29.5 -11.5q-16 0 -27.5 11.5t-11.5 28.5t11.5 28.5t27.5 11.5q17 0 29.5 -11.5t12.5 -28.5z" />
    <glyph glyph-name="Eth" unicode="&#xd0;" horiz-adv-x="593" 
d="M6 385h51v304h257q51 0 93 -16t72 -45t47 -71t17 -93v-240q0 -50 -17.5 -91.5t-48 -71t-73 -45.5t-92.5 -16h-255v331h-51v54zM471 451q0 48 -15 81t-39 53.5t-54.5 30t-61.5 9.5h-174v-240h147v-54h-147v-269h168q31 0 62.5 9t56.5 30t41 54t16 81v215z" />
    <glyph glyph-name="Ntilde" unicode="&#xd1;" horiz-adv-x="629" 
d="M501 134v555h70v-689h-70l-28 42l-43.5 65.5l-54 81l-59.5 89l-59.5 89l-54.5 80.5l-44 64.5l-28 40.5h-3v-552h-70v689h68l40.5 -61l65 -98l77.5 -116.5l78 -117l66.5 -99.5t43.5 -63h5zM249 852q17 0 34.5 -7t34.5 -15.5t32.5 -15.5t28.5 -7q30 0 59 43l41 -23
q-20 -41 -44 -59t-52 -18q-17 0 -33.5 6.5t-33 14t-32.5 14t-31 6.5q-18 0 -32 -9.5t-31 -30.5l-41 24q20 37 46 57t54 20z" />
    <glyph glyph-name="Ograve" unicode="&#xd2;" horiz-adv-x="600" 
d="M549 223q0 -53 -18.5 -95.5t-51.5 -72.5t-79 -46t-100 -16q-56 0 -101.5 16.5t-78 46.5t-50.5 72.5t-18 95.5v241q0 51 17.5 93.5t50 73t78.5 47.5t102 17q55 0 101 -17t79 -47.5t51 -73t18 -93.5v-242zM478 455q0 46 -14.5 79t-39 54.5t-56.5 32t-68 10.5
q-37 0 -69.5 -10.5t-56.5 -32t-38 -54.5t-14 -79v-223q0 -47 15 -80t40 -54t57 -31t66 -10q36 0 68.5 10t56.5 31.5t38.5 54.5t14.5 79v223zM319 734l-161 98l47 49l143 -115z" />
    <glyph glyph-name="Oacute" unicode="&#xd3;" horiz-adv-x="600" 
d="M549 223q0 -53 -18.5 -95.5t-51.5 -72.5t-79 -46t-100 -16q-56 0 -101.5 16.5t-78 46.5t-50.5 72.5t-18 95.5v241q0 51 17.5 93.5t50 73t78.5 47.5t102 17q55 0 101 -17t79 -47.5t51 -73t18 -93.5v-242zM478 455q0 46 -14.5 79t-39 54.5t-56.5 32t-68 10.5
q-37 0 -69.5 -10.5t-56.5 -32t-38 -54.5t-14 -79v-223q0 -47 15 -80t40 -54t57 -31t66 -10q36 0 68.5 10t56.5 31.5t38.5 54.5t14.5 79v223zM255 766l142 115l47 -49l-161 -98z" />
    <glyph glyph-name="Ocircumflex" unicode="&#xd4;" horiz-adv-x="600" 
d="M549 223q0 -53 -18.5 -95.5t-51.5 -72.5t-79 -46t-100 -16q-56 0 -101.5 16.5t-78 46.5t-50.5 72.5t-18 95.5v241q0 51 17.5 93.5t50 73t78.5 47.5t102 17q55 0 101 -17t79 -47.5t51 -73t18 -93.5v-242zM478 455q0 46 -14.5 79t-39 54.5t-56.5 32t-68 10.5
q-37 0 -69.5 -10.5t-56.5 -32t-38 -54.5t-14 -79v-223q0 -47 15 -80t40 -54t57 -31t66 -10q36 0 68.5 10t56.5 31.5t38.5 54.5t14.5 79v223zM302 820l-138 -85l-23 29l141 119h45l135 -117l-24 -30z" />
    <glyph glyph-name="Otilde" unicode="&#xd5;" horiz-adv-x="600" 
d="M549 223q0 -53 -18.5 -95.5t-51.5 -72.5t-79 -46t-100 -16q-56 0 -101.5 16.5t-78 46.5t-50.5 72.5t-18 95.5v241q0 51 17.5 93.5t50 73t78.5 47.5t102 17q55 0 101 -17t79 -47.5t51 -73t18 -93.5v-242zM478 455q0 46 -14.5 79t-39 54.5t-56.5 32t-68 10.5
q-37 0 -69.5 -10.5t-56.5 -32t-38 -54.5t-14 -79v-223q0 -47 15 -80t40 -54t57 -31t66 -10q36 0 68.5 10t56.5 31.5t38.5 54.5t14.5 79v223zM236 848q17 0 34.5 -7t34.5 -15.5t32.5 -15.5t28.5 -7q30 0 59 43l41 -23q-20 -41 -44 -59t-52 -18q-17 0 -33.5 6.5t-33 14
t-32.5 14t-31 6.5q-18 0 -32 -9.5t-31 -30.5l-41 24q20 37 46 57t54 20z" />
    <glyph glyph-name="Odieresis" unicode="&#xd6;" horiz-adv-x="600" 
d="M549 223q0 -53 -18.5 -95.5t-51.5 -72.5t-79 -46t-100 -16q-56 0 -101.5 16.5t-78 46.5t-50.5 72.5t-18 95.5v241q0 51 17.5 93.5t50 73t78.5 47.5t102 17q55 0 101 -17t79 -47.5t51 -73t18 -93.5v-242zM478 455q0 46 -14.5 79t-39 54.5t-56.5 32t-68 10.5
q-37 0 -69.5 -10.5t-56.5 -32t-38 -54.5t-14 -79v-223q0 -47 15 -80t40 -54t57 -31t66 -10q36 0 68.5 10t56.5 31.5t38.5 54.5t14.5 79v223zM434 798q0 -17 -12 -28.5t-29 -11.5t-28.5 11.5t-11.5 28.5t11.5 28.5t28.5 11.5t29 -11.5t12 -28.5zM252 798q0 -17 -12.5 -28.5
t-29.5 -11.5q-16 0 -27.5 11.5t-11.5 28.5t11.5 28.5t27.5 11.5q17 0 29.5 -11.5t12.5 -28.5z" />
    <glyph glyph-name="Oslash" unicode="&#xd8;" horiz-adv-x="600" 
d="M549 223q0 -53 -18.5 -95.5t-51.5 -72.5t-79 -46t-100 -16q-109 0 -175 58l-39 -58l-35 24l45 66q-21 28 -32.5 63.5t-11.5 77.5v241q0 51 17.5 93.5t50 73t78.5 47.5t102 17q53 0 97 -15.5t76 -43.5l41 59l35 -24l-46 -67q22 -29 34 -64t12 -76v-242zM478 455
q0 26 -5 47t-13 39l-295 -432q26 -27 61.5 -39.5t73.5 -12.5q36 0 68.5 10t56.5 31.5t38.5 54.5t14.5 79v223zM122 232q0 -49 17 -85l295 432q-25 27 -60 39.5t-74 12.5q-37 0 -69.5 -10.5t-56.5 -32t-38 -54.5t-14 -79v-223z" />
    <glyph glyph-name="Ugrave" unicode="&#xd9;" horiz-adv-x="600" 
d="M550 218q0 -52 -19 -93.5t-53 -71t-79.5 -45t-97.5 -15.5q-53 0 -98.5 15.5t-79 45t-52.5 71t-19 94.5v470h71v-457q0 -47 14.5 -80t39.5 -54t57 -31t67 -10q34 0 66.5 10t57 31t39.5 54t15 80v457h71v-471zM324 734l-161 98l47 49l143 -115z" />
    <glyph glyph-name="Uacute" unicode="&#xda;" horiz-adv-x="600" 
d="M550 218q0 -52 -19 -93.5t-53 -71t-79.5 -45t-97.5 -15.5q-53 0 -98.5 15.5t-79 45t-52.5 71t-19 94.5v470h71v-457q0 -47 14.5 -80t39.5 -54t57 -31t67 -10q34 0 66.5 10t57 31t39.5 54t15 80v457h71v-471zM247 766l142 115l47 -49l-161 -98z" />
    <glyph glyph-name="Ucircumflex" unicode="&#xdb;" horiz-adv-x="600" 
d="M550 218q0 -52 -19 -93.5t-53 -71t-79.5 -45t-97.5 -15.5q-53 0 -98.5 15.5t-79 45t-52.5 71t-19 94.5v470h71v-457q0 -47 14.5 -80t39.5 -54t57 -31t67 -10q34 0 66.5 10t57 31t39.5 54t15 80v457h71v-471zM300 820l-138 -85l-23 29l141 119h45l135 -117l-24 -30z" />
    <glyph glyph-name="Udieresis" unicode="&#xdc;" horiz-adv-x="600" 
d="M550 218q0 -52 -19 -93.5t-53 -71t-79.5 -45t-97.5 -15.5q-53 0 -98.5 15.5t-79 45t-52.5 71t-19 94.5v470h71v-457q0 -47 14.5 -80t39.5 -54t57 -31t67 -10q34 0 66.5 10t57 31t39.5 54t15 80v457h71v-471zM437 798q0 -17 -12 -28.5t-29 -11.5t-28.5 11.5t-11.5 28.5
t11.5 28.5t28.5 11.5t29 -11.5t12 -28.5zM255 798q0 -17 -12.5 -28.5t-29.5 -11.5q-16 0 -27.5 11.5t-11.5 28.5t11.5 28.5t27.5 11.5q17 0 29.5 -11.5t12.5 -28.5z" />
    <glyph glyph-name="Yacute" unicode="&#xdd;" horiz-adv-x="514" 
d="M292 0h-71v261l-104 214l-105 214h77l16 -33.5l28 -60l34.5 -74l36 -76l32 -66.5t22.5 -45l18 39l30 64l35.5 76l35 75.5l29.5 63l18 37.5h75l-207 -426v-263zM187 766l142 115l47 -49l-161 -98z" />
    <glyph glyph-name="Thorn" unicode="&#xde;" horiz-adv-x="547" 
d="M526 357q0 -36 -13 -72t-38 -64.5t-60.5 -46.5t-81.5 -18h-209v-156h-70v689h71v-130h208q49 0 85.5 -18t60.5 -46.5t35.5 -65t11.5 -72.5zM455 357q0 31 -10.5 56.5t-29 43.5t-43.5 27.5t-53 9.5h-195v-273h195q28 0 53 9.5t43.5 27t29 42.5t10.5 57z" />
    <glyph glyph-name="agrave" unicode="&#xe0;" horiz-adv-x="481" 
d="M367 54q-65 -38 -106 -48.5t-70 -10.5q-70 0 -113 37.5t-43 106.5q0 40 17.5 67.5t43.5 44.5t56 24.5t56 7.5h161v44q0 58 -31.5 85t-93.5 27q-31 0 -68 -8.5t-75 -37.5l-33 50q45 33 90.5 44.5t90.5 11.5q99 0 142 -44t43 -126v-329h-56l-9 53zM369 228h-146
q-18 0 -39 -2.5t-39 -12t-30 -27t-12 -47.5q0 -44 29 -64.5t71 -20.5q20 0 42 6t44 15t42.5 20t37.5 21v112zM246 557l-99 160l65 22l75 -166z" />
    <glyph glyph-name="aacute" unicode="&#xe1;" horiz-adv-x="481" 
d="M367 54q-65 -38 -106 -48.5t-70 -10.5q-70 0 -113 37.5t-43 106.5q0 40 17.5 67.5t43.5 44.5t56 24.5t56 7.5h161v44q0 58 -31.5 85t-93.5 27q-31 0 -68 -8.5t-75 -37.5l-33 50q45 33 90.5 44.5t90.5 11.5q99 0 142 -44t43 -126v-329h-56l-9 53zM369 228h-146
q-18 0 -39 -2.5t-39 -12t-30 -27t-12 -47.5q0 -44 29 -64.5t71 -20.5q20 0 42 6t44 15t42.5 20t37.5 21v112zM228 573l75 166l66 -22l-100 -160z" />
    <glyph glyph-name="acircumflex" unicode="&#xe2;" horiz-adv-x="481" 
d="M367 54q-65 -38 -106 -48.5t-70 -10.5q-70 0 -113 37.5t-43 106.5q0 40 17.5 67.5t43.5 44.5t56 24.5t56 7.5h161v44q0 58 -31.5 85t-93.5 27q-31 0 -68 -8.5t-75 -37.5l-33 50q45 33 90.5 44.5t90.5 11.5q99 0 142 -44t43 -126v-329h-56l-9 53zM369 228h-146
q-18 0 -39 -2.5t-39 -12t-30 -27t-12 -47.5q0 -44 29 -64.5t71 -20.5q20 0 42 6t44 15t42.5 20t37.5 21v112zM247 657l-130 -103l-31 30l142 138h45l134 -137l-30 -30z" />
    <glyph glyph-name="atilde" unicode="&#xe3;" horiz-adv-x="481" 
d="M367 54q-65 -38 -106 -48.5t-70 -10.5q-70 0 -113 37.5t-43 106.5q0 40 17.5 67.5t43.5 44.5t56 24.5t56 7.5h161v44q0 58 -31.5 85t-93.5 27q-31 0 -68 -8.5t-75 -37.5l-33 50q45 33 90.5 44.5t90.5 11.5q99 0 142 -44t43 -126v-329h-56l-9 53zM369 228h-146
q-18 0 -39 -2.5t-39 -12t-30 -27t-12 -47.5q0 -44 29 -64.5t71 -20.5q20 0 42 6t44 15t42.5 20t37.5 21v112zM185 692q17 0 34.5 -7t34.5 -15.5t32.5 -15.5t28.5 -7q30 0 59 43l41 -23q-20 -41 -44 -59t-52 -18q-17 0 -33.5 6.5t-33 14t-32.5 14t-31 6.5q-18 0 -32 -9.5
t-31 -30.5l-41 24q20 37 46 57t54 20z" />
    <glyph glyph-name="adieresis" unicode="&#xe4;" horiz-adv-x="481" 
d="M367 54q-65 -38 -106 -48.5t-70 -10.5q-70 0 -113 37.5t-43 106.5q0 40 17.5 67.5t43.5 44.5t56 24.5t56 7.5h161v44q0 58 -31.5 85t-93.5 27q-31 0 -68 -8.5t-75 -37.5l-33 50q45 33 90.5 44.5t90.5 11.5q99 0 142 -44t43 -126v-329h-56l-9 53zM369 228h-146
q-18 0 -39 -2.5t-39 -12t-30 -27t-12 -47.5q0 -44 29 -64.5t71 -20.5q20 0 42 6t44 15t42.5 20t37.5 21v112zM389 644q0 -17 -12 -28.5t-29 -11.5t-28.5 11.5t-11.5 28.5t11.5 29t28.5 12t29 -12t12 -29zM207 644q0 -17 -12.5 -28.5t-29.5 -11.5q-16 0 -27.5 11.5
t-11.5 28.5t11.5 29t27.5 12q17 0 29.5 -12t12.5 -29z" />
    <glyph glyph-name="aring" unicode="&#xe5;" horiz-adv-x="481" 
d="M367 54q-65 -38 -106 -48.5t-70 -10.5q-70 0 -113 37.5t-43 106.5q0 40 17.5 67.5t43.5 44.5t56 24.5t56 7.5h161v44q0 58 -31.5 85t-93.5 27q-31 0 -68 -8.5t-75 -37.5l-33 50q45 33 90.5 44.5t90.5 11.5q99 0 142 -44t43 -126v-329h-56l-9 53zM369 228h-146
q-18 0 -39 -2.5t-39 -12t-30 -27t-12 -47.5q0 -44 29 -64.5t71 -20.5q20 0 42 6t44 15t42.5 20t37.5 21v112zM356 644q0 -41 -28.5 -69.5t-69.5 -28.5t-69.5 28.5t-28.5 69.5t28.5 68.5t69.5 27.5t69.5 -27.5t28.5 -68.5zM317 644q0 24 -16.5 41t-42.5 17q-25 0 -42 -17
t-17 -41q0 -25 17 -42t42 -17q26 0 42.5 17t16.5 42z" />
    <glyph glyph-name="ae" unicode="&#xe6;" horiz-adv-x="796" 
d="M435 178q0 -34 11.5 -58t30.5 -39t44 -21.5t51 -6.5q33 0 66 11.5t62 38.5l41 -45q-35 -35 -79 -49t-92 -14q-55 0 -99.5 19t-73.5 59q-38 -27 -68.5 -43t-56 -23.5t-45.5 -9.5t-36 -2q-70 0 -113 37.5t-43 106.5q0 40 17.5 66.5t43.5 43t56 23.5t56 7h161v47
q0 33 -9.5 54.5t-27 34.5t-41 18.5t-50.5 5.5q-31 0 -66.5 -8.5t-73.5 -37.5l-33 50q45 32 88 43.5t88 11.5q63 0 102.5 -19.5t59.5 -54.5q26 35 66.5 54.5t92.5 19.5q43 0 78.5 -12.5t61 -36t39.5 -57t14 -75.5v-92h-323v-47zM223 225q-18 0 -39 -2t-39 -11t-30 -26
t-12 -47q0 -45 29 -65.5t71 -20.5q41 0 88 19t82 45q-2 15 -3 32t-1 35v41h-146zM565 439q-25 0 -48.5 -8t-41.5 -24t-29 -41t-11 -59v-28h257v27q0 36 -10.5 61t-28 41t-40.5 23.5t-48 7.5z" />
    <glyph glyph-name="ccedilla" unicode="&#xe7;" horiz-adv-x="420" 
d="M229 -161q23 0 39.5 9.5t16.5 30.5q0 16 -14 29.5t-40 13.5h-7t-8 -1l-25 14l19 62q-75 9 -118.5 56.5t-43.5 118.5v147q0 41 15 74.5t41.5 57t61.5 36.5t75 13q41 0 83.5 -11t74.5 -44l-40 -50q-31 27 -60.5 35t-53.5 8q-23 0 -46.5 -7t-42.5 -22.5t-30.5 -41
t-11.5 -61.5v-118q0 -36 11.5 -61t30 -40.5t42 -23t47.5 -7.5q23 0 56 9t56 30l41 -47q-32 -29 -72 -40.5t-80 -12.5l-11 -36q28 -1 46.5 -9.5t29.5 -20.5t16 -25.5t5 -24.5q0 -12 -5 -25.5t-17 -25.5t-31 -19.5t-47 -7.5q-14 0 -36 2.5t-48 12.5l13 34q19 -6 36.5 -8.5
t31.5 -2.5z" />
    <glyph glyph-name="egrave" unicode="&#xe8;" horiz-adv-x="475" 
d="M114 221v-39q0 -35 11.5 -59.5t30.5 -40t43.5 -22.5t51.5 -7q32 0 65.5 12t62.5 39l41 -45q-35 -35 -79 -49.5t-92 -14.5q-42 0 -78.5 11t-63.5 33.5t-43 56.5t-16 79v134q0 43 14.5 78.5t40.5 60t62 38t79 13.5t78.5 -13t61 -37.5t39.5 -58.5t14 -76v-93h-323zM371 306
q0 36 -10.5 61t-28.5 41t-41 23.5t-47 7.5q-25 0 -48.5 -8t-41.5 -24t-29 -40.5t-11 -58.5v-32h257v30zM243 557l-99 160l65 22l75 -166z" />
    <glyph glyph-name="eacute" unicode="&#xe9;" horiz-adv-x="475" 
d="M114 221v-39q0 -35 11.5 -59.5t30.5 -40t43.5 -22.5t51.5 -7q32 0 65.5 12t62.5 39l41 -45q-35 -35 -79 -49.5t-92 -14.5q-42 0 -78.5 11t-63.5 33.5t-43 56.5t-16 79v134q0 43 14.5 78.5t40.5 60t62 38t79 13.5t78.5 -13t61 -37.5t39.5 -58.5t14 -76v-93h-323zM371 306
q0 36 -10.5 61t-28.5 41t-41 23.5t-47 7.5q-25 0 -48.5 -8t-41.5 -24t-29 -40.5t-11 -58.5v-32h257v30zM204 573l75 166l66 -22l-100 -160z" />
    <glyph glyph-name="ecircumflex" unicode="&#xea;" horiz-adv-x="475" 
d="M114 221v-39q0 -35 11.5 -59.5t30.5 -40t43.5 -22.5t51.5 -7q32 0 65.5 12t62.5 39l41 -45q-35 -35 -79 -49.5t-92 -14.5q-42 0 -78.5 11t-63.5 33.5t-43 56.5t-16 79v134q0 43 14.5 78.5t40.5 60t62 38t79 13.5t78.5 -13t61 -37.5t39.5 -58.5t14 -76v-93h-323zM371 306
q0 36 -10.5 61t-28.5 41t-41 23.5t-47 7.5q-25 0 -48.5 -8t-41.5 -24t-29 -40.5t-11 -58.5v-32h257v30zM243 657l-130 -103l-31 30l142 138h45l134 -137l-30 -30z" />
    <glyph glyph-name="edieresis" unicode="&#xeb;" horiz-adv-x="475" 
d="M114 221v-39q0 -35 11.5 -59.5t30.5 -40t43.5 -22.5t51.5 -7q32 0 65.5 12t62.5 39l41 -45q-35 -35 -79 -49.5t-92 -14.5q-42 0 -78.5 11t-63.5 33.5t-43 56.5t-16 79v134q0 43 14.5 78.5t40.5 60t62 38t79 13.5t78.5 -13t61 -37.5t39.5 -58.5t14 -76v-93h-323zM371 306
q0 36 -10.5 61t-28.5 41t-41 23.5t-47 7.5q-25 0 -48.5 -8t-41.5 -24t-29 -40.5t-11 -58.5v-32h257v30zM379 644q0 -17 -12 -28.5t-29 -11.5t-28.5 11.5t-11.5 28.5t11.5 29t28.5 12t29 -12t12 -29zM197 644q0 -17 -12.5 -28.5t-29.5 -11.5q-16 0 -27.5 11.5t-11.5 28.5
t11.5 29t27.5 12q17 0 29.5 -12t12.5 -29z" />
    <glyph glyph-name="igrave" unicode="&#xec;" horiz-adv-x="222" 
d="M78 0v494h65v-494h-65zM92 557l-99 160l65 22l75 -166z" />
    <glyph glyph-name="iacute" unicode="&#xed;" horiz-adv-x="222" 
d="M78 0v494h65v-494h-65zM73 573l75 166l66 -22l-100 -160z" />
    <glyph glyph-name="icircumflex" unicode="&#xee;" horiz-adv-x="301" 
d="M119 0v494h65v-494h-65zM151 657l-130 -103l-31 30l142 138h45l134 -137l-30 -30z" />
    <glyph glyph-name="idieresis" unicode="&#xef;" horiz-adv-x="243" 
d="M88 0v494h65v-494h-65zM253 644q0 -17 -12 -28.5t-29 -11.5t-28.5 11.5t-11.5 28.5t11.5 29t28.5 12t29 -12t12 -29zM71 644q0 -17 -12.5 -28.5t-29.5 -11.5q-16 0 -27.5 11.5t-11.5 28.5t11.5 29t27.5 12q17 0 29.5 -12t12.5 -29z" />
    <glyph glyph-name="eth" unicode="&#xf0;" horiz-adv-x="492" 
d="M390 421q-2 45 -7.5 86t-22.5 67l-76 -54l-24 34l74 52q-20 25 -54 41.5t-91 24.5q3 14 5.5 28t4.5 28q62 -5 111 -27t76 -59l81 57l24 -34l-79 -56q15 -27 23.5 -56t12.5 -61t4.5 -68.5t0.5 -79.5v-160q0 -85 -52 -137t-150 -52q-43 0 -79 12t-62.5 35t-41 56t-14.5 75
v115q0 41 15 75.5t41 59.5t62.5 39t80.5 14q40 0 76.5 -13.5t59.5 -42.5zM388 283q0 36 -11.5 61.5t-30 41t-42 22.5t-47.5 7q-27 0 -52 -8t-43.5 -24.5t-30 -42t-11.5 -61.5v-92q0 -36 10.5 -61.5t29 -41.5t43 -23t52.5 -7q26 0 50 7.5t42.5 23t29.5 41t11 61.5v96z" />
    <glyph glyph-name="ntilde" unicode="&#xf1;" horiz-adv-x="489" 
d="M290 499q73 0 113.5 -44t40.5 -129v-326h-66v315q0 66 -27.5 93.5t-74.5 26.5q-33 0 -76.5 -18.5t-87.5 -47.5v-369h-66v494h57l9 -62q67 41 107.5 54t70.5 13zM170 692q17 0 34.5 -7t34.5 -15.5t32.5 -15.5t28.5 -7q30 0 59 43l41 -23q-20 -41 -44 -59t-52 -18
q-17 0 -33.5 6.5t-33 14t-32.5 14t-31 6.5q-18 0 -32 -9.5t-31 -30.5l-41 24q20 37 46 57t54 20z" />
    <glyph glyph-name="ograve" unicode="&#xf2;" horiz-adv-x="492" 
d="M446 174q0 -42 -15 -75.5t-42 -56.5t-63.5 -35t-79.5 -12t-79.5 12t-63 35.5t-41.5 56.5t-15 75v146q0 42 16 75t43 56t63.5 35.5t77.5 12.5q43 0 79.5 -12.5t63 -35.5t41.5 -56t15 -75v-146zM381 306q0 36 -12 61t-31.5 41t-43 23t-46.5 7q-24 0 -48 -7t-43.5 -23
t-31.5 -41t-12 -61v-118q0 -36 11 -61.5t29.5 -41.5t43 -23t51.5 -7q25 0 48.5 7.5t42.5 23t30.5 41t11.5 61.5v118zM245 557l-99 160l65 22l75 -166z" />
    <glyph glyph-name="oacute" unicode="&#xf3;" horiz-adv-x="492" 
d="M446 174q0 -42 -15 -75.5t-42 -56.5t-63.5 -35t-79.5 -12t-79.5 12t-63 35.5t-41.5 56.5t-15 75v146q0 42 16 75t43 56t63.5 35.5t77.5 12.5q43 0 79.5 -12.5t63 -35.5t41.5 -56t15 -75v-146zM381 306q0 36 -12 61t-31.5 41t-43 23t-46.5 7q-24 0 -48 -7t-43.5 -23
t-31.5 -41t-12 -61v-118q0 -36 11 -61.5t29.5 -41.5t43 -23t51.5 -7q25 0 48.5 7.5t42.5 23t30.5 41t11.5 61.5v118zM212 573l75 166l66 -22l-100 -160z" />
    <glyph glyph-name="ocircumflex" unicode="&#xf4;" horiz-adv-x="492" 
d="M446 174q0 -42 -15 -75.5t-42 -56.5t-63.5 -35t-79.5 -12t-79.5 12t-63 35.5t-41.5 56.5t-15 75v146q0 42 16 75t43 56t63.5 35.5t77.5 12.5q43 0 79.5 -12.5t63 -35.5t41.5 -56t15 -75v-146zM381 306q0 36 -12 61t-31.5 41t-43 23t-46.5 7q-24 0 -48 -7t-43.5 -23
t-31.5 -41t-12 -61v-118q0 -36 11 -61.5t29.5 -41.5t43 -23t51.5 -7q25 0 48.5 7.5t42.5 23t30.5 41t11.5 61.5v118zM249 657l-130 -103l-31 30l142 138h45l134 -137l-30 -30z" />
    <glyph glyph-name="otilde" unicode="&#xf5;" horiz-adv-x="492" 
d="M446 174q0 -42 -15 -75.5t-42 -56.5t-63.5 -35t-79.5 -12t-79.5 12t-63 35.5t-41.5 56.5t-15 75v146q0 42 16 75t43 56t63.5 35.5t77.5 12.5q43 0 79.5 -12.5t63 -35.5t41.5 -56t15 -75v-146zM381 306q0 36 -12 61t-31.5 41t-43 23t-46.5 7q-24 0 -48 -7t-43.5 -23
t-31.5 -41t-12 -61v-118q0 -36 11 -61.5t29.5 -41.5t43 -23t51.5 -7q25 0 48.5 7.5t42.5 23t30.5 41t11.5 61.5v118zM189 692q17 0 34.5 -7t34.5 -15.5t32.5 -15.5t28.5 -7q30 0 59 43l41 -23q-20 -41 -44 -59t-52 -18q-17 0 -33.5 6.5t-33 14t-32.5 14t-31 6.5
q-18 0 -32 -9.5t-31 -30.5l-41 24q20 37 46 57t54 20z" />
    <glyph glyph-name="odieresis" unicode="&#xf6;" horiz-adv-x="492" 
d="M446 174q0 -42 -15 -75.5t-42 -56.5t-63.5 -35t-79.5 -12t-79.5 12t-63 35.5t-41.5 56.5t-15 75v146q0 42 16 75t43 56t63.5 35.5t77.5 12.5q43 0 79.5 -12.5t63 -35.5t41.5 -56t15 -75v-146zM381 306q0 36 -12 61t-31.5 41t-43 23t-46.5 7q-24 0 -48 -7t-43.5 -23
t-31.5 -41t-12 -61v-118q0 -36 11 -61.5t29.5 -41.5t43 -23t51.5 -7q25 0 48.5 7.5t42.5 23t30.5 41t11.5 61.5v118zM380 644q0 -17 -12 -28.5t-29 -11.5t-28.5 11.5t-11.5 28.5t11.5 29t28.5 12t29 -12t12 -29zM198 644q0 -17 -12.5 -28.5t-29.5 -11.5q-16 0 -27.5 11.5
t-11.5 28.5t11.5 29t27.5 12q17 0 29.5 -12t12.5 -29z" />
    <glyph glyph-name="oslash" unicode="&#xf8;" horiz-adv-x="492" 
d="M446 174q0 -42 -15 -75.5t-42 -56.5t-63.5 -35t-79.5 -12q-82 0 -135 41l-33 -44l-31 25l36 47q-36 45 -36 110v146q0 42 16 75t43 56t63.5 35.5t77.5 12.5q81 0 135 -43l33 43l31 -23l-36 -47q36 -45 36 -109v-146zM381 306q0 20 -4 35.5t-11 29.5l-216 -284
q19 -17 44 -24.5t54 -7.5q25 0 48.5 7.5t42.5 23t30.5 41t11.5 61.5v118zM113 188q0 -38 13 -67l216 283q-20 18 -45 26t-49 8t-48 -7t-43.5 -23t-31.5 -41t-12 -61v-118z" />
    <glyph glyph-name="ugrave" unicode="&#xf9;" horiz-adv-x="492" 
d="M386 0l-9 60q-32 -20 -57 -32.5t-45 -20t-36 -10t-31 -2.5q-78 0 -120.5 43.5t-42.5 128.5v327h66v-317q0 -65 28 -92.5t75 -27.5q33 0 75.5 19t87.5 51v367h67v-494h-58zM246 557l-99 160l65 22l75 -166z" />
    <glyph glyph-name="uacute" unicode="&#xfa;" horiz-adv-x="492" 
d="M386 0l-9 60q-32 -20 -57 -32.5t-45 -20t-36 -10t-31 -2.5q-78 0 -120.5 43.5t-42.5 128.5v327h66v-317q0 -65 28 -92.5t75 -27.5q33 0 75.5 19t87.5 51v367h67v-494h-58zM214 573l75 166l66 -22l-100 -160z" />
    <glyph glyph-name="ucircumflex" unicode="&#xfb;" horiz-adv-x="492" 
d="M386 0l-9 60q-32 -20 -57 -32.5t-45 -20t-36 -10t-31 -2.5q-78 0 -120.5 43.5t-42.5 128.5v327h66v-317q0 -65 28 -92.5t75 -27.5q33 0 75.5 19t87.5 51v367h67v-494h-58zM246 657l-130 -103l-31 30l142 138h45l134 -137l-30 -30z" />
    <glyph glyph-name="udieresis" unicode="&#xfc;" horiz-adv-x="492" 
d="M386 0l-9 60q-32 -20 -57 -32.5t-45 -20t-36 -10t-31 -2.5q-78 0 -120.5 43.5t-42.5 128.5v327h66v-317q0 -65 28 -92.5t75 -27.5q33 0 75.5 19t87.5 51v367h67v-494h-58zM375 644q0 -17 -12 -28.5t-29 -11.5t-28.5 11.5t-11.5 28.5t11.5 29t28.5 12t29 -12t12 -29z
M193 644q0 -17 -12.5 -28.5t-29.5 -11.5q-16 0 -27.5 11.5t-11.5 28.5t11.5 29t27.5 12q17 0 29.5 -12t12.5 -29z" />
    <glyph glyph-name="yacute" unicode="&#xfd;" horiz-adv-x="448" 
d="M114 -200l73 206l-35 32l-143 455h70q5 -14 14.5 -45.5l19.5 -66l19.5 -66t14.5 -45.5l65 -210h2l75 210l16.5 45.5l23.5 66l23 66l16 45.5h70l-30.5 -83.5l-44.5 -122l-52 -141l-51.5 -141l-44.5 -122l-30 -83.5h-71zM179 573l75 166l66 -22l-100 -160z" />
    <glyph glyph-name="thorn" unicode="&#xfe;" horiz-adv-x="487" 
d="M113 689v-255q62 40 103 52.5t68 12.5q72 0 116.5 -42t44.5 -131v-158q0 -84 -46 -129t-127 -45q-29 0 -66.5 6t-92.5 32v-232h-65v889h65zM113 96q51 -23 86 -32t67 -9q52 0 82.5 27.5t30.5 92.5v143q0 65 -27 91t-73 26q-15 0 -35.5 -5t-42.5 -14t-44.5 -21.5
t-43.5 -26.5v-272z" />
    <glyph glyph-name="ydieresis" unicode="&#xff;" horiz-adv-x="448" 
d="M114 -200l73 206l-35 32l-143 455h70q5 -14 14.5 -45.5l19.5 -66l19.5 -66t14.5 -45.5l65 -210h2l75 210l16.5 45.5l23.5 66l23 66l16 45.5h70l-30.5 -83.5l-44.5 -122l-52 -141l-51.5 -141l-44.5 -122l-30 -83.5h-71zM351 644q0 -17 -12 -28.5t-29 -11.5t-28.5 11.5
t-11.5 28.5t11.5 29t28.5 12t29 -12t12 -29zM169 644q0 -17 -12.5 -28.5t-29.5 -11.5q-16 0 -27.5 11.5t-11.5 28.5t11.5 29t27.5 12q17 0 29.5 -12t12.5 -29z" />
    <glyph glyph-name="Amacron" unicode="&#x100;" horiz-adv-x="583" 
d="M493 0l-27 80l-27 80h-295l-54 -160h-74l119.5 344.5l119.5 344.5h74l240 -689h-76zM290 598l-25.5 -80l-35 -106.5l-35.5 -106.5l-27 -81h250q-9 30 -26 81l-36 106.5l-36 106.5l-26 80h-3zM161 775v58h262v-58h-262z" />
    <glyph glyph-name="amacron" unicode="&#x101;" horiz-adv-x="481" 
d="M367 54q-65 -38 -106 -48.5t-70 -10.5q-70 0 -113 37.5t-43 106.5q0 40 17.5 67.5t43.5 44.5t56 24.5t56 7.5h161v44q0 58 -31.5 85t-93.5 27q-31 0 -68 -8.5t-75 -37.5l-33 50q45 33 90.5 44.5t90.5 11.5q99 0 142 -44t43 -126v-329h-56l-9 53zM369 228h-146
q-18 0 -39 -2.5t-39 -12t-30 -27t-12 -47.5q0 -44 29 -64.5t71 -20.5q20 0 42 6t44 15t42.5 20t37.5 21v112zM122 597v58h262v-58h-262z" />
    <glyph glyph-name="Abreve" unicode="&#x102;" horiz-adv-x="583" 
d="M493 0l-27 80l-27 80h-295l-54 -160h-74l119.5 344.5l119.5 344.5h74l240 -689h-76zM290 598l-25.5 -80l-35 -106.5l-35.5 -106.5l-27 -81h250q-9 30 -26 81l-36 106.5l-36 106.5l-26 80h-3zM214 850q3 -25 24.5 -46.5t55.5 -21.5q36 0 56.5 21.5t22.5 46.5h56
q-2 -19 -10 -40t-23.5 -38.5t-40.5 -29t-61 -11.5q-37 0 -62.5 11.5t-41.5 29t-24 38.5t-9 40h57z" />
    <glyph glyph-name="abreve" unicode="&#x103;" horiz-adv-x="481" 
d="M367 54q-65 -38 -106 -48.5t-70 -10.5q-70 0 -113 37.5t-43 106.5q0 40 17.5 67.5t43.5 44.5t56 24.5t56 7.5h161v44q0 58 -31.5 85t-93.5 27q-31 0 -68 -8.5t-75 -37.5l-33 50q45 33 90.5 44.5t90.5 11.5q99 0 142 -44t43 -126v-329h-56l-9 53zM369 228h-146
q-18 0 -39 -2.5t-39 -12t-30 -27t-12 -47.5q0 -44 29 -64.5t71 -20.5q20 0 42 6t44 15t42.5 20t37.5 21v112zM181 686q4 -27 26 -47.5t54 -20.5q35 0 55.5 19.5t24.5 48.5h55q-3 -19 -10.5 -40t-23.5 -39t-40.5 -29.5t-60.5 -11.5q-37 0 -62.5 11.5t-41.5 29.5t-23.5 39
t-8.5 40h56z" />
    <glyph glyph-name="Aogonek" unicode="&#x104;" horiz-adv-x="583" 
d="M493 0l-27 80l-27 80h-295l-54 -160h-74l119.5 344.5l119.5 344.5h74l240 -689h-28q-17 -23 -25 -43.5t-8 -37.5q0 -24 14 -36t37 -12q12 0 26 4.5t31 12.5l17 -42q-17 -9 -40 -16t-46 -7q-42 0 -66.5 25t-24.5 60q0 20 8 42.5t30 49.5h-1zM290 598l-25.5 -80l-35 -106.5
l-35.5 -106.5l-27 -81h250q-9 30 -26 81l-36 106.5l-36 106.5l-26 80h-3z" />
    <glyph glyph-name="aogonek" unicode="&#x105;" horiz-adv-x="481" 
d="M367 54q-65 -38 -106 -48.5t-70 -10.5q-70 0 -113 37.5t-43 106.5q0 40 17.5 67.5t43.5 44.5t56 24.5t56 7.5h161v44q0 58 -31.5 85t-93.5 27q-31 0 -68 -8.5t-75 -37.5l-33 50q45 33 90.5 44.5t90.5 11.5q99 0 142 -44t43 -126v-329h-11q-17 -23 -25 -43.5t-8 -37.5
q0 -24 14 -36t37 -12q12 0 26 4.5t31 12.5l17 -42q-17 -9 -40 -16t-46 -7q-42 0 -66.5 25t-24.5 60q0 20 8.5 43t30.5 50l-8 52zM369 228h-146q-18 0 -39 -2.5t-39 -12t-30 -27t-12 -47.5q0 -44 29 -64.5t71 -20.5q20 0 42 6t44 15t42.5 20t37.5 21v112z" />
    <glyph glyph-name="Cacute" unicode="&#x106;" horiz-adv-x="515" 
d="M298 696q110 0 186 -57l-36 -55q-30 23 -69.5 35t-80.5 12q-33 0 -64 -10t-56 -31t-40 -54.5t-15 -80.5v-220q0 -47 15.5 -80.5t40 -55t55.5 -32t62 -10.5q42 0 82 11.5t72 37.5l35 -54q-29 -23 -78 -41t-109 -18q-53 0 -97.5 16t-77.5 46t-51.5 72t-18.5 94v249
q0 51 19 92.5t52 71.5t77.5 46t96.5 16zM231 766l142 115l47 -49l-161 -98z" />
    <glyph glyph-name="cacute" unicode="&#x107;" horiz-adv-x="420" 
d="M241 500q41 0 83.5 -11t74.5 -44l-40 -50q-31 27 -60.5 35t-53.5 8q-23 0 -46.5 -7t-42.5 -22.5t-30.5 -41t-11.5 -61.5v-118q0 -36 11.5 -61t30 -40.5t42 -23t47.5 -7.5q23 0 56 9t56 30l41 -47q-33 -29 -73.5 -41t-81.5 -12q-44 0 -80 13t-61.5 36.5t-39.5 56t-14 71.5
v147q0 41 15 74.5t41.5 57t61.5 36.5t75 13zM199 573l75 166l66 -22l-100 -160z" />
    <glyph glyph-name="Ccircumflex" unicode="&#x108;" horiz-adv-x="515" 
d="M298 696q110 0 186 -57l-36 -55q-30 23 -69.5 35t-80.5 12q-33 0 -64 -10t-56 -31t-40 -54.5t-15 -80.5v-220q0 -47 15.5 -80.5t40 -55t55.5 -32t62 -10.5q42 0 82 11.5t72 37.5l35 -54q-29 -23 -78 -41t-109 -18q-53 0 -97.5 16t-77.5 46t-51.5 72t-18.5 94v249
q0 51 19 92.5t52 71.5t77.5 46t96.5 16zM297 820l-138 -85l-23 29l141 119h45l135 -117l-24 -30z" />
    <glyph glyph-name="ccircumflex" unicode="&#x109;" horiz-adv-x="420" 
d="M241 500q41 0 83.5 -11t74.5 -44l-40 -50q-31 27 -60.5 35t-53.5 8q-23 0 -46.5 -7t-42.5 -22.5t-30.5 -41t-11.5 -61.5v-118q0 -36 11.5 -61t30 -40.5t42 -23t47.5 -7.5q23 0 56 9t56 30l41 -47q-33 -29 -73.5 -41t-81.5 -12q-44 0 -80 13t-61.5 36.5t-39.5 56t-14 71.5
v147q0 41 15 74.5t41.5 57t61.5 36.5t75 13zM239 657l-130 -103l-31 30l142 138h45l134 -137l-30 -30z" />
    <glyph glyph-name="Cdotaccent" unicode="&#x10a;" horiz-adv-x="515" 
d="M298 696q110 0 186 -57l-36 -55q-30 23 -69.5 35t-80.5 12q-33 0 -64 -10t-56 -31t-40 -54.5t-15 -80.5v-220q0 -47 15.5 -80.5t40 -55t55.5 -32t62 -10.5q42 0 82 11.5t72 37.5l35 -54q-29 -23 -78 -41t-109 -18q-53 0 -97.5 16t-77.5 46t-51.5 72t-18.5 94v249
q0 51 19 92.5t52 71.5t77.5 46t96.5 16zM243 811q0 16 11.5 29t31.5 13q22 0 34 -13t12 -29q0 -19 -12 -32.5t-34 -13.5q-20 0 -31.5 13t-11.5 33z" />
    <glyph glyph-name="cdotaccent" unicode="&#x10b;" horiz-adv-x="420" 
d="M241 500q41 0 83.5 -11t74.5 -44l-40 -50q-31 27 -60.5 35t-53.5 8q-23 0 -46.5 -7t-42.5 -22.5t-30.5 -41t-11.5 -61.5v-118q0 -36 11.5 -61t30 -40.5t42 -23t47.5 -7.5q23 0 56 9t56 30l41 -47q-33 -29 -73.5 -41t-81.5 -12q-44 0 -80 13t-61.5 36.5t-39.5 56t-14 71.5
v147q0 41 15 74.5t41.5 57t61.5 36.5t75 13zM190 641q0 16 11.5 29t31.5 13q22 0 34 -13t12 -29q0 -19 -12 -32.5t-34 -13.5q-20 0 -31.5 13t-11.5 33z" />
    <glyph glyph-name="Ccaron" unicode="&#x10c;" horiz-adv-x="515" 
d="M298 696q110 0 186 -57l-36 -55q-30 23 -69.5 35t-80.5 12q-33 0 -64 -10t-56 -31t-40 -54.5t-15 -80.5v-220q0 -47 15.5 -80.5t40 -55t55.5 -32t62 -10.5q42 0 82 11.5t72 37.5l35 -54q-29 -23 -78 -41t-109 -18q-53 0 -97.5 16t-77.5 46t-51.5 72t-18.5 94v249
q0 51 19 92.5t52 71.5t77.5 46t96.5 16zM424 885l24 -30l-135 -118h-45l-141 119l23 30l138 -86z" />
    <glyph glyph-name="ccaron" unicode="&#x10d;" horiz-adv-x="420" 
d="M241 500q41 0 83.5 -11t74.5 -44l-40 -50q-31 27 -60.5 35t-53.5 8q-23 0 -46.5 -7t-42.5 -22.5t-30.5 -41t-11.5 -61.5v-118q0 -36 11.5 -61t30 -40.5t42 -23t47.5 -7.5q23 0 56 9t56 30l41 -47q-33 -29 -73.5 -41t-81.5 -12q-44 0 -80 13t-61.5 36.5t-39.5 56t-14 71.5
v147q0 41 15 74.5t41.5 57t61.5 36.5t75 13zM366 722l30 -29l-134 -138h-45l-142 139l31 29l130 -102z" />
    <glyph glyph-name="Dcaron" unicode="&#x10e;" horiz-adv-x="593" 
d="M543 224q0 -50 -17.5 -91.5t-48 -71t-73 -45.5t-92.5 -16h-255v689h257q51 0 93 -16t72 -45t47 -71t17 -93v-240zM471 451q0 48 -15 81t-39 53.5t-54.5 30t-61.5 9.5h-174v-563h168q31 0 62.5 9t56.5 30t41 54t16 81v215zM409 885l24 -30l-135 -118h-45l-141 119l23 30
l138 -86z" />
    <glyph glyph-name="dcaron" unicode="&#x10f;" horiz-adv-x="586" 
d="M489 682q0 20 14 34t37 14q29 0 42.5 -20.5t13.5 -46.5q0 -45 -25.5 -81t-60.5 -53l-23 30q20 16 31.5 32.5t13.5 42.5q-19 1 -31 14.5t-12 33.5zM387 0l-9 58q-32 -20 -57.5 -32.5t-46 -19t-37 -9t-30.5 -2.5q-72 0 -116 41.5t-44 130.5v158q0 84 48.5 129t124.5 45
q28 0 66 -7t92 -29v253h65v-716h-56zM378 397q-90 40 -152 40q-53 1 -83.5 -28.5t-30.5 -94.5v-140q0 -65 26.5 -91t73.5 -26q32 0 78 19t88 48v273z" />
    <glyph glyph-name="Dcroat" unicode="&#x110;" horiz-adv-x="593" 
d="M6 385h51v304h257q51 0 93 -16t72 -45t47 -71t17 -93v-240q0 -50 -17.5 -91.5t-48 -71t-73 -45.5t-92.5 -16h-255v331h-51v54zM471 451q0 48 -15 81t-39 53.5t-54.5 30t-61.5 9.5h-174v-240h147v-54h-147v-269h168q31 0 62.5 9t56.5 30t41 54t16 81v215z" />
    <glyph glyph-name="dcroat" unicode="&#x111;" horiz-adv-x="491" 
d="M206 628h172v88h65v-88h47v-53h-47v-575h-56l-9 58q-32 -20 -57.5 -32.5t-46 -19t-37 -9t-30.5 -2.5q-72 0 -116 41.5t-44 130.5v158q0 84 48.5 129t124.5 45q28 0 66 -7t92 -29v112h-172v53zM378 397q-90 40 -152 40q-53 1 -83.5 -28.5t-30.5 -94.5v-140q0 -65 26.5 -91
t73.5 -26q32 0 78 19t88 48v273z" />
    <glyph glyph-name="Emacron" unicode="&#x112;" horiz-adv-x="545" 
d="M59 0v689h452v-64h-382v-246h328v-64h-328v-252h382v-63h-452zM163 775v58h262v-58h-262z" />
    <glyph glyph-name="emacron" unicode="&#x113;" horiz-adv-x="475" 
d="M114 221v-39q0 -35 11.5 -59.5t30.5 -40t43.5 -22.5t51.5 -7q32 0 65.5 12t62.5 39l41 -45q-35 -35 -79 -49.5t-92 -14.5q-42 0 -78.5 11t-63.5 33.5t-43 56.5t-16 79v134q0 43 14.5 78.5t40.5 60t62 38t79 13.5t78.5 -13t61 -37.5t39.5 -58.5t14 -76v-93h-323zM371 306
q0 36 -10.5 61t-28.5 41t-41 23.5t-47 7.5q-25 0 -48.5 -8t-41.5 -24t-29 -40.5t-11 -58.5v-32h257v30zM118 597v58h262v-58h-262z" />
    <glyph glyph-name="Ebreve" unicode="&#x114;" horiz-adv-x="545" 
d="M59 0v689h452v-64h-382v-246h328v-64h-328v-252h382v-63h-452zM214 850q3 -25 24.5 -46.5t55.5 -21.5q36 0 56.5 21.5t22.5 46.5h56q-2 -19 -10 -40t-23.5 -38.5t-40.5 -29t-61 -11.5q-37 0 -62.5 11.5t-41.5 29t-24 38.5t-9 40h57z" />
    <glyph glyph-name="ebreve" unicode="&#x115;" horiz-adv-x="475" 
d="M114 221v-39q0 -35 11.5 -59.5t30.5 -40t43.5 -22.5t51.5 -7q32 0 65.5 12t62.5 39l41 -45q-35 -35 -79 -49.5t-92 -14.5q-42 0 -78.5 11t-63.5 33.5t-43 56.5t-16 79v134q0 43 14.5 78.5t40.5 60t62 38t79 13.5t78.5 -13t61 -37.5t39.5 -58.5t14 -76v-93h-323zM371 306
q0 36 -10.5 61t-28.5 41t-41 23.5t-47 7.5q-25 0 -48.5 -8t-41.5 -24t-29 -40.5t-11 -58.5v-32h257v30zM167 686q4 -27 26 -47.5t54 -20.5q35 0 55.5 19.5t24.5 48.5h55q-3 -19 -10.5 -40t-23.5 -39t-40.5 -29.5t-60.5 -11.5q-37 0 -62.5 11.5t-41.5 29.5t-23.5 39t-8.5 40
h56z" />
    <glyph glyph-name="Edotaccent" unicode="&#x116;" horiz-adv-x="545" 
d="M59 0v689h452v-64h-382v-246h328v-64h-328v-252h382v-63h-452zM242 811q0 16 11.5 29t31.5 13q22 0 34 -13t12 -29q0 -19 -12 -32.5t-34 -13.5q-20 0 -31.5 13t-11.5 33z" />
    <glyph glyph-name="edotaccent" unicode="&#x117;" horiz-adv-x="475" 
d="M114 221v-39q0 -35 11.5 -59.5t30.5 -40t43.5 -22.5t51.5 -7q32 0 65.5 12t62.5 39l41 -45q-35 -35 -79 -49.5t-92 -14.5q-42 0 -78.5 11t-63.5 33.5t-43 56.5t-16 79v134q0 43 14.5 78.5t40.5 60t62 38t79 13.5t78.5 -13t61 -37.5t39.5 -58.5t14 -76v-93h-323zM371 306
q0 36 -10.5 61t-28.5 41t-41 23.5t-47 7.5q-25 0 -48.5 -8t-41.5 -24t-29 -40.5t-11 -58.5v-32h257v30zM202 641q0 16 11.5 29t31.5 13q22 0 34 -13t12 -29q0 -19 -12 -32.5t-34 -13.5q-20 0 -31.5 13t-11.5 33z" />
    <glyph glyph-name="Eogonek" unicode="&#x118;" horiz-adv-x="545" 
d="M425 -92q0 20 8 42.5t30 49.5h-404v689h452v-64h-382v-246h328v-64h-328v-252h382v-63h-1q-17 -23 -25 -43.5t-8 -37.5q0 -24 14 -36t37 -12q12 0 26 4.5t31 12.5l17 -42q-17 -9 -40 -16t-46 -7q-42 0 -66.5 25t-24.5 60z" />
    <glyph glyph-name="eogonek" unicode="&#x119;" horiz-adv-x="475" 
d="M312 -52q0 13 3.5 27t11.5 29q-38 -9 -78 -9q-42 0 -78.5 11t-63.5 33.5t-43 56.5t-16 79v134q0 43 14.5 78.5t40.5 60t62 38t79 13.5t78.5 -13t61 -37.5t39.5 -58.5t14 -76v-93h-323v-39q0 -35 11.5 -59.5t30.5 -40t43.5 -22.5t51.5 -7q32 0 65.5 12t62.5 39l41 -45
q-6 -6 -12.5 -11.5l-12.5 -10.5q-17 -22 -24 -41.5t-7 -36.5q0 -24 14 -36t37 -12q12 0 26 4.5t31 12.5l17 -42q-17 -9 -40 -16t-46 -7q-42 0 -66.5 25t-24.5 60zM371 306q0 36 -10.5 61t-28.5 41t-41 23.5t-47 7.5q-25 0 -48.5 -8t-41.5 -24t-29 -40.5t-11 -58.5v-32h257
v30z" />
    <glyph glyph-name="Ecaron" unicode="&#x11a;" horiz-adv-x="545" 
d="M59 0v689h452v-64h-382v-246h328v-64h-328v-252h382v-63h-452zM425 885l24 -30l-135 -118h-45l-141 119l23 30l138 -86z" />
    <glyph glyph-name="ecaron" unicode="&#x11b;" horiz-adv-x="475" 
d="M114 221v-39q0 -35 11.5 -59.5t30.5 -40t43.5 -22.5t51.5 -7q32 0 65.5 12t62.5 39l41 -45q-35 -35 -79 -49.5t-92 -14.5q-42 0 -78.5 11t-63.5 33.5t-43 56.5t-16 79v134q0 43 14.5 78.5t40.5 60t62 38t79 13.5t78.5 -13t61 -37.5t39.5 -58.5t14 -76v-93h-323zM371 306
q0 36 -10.5 61t-28.5 41t-41 23.5t-47 7.5q-25 0 -48.5 -8t-41.5 -24t-29 -40.5t-11 -58.5v-32h257v30zM373 722l30 -29l-134 -138h-45l-142 139l31 29l130 -102z" />
    <glyph glyph-name="Gcircumflex" unicode="&#x11c;" horiz-adv-x="565" 
d="M513 78q-43 -45 -99 -65t-114 -20q-53 0 -98.5 16t-79 46t-52.5 72t-19 94v249q0 51 19.5 92.5t53.5 71.5t80.5 46t100.5 16t101 -14t85 -43l-36 -55q-29 23 -69.5 35t-80.5 12q-35 0 -67.5 -10t-58.5 -31t-41.5 -54.5t-15.5 -80.5v-220q0 -47 15 -80.5t39.5 -55
t56.5 -32t66 -10.5q24 0 63 8t81 41v182h-115v65h185v-275zM294 820l-138 -85l-23 29l141 119h45l135 -117l-24 -30z" />
    <glyph glyph-name="gcircumflex" unicode="&#x11d;" horiz-adv-x="489" 
d="M205 499q13 0 29.5 -2t37.5 -8.5t46 -18.5t57 -32l9 56h57v-528q0 -42 -16 -75t-44 -55t-65.5 -33.5t-79.5 -11.5t-88 13t-82 44l42 49q12 -11 28 -19t33 -14t34.5 -9t32.5 -3q27 0 52.5 7t44.5 22.5t30.5 40.5t11.5 61v74q-60 -38 -101.5 -50t-70.5 -12q-72 -1 -116 43
t-44 128v160q0 42 12 74.5t33.5 54t51.5 33t65 11.5zM375 369q-45 32 -88.5 49t-75.5 17q-48 0 -75 -27.5t-27 -93.5v-136q0 -65 26 -93t74 -28q34 0 78.5 18t87.5 46v248zM248 657l-130 -103l-31 30l142 138h45l134 -137l-30 -30z" />
    <glyph glyph-name="Gbreve" unicode="&#x11e;" horiz-adv-x="565" 
d="M513 78q-43 -45 -99 -65t-114 -20q-53 0 -98.5 16t-79 46t-52.5 72t-19 94v249q0 51 19.5 92.5t53.5 71.5t80.5 46t100.5 16t101 -14t85 -43l-36 -55q-29 23 -69.5 35t-80.5 12q-35 0 -67.5 -10t-58.5 -31t-41.5 -54.5t-15.5 -80.5v-220q0 -47 15 -80.5t39.5 -55
t56.5 -32t66 -10.5q24 0 63 8t81 41v182h-115v65h185v-275zM209 850q3 -25 24.5 -46.5t55.5 -21.5q36 0 56.5 21.5t22.5 46.5h56q-2 -19 -10 -40t-23.5 -38.5t-40.5 -29t-61 -11.5q-37 0 -62.5 11.5t-41.5 29t-24 38.5t-9 40h57z" />
    <glyph glyph-name="gbreve" unicode="&#x11f;" horiz-adv-x="489" 
d="M205 499q13 0 29.5 -2t37.5 -8.5t46 -18.5t57 -32l9 56h57v-528q0 -42 -16 -75t-44 -55t-65.5 -33.5t-79.5 -11.5t-88 13t-82 44l42 49q12 -11 28 -19t33 -14t34.5 -9t32.5 -3q27 0 52.5 7t44.5 22.5t30.5 40.5t11.5 61v74q-60 -38 -101.5 -50t-70.5 -12q-72 -1 -116 43
t-44 128v160q0 42 12 74.5t33.5 54t51.5 33t65 11.5zM375 369q-45 32 -88.5 49t-75.5 17q-48 0 -75 -27.5t-27 -93.5v-136q0 -65 26 -93t74 -28q34 0 78.5 18t87.5 46v248zM175 686q4 -27 26 -47.5t54 -20.5q35 0 55.5 19.5t24.5 48.5h55q-3 -19 -10.5 -40t-23.5 -39
t-40.5 -29.5t-60.5 -11.5q-37 0 -62.5 11.5t-41.5 29.5t-23.5 39t-8.5 40h56z" />
    <glyph glyph-name="Gdotaccent" unicode="&#x120;" horiz-adv-x="565" 
d="M513 78q-43 -45 -99 -65t-114 -20q-53 0 -98.5 16t-79 46t-52.5 72t-19 94v249q0 51 19.5 92.5t53.5 71.5t80.5 46t100.5 16t101 -14t85 -43l-36 -55q-29 23 -69.5 35t-80.5 12q-35 0 -67.5 -10t-58.5 -31t-41.5 -54.5t-15.5 -80.5v-220q0 -47 15 -80.5t39.5 -55
t56.5 -32t66 -10.5q24 0 63 8t81 41v182h-115v65h185v-275zM251 811q0 16 11.5 29t31.5 13q22 0 34 -13t12 -29q0 -19 -12 -32.5t-34 -13.5q-20 0 -31.5 13t-11.5 33z" />
    <glyph glyph-name="gdotaccent" unicode="&#x121;" horiz-adv-x="489" 
d="M205 499q13 0 29.5 -2t37.5 -8.5t46 -18.5t57 -32l9 56h57v-528q0 -42 -16 -75t-44 -55t-65.5 -33.5t-79.5 -11.5t-88 13t-82 44l42 49q12 -11 28 -19t33 -14t34.5 -9t32.5 -3q27 0 52.5 7t44.5 22.5t30.5 40.5t11.5 61v74q-60 -38 -101.5 -50t-70.5 -12q-72 -1 -116 43
t-44 128v160q0 42 12 74.5t33.5 54t51.5 33t65 11.5zM375 369q-45 32 -88.5 49t-75.5 17q-48 0 -75 -27.5t-27 -93.5v-136q0 -65 26 -93t74 -28q34 0 78.5 18t87.5 46v248zM212 641q0 16 11.5 29t31.5 13q22 0 34 -13t12 -29q0 -19 -12 -32.5t-34 -13.5q-20 0 -31.5 13
t-11.5 33z" />
    <glyph glyph-name="Gcommaaccent" unicode="&#x122;" horiz-adv-x="565" 
d="M513 78q-43 -45 -99 -65t-114 -20q-53 0 -98.5 16t-79 46t-52.5 72t-19 94v249q0 51 19.5 92.5t53.5 71.5t80.5 46t100.5 16t101 -14t85 -43l-36 -55q-29 23 -69.5 35t-80.5 12q-35 0 -67.5 -10t-58.5 -31t-41.5 -54.5t-15.5 -80.5v-220q0 -47 15 -80.5t39.5 -55
t56.5 -32t66 -10.5q24 0 63 8t81 41v182h-115v65h185v-275zM242 -107q0 20 14 34t37 14q29 0 42.5 -20.5t13.5 -46.5q0 -45 -25.5 -81t-60.5 -53l-23 30q20 16 31.5 32.5t13.5 42.5q-19 1 -31 14.5t-12 33.5z" />
    <glyph glyph-name="gcommaaccent" unicode="&#x123;" horiz-adv-x="489" 
d="M43 326q0 84 45 128t116 44q13 0 29.5 -2t37.5 -8.5t46.5 -18.5t57.5 -32l9 56h56v-527q0 -42 -16 -75t-44 -55t-65.5 -33.5t-79.5 -11.5t-87.5 13t-81.5 44l41 50q12 -11 28 -19.5t33 -14.5t34.5 -9t32.5 -3q28 0 53 7t44.5 22.5t31 40.5t11.5 61v74q-62 -40 -104 -51
t-71 -11q-71 0 -114 43.5t-43 126.5v161zM108 177q0 -64 25.5 -92t72.5 -28h2q34 0 79 17.5t88 45.5v249q-45 31 -89 48.5t-76 17.5q-48 0 -75 -27.5t-27 -93.5v-137zM318 713q-20 -16 -31.5 -33t-13.5 -43h1q5 0 11 -3q31 -8 31 -44q0 -19 -13.5 -33t-36.5 -14
q-29 0 -42.5 20.5t-13.5 46.5q0 44 25.5 80t60.5 53z" />
    <glyph glyph-name="Hcircumflex" unicode="&#x124;" horiz-adv-x="607" 
d="M480 0v318h-356v-318h-70v689h70v-307h356v307h73v-689h-73zM300 820l-138 -85l-23 29l141 119h45l135 -117l-24 -30z" />
    <glyph glyph-name="hcircumflex" unicode="&#x125;" horiz-adv-x="488" 
d="M291 499q78 0 116.5 -44t38.5 -129v-326h-66v315q0 66 -26.5 93t-73.5 27q-33 0 -78.5 -19t-87.5 -46v-370h-66v716h66v-284q64 41 106 54t71 13zM83 820l-138 -85l-23 29l141 119h45l135 -117l-24 -30z" />
    <glyph glyph-name="Hbar" unicode="&#x126;" horiz-adv-x="607" 
d="M10 600h44v89h70v-89h356v89h73v-89h45v-53h-45v-547h-73v318h-356v-318h-70v547h-44v53zM480 382v165h-356v-165h356z" />
    <glyph glyph-name="hbar" unicode="&#x127;" horiz-adv-x="488" 
d="M291 499q78 0 116.5 -44t38.5 -129v-326h-66v315q0 66 -26.5 93t-73.5 27q-33 0 -78.5 -19t-87.5 -46v-370h-66v576h-48v53h48v87h66v-87h231v-53h-231v-144q64 41 106 54t71 13z" />
    <glyph glyph-name="Itilde" unicode="&#x128;" horiz-adv-x="234" 
d="M82 0v689h70v-689h-70zM54 862q17 0 34.5 -7t34.5 -15.5t32.5 -15.5t28.5 -7q30 0 59 43l41 -23q-20 -41 -44 -59t-52 -18q-17 0 -33.5 6.5t-33 14t-32.5 14t-31 6.5q-18 0 -32 -9.5t-31 -30.5l-41 24q20 37 46 57t54 20z" />
    <glyph glyph-name="itilde" unicode="&#x129;" horiz-adv-x="310" 
d="M122 0v494h65v-494h-65zM90 692q17 0 34.5 -7t34.5 -15.5t32.5 -15.5t28.5 -7q30 0 59 43l41 -23q-20 -41 -44 -59t-52 -18q-17 0 -33.5 6.5t-33 14t-32.5 14t-31 6.5q-18 0 -32 -9.5t-31 -30.5l-41 24q20 37 46 57t54 20z" />
    <glyph glyph-name="Imacron" unicode="&#x12a;" horiz-adv-x="234" 
d="M82 0v689h70v-689h-70zM-15 775v58h262v-58h-262z" />
    <glyph glyph-name="imacron" unicode="&#x12b;" horiz-adv-x="252" 
d="M95 0v494h65v-494h-65zM-5 597v58h262v-58h-262z" />
    <glyph glyph-name="Ibreve" unicode="&#x12c;" horiz-adv-x="234" 
d="M37 849q3 -25 24.5 -46.5t55.5 -21.5q36 0 56.5 21.5t22.5 46.5h56q-2 -19 -10 -40t-23.5 -38.5t-40.5 -29t-61 -11.5q-37 0 -62.5 11.5t-41.5 29t-24 38.5t-9 40h57zM82 0v689h70v-689h-70z" />
    <glyph glyph-name="ibreve" unicode="&#x12d;" horiz-adv-x="261" 
d="M96 0v494h65v-494h-65zM51 692q4 -27 26 -47.5t54 -20.5q35 0 55.5 19.5t24.5 48.5h55q-3 -19 -10.5 -40t-23.5 -39t-40.5 -29.5t-60.5 -11.5q-37 0 -62.5 11.5t-41.5 29.5t-23.5 39t-8.5 40h56z" />
    <glyph glyph-name="Iogonek" unicode="&#x12e;" horiz-adv-x="234" 
d="M56 -92q0 20 8 42.5t30 49.5h-12v689h70v-689h-11q-17 -23 -25 -43.5t-8 -37.5q0 -24 14 -36t37 -12q12 0 26 4.5t31 12.5l17 -42q-17 -9 -40 -16t-46 -7q-42 0 -66.5 25t-24.5 60z" />
    <glyph glyph-name="iogonek" unicode="&#x12f;" horiz-adv-x="200" 
d="M39 -91q0 20 8 42.5t29 48.5h-9v494h65v-494h-9q-17 -22 -24.5 -42.5t-7.5 -37.5q0 -24 14 -36t37 -12q12 0 26 4.5t31 12.5l17 -42q-17 -9 -40 -16t-46 -7q-42 0 -66.5 25t-24.5 60zM142 649q0 -17 -12.5 -29.5t-29.5 -12.5t-29.5 12.5t-12.5 29.5q0 18 12.5 30t29.5 12
t29.5 -12t12.5 -30z" />
    <glyph glyph-name="Idotaccent" unicode="&#x130;" horiz-adv-x="234" 
d="M82 0v689h70v-689h-70zM75 811q0 16 11.5 29t31.5 13q22 0 34 -13t12 -29q0 -19 -12 -32.5t-34 -13.5q-20 0 -31.5 13t-11.5 33z" />
    <glyph glyph-name="dotlessi" unicode="&#x131;" horiz-adv-x="222" 
d="M78 0v494h65v-494h-65z" />
    <glyph glyph-name="IJ" unicode="&#x132;" horiz-adv-x="703" 
d="M82 0v689h70v-689h-70zM620 223q0 -52 -17 -94.5t-48.5 -72.5t-75 -46.5t-95.5 -16.5q-47 0 -94 12.5t-80 35.5l34 56q67 -40 131 -40q38 0 70 10.5t55.5 32t36.5 56t13 82.5v451h70v-466z" />
    <glyph glyph-name="ij" unicode="&#x133;" horiz-adv-x="379" 
d="M144 649q0 -17 -12.5 -29.5t-29.5 -12.5t-29.5 12.5t-12.5 29.5q0 18 12.5 30t29.5 12t29.5 -12t12.5 -30zM69 0v494h65v-494h-65zM314 649q0 -17 -12.5 -29.5t-29.5 -12.5t-29 12.5t-12 29.5q0 18 12 30t29 12t29.5 -12t12.5 -30zM239 493h66v-562q0 -74 -32.5 -105.5
t-95.5 -31.5h-44v59h35q41 0 56 18.5t15 69.5v552z" />
    <glyph glyph-name="Jcircumflex" unicode="&#x134;" horiz-adv-x="513" 
d="M430 224q0 -52 -17 -94.5t-48.5 -72.5t-75 -46.5t-95.5 -16.5q-47 0 -94 12.5t-80 35.5l34 56q67 -40 131 -40q38 0 70 10.5t55.5 32t36.5 56t13 82.5v451h70v-466zM397 822l-138 -85l-23 29l141 119h45l135 -117l-24 -30z" />
    <glyph glyph-name="jcircumflex" unicode="&#x135;" horiz-adv-x="311" 
d="M121 493h66v-563q0 -73 -32.5 -105t-95.5 -32h-44v59h35q41 0 56 18.5t15 69.5v553zM156 657l-130 -103l-31 30l141 138h45l135 -137l-31 -30z" />
    <glyph glyph-name="Kcommaaccent" unicode="&#x136;" horiz-adv-x="556" 
d="M130 297l318 392h85l-26 -32l-38.5 -47.5l-44.5 -55l-44.5 -55l-38.5 -47.5l-26 -32l245 -420h-82l-26 44.5l-37 63.5l-42.5 73l-42.5 73l-36.5 63.5l-25.5 44.5l-142 -172v-190h-70v689h70v-392h4zM233 -87q0 20 14 34t37 14q29 0 42.5 -20.5t13.5 -46.5
q0 -45 -25.5 -81t-60.5 -53l-23 30q20 16 31.5 32.5t13.5 42.5q-19 1 -31 14.5t-12 33.5z" />
    <glyph glyph-name="kcommaaccent" unicode="&#x137;" horiz-adv-x="465" 
d="M47 0v716h65v-400h93q31 0 57.5 12t46.5 54l56 114h73l-58 -126q-14 -29 -30 -49t-48 -32q21 -5 34.5 -15.5t23 -24t15.5 -29.5t11 -32l64 -188h-72l-56 165q-9 27 -19 44t-22 26.5t-27.5 13t-37.5 3.5h-104v-252h-65zM186 -107q0 20 14 34t37 14q29 0 42.5 -20.5
t13.5 -46.5q0 -45 -25.5 -81t-60.5 -53l-23 30q20 16 31.5 32.5t13.5 42.5q-19 1 -31 14.5t-12 33.5z" />
    <glyph glyph-name="kgreenlandic" unicode="&#x138;" horiz-adv-x="478" 
d="M57 0v494h66v-215h107q14 0 27.5 2t26 9.5t23 21.5t18.5 37l52 145h67l-51 -142q-13 -36 -28 -60.5t-44 -32.5q35 -8 50 -34.5t28 -63.5l54 -161h-69l-48 146q-8 24 -17.5 38.5t-21.5 23t-26.5 11t-31.5 2.5h-116v-221h-66z" />
    <glyph glyph-name="Lacute" unicode="&#x139;" horiz-adv-x="519" 
d="M62 0v689h70v-626h380v-63h-450zM74 766l142 115l47 -49l-161 -98z" />
    <glyph glyph-name="lacute" unicode="&#x13a;" horiz-adv-x="264" 
d="M152 123q0 -43 17.5 -55t58.5 -10l2 -60q-11 -2 -21 -2.5t-20 -0.5q-60 0 -81 30.5t-21 88.5v602h65v-593zM91 779l142 115l47 -49l-161 -98z" />
    <glyph glyph-name="Lcommaaccent" unicode="&#x13b;" horiz-adv-x="519" 
d="M62 0v689h70v-626h380v-63h-450zM225 -107q0 20 14 34t37 14q29 0 42.5 -20.5t13.5 -46.5q0 -45 -25.5 -81t-60.5 -53l-23 30q20 16 31.5 32.5t13.5 42.5q-19 1 -31 14.5t-12 33.5z" />
    <glyph glyph-name="lcommaaccent" unicode="&#x13c;" horiz-adv-x="264" 
d="M152 123q0 -43 17.5 -55t58.5 -10l2 -60q-11 -2 -21 -2.5t-20 -0.5q-60 0 -81 30.5t-21 88.5v602h65v-593zM96 -107q0 20 14 34t37 14q29 0 42.5 -20.5t13.5 -46.5q0 -45 -25.5 -81t-60.5 -53l-23 30q20 16 31.5 32.5t13.5 42.5q-19 1 -31 14.5t-12 33.5z" />
    <glyph glyph-name="Lcaron" unicode="&#x13d;" horiz-adv-x="519" 
d="M62 0v689h70v-626h380v-63h-450zM308 649q0 20 14 34t37 14q29 0 42.5 -20.5t13.5 -46.5q0 -45 -25.5 -81t-60.5 -53l-23 30q20 16 31.5 32.5t13.5 42.5q-19 1 -31 14.5t-12 33.5z" />
    <glyph glyph-name="lcaron" unicode="&#x13e;" horiz-adv-x="311" 
d="M207 671q0 20 14 34t37 14q29 0 42.5 -20.5t13.5 -46.5q0 -45 -25.5 -81t-60.5 -53l-23 30q20 16 31.5 32.5t13.5 42.5q-19 1 -31 14.5t-12 33.5zM152 123q0 -43 17.5 -55t58.5 -10l2 -60q-11 -2 -21 -2.5t-20 -0.5q-60 0 -81 30.5t-21 88.5v602h65v-593z" />
    <glyph glyph-name="Ldot" unicode="&#x13f;" horiz-adv-x="519" 
d="M62 0v689h70v-626h380v-63h-450zM277 355q0 16 11.5 29t31.5 13q22 0 34 -13t12 -29q0 -19 -12 -32.5t-34 -13.5q-20 0 -31.5 13t-11.5 33z" />
    <glyph glyph-name="ldot" unicode="&#x140;" horiz-adv-x="311" 
d="M212 382q0 16 11.5 29t31.5 13q22 0 34 -13t12 -29q0 -19 -12 -32.5t-34 -13.5q-20 0 -31.5 13t-11.5 33zM152 123q0 -43 17.5 -55t58.5 -10l2 -60q-11 -2 -21 -2.5t-20 -0.5q-60 0 -81 30.5t-21 88.5v602h65v-593z" />
    <glyph glyph-name="Lslash" unicode="&#x141;" horiz-adv-x="519" 
d="M62 0v235l-48 -28l-26 46l74 43v393h70v-353l163 95l26 -46l-189 -110v-212h380v-63h-450z" />
    <glyph glyph-name="lslash" unicode="&#x142;" horiz-adv-x="272" 
d="M201 -1q-54 0 -81.5 25t-27.5 90v188l-70 -40l-26 46l96 55v353h64v-316l89 51l26 -45l-115 -67v-217q0 -35 12.5 -49.5t44.5 -14.5h22v-59h-34z" />
    <glyph glyph-name="Nacute" unicode="&#x143;" horiz-adv-x="629" 
d="M501 134v555h70v-689h-70l-28 42l-43.5 65.5l-54 81l-59.5 89l-59.5 89l-54.5 80.5l-44 64.5l-28 40.5h-3v-552h-70v689h68l40.5 -61l65 -98l77.5 -116.5l78 -117l66.5 -99.5t43.5 -63h5zM274 766l142 115l47 -49l-161 -98z" />
    <glyph glyph-name="nacute" unicode="&#x144;" horiz-adv-x="489" 
d="M290 499q73 0 113.5 -44t40.5 -129v-326h-66v315q0 66 -27.5 93.5t-74.5 26.5q-33 0 -76.5 -18.5t-87.5 -47.5v-369h-66v494h57l9 -62q67 41 107.5 54t70.5 13zM194 573l75 166l66 -22l-100 -160z" />
    <glyph glyph-name="Ncommaaccent" unicode="&#x145;" horiz-adv-x="629" 
d="M501 134v555h70v-689h-70l-28 42l-43.5 65.5l-54 81l-59.5 89l-59.5 89l-54.5 80.5l-44 64.5l-28 40.5h-3v-552h-70v689h68l40.5 -61l65 -98l77.5 -116.5l78 -117l66.5 -99.5t43.5 -63h5zM265 -87q0 20 14 34t37 14q29 0 42.5 -20.5t13.5 -46.5q0 -45 -25.5 -81
t-60.5 -53l-23 30q20 16 31.5 32.5t13.5 42.5q-19 1 -31 14.5t-12 33.5z" />
    <glyph glyph-name="ncommaaccent" unicode="&#x146;" horiz-adv-x="489" 
d="M290 499q73 0 113.5 -44t40.5 -129v-326h-66v315q0 66 -27.5 93.5t-74.5 26.5q-33 0 -76.5 -18.5t-87.5 -47.5v-369h-66v494h57l9 -62q67 41 107.5 54t70.5 13zM190 -107q0 20 14 34t37 14q29 0 42.5 -20.5t13.5 -46.5q0 -45 -25.5 -81t-60.5 -53l-23 30q20 16 31.5 32.5
t13.5 42.5q-19 1 -31 14.5t-12 33.5z" />
    <glyph glyph-name="Ncaron" unicode="&#x147;" horiz-adv-x="629" 
d="M501 134v555h70v-689h-70l-28 42l-43.5 65.5l-54 81l-59.5 89l-59.5 89l-54.5 80.5l-44 64.5l-28 40.5h-3v-552h-70v689h68l40.5 -61l65 -98l77.5 -116.5l78 -117l66.5 -99.5t43.5 -63h5zM451 885l24 -30l-135 -118h-45l-141 119l23 30l138 -86z" />
    <glyph glyph-name="ncaron" unicode="&#x148;" horiz-adv-x="489" 
d="M290 499q73 0 113.5 -44t40.5 -129v-326h-66v315q0 66 -27.5 93.5t-74.5 26.5q-33 0 -76.5 -18.5t-87.5 -47.5v-369h-66v494h57l9 -62q67 41 107.5 54t70.5 13zM361 722l30 -29l-134 -138h-45l-142 139l31 29l130 -102z" />
    <glyph glyph-name="napostrophe" unicode="&#x149;" horiz-adv-x="561" 
d="M362 499q73 0 113.5 -44t40.5 -129v-326h-66v315q0 66 -27.5 93.5t-74.5 26.5q-33 0 -76.5 -18.5t-87.5 -47.5v-369h-66v494h57l9 -62q67 41 107.5 54t70.5 13zM1 620q0 20 14 34t37 14q29 0 42.5 -20.5t13.5 -46.5q0 -45 -25.5 -81t-60.5 -53l-23 30q20 16 31.5 32.5
t13.5 42.5q-19 1 -31 14.5t-12 33.5z" />
    <glyph glyph-name="Eng" unicode="&#x14a;" horiz-adv-x="629" 
d="M459 -109q46 0 46 53v52l-126.5 189l-127.5 189l-121 184l-3 -1v-557h-70v689h68l127.5 -192.5l128.5 -192.5l116 -176l4 -1v562h70v-752q0 -56 -28 -79.5t-68 -23.5q-43 0 -82 21l18 47q30 -11 48 -11z" />
    <glyph glyph-name="eng" unicode="&#x14b;" horiz-adv-x="489" 
d="M290 499q73 0 113.5 -44t40.5 -129v-389q0 -56 -28 -80t-67 -24q-43 0 -83 21l19 47q14 -5 25.5 -8t21.5 -3q46 0 46 54v371q0 66 -27.5 93t-74.5 27q-33 0 -76.5 -18.5t-87.5 -47.5v-369h-66v494h57l9 -62q67 41 107.5 54t70.5 13z" />
    <glyph glyph-name="Omacron" unicode="&#x14c;" horiz-adv-x="600" 
d="M549 223q0 -53 -18.5 -95.5t-51.5 -72.5t-79 -46t-100 -16q-56 0 -101.5 16.5t-78 46.5t-50.5 72.5t-18 95.5v241q0 51 17.5 93.5t50 73t78.5 47.5t102 17q55 0 101 -17t79 -47.5t51 -73t18 -93.5v-242zM478 455q0 46 -14.5 79t-39 54.5t-56.5 32t-68 10.5
q-37 0 -69.5 -10.5t-56.5 -32t-38 -54.5t-14 -79v-223q0 -47 15 -80t40 -54t57 -31t66 -10q36 0 68.5 10t56.5 31.5t38.5 54.5t14.5 79v223zM167 775v58h262v-58h-262z" />
    <glyph glyph-name="omacron" unicode="&#x14d;" horiz-adv-x="492" 
d="M446 174q0 -42 -15 -75.5t-42 -56.5t-63.5 -35t-79.5 -12t-79.5 12t-63 35.5t-41.5 56.5t-15 75v146q0 42 16 75t43 56t63.5 35.5t77.5 12.5q43 0 79.5 -12.5t63 -35.5t41.5 -56t15 -75v-146zM381 306q0 36 -12 61t-31.5 41t-43 23t-46.5 7q-24 0 -48 -7t-43.5 -23
t-31.5 -41t-12 -61v-118q0 -36 11 -61.5t29.5 -41.5t43 -23t51.5 -7q25 0 48.5 7.5t42.5 23t30.5 41t11.5 61.5v118zM116 597v58h262v-58h-262z" />
    <glyph glyph-name="Obreve" unicode="&#x14e;" horiz-adv-x="600" 
d="M549 223q0 -53 -18.5 -95.5t-51.5 -72.5t-79 -46t-100 -16q-56 0 -101.5 16.5t-78 46.5t-50.5 72.5t-18 95.5v241q0 51 17.5 93.5t50 73t78.5 47.5t102 17q55 0 101 -17t79 -47.5t51 -73t18 -93.5v-242zM478 455q0 46 -14.5 79t-39 54.5t-56.5 32t-68 10.5
q-37 0 -69.5 -10.5t-56.5 -32t-38 -54.5t-14 -79v-223q0 -47 15 -80t40 -54t57 -31t66 -10q36 0 68.5 10t56.5 31.5t38.5 54.5t14.5 79v223zM220 850q3 -25 24.5 -46.5t55.5 -21.5q36 0 56.5 21.5t22.5 46.5h56q-2 -19 -10 -40t-23.5 -38.5t-40.5 -29t-61 -11.5
q-37 0 -62.5 11.5t-41.5 29t-24 38.5t-9 40h57z" />
    <glyph glyph-name="obreve" unicode="&#x14f;" horiz-adv-x="492" 
d="M446 174q0 -42 -15 -75.5t-42 -56.5t-63.5 -35t-79.5 -12t-79.5 12t-63 35.5t-41.5 56.5t-15 75v146q0 42 16 75t43 56t63.5 35.5t77.5 12.5q43 0 79.5 -12.5t63 -35.5t41.5 -56t15 -75v-146zM381 306q0 36 -12 61t-31.5 41t-43 23t-46.5 7q-24 0 -48 -7t-43.5 -23
t-31.5 -41t-12 -61v-118q0 -36 11 -61.5t29.5 -41.5t43 -23t51.5 -7q25 0 48.5 7.5t42.5 23t30.5 41t11.5 61.5v118zM169 686q4 -27 26 -47.5t54 -20.5q35 0 55.5 19.5t24.5 48.5h55q-3 -19 -10.5 -40t-23.5 -39t-40.5 -29.5t-60.5 -11.5q-37 0 -62.5 11.5t-41.5 29.5
t-23.5 39t-8.5 40h56z" />
    <glyph glyph-name="Ohungarumlaut" unicode="&#x150;" horiz-adv-x="600" 
d="M549 223q0 -53 -18.5 -95.5t-51.5 -72.5t-79 -46t-100 -16q-56 0 -101.5 16.5t-78 46.5t-50.5 72.5t-18 95.5v241q0 51 17.5 93.5t50 73t78.5 47.5t102 17q55 0 101 -17t79 -47.5t51 -73t18 -93.5v-242zM478 455q0 46 -14.5 79t-39 54.5t-56.5 32t-68 10.5
q-37 0 -69.5 -10.5t-56.5 -32t-38 -54.5t-14 -79v-223q0 -47 15 -80t40 -54t57 -31t66 -10q36 0 68.5 10t56.5 31.5t38.5 54.5t14.5 79v223zM319 766l142 115l47 -49l-161 -98zM183 766l142 115l48 -49l-162 -98z" />
    <glyph glyph-name="ohungarumlaut" unicode="&#x151;" horiz-adv-x="492" 
d="M446 174q0 -42 -15 -75.5t-42 -56.5t-63.5 -35t-79.5 -12t-79.5 12t-63 35.5t-41.5 56.5t-15 75v146q0 42 16 75t43 56t63.5 35.5t77.5 12.5q43 0 79.5 -12.5t63 -35.5t41.5 -56t15 -75v-146zM381 306q0 36 -12 61t-31.5 41t-43 23t-46.5 7q-24 0 -48 -7t-43.5 -23
t-31.5 -41t-12 -61v-118q0 -36 11 -61.5t29.5 -41.5t43 -23t51.5 -7q25 0 48.5 7.5t42.5 23t30.5 41t11.5 61.5v118zM158 573l75 166l65 -22l-99 -160zM274 573l75 166l65 -22l-100 -160z" />
    <glyph glyph-name="Racute" unicode="&#x154;" horiz-adv-x="564" 
d="M126 0h-70v689h278q51 0 87.5 -18t60.5 -46.5t35.5 -65t11.5 -72.5q0 -29 -8.5 -58t-25 -54t-40.5 -45t-56 -31l132 -299h-78l-122 286h-205v-286zM126 624v-273h195q29 0 54.5 9.5t44 27t29 42.5t10.5 57q0 31 -10.5 56.5t-29 43.5t-44 27.5t-54.5 9.5h-195zM221 766
l142 115l47 -49l-161 -98z" />
    <glyph glyph-name="racute" unicode="&#x155;" horiz-adv-x="314" 
d="M311 428q-67 -7 -111 -26.5t-68 -35.5v-366h-66v494h58l8 -73h1q14 13 34.5 27t44 25t49 18.5t50.5 8.5v-72zM121 573l75 166l66 -22l-100 -160z" />
    <glyph glyph-name="Rcommaaccent" unicode="&#x156;" horiz-adv-x="564" 
d="M126 0h-70v689h278q51 0 87.5 -18t60.5 -46.5t35.5 -65t11.5 -72.5q0 -29 -8.5 -58t-25 -54t-40.5 -45t-56 -31l132 -299h-78l-122 286h-205v-286zM126 624v-273h195q29 0 54.5 9.5t44 27t29 42.5t10.5 57q0 31 -10.5 56.5t-29 43.5t-44 27.5t-54.5 9.5h-195zM219 -87
q0 20 14 34t37 14q29 0 42.5 -20.5t13.5 -46.5q0 -45 -25.5 -81t-60.5 -53l-23 30q20 16 31.5 32.5t13.5 42.5q-19 1 -31 14.5t-12 33.5z" />
    <glyph glyph-name="rcommaaccent" unicode="&#x157;" horiz-adv-x="314" 
d="M311 428q-67 -7 -111 -26.5t-68 -35.5v-366h-66v494h58l8 -73h1q14 13 34.5 27t44 25t49 18.5t50.5 8.5v-72zM43 -107q0 20 14 34t37 14q29 0 42.5 -20.5t13.5 -46.5q0 -45 -25.5 -81t-60.5 -53l-23 30q20 16 31.5 32.5t13.5 42.5q-19 1 -31 14.5t-12 33.5z" />
    <glyph glyph-name="Rcaron" unicode="&#x158;" horiz-adv-x="564" 
d="M126 0h-70v689h278q51 0 87.5 -18t60.5 -46.5t35.5 -65t11.5 -72.5q0 -29 -8.5 -58t-25 -54t-40.5 -45t-56 -31l132 -299h-78l-122 286h-205v-286zM126 624v-273h195q29 0 54.5 9.5t44 27t29 42.5t10.5 57q0 31 -10.5 56.5t-29 43.5t-44 27.5t-54.5 9.5h-195zM396 885
l24 -30l-135 -118h-45l-141 119l23 30l138 -86z" />
    <glyph glyph-name="rcaron" unicode="&#x159;" horiz-adv-x="314" 
d="M311 428q-67 -7 -111 -26.5t-68 -35.5v-366h-66v494h58l8 -73h1q14 13 34.5 27t44 25t49 18.5t50.5 8.5v-72zM284 722l30 -29l-134 -138h-45l-142 139l31 29l130 -102z" />
    <glyph glyph-name="Sacute" unicode="&#x15a;" horiz-adv-x="546" 
d="M515 186q0 -45 -17.5 -80.5t-49 -60t-76 -38t-98.5 -13.5q-69 0 -128.5 19t-115.5 58l37 52q46 -29 99 -47.5t109 -18.5q75 0 121 33.5t46 95.5q0 37 -16 60t-41.5 37.5t-57 22.5t-62.5 14q-41 7 -79.5 20t-68.5 34.5t-48.5 54t-18.5 80.5q0 42 15 77t43.5 60.5t69 39.5
t91.5 14q57 0 112 -10.5t104 -39.5l-32 -60q-44 24 -92 35t-95 11q-29 0 -55.5 -7.5t-47 -23.5t-32.5 -40.5t-12 -57.5q0 -32 16 -53t41 -35t55 -22t59 -14q45 -10 86 -22.5t71.5 -34t49 -55t18.5 -85.5zM218 766l142 115l47 -49l-161 -98z" />
    <glyph glyph-name="sacute" unicode="&#x15b;" horiz-adv-x="447" 
d="M231 49q21 0 42 4.5t38 15t27.5 27.5t10.5 42q0 32 -21 49t-59 26q-35 9 -74.5 15.5t-72.5 20t-54.5 38t-21.5 68.5q0 32 13 58.5t36 45.5t55.5 29.5t70.5 10.5q54 0 95 -10.5t78 -36.5l-16.5 -24.5l-16.5 -24.5q-33 20 -67 29t-72 9q-51 0 -82 -24t-31 -62
q0 -18 9 -30.5t24.5 -21t37 -14t46.5 -10.5l64.5 -13t61.5 -22t45.5 -40.5t17.5 -67.5q0 -32 -13.5 -58t-38.5 -45t-59.5 -29t-77.5 -10q-50 0 -98 11.5t-95 46.5l35 49q37 -29 76.5 -40.5t86.5 -11.5zM196 573l75 166l66 -22l-100 -160z" />
    <glyph glyph-name="Scircumflex" unicode="&#x15c;" horiz-adv-x="546" 
d="M515 186q0 -45 -17.5 -80.5t-49 -60t-76 -38t-98.5 -13.5q-69 0 -128.5 19t-115.5 58l37 52q46 -29 99 -47.5t109 -18.5q75 0 121 33.5t46 95.5q0 37 -16 60t-41.5 37.5t-57 22.5t-62.5 14q-41 7 -79.5 20t-68.5 34.5t-48.5 54t-18.5 80.5q0 42 15 77t43.5 60.5t69 39.5
t91.5 14q57 0 112 -10.5t104 -39.5l-32 -60q-44 24 -92 35t-95 11q-29 0 -55.5 -7.5t-47 -23.5t-32.5 -40.5t-12 -57.5q0 -32 16 -53t41 -35t55 -22t59 -14q45 -10 86 -22.5t71.5 -34t49 -55t18.5 -85.5zM272 820l-138 -85l-23 29l141 119h45l135 -117l-24 -30z" />
    <glyph glyph-name="scircumflex" unicode="&#x15d;" horiz-adv-x="447" 
d="M231 49q21 0 42 4.5t38 15t27.5 27.5t10.5 42q0 32 -21 49t-59 26q-35 9 -74.5 15.5t-72.5 20t-54.5 38t-21.5 68.5q0 32 13 58.5t36 45.5t55.5 29.5t70.5 10.5q54 0 95 -10.5t78 -36.5l-16.5 -24.5l-16.5 -24.5q-33 20 -67 29t-72 9q-51 0 -82 -24t-31 -62
q0 -18 9 -30.5t24.5 -21t37 -14t46.5 -10.5l64.5 -13t61.5 -22t45.5 -40.5t17.5 -67.5q0 -32 -13.5 -58t-38.5 -45t-59.5 -29t-77.5 -10q-50 0 -98 11.5t-95 46.5l35 49q37 -29 76.5 -40.5t86.5 -11.5zM225 657l-130 -103l-31 30l142 138h45l134 -137l-30 -30z" />
    <glyph glyph-name="Scedilla" unicode="&#x15e;" horiz-adv-x="546" 
d="M266 -161q23 0 39.5 9.5t16.5 30.5q0 16 -14 29.5t-40 13.5h-7t-8 -1l-25 14l18 60q-118 6 -216 76l37 52q46 -29 99 -47.5t109 -18.5q75 0 121 33.5t46 95.5q0 37 -16 60t-41.5 37.5t-57 22.5t-62.5 14q-41 7 -79.5 20t-68.5 34.5t-48.5 54t-18.5 80.5q0 42 15 77
t43.5 60.5t69 39.5t91.5 14q57 0 112 -10.5t104 -39.5l-32 -60q-44 24 -92 35t-95 11q-29 0 -55.5 -7.5t-47 -23.5t-32.5 -40.5t-12 -57.5q0 -32 16 -53t41 -35t55 -22t59 -14q45 -10 86 -22.5t71.5 -34t49 -55t18.5 -85.5q0 -44 -16.5 -79t-47 -60t-73.5 -38.5t-95 -14.5
l-11 -35q28 -1 46.5 -9.5t29.5 -20.5t16 -25.5t5 -24.5q0 -12 -5 -25.5t-17 -25.5t-31 -19.5t-47 -7.5q-14 0 -36 2.5t-48 12.5l13 34q19 -6 36.5 -8.5t31.5 -2.5z" />
    <glyph glyph-name="scedilla" unicode="&#x15f;" horiz-adv-x="447" 
d="M221 -161q23 0 39.5 9.5t16.5 30.5q0 16 -14 29.5t-40 13.5h-7t-8 -1l-25 14l18 60q-44 2 -85.5 14.5t-82.5 42.5l35 49q37 -29 76.5 -40.5t86.5 -11.5q21 0 42 4.5t38 15t27.5 27.5t10.5 42q0 32 -21 49t-59 26q-35 9 -74.5 15.5t-72.5 20t-54.5 38t-21.5 68.5
q0 32 13 58.5t36 45.5t55.5 29.5t70.5 10.5q54 0 95 -10.5t78 -36.5l-16.5 -24.5l-16.5 -24.5q-33 20 -67 29t-72 9q-51 0 -82 -24t-31 -62q0 -18 9 -30.5t24.5 -21t37 -14t46.5 -10.5l64.5 -13t61.5 -22t45.5 -40.5t17.5 -67.5q0 -62 -48 -100.5t-129 -41.5l-11 -35
q28 -1 46.5 -9.5t29.5 -20.5t16 -25.5t5 -24.5q0 -12 -5 -25.5t-17 -25.5t-31 -19.5t-47 -7.5q-14 0 -36 2.5t-48 12.5l13 34q19 -6 36.5 -8.5t31.5 -2.5z" />
    <glyph glyph-name="Tcommaaccent" unicode="&#x162;" horiz-adv-x="518" 
d="M295 624v-624h-71v624h-208v65h485v-65h-206zM206 -107q0 20 14 34t37 14q29 0 42.5 -20.5t13.5 -46.5q0 -45 -25.5 -81t-60.5 -53l-23 30q20 16 31.5 32.5t13.5 42.5q-19 1 -31 14.5t-12 33.5z" />
    <glyph glyph-name="tcommaaccent" unicode="&#x163;" horiz-adv-x="349" 
d="M337 9q-26 -8 -53 -11t-41 -3q-76 0 -108 34.5t-32 115.5v289h-73v60h74l17 116h47v-116h142v-60h-142v-270q0 -62 20.5 -84.5t63.5 -22.5q15 0 34.5 2t40.5 6zM125 -107q0 20 14 34t37 14q29 0 42.5 -20.5t13.5 -46.5q0 -45 -25.5 -81t-60.5 -53l-23 30q20 16 31.5 32.5
t13.5 42.5q-19 1 -31 14.5t-12 33.5z" />
    <glyph glyph-name="Tcaron" unicode="&#x164;" horiz-adv-x="518" 
d="M295 624v-624h-71v624h-208v65h485v-65h-206zM397 885l24 -30l-135 -118h-45l-141 119l23 30l138 -86z" />
    <glyph glyph-name="tcaron" unicode="&#x165;" horiz-adv-x="349" 
d="M260 695q0 20 14 34t37 14q29 0 42.5 -20.5t13.5 -46.5q0 -45 -25.5 -81t-60.5 -53l-23 30q20 16 31.5 32.5t13.5 42.5q-19 1 -31 14.5t-12 33.5zM337 9q-26 -8 -53 -11t-41 -3q-76 0 -108 34.5t-32 115.5v289h-73v60h74l17 116h47v-116h142v-60h-142v-270
q0 -62 20.5 -84.5t63.5 -22.5q15 0 34.5 2t40.5 6z" />
    <glyph glyph-name="Tbar" unicode="&#x166;" horiz-adv-x="518" 
d="M295 624v-227h150v-54h-150v-343h-71v343h-153v54h153v227h-208v65h485v-65h-206z" />
    <glyph glyph-name="tbar" unicode="&#x167;" horiz-adv-x="349" 
d="M337 9q-26 -8 -53 -11t-41 -3q-76 0 -108 34.5t-32 115.5v108h-73v53h73v128h-73v60h74l17 116h47v-116h142v-60h-142v-128h138v-53h-138v-89q0 -62 20.5 -84.5t63.5 -22.5q15 0 34.5 2t40.5 6z" />
    <glyph glyph-name="Utilde" unicode="&#x168;" horiz-adv-x="600" 
d="M550 218q0 -52 -19 -93.5t-53 -71t-79.5 -45t-97.5 -15.5q-53 0 -98.5 15.5t-79 45t-52.5 71t-19 94.5v470h71v-457q0 -47 14.5 -80t39.5 -54t57 -31t67 -10q34 0 66.5 10t57 31t39.5 54t15 80v457h71v-471zM236 862q17 0 34.5 -7t34.5 -15.5t32.5 -15.5t28.5 -7
q30 0 59 43l41 -23q-20 -41 -44 -59t-52 -18q-17 0 -33.5 6.5t-33 14t-32.5 14t-31 6.5q-18 0 -32 -9.5t-31 -30.5l-41 24q20 37 46 57t54 20z" />
    <glyph glyph-name="utilde" unicode="&#x169;" horiz-adv-x="492" 
d="M386 0l-9 60q-32 -20 -57 -32.5t-45 -20t-36 -10t-31 -2.5q-78 0 -120.5 43.5t-42.5 128.5v327h66v-317q0 -65 28 -92.5t75 -27.5q33 0 75.5 19t87.5 51v367h67v-494h-58zM180 692q17 0 34.5 -7t34.5 -15.5t32.5 -15.5t28.5 -7q30 0 59 43l41 -23q-20 -41 -44 -59
t-52 -18q-17 0 -33.5 6.5t-33 14t-32.5 14t-31 6.5q-18 0 -32 -9.5t-31 -30.5l-41 24q20 37 46 57t54 20z" />
    <glyph glyph-name="Umacron" unicode="&#x16a;" horiz-adv-x="600" 
d="M550 218q0 -52 -19 -93.5t-53 -71t-79.5 -45t-97.5 -15.5q-53 0 -98.5 15.5t-79 45t-52.5 71t-19 94.5v470h71v-457q0 -47 14.5 -80t39.5 -54t57 -31t67 -10q34 0 66.5 10t57 31t39.5 54t15 80v457h71v-471zM168 775v58h262v-58h-262z" />
    <glyph glyph-name="umacron" unicode="&#x16b;" horiz-adv-x="492" 
d="M386 0l-9 60q-32 -20 -57 -32.5t-45 -20t-36 -10t-31 -2.5q-78 0 -120.5 43.5t-42.5 128.5v327h66v-317q0 -65 28 -92.5t75 -27.5q33 0 75.5 19t87.5 51v367h67v-494h-58zM116 597v58h262v-58h-262z" />
    <glyph glyph-name="Ubreve" unicode="&#x16c;" horiz-adv-x="600" 
d="M550 218q0 -52 -19 -93.5t-53 -71t-79.5 -45t-97.5 -15.5q-53 0 -98.5 15.5t-79 45t-52.5 71t-19 94.5v470h71v-457q0 -47 14.5 -80t39.5 -54t57 -31t67 -10q34 0 66.5 10t57 31t39.5 54t15 80v457h71v-471zM225 836q4 -27 26 -47.5t54 -20.5q35 0 55.5 19.5t24.5 48.5
h55q-3 -19 -10.5 -40t-23.5 -39t-40.5 -29.5t-60.5 -11.5q-37 0 -62.5 11.5t-41.5 29.5t-23.5 39t-8.5 40h56z" />
    <glyph glyph-name="ubreve" unicode="&#x16d;" horiz-adv-x="492" 
d="M386 0l-9 60q-32 -20 -57 -32.5t-45 -20t-36 -10t-31 -2.5q-78 0 -120.5 43.5t-42.5 128.5v327h66v-317q0 -65 28 -92.5t75 -27.5q33 0 75.5 19t87.5 51v367h67v-494h-58zM172 686q4 -27 26 -47.5t54 -20.5q35 0 55.5 19.5t24.5 48.5h55q-3 -19 -10.5 -40t-23.5 -39
t-40.5 -29.5t-60.5 -11.5q-37 0 -62.5 11.5t-41.5 29.5t-23.5 39t-8.5 40h56z" />
    <glyph glyph-name="Uring" unicode="&#x16e;" horiz-adv-x="600" 
d="M550 218q0 -52 -19 -93.5t-53 -71t-79.5 -45t-97.5 -15.5q-53 0 -98.5 15.5t-79 45t-52.5 71t-19 94.5v470h71v-457q0 -47 14.5 -80t39.5 -54t57 -31t67 -10q34 0 66.5 10t57 31t39.5 54t15 80v457h71v-471zM405 806q0 -41 -28.5 -69.5t-69.5 -28.5t-69.5 28.5
t-28.5 69.5t28.5 68.5t69.5 27.5t69.5 -27.5t28.5 -68.5zM366 806q0 24 -16.5 41t-42.5 17q-25 0 -42 -17t-17 -41q0 -25 17 -42t42 -17q26 0 42.5 17t16.5 42z" />
    <glyph glyph-name="uring" unicode="&#x16f;" horiz-adv-x="492" 
d="M386 0l-9 60q-32 -20 -57 -32.5t-45 -20t-36 -10t-31 -2.5q-78 0 -120.5 43.5t-42.5 128.5v327h66v-317q0 -65 28 -92.5t75 -27.5q33 0 75.5 19t87.5 51v367h67v-494h-58zM345 644q0 -41 -28.5 -69.5t-69.5 -28.5t-69.5 28.5t-28.5 69.5t28.5 68.5t69.5 27.5t69.5 -27.5
t28.5 -68.5zM306 644q0 24 -16.5 41t-42.5 17q-25 0 -42 -17t-17 -41q0 -25 17 -42t42 -17q26 0 42.5 17t16.5 42z" />
    <glyph glyph-name="Uhungarumlaut" unicode="&#x170;" horiz-adv-x="600" 
d="M550 218q0 -52 -19 -93.5t-53 -71t-79.5 -45t-97.5 -15.5q-53 0 -98.5 15.5t-79 45t-52.5 71t-19 94.5v470h71v-457q0 -47 14.5 -80t39.5 -54t57 -31t67 -10q34 0 66.5 10t57 31t39.5 54t15 80v457h71v-471zM327 766l142 115l47 -49l-161 -98zM191 766l142 115l48 -49
l-162 -98z" />
    <glyph glyph-name="uhungarumlaut" unicode="&#x171;" horiz-adv-x="492" 
d="M386 0l-9 60q-32 -20 -57 -32.5t-45 -20t-36 -10t-31 -2.5q-78 0 -120.5 43.5t-42.5 128.5v327h66v-317q0 -65 28 -92.5t75 -27.5q33 0 75.5 19t87.5 51v367h67v-494h-58zM161 573l75 166l65 -22l-99 -160zM277 573l75 166l65 -22l-100 -160z" />
    <glyph glyph-name="Uogonek" unicode="&#x172;" horiz-adv-x="600" 
d="M249 -90q0 18 7 38.5t24 45.5q-49 3 -91 19.5t-72.5 45.5t-47.5 69.5t-17 90.5v470h71v-457q0 -47 14.5 -80t39.5 -54t57 -31t67 -10q34 0 66.5 10t57 31t39.5 54t15 80v457h71v-471q0 -49 -17 -88.5t-46.5 -68.5t-70 -46t-88.5 -21q-14 -20 -20.5 -38.5t-6.5 -34.5
q0 -24 14 -36t37 -12q12 0 26 4.5t31 12.5l17 -42q-17 -9 -40 -16t-46 -7q-42 0 -66.5 25t-24.5 60z" />
    <glyph glyph-name="uogonek" unicode="&#x173;" horiz-adv-x="492" 
d="M347 -91q0 20 8.5 42.5t30.5 49.5l-9 59q-32 -20 -57 -32.5t-45 -20t-36 -10t-31 -2.5q-78 0 -120.5 43.5t-42.5 128.5v327h66v-317q0 -65 28 -92.5t75 -27.5q33 0 75.5 19t87.5 51v367h67v-494h-13q-17 -22 -24.5 -42.5t-7.5 -37.5q0 -24 14 -36t37 -12q12 0 26 4.5
t31 12.5l17 -42q-17 -9 -40 -16t-46 -7q-42 0 -66.5 25t-24.5 60z" />
    <glyph glyph-name="Wcircumflex" unicode="&#x174;" horiz-adv-x="850" 
d="M419 558l-17.5 -68.5l-26 -102l-30.5 -117.5l-30 -115.5l-25 -96t-16 -58.5h-81l-183 689h76l146 -585h3l150 585h74l26 -100.5l30 -118l39.5 -155l54.5 -211.5h3l15 61l25.5 101.5l31 122.5l31.5 124.5l26.5 106.5t17.5 69h75l-183 -689h-81l-16 60l-25 96.5l-30 115.5
l-31 117.5l-27 101.5l-18 67h-4zM424 820l-138 -85l-23 29l141 119h45l135 -117l-24 -30z" />
    <glyph glyph-name="wcircumflex" unicode="&#x175;" horiz-adv-x="687" 
d="M344 364l-54 -164l-66 -200h-65l-17.5 59l-25.5 87l-29.5 100.5l-29 101l-25 87l-17.5 59.5h68l10 -36.5l14.5 -54l14.5 -54l10 -36.5l60 -216h2l75 224q3 7 9 25l13 38.5l13 38t8 25.5h68l58 -174q2 -5 10.5 -31.5l19 -57l19 -57t10.5 -31.5h3l56 208l51 189h66l-17 -59
l-24.5 -87.5l-28.5 -101l-28.5 -100.5l-24 -87t-16.5 -59h-66l-68 205q-5 13 -13.5 38l-17 50.5l-15.5 45.5t-8 25h-2zM350 657l-130 -103l-31 30l142 138h45l134 -137l-30 -30z" />
    <glyph glyph-name="Ycircumflex" unicode="&#x176;" horiz-adv-x="514" 
d="M292 0h-71v261l-104 214l-105 214h77l16 -33.5l28 -60l34.5 -74l36 -76l32 -66.5t22.5 -45l18 39l30 64l35.5 76l35 75.5l29.5 63l18 37.5h75l-207 -426v-263zM258 820l-138 -85l-23 29l141 119h45l135 -117l-24 -30z" />
    <glyph glyph-name="ycircumflex" unicode="&#x177;" horiz-adv-x="448" 
d="M114 -200l73 206l-35 32l-143 455h70q5 -14 14.5 -45.5l19.5 -66l19.5 -66t14.5 -45.5l65 -210h2l75 210l16.5 45.5l23.5 66l23 66l16 45.5h70l-30.5 -83.5l-44.5 -122l-52 -141l-51.5 -141l-44.5 -122l-30 -83.5h-71zM214 657l-130 -103l-31 30l142 138h45l134 -137
l-30 -30z" />
    <glyph glyph-name="Zacute" unicode="&#x179;" horiz-adv-x="520" 
d="M483 628l-362 -565h361v-63h-444v62l361 563h-346v64h430v-61zM206 766l142 115l47 -49l-161 -98z" />
    <glyph glyph-name="zacute" unicode="&#x17a;" horiz-adv-x="435" 
d="M36 0v53l279 382h-264v58h345v-54l-278 -381h278v-58h-360zM189 573l75 166l66 -22l-100 -160z" />
    <glyph glyph-name="Zdotaccent" unicode="&#x17b;" horiz-adv-x="520" 
d="M483 628l-362 -565h361v-63h-444v62l361 563h-346v64h430v-61zM230 811q0 16 11.5 29t31.5 13q22 0 34 -13t12 -29q0 -19 -12 -32.5t-34 -13.5q-20 0 -31.5 13t-11.5 33z" />
    <glyph glyph-name="zdotaccent" unicode="&#x17c;" horiz-adv-x="435" 
d="M36 0v53l279 382h-264v58h345v-54l-278 -381h278v-58h-360zM184 641q0 16 11.5 29t31.5 13q22 0 34 -13t12 -29q0 -19 -12 -32.5t-34 -13.5q-20 0 -31.5 13t-11.5 33z" />
    <glyph glyph-name="AEacute" unicode="&#x1fc;" horiz-adv-x="949" 
d="M477 0v194h-275l-123 -194h-77l442 689h485v-64h-382v-246h327v-64h-327v-252h382v-63h-452zM240 253h237v371zM606 766l142 115l47 -49l-161 -98z" />
    <glyph glyph-name="aeacute" unicode="&#x1fd;" horiz-adv-x="796" 
d="M435 178q0 -34 11.5 -58t30.5 -39t44 -21.5t51 -6.5q33 0 66 11.5t62 38.5l41 -45q-35 -35 -79 -49t-92 -14q-55 0 -99.5 19t-73.5 59q-38 -27 -68.5 -43t-56 -23.5t-45.5 -9.5t-36 -2q-70 0 -113 37.5t-43 106.5q0 40 17.5 66.5t43.5 43t56 23.5t56 7h161v47
q0 33 -9.5 54.5t-27 34.5t-41 18.5t-50.5 5.5q-31 0 -66.5 -8.5t-73.5 -37.5l-33 50q45 32 88 43.5t88 11.5q63 0 102.5 -19.5t59.5 -54.5q26 35 66.5 54.5t92.5 19.5q43 0 78.5 -12.5t61 -36t39.5 -57t14 -75.5v-92h-323v-47zM223 225q-18 0 -39 -2t-39 -11t-30 -26
t-12 -47q0 -45 29 -65.5t71 -20.5q41 0 88 19t82 45q-2 15 -3 32t-1 35v41h-146zM565 439q-25 0 -48.5 -8t-41.5 -24t-29 -41t-11 -59v-28h257v27q0 36 -10.5 61t-28 41t-40.5 23.5t-48 7.5zM391 573l75 166l66 -22l-100 -160z" />
    <glyph glyph-name="Oslashacute" unicode="&#x1fe;" horiz-adv-x="600" 
d="M549 223q0 -53 -18.5 -95.5t-51.5 -72.5t-79 -46t-100 -16q-109 0 -175 58l-39 -58l-35 24l45 66q-21 28 -32.5 63.5t-11.5 77.5v241q0 51 17.5 93.5t50 73t78.5 47.5t102 17q53 0 97 -15.5t76 -43.5l41 59l35 -24l-46 -67q22 -29 34 -64t12 -76v-242zM478 455
q0 26 -5 47t-13 39l-295 -432q26 -27 61.5 -39.5t73.5 -12.5q36 0 68.5 10t56.5 31.5t38.5 54.5t14.5 79v223zM122 232q0 -49 17 -85l295 432q-25 27 -60 39.5t-74 12.5q-37 0 -69.5 -10.5t-56.5 -32t-38 -54.5t-14 -79v-223zM253 766l143 115l47 -49l-161 -98z" />
    <glyph glyph-name="oslashacute" unicode="&#x1ff;" horiz-adv-x="492" 
d="M446 174q0 -42 -15 -75.5t-42 -56.5t-63.5 -35t-79.5 -12q-82 0 -135 41l-33 -44l-30 25l35 46q-36 45 -36 111v146q0 42 16 75t43 56t63.5 35.5t77.5 12.5q82 0 136 -43l32 43l31 -23l-36 -47q36 -45 36 -109v-146zM381 306q0 20 -4 35.5t-11 29.5l-216 -284
q19 -17 44 -24.5t54 -7.5q25 0 48.5 7.5t42.5 23t30.5 41t11.5 61.5v118zM113 188q0 -21 3.5 -37.5t9.5 -30.5l216 283q-20 19 -45 27t-49 8t-48 -7t-43.5 -23t-31.5 -41t-12 -61v-118zM215 573l75 166l65 -22l-100 -160z" />
    <glyph glyph-name="Scommaaccent" unicode="&#x218;" horiz-adv-x="546" 
d="M515 186q0 -45 -17.5 -80.5t-49 -60t-76 -38t-98.5 -13.5q-69 0 -128.5 19t-115.5 58l37 52q46 -29 99 -47.5t109 -18.5q75 0 121 33.5t46 95.5q0 37 -16 60t-41.5 37.5t-57 22.5t-62.5 14q-41 7 -79.5 20t-68.5 34.5t-48.5 54t-18.5 80.5q0 42 15 77t43.5 60.5t69 39.5
t91.5 14q57 0 112 -10.5t104 -39.5l-32 -60q-44 24 -92 35t-95 11q-29 0 -55.5 -7.5t-47 -23.5t-32.5 -40.5t-12 -57.5q0 -32 16 -53t41 -35t55 -22t59 -14q45 -10 86 -22.5t71.5 -34t49 -55t18.5 -85.5zM220 -107q0 20 14 34t37 14q29 0 42.5 -20.5t13.5 -46.5
q0 -45 -25.5 -81t-60.5 -53l-23 30q20 16 31.5 32.5t13.5 42.5q-19 1 -31 14.5t-12 33.5z" />
    <glyph glyph-name="scommaaccent" unicode="&#x219;" horiz-adv-x="447" 
d="M231 49q21 0 42 4.5t38 15t27.5 27.5t10.5 42q0 32 -21 49t-59 26q-35 9 -74.5 15.5t-72.5 20t-54.5 38t-21.5 68.5q0 32 13 58.5t36 45.5t55.5 29.5t70.5 10.5q54 0 95 -10.5t78 -36.5l-16.5 -24.5l-16.5 -24.5q-33 20 -67 29t-72 9q-51 0 -82 -24t-31 -62
q0 -18 9 -30.5t24.5 -21t37 -14t46.5 -10.5l64.5 -13t61.5 -22t45.5 -40.5t17.5 -67.5q0 -32 -13.5 -58t-38.5 -45t-59.5 -29t-77.5 -10q-50 0 -98 11.5t-95 46.5l35 49q37 -29 76.5 -40.5t86.5 -11.5zM172 -107q0 20 14 34t37 14q29 0 42.5 -20.5t13.5 -46.5
q0 -45 -25.5 -81t-60.5 -53l-23 30q20 16 31.5 32.5t13.5 42.5q-19 1 -31 14.5t-12 33.5z" />
    <glyph glyph-name="AE" unicode="&#xc6;" horiz-adv-x="949" 
d="M477 0v194h-275l-123 -194h-77l442 689h485v-64h-382v-246h327v-64h-327v-252h382v-63h-452zM240 253h237v371z" />
    <glyph glyph-name="OE" unicode="&#x152;" horiz-adv-x="860" 
d="M374 0q-17 -4 -35.5 -5.5t-38.5 -1.5q-56 0 -101.5 16.5t-78 46.5t-50.5 72.5t-18 95.5v241q0 51 17.5 93.5t50 73t78.5 47.5t102 17q20 0 38.5 -1.5t35.5 -5.5h452v-64h-382v-246h327v-64h-327v-252h382v-63h-452zM300 57q20 0 38.5 2.5t35.5 8.5v552q-17 6 -35.5 8.5
t-38.5 2.5q-37 0 -69.5 -10.5t-56.5 -32t-38 -54.5t-14 -79v-223q0 -47 15 -80t40 -54t57 -31t66 -10z" />
    <glyph glyph-name="ampersandsmall" unicode="&#xe0fb;" horiz-adv-x="633" 
d="M584 314q0 -70 -29 -128t-75 -102q26 -24 56 -44t62 -31l-25 -47q-37 17 -73 39.5t-63 48.5q-38 -26 -82.5 -40.5t-86.5 -14.5q-35 0 -66 9t-54 28t-36 46.5t-13 65.5q0 53 34 92.5t92 71.5q-22 31 -30.5 54t-8.5 46q0 48 29 80t82 32q25 0 46 -8t36.5 -22t24 -32.5
t8.5 -39.5q0 -43 -27 -73.5t-76 -57.5q29 -40 64 -83.5t69 -81.5q42 36 65 85t23 106q0 48 -14.5 91.5t-43 76.5t-71 52.5t-98.5 19.5q-47 0 -86.5 -14t-67.5 -37.5t-43.5 -55t-15.5 -66.5q0 -24 9 -51t29 -55l-23 -14l-23 -14q-24 32 -34.5 65.5t-10.5 65.5q0 45 19 86
t53.5 72.5t83 50t108.5 18.5q69 0 122 -23t88.5 -62.5t54 -92.5t18.5 -112zM155 145q0 -51 31.5 -76t76.5 -25q32 0 67 10.5t69 33.5q-35 37 -67.5 77t-58.5 76l-16 23q-42 -23 -72 -52t-30 -67zM296 470q-14 0 -24 -6t-16 -15t-9 -19t-3 -19q0 -17 9.5 -36.5t25.5 -41.5
q29 16 52 36t23 49q0 22 -17 37t-41 15z" />
    <glyph glyph-name="exclamsmall" unicode="&#xe0fc;" horiz-adv-x="175" 
d="M115 127h-56l-4 401h66zM44 41q0 14 11.5 27t31.5 13q21 0 33 -13t12 -27q0 -18 -12 -31.5t-33 -13.5q-20 0 -31.5 12.5t-11.5 32.5z" />
    <glyph glyph-name="questionsmall" unicode="&#xe0fd;" horiz-adv-x="348" 
d="M162 532q33 0 60 -10t46.5 -28t30.5 -42t11 -52q0 -34 -18 -64.5t-40 -58.5q-21 -25 -36 -49.5t-15 -50.5v-47h-62v46q0 43 18 72t39 55q17 21 32 44t15 49q0 33 -23 55t-63 22q-28 0 -56 -9.5t-51 -26.5l-32 49q35 24 70.5 35t73.5 11zM128 41q0 14 12 27t32 13t32 -13
t12 -27q0 -18 -12 -31.5t-32 -13.5t-32 12.5t-12 32.5z" />
    <glyph glyph-name="Asmall" unicode="&#xe0fe;" horiz-adv-x="455" 
d="M377 0q-11 29 -20.5 59t-20.5 60h-217l-42 -119h-70l188 523h66l93.5 -262l94.5 -261h-72zM226 442l-41 -132l-44 -132h173l-44 132z" />
    <glyph glyph-name="Bsmall" unicode="&#xe0ff;" horiz-adv-x="456" 
d="M424 151q0 -29 -10 -56t-29.5 -48t-48.5 -34t-66 -13h-230v524l222 -1q38 0 66.5 -11t48 -30t29 -44t9.5 -53q0 -30 -13.5 -60.5t-51.5 -49.5q40 -20 57 -55.5t17 -68.5zM358 151q0 21 -8.5 38.5t-22 30t-31.5 19t-37 6.5h-152v-186h152q45 0 72 23.5t27 68.5zM349 384
q0 43 -29 61t-69 18h-144v-158h151q17 0 33.5 5t29 14.5t20.5 24.5t8 35z" />
    <glyph glyph-name="Csmall" unicode="&#xe100;" horiz-adv-x="406" 
d="M233 528q85 0 150 -46l-34 -52q-25 19 -56 28.5t-60 9.5q-24 0 -47 -7t-41.5 -22t-29.5 -39t-11 -57v-162q0 -33 11.5 -56.5t29.5 -39.5t40.5 -23.5t45.5 -7.5q30 0 61 10t58 30l34 -51q-26 -18 -64.5 -33t-86.5 -15q-42 0 -77.5 12.5t-61.5 35.5t-41 55.5t-15 71.5v185
q0 39 15 71t41 54.5t62 35t77 12.5z" />
    <glyph glyph-name="Dsmall" unicode="&#xe101;" horiz-adv-x="463" 
d="M427 172q0 -39 -14 -70.5t-38.5 -54t-58.5 -35t-73 -12.5h-202v524h204q40 0 73.5 -12.5t57.5 -35t37.5 -54.5t13.5 -72v-178zM359 340q0 34 -11 57.5t-28.5 38t-40 21t-45.5 6.5h-126v-405h122q23 0 46 6.5t41.5 21t30 38t11.5 57.5v159z" />
    <glyph glyph-name="Esmall" unicode="&#xe102;" horiz-adv-x="425" 
d="M43 0v524h359v-61h-294v-170h252v-59h-252v-175h294v-59h-359z" />
    <glyph glyph-name="Fsmall" unicode="&#xe103;" horiz-adv-x="410" 
d="M109 463v-170h252v-59h-252v-234h-66v524h359v-61h-293z" />
    <glyph glyph-name="Gsmall" unicode="&#xe104;" horiz-adv-x="441" 
d="M337 213h-87v61h153v-212q-35 -35 -79 -51t-90 -16q-42 0 -78 12.5t-62.5 35.5t-41.5 55.5t-15 71.5v185q0 39 15 71t42 54.5t64 35t80 12.5q86 0 151 -46l-35 -52q-24 19 -55.5 28.5t-60.5 9.5q-26 0 -50 -7t-43 -22t-30.5 -39t-11.5 -57v-162q0 -33 11 -56.5t29 -39.5
t41.5 -23.5t48.5 -7.5q17 0 46 7t58 28v124z" />
    <glyph glyph-name="Hsmall" unicode="&#xe105;" horiz-adv-x="469" 
d="M366 0v236h-260v-236h-66v524h66v-229h260v229h67v-524h-67z" />
    <glyph glyph-name="Ismall" unicode="&#xe106;" horiz-adv-x="207" 
d="M70 0v524h67v-524h-67z" />
    <glyph glyph-name="Jsmall" unicode="&#xe107;" horiz-adv-x="400" 
d="M339 172q0 -40 -13.5 -72.5t-38 -56t-59 -36t-76.5 -12.5q-36 0 -74.5 10.5t-67.5 28.5l32 54q56 -34 104 -34q56 0 91 30.5t35 98.5v341h67v-352v0z" />
    <glyph glyph-name="Ksmall" unicode="&#xe108;" horiz-adv-x="442" 
d="M107 239l237 285h83l-173 -206l41 -69l54 -90l54 -90.5l41 -68.5h-77l-157 266l-103 -121v-145h-66v524h66v-285z" />
    <glyph glyph-name="Lsmall" unicode="&#xe109;" horiz-adv-x="404" 
d="M45 0v524h66v-465h292v-59h-358z" />
    <glyph glyph-name="Msmall" unicode="&#xe10a;" horiz-adv-x="566" 
d="M457 373h-3l-30 -61.5l-40 -83.5l-41 -85.5l-33 -66.5h-49l-14.5 29l-27.5 54l-33.5 66.5l-33.5 66.5l-27 53.5l-14 28.5h-3v-374h-66v523h62l44.5 -89l43.5 -88.5l45 -91.5l48 -99l80.5 163.5l97.5 204.5h59v-523h-65v373z" />
    <glyph glyph-name="Nsmall" unicode="&#xe10b;" horiz-adv-x="491" 
d="M382 116v407h66v-523h-63l-190 278q-2 4 -14.5 22.5l-27 40l-27 40l-14.5 21.5h-4v-402h-65v523h61l23 -34.5l34 -50.5l39.5 -58l39.5 -58l34.5 -50l23.5 -34q6 -10 17 -26.5l23 -34.5l23 -34.5t17 -26.5h4z" />
    <glyph glyph-name="Osmall" unicode="&#xe10c;" horiz-adv-x="467" 
d="M233 -5q-44 0 -80 12.5t-61.5 36t-39.5 56t-14 72.5v179q0 39 14 71.5t39.5 56t61.5 36t80 12.5q43 0 79.5 -12.5t62.5 -36t40.5 -56t14.5 -71.5v-180q0 -40 -14.5 -72.5t-41 -55.5t-62.5 -35.5t-79 -12.5zM364 343q0 32 -10.5 55.5t-28.5 39t-41.5 23t-50.5 7.5
t-50.5 -7.5t-41.5 -23t-28 -39t-10 -55.5v-165q0 -33 11 -56.5t29 -38.5t41.5 -22t48.5 -7q27 0 51 7.5t41.5 22.5t28 38.5t10.5 55.5v165z" />
    <glyph glyph-name="Psmall" unicode="&#xe10d;" horiz-adv-x="426" 
d="M413 368q0 -28 -10.5 -56t-30 -50t-48.5 -36t-65 -14h-154v-212h-66v524h220q39 0 68 -14t48 -36.5t28.5 -50t9.5 -55.5zM347 368q0 44 -29 69.5t-69 25.5h-144v-190h144q40 0 69 25t29 70z" />
    <glyph glyph-name="Qsmall" unicode="&#xe10e;" horiz-adv-x="467" 
d="M356 -152q-9 -2 -17.5 -2h-16.5q-36 0 -59.5 10t-38 28t-20 42t-5.5 53v18q-75 9 -118 55.5t-43 119.5v179q0 39 14 71.5t39.5 56t61.5 36t80 12.5q43 0 79.5 -12.5t62.5 -36t40.5 -56t14.5 -71.5v-180q0 -75 -47.5 -121t-122.5 -54v-16q0 -45 14.5 -61.5t52.5 -18.5h14
t15 1v-53zM364 343q0 32 -10.5 55.5t-28.5 39t-41.5 23t-50.5 7.5t-50.5 -7.5t-41.5 -23t-28 -39t-10 -55.5v-165q0 -33 11 -56.5t29 -38.5t41.5 -22t48.5 -7q27 0 51 7.5t41.5 22.5t28 38.5t10.5 55.5v165z" />
    <glyph glyph-name="Rsmall" unicode="&#xe10f;" horiz-adv-x="440" 
d="M261 524q40 0 69.5 -14t48.5 -36.5t28 -50t9 -55.5q0 -44 -25 -84.5t-72 -58.5l102 -225h-74l-93 212h-147v-212h-66v524h220zM350 368q0 44 -28.5 69.5t-69.5 25.5h-145v-190h145q41 0 69.5 25t28.5 70z" />
    <glyph glyph-name="Ssmall" unicode="&#xe110;" horiz-adv-x="426" 
d="M404 145q0 -35 -13.5 -62.5t-38.5 -47t-60.5 -30t-78.5 -10.5q-53 0 -101 13t-93 46l35 51q35 -25 77 -38t83 -13q54 0 88 24t34 67q0 23 -10.5 38.5t-28 25.5t-39.5 15.5l-44 10.5q-33 7 -64.5 16t-57 25.5t-41 42.5t-15.5 65q0 32 12 59.5t35 47t55.5 30.5t73.5 11
q45 0 87 -9.5t84 -33.5l-30 -54q-35 19 -72.5 28t-72.5 9q-21 0 -40.5 -5.5t-34 -16.5t-23.5 -28t-9 -40q0 -21 12 -35.5t30.5 -24.5t41 -16t43.5 -10q34 -8 66 -17t56.5 -25.5t39 -42.5t14.5 -66z" />
    <glyph glyph-name="Tsmall" unicode="&#xe111;" horiz-adv-x="404" 
d="M236 463v-463h-67v463h-160v61h385v-61h-158z" />
    <glyph glyph-name="Usmall" unicode="&#xe112;" horiz-adv-x="468" 
d="M432 169q0 -41 -15 -73t-41.5 -54.5t-62.5 -34.5t-78 -12t-78 12t-62.5 35t-41.5 55t-15 73v354h67v-345q0 -33 10.5 -56.5t28.5 -38.5t41.5 -22.5t49.5 -7.5q25 0 48.5 7.5t41.5 22.5t29 38.5t11 56.5v345h67v-355v0z" />
    <glyph glyph-name="Vsmall" unicode="&#xe113;" horiz-adv-x="433" 
d="M269 268l42.5 127t41.5 128h73l-88.5 -262l-87.5 -261h-70l-87.5 261l-87.5 262h72l16 -48l19 -58l21 -64.5l22 -67.5l60 -186z" />
    <glyph glyph-name="Wsmall" unicode="&#xe114;" horiz-adv-x="663" 
d="M326 410l-105 -410h-72l-143 523h70q2 -9 10.5 -41l19.5 -76l23.5 -94l23.5 -94.5l19.5 -77t10.5 -42.5h3l11.5 44l19.5 76.5l24 92.5l24 92.5l19.5 76l11.5 43.5h66l11.5 -43.5l20 -76l24 -91.5l23.5 -91.5l19.5 -76l11.5 -43.5h3q5 22 13.5 55l18.5 71.5l21 80.5
l21 81.5l19 74.5l15 59h70l-143 -523h-72l-108 410h-4z" />
    <glyph glyph-name="Xsmall" unicode="&#xe115;" horiz-adv-x="410" 
d="M332 0l-126 211l-128 -211h-78l167 269l-156 255h77l117 -199l116 199h77l-156 -255l167 -269h-77z" />
    <glyph glyph-name="Ysmall" unicode="&#xe116;" horiz-adv-x="401" 
d="M233 0h-66v198l-165 325h73l63 -128l61 -129l17.5 35l23.5 47l34 70l50 105h72l-81.5 -162.5l-81.5 -161.5v-199z" />
    <glyph glyph-name="Zsmall" unicode="&#xe117;" horiz-adv-x="406" 
d="M381 470l-277 -411h276v-59h-353v54l274 409h-263v61h343v-54z" />
    <glyph glyph-name="Alphasmall" unicode="&#xe183;" horiz-adv-x="455" 
d="M377 0q-11 29 -20.5 59t-20.5 60h-217l-42 -119h-70l188 523h66l93.5 -262l94.5 -261h-72zM226 442l-41 -132l-44 -132h173l-44 132z" />
    <glyph glyph-name="Betasmall" unicode="&#xe184;" horiz-adv-x="456" 
d="M424 151q0 -29 -10 -56t-29.5 -48t-48.5 -34t-66 -13h-230v524l222 -1q38 0 66.5 -11t48 -30t29 -44t9.5 -53q0 -30 -13.5 -60.5t-51.5 -49.5q40 -20 57 -55.5t17 -68.5zM358 151q0 21 -8.5 38.5t-22 30t-31.5 19t-37 6.5h-152v-186h152q45 0 72 23.5t27 68.5zM349 384
q0 43 -29 61t-69 18h-144v-158h151q17 0 33.5 5t29 14.5t20.5 24.5t8 35z" />
    <glyph glyph-name="Gammasmall" unicode="&#xe185;" horiz-adv-x="396" 
d="M109 463v-463h-65v524h359v-61h-294z" />
    <glyph glyph-name="Deltasmall" unicode="&#xe186;" horiz-adv-x="455" 
d="M5 0l189 523h67l191 -523h-447zM227 431l-62 -180q-5 -13 -14.5 -40l-19.5 -56l-19.5 -56t-14.5 -40h261q-5 13 -14 39l-19 55l-19 55t-14 39z" />
    <glyph glyph-name="Epsilonsmall" unicode="&#xe187;" horiz-adv-x="425" 
d="M43 0v524h359v-61h-294v-170h252v-59h-252v-175h294v-59h-359z" />
    <glyph glyph-name="Zetasmall" unicode="&#xe188;" horiz-adv-x="406" 
d="M381 470l-277 -411h276v-59h-353v54l274 409h-263v61h343v-54z" />
    <glyph glyph-name="Etasmall" unicode="&#xe189;" horiz-adv-x="469" 
d="M366 0v236h-260v-236h-66v524h66v-229h260v229h67v-524h-67z" />
    <glyph glyph-name="Thetasmall" unicode="&#xe18a;" horiz-adv-x="465" 
d="M233 -5q-44 0 -80.5 12.5t-62 36t-39.5 56t-14 72.5v179q0 39 14 71.5t39.5 56t61.5 36t81 12.5q43 0 79.5 -12.5t62.5 -36t40.5 -56t14.5 -71.5v-180q0 -40 -14.5 -72.5t-41 -55.5t-62.5 -35.5t-79 -12.5zM364 343q0 32 -10.5 55.5t-28.5 39t-42 23t-50 7.5
q-27 0 -50.5 -7.5t-41.5 -23t-28 -39t-10 -55.5v-165q0 -33 11 -56.5t29 -38.5t41.5 -22t48.5 -7q27 0 51 7.5t41.5 22.5t28 38.5t10.5 55.5v165zM338 233h-209v62h209v-62z" />
    <glyph glyph-name="Iotasmall" unicode="&#xe18b;" horiz-adv-x="207" 
d="M70 0v524h67v-524h-67z" />
    <glyph glyph-name="Kappasmall" unicode="&#xe18c;" horiz-adv-x="442" 
d="M107 239l237 285h83l-173 -206l41 -69l54 -90l54 -90.5l41 -68.5h-77l-157 266l-103 -121v-145h-66v524h66v-285z" />
    <glyph glyph-name="Lambdasmall" unicode="&#xe18d;" horiz-adv-x="452" 
d="M224 432l-59 -174l-90 -258h-70l93.5 261l93.5 262h66l189 -523h-71z" />
    <glyph glyph-name="Musmall" unicode="&#xe18e;" horiz-adv-x="566" 
d="M457 373h-3l-30 -61.5l-40 -83.5l-41 -85.5l-33 -66.5h-49l-14.5 29l-27.5 54l-33.5 66.5l-33.5 66.5l-27 53.5l-14 28.5h-3v-374h-66v523h62l44.5 -89l43.5 -88.5l45 -91.5l48 -99l80.5 163.5l97.5 204.5h59v-523h-65v373z" />
    <glyph glyph-name="Nusmall" unicode="&#xe18f;" horiz-adv-x="491" 
d="M382 116v407h66v-523h-63l-190 278q-2 4 -14.5 22.5l-27 40l-27 40l-14.5 21.5h-4v-402h-65v523h61l23 -34.5l34 -50.5l39.5 -58l39.5 -58l34.5 -50l23.5 -34q6 -10 17 -26.5l23 -34.5l23 -34.5t17 -26.5h4z" />
    <glyph glyph-name="Xismall" unicode="&#xe190;" horiz-adv-x="413" 
d="M30 0v59h141v176h-99v59h99v169h-141v61h351v-61h-148v-169h105v-59h-105v-176h148v-59h-351z" />
    <glyph glyph-name="Omicronsmall" unicode="&#xe191;" horiz-adv-x="467" 
d="M233 -5q-44 0 -80 12.5t-61.5 36t-39.5 56t-14 72.5v179q0 39 14 71.5t39.5 56t61.5 36t80 12.5q43 0 79.5 -12.5t62.5 -36t40.5 -56t14.5 -71.5v-180q0 -40 -14.5 -72.5t-41 -55.5t-62.5 -35.5t-79 -12.5zM364 343q0 32 -10.5 55.5t-28.5 39t-41.5 23t-50.5 7.5
t-50.5 -7.5t-41.5 -23t-28 -39t-10 -55.5v-165q0 -33 11 -56.5t29 -38.5t41.5 -22t48.5 -7q27 0 51 7.5t41.5 22.5t28 38.5t10.5 55.5v165z" />
    <glyph glyph-name="Pismall" unicode="&#xe192;" horiz-adv-x="467" 
d="M365 0v464h-260v-464h-66v524h393v-524h-67z" />
    <glyph glyph-name="Rhosmall" unicode="&#xe193;" horiz-adv-x="426" 
d="M413 368q0 -28 -10.5 -56t-30 -50t-48.5 -36t-65 -14h-154v-212h-66v524h220q39 0 68 -14t48 -36.5t28.5 -50t9.5 -55.5zM347 368q0 44 -29 69.5t-69 25.5h-144v-190h144q40 0 69 25t29 70z" />
    <glyph glyph-name="Sigmasmall" unicode="&#xe194;" horiz-adv-x="386" 
d="M21 0v55l133 217l-133 198v54h337v-61h-254l128 -191l-134 -213h267v-59h-344z" />
    <glyph glyph-name="Tausmall" unicode="&#xe195;" horiz-adv-x="404" 
d="M236 463v-463h-67v463h-160v61h385v-61h-158z" />
    <glyph glyph-name="Upsilonsmall" unicode="&#xe196;" horiz-adv-x="401" 
d="M233 0h-66v198l-165 325h73l63 -128l61 -129l17.5 35l23.5 47l34 70l50 105h72l-81.5 -162.5l-81.5 -161.5v-199z" />
    <glyph glyph-name="Phismall" unicode="&#xe197;" horiz-adv-x="592" 
d="M488 299q0 64 -41 104.5t-119 44.5v-347q72 2 116 41.5t44 103.5v53zM104 246q0 -64 43 -103t116 -42v347q-79 -3 -119 -44t-40 -105v-53zM328 0h-65v43q-56 3 -97.5 20t-69 44.5t-41 62.5t-13.5 74v61q0 37 14 72.5t41.5 63t69 45t96.5 18.5v21h65v-21q57 -2 99 -19.5
t69.5 -45t41 -62.5t13.5 -72v-60q0 -39 -14.5 -74t-42.5 -62.5t-69.5 -45t-96.5 -20.5v-43z" />
    <glyph glyph-name="Chismall" unicode="&#xe198;" horiz-adv-x="410" 
d="M332 0l-126 211l-128 -211h-78l167 269l-156 255h77l117 -199l116 199h77l-156 -255l167 -269h-77z" />
    <glyph glyph-name="Psismall" unicode="&#xe199;" horiz-adv-x="560" 
d="M521 287q0 -39 -16.5 -71t-44.5 -56t-65.5 -39t-80.5 -19v-102h-66v102q-44 2 -81.5 17.5t-65.5 40t-44 58t-16 71.5v235h65v-235q0 -30 12 -53t32 -38.5t45.5 -24t52.5 -10.5v364h68v-363q25 1 50 9t45 23.5t32.5 38t12.5 52.5v237h65v-237v0z" />
    <glyph glyph-name="Omegasmall" unicode="&#xe19a;" horiz-adv-x="471" 
d="M274 0v67q40 11 66.5 41t26.5 81v155q0 32 -11 55.5t-29 38.5t-41.5 22.5t-48.5 7.5q-27 0 -51 -7.5t-42 -22.5t-28.5 -38.5t-10.5 -55.5v-155q0 -51 29 -81t65 -40v-68h-170v59h68q-26 21 -42 54t-16 71v169q0 39 15 71.5t41.5 55.5t62.5 35.5t79 12.5q42 0 78 -12.5
t62.5 -35.5t41.5 -55.5t15 -71.5v-170q0 -39 -15.5 -71.5t-42.5 -52.5h70v-59h-172z" />
    <glyph glyph-name="Scaronsmall" unicode="&#xe118;" horiz-adv-x="426" 
d="M404 145q0 -35 -13.5 -62.5t-38.5 -47t-60.5 -30t-78.5 -10.5q-53 0 -101 13t-93 46l35 51q35 -25 77 -38t83 -13q54 0 88 24t34 67q0 23 -10.5 38.5t-28 25.5t-39.5 15.5l-44 10.5q-33 7 -64.5 16t-57 25.5t-41 42.5t-15.5 65q0 32 12 59.5t35 47t55.5 30.5t73.5 11
q45 0 87 -9.5t84 -33.5l-30 -54q-35 19 -72.5 28t-72.5 9q-21 0 -40.5 -5.5t-34 -16.5t-23.5 -28t-9 -40q0 -21 12 -35.5t30.5 -24.5t41 -16t43.5 -10q34 -8 66 -17t56.5 -25.5t39 -42.5t14.5 -66zM350 722l30 -29l-134 -138h-45l-142 139l31 29l130 -102z" />
    <glyph glyph-name="OEsmall" unicode="&#xe119;" horiz-adv-x="669" 
d="M289 0q-28 -5 -54 -5q-45 0 -81 12.5t-62 36t-40 56t-14 73.5v178q0 40 14 72.5t40 55.5t62 36t81 13q14 0 28 -1t27 -3h356v-61h-294v-170h252v-59h-252v-175h294v-59h-357zM235 54q26 0 52 8v398q-12 5 -25.5 6.5t-26.5 1.5q-27 0 -51 -7.5t-41.5 -23t-28 -39
t-10.5 -55.5v-164q0 -33 11 -56.5t29.5 -39t42 -22.5t48.5 -7z" />
    <glyph glyph-name="Zcaronsmall" unicode="&#xe11a;" horiz-adv-x="406" 
d="M381 470l-277 -411h276v-59h-353v54l274 409h-263v61h343v-54zM341 722l30 -29l-134 -138h-45l-142 139l31 29l130 -102z" />
    <glyph glyph-name="Ydieresissmall" unicode="&#xe11b;" horiz-adv-x="401" 
d="M233 0h-66v198l-165 325h73l63 -128l61 -129l17.5 35l23.5 47l34 70l50 105h72l-81.5 -162.5l-81.5 -161.5v-199zM332 644q0 -17 -12 -28.5t-29 -11.5t-28.5 11.5t-11.5 28.5t11.5 29t28.5 12t29 -12t12 -29zM150 644q0 -17 -12.5 -28.5t-29.5 -11.5q-16 0 -27.5 11.5
t-11.5 28.5t11.5 29t27.5 12q17 0 29.5 -12t12.5 -29z" />
    <glyph glyph-name="Agravesmall" unicode="&#xe11c;" horiz-adv-x="455" 
d="M377 0q-11 29 -20.5 59t-20.5 60h-217l-42 -119h-70l188 523h66l93.5 -262l94.5 -261h-72zM226 442l-41 -132l-44 -132h173l-44 132zM226 557l-99 160l65 22l75 -166z" />
    <glyph glyph-name="Aacutesmall" unicode="&#xe11d;" horiz-adv-x="455" 
d="M377 0q-11 29 -20.5 59t-20.5 60h-217l-42 -119h-70l188 523h66l93.5 -262l94.5 -261h-72zM226 442l-41 -132l-44 -132h173l-44 132zM195 573l75 166l66 -22l-100 -160z" />
    <glyph glyph-name="Acircumflexsmall" unicode="&#xe11e;" horiz-adv-x="455" 
d="M377 0q-11 29 -20.5 59t-20.5 60h-217l-42 -119h-70l188 523h66l93.5 -262l94.5 -261h-72zM226 442l-41 -132l-44 -132h173l-44 132zM228 657l-130 -103l-31 30l142 138h45l134 -137l-30 -30z" />
    <glyph glyph-name="Atildesmall" unicode="&#xe11f;" horiz-adv-x="455" 
d="M377 0q-11 29 -20.5 59t-20.5 60h-217l-42 -119h-70l188 523h66l93.5 -262l94.5 -261h-72zM226 442l-41 -132l-44 -132h173l-44 132zM163 692q17 0 34.5 -7t34.5 -15.5t32.5 -15.5t28.5 -7q30 0 59 43l41 -23q-20 -41 -44 -59t-52 -18q-17 0 -33.5 6.5t-33 14t-32.5 14
t-31 6.5q-18 0 -32 -9.5t-31 -30.5l-41 24q20 37 46 57t54 20z" />
    <glyph glyph-name="Adieresissmall" unicode="&#xe120;" horiz-adv-x="455" 
d="M377 0q-11 29 -20.5 59t-20.5 60h-217l-42 -119h-70l188 523h66l93.5 -262l94.5 -261h-72zM226 442l-41 -132l-44 -132h173l-44 132zM359 644q0 -17 -12 -28.5t-29 -11.5t-28.5 11.5t-11.5 28.5t11.5 29t28.5 12t29 -12t12 -29zM177 644q0 -17 -12.5 -28.5t-29.5 -11.5
q-16 0 -27.5 11.5t-11.5 28.5t11.5 29t27.5 12q17 0 29.5 -12t12.5 -29z" />
    <glyph glyph-name="Aringsmall" unicode="&#xe121;" horiz-adv-x="455" 
d="M377 0q-11 29 -20.5 59t-20.5 60h-217l-42 -119h-70l188 523h66l93.5 -262l94.5 -261h-72zM326 644q0 -41 -28.5 -69.5t-69.5 -28.5t-69.5 28.5t-28.5 69.5t28.5 68.5t69.5 27.5t69.5 -27.5t28.5 -68.5zM226 442l-41 -132l-44 -132h173l-44 132zM287 644q0 24 -16.5 41
t-42.5 17q-25 0 -42 -17t-17 -41q0 -25 17 -42t42 -17q26 0 42.5 17t16.5 42z" />
    <glyph glyph-name="AEsmall" unicode="&#xe122;" horiz-adv-x="740" 
d="M366 0v144h-201l-95 -144h-72l347 524h380v-61h-293v-170h250v-59h-250v-175h293v-59h-359zM202 200h164v248z" />
    <glyph glyph-name="Ccedillasmall" unicode="&#xe123;" horiz-adv-x="406" 
d="M226 -161q23 0 39.5 9.5t16.5 30.5q0 16 -14 29.5t-40 13.5h-7t-8 -1l-25 14l18 61q-36 4 -67 18t-53.5 36.5t-35 53t-12.5 66.5v185q0 39 15 71t41 54.5t62 35t77 12.5q85 0 150 -46l-34 -52q-25 19 -56 28.5t-60 9.5q-24 0 -47 -7t-41.5 -22t-29.5 -39t-11 -57v-162
q0 -33 11.5 -56.5t29.5 -39.5t40.5 -23.5t45.5 -7.5q30 0 61 10t58 30l34 -51q-24 -17 -60 -31.5t-81 -16.5l-11 -36q28 -1 46.5 -9.5t29.5 -20.5t16 -25.5t5 -24.5q0 -12 -5 -25.5t-17 -25.5t-31 -19.5t-47 -7.5q-14 0 -36 2.5t-48 12.5l13 34q19 -6 36.5 -8.5t31.5 -2.5z
" />
    <glyph glyph-name="Egravesmall" unicode="&#xe124;" horiz-adv-x="425" 
d="M43 0v524h359v-61h-294v-170h252v-59h-252v-175h294v-59h-359zM228 557l-99 160l65 22l75 -166z" />
    <glyph glyph-name="Eacutesmall" unicode="&#xe125;" horiz-adv-x="425" 
d="M43 0v524h359v-61h-294v-170h252v-59h-252v-175h294v-59h-359zM168 573l75 166l66 -22l-100 -160z" />
    <glyph glyph-name="Ecircumflexsmall" unicode="&#xe126;" horiz-adv-x="425" 
d="M43 0v524h359v-61h-294v-170h252v-59h-252v-175h294v-59h-359zM224 657l-130 -103l-31 30l142 138h45l134 -137l-30 -30z" />
    <glyph glyph-name="Edieresissmall" unicode="&#xe127;" horiz-adv-x="425" 
d="M43 0v524h359v-61h-294v-170h252v-59h-252v-175h294v-59h-359zM353 644q0 -17 -12 -28.5t-29 -11.5t-28.5 11.5t-11.5 28.5t11.5 29t28.5 12t29 -12t12 -29zM171 644q0 -17 -12.5 -28.5t-29.5 -11.5q-16 0 -27.5 11.5t-11.5 28.5t11.5 29t27.5 12q17 0 29.5 -12t12.5 -29
z" />
    <glyph glyph-name="Igravesmall" unicode="&#xe128;" horiz-adv-x="207" 
d="M70 0v524h67v-524h-67zM93 557l-99 160l65 22l75 -166z" />
    <glyph glyph-name="Iacutesmall" unicode="&#xe129;" horiz-adv-x="207" 
d="M70 0v524h67v-524h-67zM74 573l75 166l66 -22l-100 -160z" />
    <glyph glyph-name="Icircumflexsmall" unicode="&#xe12a;" horiz-adv-x="207" 
d="M70 0v524h67v-524h-67zM104 657l-130 -103l-31 30l142 138h45l134 -137l-30 -30z" />
    <glyph glyph-name="Idieresissmall" unicode="&#xe12b;" horiz-adv-x="207" 
d="M70 0v524h67v-524h-67zM238 644q0 -17 -12 -28.5t-29 -11.5t-28.5 11.5t-11.5 28.5t11.5 29t28.5 12t29 -12t12 -29zM56 644q0 -17 -12.5 -28.5t-29.5 -11.5q-16 0 -27.5 11.5t-11.5 28.5t11.5 29t27.5 12q17 0 29.5 -12t12.5 -29z" />
    <glyph glyph-name="Ethsmall" unicode="&#xe12c;" horiz-adv-x="463" 
d="M427 172q0 -39 -14 -70.5t-38.5 -54t-58.5 -35t-73 -12.5h-202v239h-36v49h36v236h204q40 0 73.5 -12.5t57.5 -35t37.5 -54.5t13.5 -72v-178zM359 340q0 34 -11 57.5t-28.5 38t-40 21t-45.5 6.5h-126v-175h130v-49h-130v-181h122q23 0 46 6.5t41.5 21t30 38t11.5 57.5
v159z" />
    <glyph glyph-name="Ntildesmall" unicode="&#xe12d;" horiz-adv-x="491" 
d="M382 116v407h66v-523h-63l-190 278q-2 4 -14.5 22.5l-27 40l-27 40l-14.5 21.5h-4v-402h-65v523h61l23 -34.5l34 -50.5l39.5 -58l39.5 -58l34.5 -50l23.5 -34q6 -10 17 -26.5l23 -34.5l23 -34.5t17 -26.5h4zM181 692q17 0 34.5 -7t34.5 -15.5t32.5 -15.5t28.5 -7
q30 0 59 43l41 -23q-20 -41 -44 -59t-52 -18q-17 0 -33.5 6.5t-33 14t-32.5 14t-31 6.5q-18 0 -32 -9.5t-31 -30.5l-41 24q20 37 46 57t54 20z" />
    <glyph glyph-name="Ogravesmall" unicode="&#xe12e;" horiz-adv-x="467" 
d="M233 -5q-44 0 -80 12.5t-61.5 36t-39.5 56t-14 72.5v179q0 39 14 71.5t39.5 56t61.5 36t80 12.5q43 0 79.5 -12.5t62.5 -36t40.5 -56t14.5 -71.5v-180q0 -40 -14.5 -72.5t-41 -55.5t-62.5 -35.5t-79 -12.5zM364 343q0 32 -10.5 55.5t-28.5 39t-41.5 23t-50.5 7.5
t-50.5 -7.5t-41.5 -23t-28 -39t-10 -55.5v-165q0 -33 11 -56.5t29 -38.5t41.5 -22t48.5 -7q27 0 51 7.5t41.5 22.5t28 38.5t10.5 55.5v165zM230 557l-99 160l65 22l75 -166z" />
    <glyph glyph-name="Oacutesmall" unicode="&#xe12f;" horiz-adv-x="467" 
d="M233 -5q-44 0 -80 12.5t-61.5 36t-39.5 56t-14 72.5v179q0 39 14 71.5t39.5 56t61.5 36t80 12.5q43 0 79.5 -12.5t62.5 -36t40.5 -56t14.5 -71.5v-180q0 -40 -14.5 -72.5t-41 -55.5t-62.5 -35.5t-79 -12.5zM364 343q0 32 -10.5 55.5t-28.5 39t-41.5 23t-50.5 7.5
t-50.5 -7.5t-41.5 -23t-28 -39t-10 -55.5v-165q0 -33 11 -56.5t29 -38.5t41.5 -22t48.5 -7q27 0 51 7.5t41.5 22.5t28 38.5t10.5 55.5v165zM199 573l75 166l66 -22l-100 -160z" />
    <glyph glyph-name="Ocircumflexsmall" unicode="&#xe130;" horiz-adv-x="467" 
d="M233 -5q-44 0 -80 12.5t-61.5 36t-39.5 56t-14 72.5v179q0 39 14 71.5t39.5 56t61.5 36t80 12.5q43 0 79.5 -12.5t62.5 -36t40.5 -56t14.5 -71.5v-180q0 -40 -14.5 -72.5t-41 -55.5t-62.5 -35.5t-79 -12.5zM364 343q0 32 -10.5 55.5t-28.5 39t-41.5 23t-50.5 7.5
t-50.5 -7.5t-41.5 -23t-28 -39t-10 -55.5v-165q0 -33 11 -56.5t29 -38.5t41.5 -22t48.5 -7q27 0 51 7.5t41.5 22.5t28 38.5t10.5 55.5v165zM240 657l-130 -103l-31 30l142 138h45l134 -137l-30 -30z" />
    <glyph glyph-name="Otildesmall" unicode="&#xe131;" horiz-adv-x="467" 
d="M233 -5q-44 0 -80 12.5t-61.5 36t-39.5 56t-14 72.5v179q0 39 14 71.5t39.5 56t61.5 36t80 12.5q43 0 79.5 -12.5t62.5 -36t40.5 -56t14.5 -71.5v-180q0 -40 -14.5 -72.5t-41 -55.5t-62.5 -35.5t-79 -12.5zM364 343q0 32 -10.5 55.5t-28.5 39t-41.5 23t-50.5 7.5
t-50.5 -7.5t-41.5 -23t-28 -39t-10 -55.5v-165q0 -33 11 -56.5t29 -38.5t41.5 -22t48.5 -7q27 0 51 7.5t41.5 22.5t28 38.5t10.5 55.5v165zM173 692q17 0 34.5 -7t34.5 -15.5t32.5 -15.5t28.5 -7q30 0 59 43l41 -23q-20 -41 -44 -59t-52 -18q-17 0 -33.5 6.5t-33 14
t-32.5 14t-31 6.5q-18 0 -32 -9.5t-31 -30.5l-41 24q20 37 46 57t54 20z" />
    <glyph glyph-name="Odieresissmall" unicode="&#xe132;" horiz-adv-x="467" 
d="M233 -5q-44 0 -80 12.5t-61.5 36t-39.5 56t-14 72.5v179q0 39 14 71.5t39.5 56t61.5 36t80 12.5q43 0 79.5 -12.5t62.5 -36t40.5 -56t14.5 -71.5v-180q0 -40 -14.5 -72.5t-41 -55.5t-62.5 -35.5t-79 -12.5zM364 343q0 32 -10.5 55.5t-28.5 39t-41.5 23t-50.5 7.5
t-50.5 -7.5t-41.5 -23t-28 -39t-10 -55.5v-165q0 -33 11 -56.5t29 -38.5t41.5 -22t48.5 -7q27 0 51 7.5t41.5 22.5t28 38.5t10.5 55.5v165zM370 644q0 -17 -12 -28.5t-29 -11.5t-28.5 11.5t-11.5 28.5t11.5 29t28.5 12t29 -12t12 -29zM188 644q0 -17 -12.5 -28.5
t-29.5 -11.5q-16 0 -27.5 11.5t-11.5 28.5t11.5 29t27.5 12q17 0 29.5 -12t12.5 -29z" />
    <glyph glyph-name="Oslashsmall" unicode="&#xe133;" horiz-adv-x="467" 
d="M233 -5q-81 0 -132 40l-30 -42l-35 26l16.5 24l17.5 24q-32 43 -32 105v179q0 39 14 71.5t39.5 56t61.5 36t80 12.5q39 0 72.5 -10.5t59.5 -30.5l31 44l35 -28l-34 -48q33 -44 33 -103v-180q0 -40 -14.5 -72.5t-41 -55.5t-62.5 -35.5t-79 -12.5zM328 434
q-18 17 -42.5 25.5t-52.5 8.5q-27 0 -50.5 -7.5t-41.5 -23t-28 -39t-10 -55.5v-165q0 -30 9 -52zM364 343q0 14 -2.5 27t-6.5 24l-109 -153.5l-108 -153.5q18 -17 43 -25t52 -8t51 7.5t41.5 22.5t28 38.5t10.5 55.5v165z" />
    <glyph glyph-name="Ugravesmall" unicode="&#xe134;" horiz-adv-x="468" 
d="M432 169q0 -41 -15 -73t-41.5 -54.5t-62.5 -34.5t-78 -12t-78 12t-62.5 35t-41.5 55t-15 73v354h67v-345q0 -33 10.5 -56.5t28.5 -38.5t41.5 -22.5t49.5 -7.5q25 0 48.5 7.5t41.5 22.5t29 38.5t11 56.5v345h67v-355zM236 557l-99 160l65 22l75 -166z" />
    <glyph glyph-name="Uacutesmall" unicode="&#xe135;" horiz-adv-x="468" 
d="M432 169q0 -41 -15 -73t-41.5 -54.5t-62.5 -34.5t-78 -12t-78 12t-62.5 35t-41.5 55t-15 73v354h67v-345q0 -33 10.5 -56.5t28.5 -38.5t41.5 -22.5t49.5 -7.5q25 0 48.5 7.5t41.5 22.5t29 38.5t11 56.5v345h67v-355zM200 573l75 166l66 -22l-100 -160z" />
    <glyph glyph-name="Ucircumflexsmall" unicode="&#xe136;" horiz-adv-x="468" 
d="M432 169q0 -41 -15 -73t-41.5 -54.5t-62.5 -34.5t-78 -12t-78 12t-62.5 35t-41.5 55t-15 73v354h67v-345q0 -33 10.5 -56.5t28.5 -38.5t41.5 -22.5t49.5 -7.5q25 0 48.5 7.5t41.5 22.5t29 38.5t11 56.5v345h67v-355zM235 657l-130 -103l-31 30l142 138h45l134 -137
l-30 -30z" />
    <glyph glyph-name="Udieresissmall" unicode="&#xe137;" horiz-adv-x="468" 
d="M432 169q0 -41 -15 -73t-41.5 -54.5t-62.5 -34.5t-78 -12t-78 12t-62.5 35t-41.5 55t-15 73v354h67v-345q0 -33 10.5 -56.5t28.5 -38.5t41.5 -22.5t49.5 -7.5q25 0 48.5 7.5t41.5 22.5t29 38.5t11 56.5v345h67v-355zM372 644q0 -17 -12 -28.5t-29 -11.5t-28.5 11.5
t-11.5 28.5t11.5 29t28.5 12t29 -12t12 -29zM190 644q0 -17 -12.5 -28.5t-29.5 -11.5q-16 0 -27.5 11.5t-11.5 28.5t11.5 29t27.5 12q17 0 29.5 -12t12.5 -29z" />
    <glyph glyph-name="Yacutesmall" unicode="&#xe138;" horiz-adv-x="401" 
d="M233 0h-66v198l-165 325h73l63 -128l61 -129l17.5 35l23.5 47l34 70l50 105h72l-81.5 -162.5l-81.5 -161.5v-199zM173 573l75 166l66 -22l-100 -160z" />
    <glyph glyph-name="Thornsmall" unicode="&#xe139;" horiz-adv-x="426" 
d="M413 270q0 -29 -10.5 -56.5t-30 -50t-48.5 -36t-65 -13.5h-154v-114h-66v524h66v-99h154q39 0 68 -13.5t48 -35.5t28.5 -50t9.5 -56zM347 270q0 44 -29 69.5t-69 25.5h-144v-190h144q40 0 69 25t29 70z" />
    <glyph glyph-name="Amacronsmall" unicode="&#xe13a;" horiz-adv-x="455" 
d="M377 0q-11 29 -20.5 59t-20.5 60h-217l-42 -119h-70l188 523h66l93.5 -262l94.5 -261h-72zM226 442l-41 -132l-44 -132h173l-44 132zM97 597v58h262v-58h-262z" />
    <glyph glyph-name="Abrevesmall" unicode="&#xe13b;" horiz-adv-x="455" 
d="M377 0q-11 29 -20.5 59t-20.5 60h-217l-42 -119h-70l188 523h66l93.5 -262l94.5 -261h-72zM226 442l-41 -132l-44 -132h173l-44 132zM150 686q4 -27 26 -47.5t54 -20.5q35 0 55.5 19.5t24.5 48.5h55q-3 -19 -10.5 -40t-23.5 -39t-40.5 -29.5t-60.5 -11.5
q-37 0 -62.5 11.5t-41.5 29.5t-23.5 39t-8.5 40h56z" />
    <glyph glyph-name="Aogoneksmall" unicode="&#xe13c;" horiz-adv-x="455" 
d="M338 -92q0 20 8.5 42.5t30.5 49.5q-11 29 -20.5 59t-20.5 60h-217l-42 -119h-70l188 523h66l93.5 -262l94.5 -261h-26q-17 -23 -25 -43.5t-8 -37.5q0 -24 14 -36t37 -12q12 0 26 4.5t31 12.5l17 -42q-17 -9 -40 -16t-46 -7q-42 0 -66.5 25t-24.5 60zM226 442l-41 -132
l-44 -132h173l-44 132z" />
    <glyph glyph-name="Cacutesmall" unicode="&#xe13d;" horiz-adv-x="406" 
d="M233 528q85 0 150 -46l-34 -52q-25 19 -56 28.5t-60 9.5q-24 0 -47 -7t-41.5 -22t-29.5 -39t-11 -57v-162q0 -33 11.5 -56.5t29.5 -39.5t40.5 -23.5t45.5 -7.5q30 0 61 10t58 30l34 -51q-26 -18 -64.5 -33t-86.5 -15q-42 0 -77.5 12.5t-61.5 35.5t-41 55.5t-15 71.5v185
q0 39 15 71t41 54.5t62 35t77 12.5zM183 573l75 166l66 -22l-100 -160z" />
    <glyph glyph-name="Ccircumflexsmall" unicode="&#xe13e;" horiz-adv-x="406" 
d="M233 528q85 0 150 -46l-34 -52q-25 19 -56 28.5t-60 9.5q-24 0 -47 -7t-41.5 -22t-29.5 -39t-11 -57v-162q0 -33 11.5 -56.5t29.5 -39.5t40.5 -23.5t45.5 -7.5q30 0 61 10t58 30l34 -51q-26 -18 -64.5 -33t-86.5 -15q-42 0 -77.5 12.5t-61.5 35.5t-41 55.5t-15 71.5v185
q0 39 15 71t41 54.5t62 35t77 12.5zM220 657l-130 -103l-31 30l142 138h45l134 -137l-30 -30z" />
    <glyph glyph-name="Cdotaccentsmall" unicode="&#xe13f;" horiz-adv-x="406" 
d="M233 528q85 0 150 -46l-34 -52q-25 19 -56 28.5t-60 9.5q-24 0 -47 -7t-41.5 -22t-29.5 -39t-11 -57v-162q0 -33 11.5 -56.5t29.5 -39.5t40.5 -23.5t45.5 -7.5q30 0 61 10t58 30l34 -51q-26 -18 -64.5 -33t-86.5 -15q-42 0 -77.5 12.5t-61.5 35.5t-41 55.5t-15 71.5v185
q0 39 15 71t41 54.5t62 35t77 12.5zM185 641q0 16 11.5 29t31.5 13q22 0 34 -13t12 -29q0 -19 -12 -32.5t-34 -13.5q-20 0 -31.5 13t-11.5 33z" />
    <glyph glyph-name="Ccaronsmall" unicode="&#xe140;" horiz-adv-x="406" 
d="M233 528q85 0 150 -46l-34 -52q-25 19 -56 28.5t-60 9.5q-24 0 -47 -7t-41.5 -22t-29.5 -39t-11 -57v-162q0 -33 11.5 -56.5t29.5 -39.5t40.5 -23.5t45.5 -7.5q30 0 61 10t58 30l34 -51q-26 -18 -64.5 -33t-86.5 -15q-42 0 -77.5 12.5t-61.5 35.5t-41 55.5t-15 71.5v185
q0 39 15 71t41 54.5t62 35t77 12.5zM354 722l30 -29l-134 -138h-45l-142 139l31 29l130 -102z" />
    <glyph glyph-name="Dcaronsmall" unicode="&#xe141;" horiz-adv-x="463" 
d="M427 172q0 -39 -14 -70.5t-38.5 -54t-58.5 -35t-73 -12.5h-202v524h204q40 0 73.5 -12.5t57.5 -35t37.5 -54.5t13.5 -72v-178zM359 340q0 34 -11 57.5t-28.5 38t-40 21t-45.5 6.5h-126v-405h122q23 0 46 6.5t41.5 21t30 38t11.5 57.5v159zM346 722l30 -29l-134 -138h-45
l-142 139l31 29l130 -102z" />
    <glyph glyph-name="Dcroatsmall" unicode="&#xe142;" horiz-adv-x="463" 
d="M427 172q0 -39 -14 -70.5t-38.5 -54t-58.5 -35t-73 -12.5h-202v239h-36v49h36v236h204q40 0 73.5 -12.5t57.5 -35t37.5 -54.5t13.5 -72v-178zM359 340q0 34 -11 57.5t-28.5 38t-40 21t-45.5 6.5h-126v-175h130v-49h-130v-181h122q23 0 46 6.5t41.5 21t30 38t11.5 57.5
v159z" />
    <glyph glyph-name="Emacronsmall" unicode="&#xe143;" horiz-adv-x="425" 
d="M43 0v524h359v-61h-294v-170h252v-59h-252v-175h294v-59h-359zM87 597v58h262v-58h-262z" />
    <glyph glyph-name="Ebrevesmall" unicode="&#xe144;" horiz-adv-x="425" 
d="M43 0v524h359v-61h-294v-170h252v-59h-252v-175h294v-59h-359zM146 686q4 -27 26 -47.5t54 -20.5q35 0 55.5 19.5t24.5 48.5h55q-3 -19 -10.5 -40t-23.5 -39t-40.5 -29.5t-60.5 -11.5q-37 0 -62.5 11.5t-41.5 29.5t-23.5 39t-8.5 40h56z" />
    <glyph glyph-name="Edotaccentsmall" unicode="&#xe145;" horiz-adv-x="425" 
d="M43 0v524h359v-61h-294v-170h252v-59h-252v-175h294v-59h-359zM186 641q0 16 11.5 29t31.5 13q22 0 34 -13t12 -29q0 -19 -12 -32.5t-34 -13.5q-20 0 -31.5 13t-11.5 33z" />
    <glyph glyph-name="Eogoneksmall" unicode="&#xe146;" horiz-adv-x="425" 
d="M316 -92q0 20 8 42.5t30 49.5h-311v524h359v-61h-294v-170h252v-59h-252v-175h294v-59h-1q-17 -23 -25 -43.5t-8 -37.5q0 -24 14 -36t37 -12q12 0 26 4.5t31 12.5l17 -42q-17 -9 -40 -16t-46 -7q-42 0 -66.5 25t-24.5 60z" />
    <glyph glyph-name="Ecaronsmall" unicode="&#xe147;" horiz-adv-x="425" 
d="M43 0v524h359v-61h-294v-170h252v-59h-252v-175h294v-59h-359zM352 722l30 -29l-134 -138h-45l-142 139l31 29l130 -102z" />
    <glyph glyph-name="Gcircumflexsmall" unicode="&#xe148;" horiz-adv-x="441" 
d="M337 213h-87v61h153v-212q-35 -35 -79 -51t-90 -16q-42 0 -78 12.5t-62.5 35.5t-41.5 55.5t-15 71.5v185q0 39 15 71t42 54.5t64 35t80 12.5q86 0 151 -46l-35 -52q-24 19 -55.5 28.5t-60.5 9.5q-26 0 -50 -7t-43 -22t-30.5 -39t-11.5 -57v-162q0 -33 11 -56.5t29 -39.5
t41.5 -23.5t48.5 -7.5q17 0 46 7t58 28v124zM225 657l-130 -103l-31 30l142 138h45l134 -137l-30 -30z" />
    <glyph glyph-name="Gbrevesmall" unicode="&#xe149;" horiz-adv-x="441" 
d="M337 213h-87v61h153v-212q-35 -35 -79 -51t-90 -16q-42 0 -78 12.5t-62.5 35.5t-41.5 55.5t-15 71.5v185q0 39 15 71t42 54.5t64 35t80 12.5q86 0 151 -46l-35 -52q-24 19 -55.5 28.5t-60.5 9.5q-26 0 -50 -7t-43 -22t-30.5 -39t-11.5 -57v-162q0 -33 11 -56.5t29 -39.5
t41.5 -23.5t48.5 -7.5q17 0 46 7t58 28v124zM156 686q4 -27 26 -47.5t54 -20.5q35 0 55.5 19.5t24.5 48.5h55q-3 -19 -10.5 -40t-23.5 -39t-40.5 -29.5t-60.5 -11.5q-37 0 -62.5 11.5t-41.5 29.5t-23.5 39t-8.5 40h56z" />
    <glyph glyph-name="Gdotaccentsmall" unicode="&#xe14a;" horiz-adv-x="441" 
d="M337 213h-87v61h153v-212q-35 -35 -79 -51t-90 -16q-42 0 -78 12.5t-62.5 35.5t-41.5 55.5t-15 71.5v185q0 39 15 71t42 54.5t64 35t80 12.5q86 0 151 -46l-35 -52q-24 19 -55.5 28.5t-60.5 9.5q-26 0 -50 -7t-43 -22t-30.5 -39t-11.5 -57v-162q0 -33 11 -56.5t29 -39.5
t41.5 -23.5t48.5 -7.5q17 0 46 7t58 28v124zM184 641q0 16 11.5 29t31.5 13q22 0 34 -13t12 -29q0 -19 -12 -32.5t-34 -13.5q-20 0 -31.5 13t-11.5 33z" />
    <glyph glyph-name="Gcommaaccentsmall" unicode="&#xe14b;" horiz-adv-x="441" 
d="M337 213h-87v61h153v-212q-35 -35 -79 -51t-90 -16q-42 0 -78 12.5t-62.5 35.5t-41.5 55.5t-15 71.5v185q0 39 15 71t42 54.5t64 35t80 12.5q86 0 151 -46l-35 -52q-24 19 -55.5 28.5t-60.5 9.5q-26 0 -50 -7t-43 -22t-30.5 -39t-11.5 -57v-162q0 -33 11 -56.5t29 -39.5
t41.5 -23.5t48.5 -7.5q17 0 46 7t58 28v124zM178 -107q0 20 14 34t37 14q29 0 42.5 -20.5t13.5 -46.5q0 -45 -25.5 -81t-60.5 -53l-23 30q20 16 31.5 32.5t13.5 42.5q-19 1 -31 14.5t-12 33.5z" />
    <glyph glyph-name="Hcircumflexsmall" unicode="&#xe14c;" horiz-adv-x="469" 
d="M366 0v236h-260v-236h-66v524h66v-229h260v229h67v-524h-67zM234 657l-130 -103l-31 30l142 138h45l134 -137l-30 -30z" />
    <glyph glyph-name="Hbarsmall" unicode="&#xe14d;" horiz-adv-x="469" 
d="M366 0v236h-260v-236h-66v399h-38v48h38v77h66v-77h260v77h67v-77h35v-48h-35v-399h-67zM366 295v104h-260v-104h260z" />
    <glyph glyph-name="Itildesmall" unicode="&#xe14e;" horiz-adv-x="207" 
d="M70 0v524h67v-524h-67zM39 692q17 0 34.5 -7t34.5 -15.5t32.5 -15.5t28.5 -7q30 0 59 43l41 -23q-20 -41 -44 -59t-52 -18q-17 0 -33.5 6.5t-33 14t-32.5 14t-31 6.5q-18 0 -32 -9.5t-31 -30.5l-41 24q20 37 46 57t54 20z" />
    <glyph glyph-name="Imacronsmall" unicode="&#xe14f;" horiz-adv-x="207" 
d="M70 0v524h67v-524h-67zM-25 597v58h262v-58h-262z" />
    <glyph glyph-name="Ibrevesmall" unicode="&#xe150;" horiz-adv-x="207" 
d="M70 0v524h67v-524h-67zM25 686q4 -27 26 -47.5t54 -20.5q35 0 55.5 19.5t24.5 48.5h55q-3 -19 -10.5 -40t-23.5 -39t-40.5 -29.5t-60.5 -11.5q-37 0 -62.5 11.5t-41.5 29.5t-23.5 39t-8.5 40h56z" />
    <glyph glyph-name="Iogoneksmall" unicode="&#xe151;" horiz-adv-x="207" 
d="M42 -92q0 20 8 42.5t30 49.5h-10v524h67v-524h-10q-17 -23 -25 -43.5t-8 -37.5q0 -24 14 -36t37 -12q12 0 26 4.5t31 12.5l17 -42q-17 -9 -40 -16t-46 -7q-42 0 -66.5 25t-24.5 60z" />
    <glyph glyph-name="Idotaccentsmall" unicode="&#xe152;" horiz-adv-x="207" 
d="M70 0v524h67v-524h-67zM61 641q0 16 11.5 29t31.5 13q22 0 34 -13t12 -29q0 -19 -12 -32.5t-34 -13.5q-20 0 -31.5 13t-11.5 33z" />
    <glyph glyph-name="IJsmall" unicode="&#xe153;" horiz-adv-x="579" 
d="M70 0v524h67v-524h-67zM518 172q0 -40 -13.5 -72.5t-38 -56t-59 -36t-76.5 -12.5q-36 0 -74.5 10.5t-67.5 28.5l32 54q56 -34 104 -34q56 0 91 30.5t35 98.5v341h67v-352z" />
    <glyph glyph-name="Jcircumflexsmall" unicode="&#xe154;" horiz-adv-x="400" 
d="M339 172q0 -40 -13.5 -72.5t-38 -56t-59 -36t-76.5 -12.5q-36 0 -74.5 10.5t-67.5 28.5l32 54q56 -34 104 -34q56 0 91 30.5t35 98.5v341h67v-352zM306 657l-130 -103l-31 30l142 138h45l134 -137l-30 -30z" />
    <glyph glyph-name="Kcommaaccentsmall" unicode="&#xe155;" horiz-adv-x="442" 
d="M107 239l237 285h83l-173 -206l41 -69l54 -90l54 -90.5l41 -68.5h-77l-157 266l-103 -121v-145h-66v524h66v-285zM176 -107q0 20 14 34t37 14q29 0 42.5 -20.5t13.5 -46.5q0 -45 -25.5 -81t-60.5 -53l-23 30q20 16 31.5 32.5t13.5 42.5q-19 1 -31 14.5t-12 33.5z" />
    <glyph glyph-name="Lacutesmall" unicode="&#xe156;" horiz-adv-x="404" 
d="M45 0v524h66v-465h292v-59h-358zM46 573l75 166l66 -22l-100 -160z" />
    <glyph glyph-name="Lcommaaccentsmall" unicode="&#xe157;" horiz-adv-x="404" 
d="M45 0v524h66v-465h292v-59h-358zM160 -107q0 20 14 34t37 14q29 0 42.5 -20.5t13.5 -46.5q0 -45 -25.5 -81t-60.5 -53l-23 30q20 16 31.5 32.5t13.5 42.5q-19 1 -31 14.5t-12 33.5z" />
    <glyph glyph-name="Lcaronsmall" unicode="&#xe158;" horiz-adv-x="404" 
d="M45 0v524h66v-465h292v-59h-358zM238 480q0 20 14 34t37 14q29 0 42.5 -20.5t13.5 -46.5q0 -45 -25.5 -81t-60.5 -53l-23 30q20 16 31.5 32.5t13.5 42.5q-19 1 -31 14.5t-12 33.5z" />
    <glyph glyph-name="Ldotsmall" unicode="&#xe159;" horiz-adv-x="404" 
d="M45 0v524h66v-465h292v-59h-358zM236 289q0 16 11.5 29t31.5 13q22 0 34 -13t12 -29q0 -19 -12 -32.5t-34 -13.5q-20 0 -31.5 13t-11.5 33z" />
    <glyph glyph-name="Lslashsmall" unicode="&#xe15a;" horiz-adv-x="404" 
d="M45 0v158l-43 -25l-25 42l68 39v310h66v-272l123 72l24 -42l-147 -86v-137h292v-59h-358z" />
    <glyph glyph-name="Nacutesmall" unicode="&#xe15b;" horiz-adv-x="491" 
d="M382 116v407h66v-523h-63l-190 278q-2 4 -14.5 22.5l-27 40l-27 40l-14.5 21.5h-4v-402h-65v523h61l23 -34.5l34 -50.5l39.5 -58l39.5 -58l34.5 -50l23.5 -34q6 -10 17 -26.5l23 -34.5l23 -34.5t17 -26.5h4zM221 573l75 166l66 -22l-100 -160z" />
    <glyph glyph-name="Ncommaaccentsmall" unicode="&#xe15c;" horiz-adv-x="491" 
d="M382 116v407h66v-523h-63l-190 278q-2 4 -14.5 22.5l-27 40l-27 40l-14.5 21.5h-4v-402h-65v523h61l23 -34.5l34 -50.5l39.5 -58l39.5 -58l34.5 -50l23.5 -34q6 -10 17 -26.5l23 -34.5l23 -34.5t17 -26.5h4zM194 -107q0 20 14 34t37 14q29 0 42.5 -20.5t13.5 -46.5
q0 -45 -25.5 -81t-60.5 -53l-23 30q20 16 31.5 32.5t13.5 42.5q-19 1 -31 14.5t-12 33.5z" />
    <glyph glyph-name="Ncaronsmall" unicode="&#xe15d;" horiz-adv-x="491" 
d="M382 116v407h66v-523h-63l-190 278q-2 4 -14.5 22.5l-27 40l-27 40l-14.5 21.5h-4v-402h-65v523h61l23 -34.5l34 -50.5l39.5 -58l39.5 -58l34.5 -50l23.5 -34q6 -10 17 -26.5l23 -34.5l23 -34.5t17 -26.5h4zM377 722l30 -29l-134 -138h-45l-142 139l31 29l130 -102z" />
    <glyph glyph-name="Engsmall" unicode="&#xe15e;" horiz-adv-x="491" 
d="M382 116v407h66v-580q0 -51 -27 -73.5t-65 -22.5q-41 0 -79 20q1 2 3.5 9t5.5 14.5t5.5 14.5t3.5 9q14 -5 25 -7.5t20 -2.5q41 0 41 47v55l-188 276l-81 120h-4v-402h-65v523h61l197 -289l77 -118h4z" />
    <glyph glyph-name="Omacronsmall" unicode="&#xe15f;" horiz-adv-x="467" 
d="M233 -5q-44 0 -80 12.5t-61.5 36t-39.5 56t-14 72.5v179q0 39 14 71.5t39.5 56t61.5 36t80 12.5q43 0 79.5 -12.5t62.5 -36t40.5 -56t14.5 -71.5v-180q0 -40 -14.5 -72.5t-41 -55.5t-62.5 -35.5t-79 -12.5zM364 343q0 32 -10.5 55.5t-28.5 39t-41.5 23t-50.5 7.5
t-50.5 -7.5t-41.5 -23t-28 -39t-10 -55.5v-165q0 -33 11 -56.5t29 -38.5t41.5 -22t48.5 -7q27 0 51 7.5t41.5 22.5t28 38.5t10.5 55.5v165zM107 597v58h262v-58h-262z" />
    <glyph glyph-name="Obrevesmall" unicode="&#xe160;" horiz-adv-x="467" 
d="M233 -5q-44 0 -80 12.5t-61.5 36t-39.5 56t-14 72.5v179q0 39 14 71.5t39.5 56t61.5 36t80 12.5q43 0 79.5 -12.5t62.5 -36t40.5 -56t14.5 -71.5v-180q0 -40 -14.5 -72.5t-41 -55.5t-62.5 -35.5t-79 -12.5zM364 343q0 32 -10.5 55.5t-28.5 39t-41.5 23t-50.5 7.5
t-50.5 -7.5t-41.5 -23t-28 -39t-10 -55.5v-165q0 -33 11 -56.5t29 -38.5t41.5 -22t48.5 -7q27 0 51 7.5t41.5 22.5t28 38.5t10.5 55.5v165zM158 686q4 -27 26 -47.5t54 -20.5q35 0 55.5 19.5t24.5 48.5h55q-3 -19 -10.5 -40t-23.5 -39t-40.5 -29.5t-60.5 -11.5
q-37 0 -62.5 11.5t-41.5 29.5t-23.5 39t-8.5 40h56z" />
    <glyph glyph-name="Ohungarumlautsmall" unicode="&#xe161;" horiz-adv-x="467" 
d="M233 -5q-44 0 -80 12.5t-61.5 36t-39.5 56t-14 72.5v179q0 39 14 71.5t39.5 56t61.5 36t80 12.5q43 0 79.5 -12.5t62.5 -36t40.5 -56t14.5 -71.5v-180q0 -40 -14.5 -72.5t-41 -55.5t-62.5 -35.5t-79 -12.5zM364 343q0 32 -10.5 55.5t-28.5 39t-41.5 23t-50.5 7.5
t-50.5 -7.5t-41.5 -23t-28 -39t-10 -55.5v-165q0 -33 11 -56.5t29 -38.5t41.5 -22t48.5 -7q27 0 51 7.5t41.5 22.5t28 38.5t10.5 55.5v165zM153 573l75 166l65 -22l-99 -160zM269 573l75 166l65 -22l-100 -160z" />
    <glyph glyph-name="Racutesmall" unicode="&#xe162;" horiz-adv-x="440" 
d="M261 524q40 0 69.5 -14t48.5 -36.5t28 -50t9 -55.5q0 -44 -25 -84.5t-72 -58.5l102 -225h-74l-93 212h-147v-212h-66v524h220zM350 368q0 44 -28.5 69.5t-69.5 25.5h-145v-190h145q41 0 69.5 25t28.5 70zM172 573l75 166l66 -22l-100 -160z" />
    <glyph glyph-name="Rcommaaccentsmall" unicode="&#xe163;" horiz-adv-x="440" 
d="M261 524q40 0 69.5 -14t48.5 -36.5t28 -50t9 -55.5q0 -44 -25 -84.5t-72 -58.5l102 -225h-74l-93 212h-147v-212h-66v524h220zM350 368q0 44 -28.5 69.5t-69.5 25.5h-145v-190h145q41 0 69.5 25t28.5 70zM170 -107q0 20 14 34t37 14q29 0 42.5 -20.5t13.5 -46.5
q0 -45 -25.5 -81t-60.5 -53l-23 30q20 16 31.5 32.5t13.5 42.5q-19 1 -31 14.5t-12 33.5z" />
    <glyph glyph-name="Rcaronsmall" unicode="&#xe164;" horiz-adv-x="440" 
d="M261 524q40 0 69.5 -14t48.5 -36.5t28 -50t9 -55.5q0 -44 -25 -84.5t-72 -58.5l102 -225h-74l-93 212h-147v-212h-66v524h220zM350 368q0 44 -28.5 69.5t-69.5 25.5h-145v-190h145q41 0 69.5 25t28.5 70zM338 722l30 -29l-134 -138h-45l-142 139l31 29l130 -102z" />
    <glyph glyph-name="Sacutesmall" unicode="&#xe165;" horiz-adv-x="426" 
d="M404 145q0 -35 -13.5 -62.5t-38.5 -47t-60.5 -30t-78.5 -10.5q-53 0 -101 13t-93 46l35 51q35 -25 77 -38t83 -13q54 0 88 24t34 67q0 23 -10.5 38.5t-28 25.5t-39.5 15.5l-44 10.5q-33 7 -64.5 16t-57 25.5t-41 42.5t-15.5 65q0 32 12 59.5t35 47t55.5 30.5t73.5 11
q45 0 87 -9.5t84 -33.5l-30 -54q-35 19 -72.5 28t-72.5 9q-21 0 -40.5 -5.5t-34 -16.5t-23.5 -28t-9 -40q0 -21 12 -35.5t30.5 -24.5t41 -16t43.5 -10q34 -8 66 -17t56.5 -25.5t39 -42.5t14.5 -66zM177 573l75 166l66 -22l-100 -160z" />
    <glyph glyph-name="Scircumflexsmall" unicode="&#xe166;" horiz-adv-x="426" 
d="M404 145q0 -35 -13.5 -62.5t-38.5 -47t-60.5 -30t-78.5 -10.5q-53 0 -101 13t-93 46l35 51q35 -25 77 -38t83 -13q54 0 88 24t34 67q0 23 -10.5 38.5t-28 25.5t-39.5 15.5l-44 10.5q-33 7 -64.5 16t-57 25.5t-41 42.5t-15.5 65q0 32 12 59.5t35 47t55.5 30.5t73.5 11
q45 0 87 -9.5t84 -33.5l-30 -54q-35 19 -72.5 28t-72.5 9q-21 0 -40.5 -5.5t-34 -16.5t-23.5 -28t-9 -40q0 -21 12 -35.5t30.5 -24.5t41 -16t43.5 -10q34 -8 66 -17t56.5 -25.5t39 -42.5t14.5 -66zM219 657l-130 -103l-31 30l142 138h45l134 -137l-30 -30z" />
    <glyph glyph-name="Scedillasmall" unicode="&#xe167;" horiz-adv-x="426" 
d="M210 -161q23 0 39.5 9.5t16.5 30.5q0 16 -14 29.5t-40 13.5h-7t-8 -1l-25 14l18 61q-46 2 -88.5 15.5t-82.5 42.5l35 51q35 -25 77 -38t83 -13q54 0 88 24t34 67q0 23 -10.5 38.5t-28 25.5t-39.5 15.5l-44 10.5q-33 7 -64.5 16t-57 25.5t-41 42.5t-15.5 65q0 32 12 59.5
t35 47t55.5 30.5t73.5 11q45 0 87 -9.5t84 -33.5l-30 -54q-35 19 -72.5 28t-72.5 9q-21 0 -40.5 -5.5t-34 -16.5t-23.5 -28t-9 -40q0 -21 12 -35.5t30.5 -24.5t41 -16t43.5 -10q34 -8 66 -17t56.5 -25.5t39 -42.5t14.5 -66q0 -67 -48 -106.5t-129 -42.5l-11 -37
q28 -1 46.5 -9.5t29.5 -20.5t16 -25.5t5 -24.5q0 -12 -5 -25.5t-17 -25.5t-31 -19.5t-47 -7.5q-14 0 -36 2.5t-48 12.5l13 34q19 -6 36.5 -8.5t31.5 -2.5z" />
    <glyph glyph-name="Tcommaaccentsmall" unicode="&#xe168;" horiz-adv-x="404" 
d="M236 463v-463h-67v463h-160v61h385v-61h-158zM150 -107q0 20 14 34t37 14q29 0 42.5 -20.5t13.5 -46.5q0 -45 -25.5 -81t-60.5 -53l-23 30q20 16 31.5 32.5t13.5 42.5q-19 1 -31 14.5t-12 33.5z" />
    <glyph glyph-name="Tcaronsmall" unicode="&#xe169;" horiz-adv-x="404" 
d="M236 463v-463h-67v463h-160v61h385v-61h-158zM333 722l30 -29l-134 -138h-45l-142 139l31 29l130 -102z" />
    <glyph glyph-name="Tbarsmall" unicode="&#xe16a;" horiz-adv-x="404" 
d="M236 463v-160h124v-53h-124v-250h-67v250h-124v53h124v160h-160v61h385v-61h-158z" />
    <glyph glyph-name="Utildesmall" unicode="&#xe16b;" horiz-adv-x="468" 
d="M432 169q0 -41 -15 -73t-41.5 -54.5t-62.5 -34.5t-78 -12t-78 12t-62.5 35t-41.5 55t-15 73v354h67v-345q0 -33 10.5 -56.5t28.5 -38.5t41.5 -22.5t49.5 -7.5q25 0 48.5 7.5t41.5 22.5t29 38.5t11 56.5v345h67v-355zM171 692q17 0 34.5 -7t34.5 -15.5t32.5 -15.5t28.5 -7
q30 0 59 43l41 -23q-20 -41 -44 -59t-52 -18q-17 0 -33.5 6.5t-33 14t-32.5 14t-31 6.5q-18 0 -32 -9.5t-31 -30.5l-41 24q20 37 46 57t54 20z" />
    <glyph glyph-name="Umacronsmall" unicode="&#xe16c;" horiz-adv-x="468" 
d="M432 169q0 -41 -15 -73t-41.5 -54.5t-62.5 -34.5t-78 -12t-78 12t-62.5 35t-41.5 55t-15 73v354h67v-345q0 -33 10.5 -56.5t28.5 -38.5t41.5 -22.5t49.5 -7.5q25 0 48.5 7.5t41.5 22.5t29 38.5t11 56.5v345h67v-355zM104 597v58h262v-58h-262z" />
    <glyph glyph-name="Ubrevesmall" unicode="&#xe16d;" horiz-adv-x="468" 
d="M432 169q0 -41 -15 -73t-41.5 -54.5t-62.5 -34.5t-78 -12t-78 12t-62.5 35t-41.5 55t-15 73v354h67v-345q0 -33 10.5 -56.5t28.5 -38.5t41.5 -22.5t49.5 -7.5q25 0 48.5 7.5t41.5 22.5t29 38.5t11 56.5v345h67v-355zM157 686q4 -27 26 -47.5t54 -20.5q35 0 55.5 19.5
t24.5 48.5h55q-3 -19 -10.5 -40t-23.5 -39t-40.5 -29.5t-60.5 -11.5q-37 0 -62.5 11.5t-41.5 29.5t-23.5 39t-8.5 40h56z" />
    <glyph glyph-name="Uringsmall" unicode="&#xe16e;" horiz-adv-x="468" 
d="M432 169q0 -41 -15 -73t-41.5 -54.5t-62.5 -34.5t-78 -12t-78 12t-62.5 35t-41.5 55t-15 73v354h67v-345q0 -33 10.5 -56.5t28.5 -38.5t41.5 -22.5t49.5 -7.5q25 0 48.5 7.5t41.5 22.5t29 38.5t11 56.5v345h67v-355zM334 644q0 -41 -28.5 -69.5t-69.5 -28.5t-69.5 28.5
t-28.5 69.5t28.5 68.5t69.5 27.5t69.5 -27.5t28.5 -68.5zM295 644q0 24 -16.5 41t-42.5 17q-25 0 -42 -17t-17 -41q0 -25 17 -42t42 -17q26 0 42.5 17t16.5 42z" />
    <glyph glyph-name="Uhungarumlautsmall" unicode="&#xe16f;" horiz-adv-x="468" 
d="M432 169q0 -41 -15 -73t-41.5 -54.5t-62.5 -34.5t-78 -12t-78 12t-62.5 35t-41.5 55t-15 73v354h67v-345q0 -33 10.5 -56.5t28.5 -38.5t41.5 -22.5t49.5 -7.5q25 0 48.5 7.5t41.5 22.5t29 38.5t11 56.5v345h67v-355zM147 573l75 166l65 -22l-99 -160zM263 573l75 166
l65 -22l-100 -160z" />
    <glyph glyph-name="Uogoneksmall" unicode="&#xe170;" horiz-adv-x="468" 
d="M178 -92q0 19 7.5 40.5t27.5 47.5q-38 3 -70 16.5t-55 36t-36.5 53t-13.5 68.5v354h67v-345q0 -33 10.5 -56.5t28.5 -38.5t41.5 -22.5t49.5 -7.5q25 0 48.5 7.5t41.5 22.5t29 38.5t11 56.5v345h67v-355q0 -38 -13 -68t-36 -52.5t-54.5 -36t-68.5 -16.5q-16 -21 -23 -40.5
t-7 -36.5q0 -24 14 -36t37 -12q12 0 26 4.5t31 12.5l17 -42q-17 -9 -40 -16t-46 -7q-42 0 -66.5 25t-24.5 60z" />
    <glyph glyph-name="Wcircumflexsmall" unicode="&#xe171;" horiz-adv-x="663" 
d="M326 410l-105 -410h-72l-143 523h70q2 -9 10.5 -41l19.5 -76l23.5 -94l23.5 -94.5l19.5 -77t10.5 -42.5h3l11.5 44l19.5 76.5l24 92.5l24 92.5l19.5 76l11.5 43.5h66l11.5 -43.5l20 -76l24 -91.5l23.5 -91.5l19.5 -76l11.5 -43.5h3q5 22 13.5 55l18.5 71.5l21 80.5
l21 81.5l19 74.5l15 59h70l-143 -523h-72l-108 410h-4zM329 657l-130 -103l-31 30l142 138h45l134 -137l-30 -30z" />
    <glyph glyph-name="Ycircumflexsmall" unicode="&#xe172;" horiz-adv-x="401" 
d="M233 0h-66v198l-165 325h73l63 -128l61 -129l17.5 35l23.5 47l34 70l50 105h72l-81.5 -162.5l-81.5 -161.5v-199zM200 657l-130 -103l-31 30l142 138h45l134 -137l-30 -30z" />
    <glyph glyph-name="Zacutesmall" unicode="&#xe173;" horiz-adv-x="406" 
d="M381 470l-277 -411h276v-59h-353v54l274 409h-263v61h343v-54zM163 573l75 166l66 -22l-100 -160z" />
    <glyph glyph-name="Zdotaccentsmall" unicode="&#xe174;" horiz-adv-x="406" 
d="M381 470l-277 -411h276v-59h-353v54l274 409h-263v61h343v-54zM174 641q0 16 11.5 29t31.5 13q22 0 34 -13t12 -29q0 -19 -12 -32.5t-34 -13.5q-20 0 -31.5 13t-11.5 33z" />
    <glyph glyph-name="AEacutesmall" unicode="&#xe175;" horiz-adv-x="740" 
d="M366 0v144h-201l-95 -144h-72l347 524h380v-61h-293v-170h250v-59h-250v-175h293v-59h-359zM202 200h164v248zM457 573l75 166l66 -22l-100 -160z" />
    <glyph glyph-name="Oslashacutesmall" unicode="&#xe176;" horiz-adv-x="467" 
d="M233 -5q-81 0 -132 40l-15.5 -21l-15.5 -21l-18 12.5l-18 13.5l18 24t17 24q-31 43 -31 105v179q0 39 14 71.5t39.5 56t61.5 36t80 12.5q82 0 135 -44l35 48l35 -28l-19.5 -26.5t-18.5 -26.5q14 -20 22 -45t8 -54v-180q0 -40 -14.5 -72.5t-41 -55.5t-62.5 -35.5
t-79 -12.5zM331 432q-18 18 -43.5 27t-54.5 9q-27 0 -50.5 -7.5t-41.5 -23t-28 -39t-10 -55.5v-165q0 -30 9 -52zM364 343q0 25 -8 47l-218 -303q19 -17 44 -25t51 -8q27 0 51 7.5t41.5 22.5t28 38.5t10.5 55.5v165zM246 557l-20.5 7.5t-19.5 8.5l75 165l65 -22z" />
    <glyph glyph-name="exclamdownsmall" unicode="&#xe177;" horiz-adv-x="175" 
d="M61 401h56l4 -401h-66zM132 487q0 -14 -11 -27t-31 -13q-22 0 -34 13t-12 27q0 18 12 31.5t33 13.5q20 0 31.5 -12.5t11.5 -32.5z" />
    <glyph glyph-name="questiondownsmall" unicode="&#xe178;" horiz-adv-x="348" 
d="M187 -6q-33 0 -60 10t-46.5 27.5t-30.5 41.5t-11 53q0 34 17.5 65t40.5 58q20 26 36 50t16 50v47h60v-46q0 -44 -17.5 -73.5t-39.5 -54.5q-17 -20 -32 -43t-15 -50q0 -33 23.5 -54.5t63.5 -21.5q28 0 56.5 9.5t50.5 26.5l31 -49q-35 -24 -70 -35t-73 -11zM220 485
q0 -14 -11 -27t-31 -13t-32 13t-12 27q0 17 11.5 30.5t32.5 13.5q20 0 31 -12.5t11 -31.5z" />
    <glyph glyph-name="Scommaaccentsmall" unicode="&#xe179;" horiz-adv-x="426" 
d="M404 145q0 -35 -13.5 -62.5t-38.5 -47t-60.5 -30t-78.5 -10.5q-53 0 -101 13t-93 46l35 51q35 -25 77 -38t83 -13q54 0 88 24t34 67q0 23 -10.5 38.5t-28 25.5t-39.5 15.5l-44 10.5q-33 7 -64.5 16t-57 25.5t-41 42.5t-15.5 65q0 32 12 59.5t35 47t55.5 30.5t73.5 11
q45 0 87 -9.5t84 -33.5l-30 -54q-35 19 -72.5 28t-72.5 9q-21 0 -40.5 -5.5t-34 -16.5t-23.5 -28t-9 -40q0 -21 12 -35.5t30.5 -24.5t41 -16t43.5 -10q34 -8 66 -17t56.5 -25.5t39 -42.5t14.5 -66zM169 -107q0 20 14 34t37 14q29 0 42.5 -20.5t13.5 -46.5q0 -45 -25.5 -81
t-60.5 -53l-23 30q20 16 31.5 32.5t13.5 42.5q-19 1 -31 14.5t-12 33.5z" />
    <glyph glyph-name="Wacutesmall" unicode="&#xe17a;" horiz-adv-x="663" 
d="M326 410l-105 -410h-72l-143 523h70q2 -9 10.5 -41l19.5 -76l23.5 -94l23.5 -94.5l19.5 -77t10.5 -42.5h3l11.5 44l19.5 76.5l24 92.5l24 92.5l19.5 76l11.5 43.5h66l11.5 -43.5l20 -76l24 -91.5l23.5 -91.5l19.5 -76l11.5 -43.5h3q5 22 13.5 55l18.5 71.5l21 80.5
l21 81.5l19 74.5l15 59h70l-143 -523h-72l-108 410h-4zM303 573l75 166l66 -22l-100 -160z" />
    <glyph glyph-name="Wgravesmall" unicode="&#xe17b;" horiz-adv-x="663" 
d="M326 410l-105 -410h-72l-143 523h70q2 -9 10.5 -41l19.5 -76l23.5 -94l23.5 -94.5l19.5 -77t10.5 -42.5h3l11.5 44l19.5 76.5l24 92.5l24 92.5l19.5 76l11.5 43.5h66l11.5 -43.5l20 -76l24 -91.5l23.5 -91.5l19.5 -76l11.5 -43.5h3q5 22 13.5 55l18.5 71.5l21 80.5
l21 81.5l19 74.5l15 59h70l-143 -523h-72l-108 410h-4zM329 557l-99 160l65 22l75 -166z" />
    <glyph glyph-name="Wdieresissmall" unicode="&#xe17c;" horiz-adv-x="663" 
d="M326 410l-105 -410h-72l-143 523h70q2 -9 10.5 -41l19.5 -76l23.5 -94l23.5 -94.5l19.5 -77t10.5 -42.5h3l11.5 44l19.5 76.5l24 92.5l24 92.5l19.5 76l11.5 43.5h66l11.5 -43.5l20 -76l24 -91.5l23.5 -91.5l19.5 -76l11.5 -43.5h3q5 22 13.5 55l18.5 71.5l21 80.5
l21 81.5l19 74.5l15 59h70l-143 -523h-72l-108 410h-4zM462 644q0 -17 -12 -28.5t-29 -11.5t-28.5 11.5t-11.5 28.5t11.5 29t28.5 12t29 -12t12 -29zM280 644q0 -17 -12.5 -28.5t-29.5 -11.5q-16 0 -27.5 11.5t-11.5 28.5t11.5 29t27.5 12q17 0 29.5 -12t12.5 -29z" />
    <glyph glyph-name="Ygravesmall" unicode="&#xe17d;" horiz-adv-x="401" 
d="M233 0h-66v198l-165 325h73l63 -128l61 -129l17.5 35l23.5 47l34 70l50 105h72l-81.5 -162.5l-81.5 -161.5v-199zM193 557l-99 160l65 22l75 -166z" />
    <glyph glyph-name="Alphatonossmall" unicode="&#xe19b;" horiz-adv-x="455" 
d="M377 0q-11 29 -20.5 59t-20.5 60h-217l-42 -119h-70l188 523h66l93.5 -262l94.5 -261h-72zM226 442l-41 -132l-44 -132h173l-44 132zM203 573l75 166l66 -22l-100 -160z" />
    <glyph glyph-name="Epsilontonossmall" unicode="&#xe19c;" horiz-adv-x="425" 
d="M43 0v524h359v-61h-294v-170h252v-59h-252v-175h294v-59h-359zM180 573l75 166l66 -22l-100 -160z" />
    <glyph glyph-name="Etatonossmall" unicode="&#xe19d;" horiz-adv-x="469" 
d="M366 0v236h-260v-236h-66v524h66v-229h260v229h67v-524h-67zM193 573l75 166l66 -22l-100 -160z" />
    <glyph glyph-name="Iotatonossmall" unicode="&#xe19e;" horiz-adv-x="207" 
d="M70 0v524h67v-524h-67zM78 573l75 166l66 -22l-100 -160z" />
    <glyph glyph-name="Omicrontonossmall" unicode="&#xe19f;" horiz-adv-x="467" 
d="M233 -5q-44 0 -80 12.5t-61.5 36t-39.5 56t-14 72.5v179q0 39 14 71.5t39.5 56t61.5 36t80 12.5q43 0 79.5 -12.5t62.5 -36t40.5 -56t14.5 -71.5v-180q0 -40 -14.5 -72.5t-41 -55.5t-62.5 -35.5t-79 -12.5zM364 343q0 32 -10.5 55.5t-28.5 39t-41.5 23t-50.5 7.5
t-50.5 -7.5t-41.5 -23t-28 -39t-10 -55.5v-165q0 -33 11 -56.5t29 -38.5t41.5 -22t48.5 -7q27 0 51 7.5t41.5 22.5t28 38.5t10.5 55.5v165zM202 573l75 166l66 -22l-100 -160z" />
    <glyph glyph-name="Ypsilontonossmall" unicode="&#xe1a0;" horiz-adv-x="401" 
d="M233 0h-66v198l-165 325h73l63 -128l61 -129l17.5 35l23.5 47l34 70l50 105h72l-81.5 -162.5l-81.5 -161.5v-199zM165 573l75 166l66 -22l-100 -160z" />
    <glyph glyph-name="Omegatonossmall" unicode="&#xe1a1;" horiz-adv-x="471" 
d="M274 0v67q40 11 66.5 41t26.5 81v155q0 32 -11 55.5t-29 38.5t-41.5 22.5t-48.5 7.5q-27 0 -51 -7.5t-42 -22.5t-28.5 -38.5t-10.5 -55.5v-155q0 -51 29 -81t65 -40v-68h-170v59h68q-26 21 -42 54t-16 71v169q0 39 15 71.5t41.5 55.5t62.5 35.5t79 12.5q42 0 78 -12.5
t62.5 -35.5t41.5 -55.5t15 -71.5v-170q0 -39 -15.5 -71.5t-42.5 -52.5h70v-59h-172zM204 573l75 166l66 -22l-100 -160z" />
    <glyph glyph-name="Iotadieresissmall" unicode="&#xe1a2;" horiz-adv-x="207" 
d="M70 0v524h67v-524h-67zM237 644q0 -17 -12 -28.5t-29 -11.5t-28.5 11.5t-11.5 28.5t11.5 29t28.5 12t29 -12t12 -29zM55 644q0 -17 -12.5 -28.5t-29.5 -11.5q-16 0 -27.5 11.5t-11.5 28.5t11.5 29t27.5 12q17 0 29.5 -12t12.5 -29z" />
    <glyph glyph-name="Ypsilondieresissmall" unicode="&#xe1a3;" horiz-adv-x="401" 
d="M233 0h-66v198l-165 325h73l63 -128l61 -129l17.5 35l23.5 47l34 70l50 105h72l-81.5 -162.5l-81.5 -161.5v-199zM333 644q0 -17 -12 -28.5t-29 -11.5t-28.5 11.5t-11.5 28.5t11.5 29t28.5 12t29 -12t12 -29zM151 644q0 -17 -12.5 -28.5t-29.5 -11.5q-16 0 -27.5 11.5
t-11.5 28.5t11.5 29t27.5 12q17 0 29.5 -12t12.5 -29z" />
    <glyph glyph-name="one.text" unicode="&#xe001;" horiz-adv-x="448" 
d="M220 0v608l-22.5 -17.5l-30 -24l-30.5 -24.5l-22 -18l-36 49l31.5 26l40.5 32.5l40.5 32l31.5 25.5h64v-689h-67z" />
    <glyph glyph-name="two.text" unicode="&#xe002;" horiz-adv-x="487" 
d="M443 519q0 -36 -16 -68.5t-40.5 -61.5t-55 -53.5t-59.5 -43.5l-52 -36.5t-54.5 -46t-43 -56.5t-17.5 -67v-27h336v-59h-405v70q0 45 15.5 82.5t41.5 70t60 59.5t70 51q30 19 57.5 40t48 44t33 47.5t12.5 50.5q0 31 -12.5 53.5t-33 36.5t-46.5 21t-53 7q-46 0 -83.5 -15.5
t-65.5 -37.5l-18 25l-18 25q32 26 79 46t104 20q41 0 80 -9.5t69 -31t48.5 -55t18.5 -81.5z" />
    <glyph glyph-name="three.text" unicode="&#xe003;" horiz-adv-x="487" 
d="M230 695q36 0 71.5 -9.5t63.5 -30.5t45.5 -54t17.5 -81q0 -26 -6.5 -50t-19 -45t-32 -37t-44.5 -25q27 -10 47 -27.5t32.5 -40t19 -48t6.5 -50.5q0 -50 -17 -88t-46 -63.5t-68 -39t-82 -13.5q-63 0 -111 20.5t-79 46.5q8 12 19 26.5l19 25.5q29 -23 68 -40t80 -17
q67 0 108.5 36.5t41.5 99.5q0 31 -10 56.5t-26.5 43.5t-38.5 27.5t-46 9.5h-77v60h78q18 0 38.5 8t38 23.5t28.5 40t11 57.5q0 32 -11.5 54t-30.5 36t-43 20t-48 6q-40 0 -81.5 -16.5t-68.5 -39.5l-19 25.5l-19 25.5q36 30 83.5 48.5t107.5 18.5z" />
    <glyph glyph-name="four.text" unicode="&#xe004;" horiz-adv-x="487" 
d="M400 109v-109h-68v109h-305v59l116.5 260.5l115.5 260.5h71l-230 -519h232v211h68v-211h60v-61h-60z" />
    <glyph glyph-name="five.text" unicode="&#xe005;" horiz-adv-x="487" 
d="M440 173q0 -40 -16.5 -73t-45 -56t-67 -36t-81.5 -13q-64 0 -108 20t-76 48l39 52q31 -28 66.5 -43.5t77.5 -15.5q17 0 42 5.5t47.5 19.5t38.5 39t16 64v94q0 57 -27.5 85t-73.5 28q-18 0 -39.5 -6t-43 -15.5t-41.5 -21t-34 -21.5l-64 25v337h371v-62h-303v-227
q45 28 87.5 43t72.5 15q76 0 119 -46.5t43 -124.5v-114v0z" />
    </font>
</defs>
</svg>
