<svg width="186" height="50" viewBox="0 0 186 50" fill="none" xmlns="http://www.w3.org/2000/svg">
<g clip-path="url(#clip0)">
<path d="M78.6019 33.5951C78.1076 33.8269 77.1521 33.9924 75.9658 33.9924C71.5504 33.9924 69.4415 30.3169 69.4415 25.3831C69.4415 18.8268 73.0661 16.2772 76.4271 16.2772C77.6134 16.2772 78.4372 16.5089 78.7667 16.7407L78.2065 19.5884C77.8111 19.4229 77.3827 19.2573 76.6249 19.2573C74.7137 19.2573 73.0002 20.9129 73.0002 25.2176C73.0002 29.3897 74.5819 31.0123 76.6249 31.0123C77.185 31.0123 77.844 30.8798 78.2395 30.7474L78.6019 33.5951Z" fill="white"/>
<path d="M86.1806 29.8863L85.4227 33.8599H82.1605L85.9169 16.4426H89.937L93.298 33.8599H90.0358L89.278 29.8863H86.1806ZM88.9814 27.2373L88.4212 23.5949C88.2565 22.5353 88.0258 20.8135 87.8611 19.6545H87.7952C87.6304 20.8135 87.3668 22.6347 87.1691 23.6281L86.543 27.2373H88.9814Z" fill="white"/>
<path d="M97.3837 30.3831C98.0757 30.7805 99.2623 31.0454 100.251 31.0454C101.832 31.0454 102.623 30.2176 102.623 29.0917C102.623 27.8335 101.865 27.2043 100.383 26.244C98.0101 24.7871 97.1204 22.9659 97.1204 21.3765C97.1204 18.595 98.9657 16.2772 102.59 16.2772C103.711 16.2772 104.798 16.5752 105.325 16.9063L104.798 19.8202C104.303 19.5222 103.579 19.2242 102.59 19.2242C101.14 19.2242 100.449 20.1182 100.449 21.0454C100.449 22.0719 100.976 22.6348 102.854 23.7606C105.128 25.1513 105.984 26.9063 105.984 28.7606C105.984 31.9394 103.645 34.0255 100.251 34.0255C98.8668 34.0255 97.5158 33.6613 96.9227 33.3302L97.3837 30.3831Z" fill="white"/>
<path d="M113.827 16.4426V33.8599H110.466V16.4426H113.827Z" fill="white"/>
<path d="M119.395 33.8599V16.4426H122.493L125.162 23.2638C125.689 24.6214 126.513 26.84 127.007 28.3632H127.073C126.974 26.542 126.743 23.4956 126.743 20.3168V16.4426H129.709V33.8599H126.612L123.976 27.2373C123.415 25.7804 122.625 23.5618 122.229 22.0055H122.163C122.229 23.7605 122.361 26.4426 122.361 29.9195V33.8599H119.395Z" fill="white"/>
<path d="M145.46 24.8533C145.46 31.4096 143.153 34.0586 139.858 34.0586C135.937 34.0586 134.388 29.8864 134.388 25.0851C134.388 20.3169 136.266 16.2109 140.089 16.2109C144.274 16.2441 145.46 20.8467 145.46 24.8533ZM137.881 25.1513C137.881 29.0917 138.639 31.1116 139.99 31.1116C141.407 31.1116 141.934 28.5288 141.934 24.9858C141.934 21.9394 141.473 19.158 139.957 19.158C138.639 19.1911 137.881 21.4096 137.881 25.1513Z" fill="white"/>
<path d="M156.861 16.7076C157.684 16.5089 158.673 16.3765 159.76 16.3765C161.342 16.3765 162.66 16.7076 163.583 17.6016C164.341 18.297 164.703 19.3235 164.703 20.5818C164.703 22.3698 163.715 23.7937 162.034 24.4559V24.489C164.044 25.0188 165.263 26.6745 165.263 28.9261C165.263 30.3831 164.802 31.542 164.044 32.403C163.056 33.5288 161.441 33.9924 159.464 33.9924C158.179 33.9924 157.421 33.9262 156.861 33.8268V16.7076ZM158.838 23.8268H159.727C161.342 23.8268 162.726 22.6016 162.726 20.7473C162.726 19.1579 161.968 17.8996 159.859 17.8996C159.398 17.8996 159.035 17.9659 158.805 18.0321V23.8268H158.838ZM158.838 32.2705C159.068 32.3367 159.398 32.3698 159.826 32.3698C161.869 32.3698 163.22 31.1447 163.22 28.893C163.22 26.4758 161.54 25.35 159.695 25.3169H158.805V32.2705H158.838Z" fill="white"/>
<path d="M172.117 16.4426V33.8599H170.14V16.4426H172.117Z" fill="white"/>
<path d="M179.861 18.2307H176.697V16.4426H185.001V18.2307H181.838V33.8599H179.861V18.2307Z" fill="white"/>
<path d="M20.5419 0.681099C19.092 1.7407 15.3685 6.74071 13.8857 9.32349C12.337 12.0387 11.5462 14.3897 11.5462 14.3897C11.5462 14.3897 16.7525 8.95926 24.9243 7.00561C30.2624 5.71422 35.8972 5.71422 41.466 6.90628C35.8643 1.67448 28.0876 -0.643404 20.5419 0.681099Z" fill="url(#paint0_radial)"/>
<path d="M43.7396 9.32344C42.0921 8.59496 35.9302 7.83337 32.9646 7.83337C29.8341 7.83337 27.4286 8.29695 27.4286 8.29695C27.4286 8.29695 34.711 10.1513 40.4445 16.2771C44.2009 20.2837 47.0018 25.1844 48.7482 30.6811C50.4616 23.1976 48.6164 15.2837 43.7396 9.32344Z" fill="url(#paint1_radial)"/>
<path d="M47.7597 33.8599C47.562 32.0387 45.1895 26.3102 43.7067 23.7274C42.158 21.0122 40.5763 19.1248 40.5763 19.1248C40.5763 19.1248 42.586 26.4095 40.1476 34.4559C38.533 39.7208 35.6996 44.5884 31.8441 48.8268C39.1265 46.6083 45.0577 41.0785 47.7597 33.8599Z" fill="url(#paint2_radial)"/>
<path d="M28.5819 49.5553C30.0647 48.4957 33.8213 43.5619 35.3371 40.9792C36.9187 38.2639 37.7425 35.946 37.7425 35.946C37.7425 35.946 32.4372 41.3103 24.2983 43.1646C18.9602 44.3898 13.3256 44.3235 7.75684 43.0321C13.2597 48.3633 21.0032 50.7805 28.5819 49.5553Z" fill="url(#paint3_radial)"/>
<path d="M5.4832 40.6149C7.13075 41.3765 13.2597 42.2043 16.2253 42.2374C19.3556 42.2705 21.761 41.8401 21.761 41.8401C21.761 41.8401 14.4788 39.8864 8.84421 33.6944C5.15369 29.6215 2.41875 24.6877 0.738245 19.191C-1.07407 26.6744 0.672343 34.6215 5.4832 40.6149Z" fill="url(#paint4_radial)"/>
<path d="M1.75977 16.0122C1.75977 16.0122 1.75977 16.0453 1.75977 16.0122C1.75977 16.0453 1.75977 16.0453 1.75977 16.0122C1.92452 17.8334 4.23109 23.595 5.68094 26.2109C7.19669 28.9592 8.77834 30.8466 8.77834 30.8466C8.77834 30.8466 6.86718 23.5619 9.40441 15.5486C11.0849 10.2837 13.9846 5.44929 17.9058 1.2771C10.5577 3.39631 4.5606 8.85989 1.75977 16.0122Z" fill="url(#paint5_radial)"/>
</g>
<defs>
<radialGradient id="paint0_radial" cx="0" cy="0" r="1" gradientUnits="userSpaceOnUse" gradientTransform="translate(10.5553 35.0672) scale(41.262 41.4642)">
<stop stop-color="#1B0248"/>
<stop offset="0.7113" stop-color="#9A06D5"/>
<stop offset="0.8909" stop-color="#AC199A"/>
<stop offset="1" stop-color="#FC19FE"/>
</radialGradient>
<radialGradient id="paint1_radial" cx="0" cy="0" r="1" gradientUnits="userSpaceOnUse" gradientTransform="translate(10.5553 35.0672) scale(41.262 41.4642)">
<stop stop-color="#1B0248"/>
<stop offset="0.7113" stop-color="#9A06D5"/>
<stop offset="0.8909" stop-color="#AC199A"/>
<stop offset="1" stop-color="#FC19FE"/>
</radialGradient>
<radialGradient id="paint2_radial" cx="0" cy="0" r="1" gradientUnits="userSpaceOnUse" gradientTransform="translate(10.5553 35.0672) scale(41.262 41.4642)">
<stop stop-color="#1B0248"/>
<stop offset="0.7113" stop-color="#9A06D5"/>
<stop offset="0.8909" stop-color="#AC199A"/>
<stop offset="1" stop-color="#FC19FE"/>
</radialGradient>
<radialGradient id="paint3_radial" cx="0" cy="0" r="1" gradientUnits="userSpaceOnUse" gradientTransform="translate(10.5553 35.0672) scale(41.262 41.4643)">
<stop stop-color="#1B0248"/>
<stop offset="0.7113" stop-color="#9A06D5"/>
<stop offset="0.8909" stop-color="#AC199A"/>
<stop offset="1" stop-color="#FC19FE"/>
</radialGradient>
<radialGradient id="paint4_radial" cx="0" cy="0" r="1" gradientUnits="userSpaceOnUse" gradientTransform="translate(10.5553 35.0672) scale(41.262 41.4642)">
<stop stop-color="#1B0248"/>
<stop offset="0.7113" stop-color="#9A06D5"/>
<stop offset="0.8909" stop-color="#AC199A"/>
<stop offset="1" stop-color="#FC19FE"/>
</radialGradient>
<radialGradient id="paint5_radial" cx="0" cy="0" r="1" gradientUnits="userSpaceOnUse" gradientTransform="translate(10.5553 35.0672) scale(41.262 41.4642)">
<stop stop-color="#1B0248"/>
<stop offset="0.7113" stop-color="#9A06D5"/>
<stop offset="0.8909" stop-color="#AC199A"/>
<stop offset="1" stop-color="#FC19FE"/>
</radialGradient>
<clipPath id="clip0">
<rect width="185.185" height="50" fill="white"/>
</clipPath>
</defs>
</svg>
