<svg width="186" height="50" fill="none" xmlns="http://www.w3.org/2000/svg"><g clip-path="url(#clip0)"><path d="M78.602 33.595c-.494.232-1.45.397-2.636.397-4.416 0-6.524-3.675-6.524-8.609 0-6.556 3.624-9.106 6.985-9.106 1.186 0 2.01.232 2.34.464l-.56 2.847c-.396-.165-.824-.33-1.582-.33-1.911 0-3.625 1.655-3.625 5.96 0 4.172 1.582 5.794 3.625 5.794.56 0 1.219-.132 1.615-.265l.362 2.848zm7.578-3.709l-.757 3.974H82.16l3.757-17.417h4.02l3.361 17.417h-3.262l-.758-3.974h-3.097zm2.801-2.649l-.56-3.642c-.165-1.06-.395-2.781-.56-3.94h-.066c-.165 1.159-.428 2.98-.626 3.973l-.626 3.61h2.438zm8.403 3.146c.692.398 1.878.662 2.867.662 1.581 0 2.372-.827 2.372-1.953 0-1.258-.758-1.888-2.24-2.848-2.373-1.457-3.263-3.278-3.263-4.867 0-2.782 1.846-5.1 5.47-5.1 1.121 0 2.208.298 2.735.63l-.527 2.913a4.196 4.196 0 0 0-2.208-.596c-1.45 0-2.141.894-2.141 1.821 0 1.027.527 1.59 2.405 2.716 2.274 1.39 3.13 3.145 3.13 5 0 3.178-2.339 5.265-5.733 5.265-1.384 0-2.735-.365-3.328-.696l.46-2.947zm16.443-13.94V33.86h-3.361V16.443h3.361zm5.568 17.417V16.443h3.098l2.669 6.82c.527 1.358 1.351 3.577 1.845 5.1h.066c-.099-1.821-.33-4.867-.33-8.046v-3.874h2.966V33.86h-3.097l-2.636-6.623c-.561-1.457-1.351-3.675-1.747-5.231h-.066c.066 1.755.198 4.437.198 7.913v3.94h-2.966zm26.065-9.007c0 6.557-2.307 9.206-5.602 9.206-3.921 0-5.47-4.173-5.47-8.974 0-4.768 1.878-8.874 5.701-8.874 4.185.033 5.371 4.636 5.371 8.642zm-7.579.298c0 3.94.758 5.96 2.109 5.96 1.417 0 1.944-2.582 1.944-6.125 0-3.047-.461-5.828-1.977-5.828-1.318.033-2.076 2.252-2.076 5.993zm18.98-8.443a12.477 12.477 0 0 1 2.899-.331c1.582 0 2.9.33 3.823 1.225.758.695 1.12 1.721 1.12 2.98 0 1.788-.988 3.212-2.669 3.874v.033c2.01.53 3.229 2.185 3.229 4.437 0 1.457-.461 2.616-1.219 3.477-.988 1.126-2.603 1.59-4.58 1.59-1.285 0-2.043-.067-2.603-.166v-17.12zm1.977 7.119h.889c1.615 0 2.999-1.225 2.999-3.08 0-1.59-.758-2.847-2.867-2.847-.461 0-.824.066-1.054.132v5.795h.033zm0 8.443c.23.067.56.1.988.1 2.043 0 3.394-1.225 3.394-3.477 0-2.417-1.68-3.543-3.525-3.576h-.89v6.953h.033zm13.279-15.827V33.86h-1.977V16.443h1.977zm7.744 1.787h-3.164v-1.787h8.304v1.788h-3.163V33.86h-1.977V18.23z" fill="#fff"/><path d="M20.542.681c-1.45 1.06-5.174 6.06-6.656 8.642-1.549 2.716-2.34 5.067-2.34 5.067s5.207-5.43 13.378-7.384c5.338-1.292 10.973-1.292 16.542-.1A24.512 24.512 0 0 0 20.542.681z" fill="url(#paint0_radial)"/><path d="M43.74 9.323c-1.648-.728-7.81-1.49-10.775-1.49-3.13 0-5.536.464-5.536.464s7.282 1.854 13.015 7.98c3.757 4.007 6.558 8.907 8.304 14.404A24.984 24.984 0 0 0 43.74 9.323z" fill="url(#paint1_radial)"/><path d="M47.76 33.86c-.198-1.821-2.57-7.55-4.053-10.133-1.549-2.715-3.13-4.602-3.13-4.602s2.009 7.285-.43 15.33c-1.614 5.266-4.447 10.133-8.303 14.372A24.737 24.737 0 0 0 47.76 33.86z" fill="url(#paint2_radial)"/><path d="M28.582 49.555c1.483-1.06 5.24-5.993 6.755-8.576 1.582-2.715 2.405-5.033 2.405-5.033s-5.305 5.364-13.444 7.219c-5.338 1.225-10.972 1.159-16.541-.133 5.503 5.331 13.246 7.749 20.825 6.523z" fill="url(#paint3_radial)"/><path d="M5.483 40.615c1.648.761 7.777 1.59 10.742 1.622 3.13.033 5.536-.397 5.536-.397s-7.282-1.954-12.917-8.146C5.154 29.621 2.42 24.688.738 19.191c-1.812 7.483-.066 15.43 4.745 21.424z" fill="url(#paint4_radial)"/><path d="M1.76 16.012s0 .033 0 0c0 .033 0 .033 0 0 .165 1.821 2.471 7.583 3.92 10.199 1.517 2.748 3.098 4.636 3.098 4.636s-1.91-7.285.626-15.298c1.68-5.265 4.58-10.1 8.502-14.272A24.754 24.754 0 0 0 1.76 16.012z" fill="url(#paint5_radial)"/></g><defs><radialGradient id="paint0_radial" cx="0" cy="0" r="1" gradientUnits="userSpaceOnUse" gradientTransform="matrix(41.262 0 0 41.4642 10.555 35.067)"><stop stop-color="#1B0248"/><stop offset=".711" stop-color="#9A06D5"/><stop offset=".891" stop-color="#AC199A"/><stop offset="1" stop-color="#FC19FE"/></radialGradient><radialGradient id="paint1_radial" cx="0" cy="0" r="1" gradientUnits="userSpaceOnUse" gradientTransform="matrix(41.262 0 0 41.4642 10.555 35.067)"><stop stop-color="#1B0248"/><stop offset=".711" stop-color="#9A06D5"/><stop offset=".891" stop-color="#AC199A"/><stop offset="1" stop-color="#FC19FE"/></radialGradient><radialGradient id="paint2_radial" cx="0" cy="0" r="1" gradientUnits="userSpaceOnUse" gradientTransform="matrix(41.262 0 0 41.4642 10.555 35.067)"><stop stop-color="#1B0248"/><stop offset=".711" stop-color="#9A06D5"/><stop offset=".891" stop-color="#AC199A"/><stop offset="1" stop-color="#FC19FE"/></radialGradient><radialGradient id="paint3_radial" cx="0" cy="0" r="1" gradientUnits="userSpaceOnUse" gradientTransform="matrix(41.262 0 0 41.4643 10.555 35.067)"><stop stop-color="#1B0248"/><stop offset=".711" stop-color="#9A06D5"/><stop offset=".891" stop-color="#AC199A"/><stop offset="1" stop-color="#FC19FE"/></radialGradient><radialGradient id="paint4_radial" cx="0" cy="0" r="1" gradientUnits="userSpaceOnUse" gradientTransform="matrix(41.262 0 0 41.4642 10.555 35.067)"><stop stop-color="#1B0248"/><stop offset=".711" stop-color="#9A06D5"/><stop offset=".891" stop-color="#AC199A"/><stop offset="1" stop-color="#FC19FE"/></radialGradient><radialGradient id="paint5_radial" cx="0" cy="0" r="1" gradientUnits="userSpaceOnUse" gradientTransform="matrix(41.262 0 0 41.4642 10.555 35.067)"><stop stop-color="#1B0248"/><stop offset=".711" stop-color="#9A06D5"/><stop offset=".891" stop-color="#AC199A"/><stop offset="1" stop-color="#FC19FE"/></radialGradient><clipPath id="clip0"><path fill="#fff" d="M0 0h185.185v50H0z"/></clipPath></defs></svg>