<svg width="186" height="50" viewBox="0 0 186 50" fill="none" xmlns="http://www.w3.org/2000/svg">
<path d="M22.4861 29.8864L23.6394 28.595C24.2325 27.9328 25.1881 27.9328 25.8141 28.595L26.9674 29.8864C28.2196 31.2771 30.2296 31.2771 31.4817 29.8864L31.5147 29.8533C32.7009 28.5288 32.7668 26.3765 31.6465 24.9526L28.4502 21.4427C27.0663 19.9526 25.913 18.2639 24.9244 16.4096V16.3765C24.8256 16.244 24.6608 16.244 24.562 16.3765V16.4096C23.6064 18.2639 22.4202 19.9526 21.0362 21.4427L17.84 24.9526C16.7196 26.3765 16.7855 28.5288 17.9718 29.8533L18.0047 29.8864C19.2239 31.2771 21.2339 31.2771 22.4861 29.8864Z" fill="#1A1A1A"/>
<path d="M24.6279 28.6281C24.6608 28.5288 24.7597 28.5288 24.7927 28.6281L25.3528 30.4824C25.6823 31.542 26.1436 32.6016 26.7368 33.595L26.9345 33.9261H22.4531L22.6508 33.595C23.244 32.6016 23.7382 31.542 24.0348 30.4824L24.6279 28.6281Z" fill="#1A1A1A"/>
<path d="M78.6018 33.595C78.1075 33.8268 77.1519 33.9924 75.9657 33.9924C71.5503 33.9924 69.4414 30.3169 69.4414 25.3831C69.4414 18.8268 73.066 16.2771 76.427 16.2771C77.6133 16.2771 78.437 16.5089 78.7665 16.7407L78.2064 19.5884C77.811 19.4228 77.3826 19.2573 76.6247 19.2573C74.7136 19.2573 73.0001 20.9129 73.0001 25.2175C73.0001 29.3897 74.5818 31.0122 76.6247 31.0122C77.1849 31.0122 77.8439 30.8798 78.2393 30.7473L78.6018 33.595Z" fill="#1A1A1A"/>
<path d="M86.1807 29.8864L85.4228 33.8599H82.1606L85.9171 16.4427H89.9371L93.2981 33.8599H90.036L89.2781 29.8864H86.1807ZM88.9815 27.2374L88.4214 23.595C88.2566 22.5354 88.0259 20.8135 87.8612 19.6546H87.7953C87.6305 20.8135 87.3669 22.6347 87.1692 23.6281L86.5431 27.2374H88.9815Z" fill="#1A1A1A"/>
<path d="M97.3838 30.3831C98.0758 30.7804 99.2624 31.0453 100.251 31.0453C101.833 31.0453 102.623 30.2175 102.623 29.0917C102.623 27.8334 101.866 27.2043 100.383 26.244C98.0102 24.7871 97.1206 22.9659 97.1206 21.3765C97.1206 18.595 98.9658 16.2771 102.59 16.2771C103.711 16.2771 104.798 16.5751 105.325 16.9063L104.798 19.8202C104.304 19.5222 103.579 19.2242 102.59 19.2242C101.141 19.2242 100.449 20.1182 100.449 21.0453C100.449 22.0718 100.976 22.6347 102.854 23.7606C105.128 25.1513 105.984 26.9063 105.984 28.7606C105.984 31.9394 103.645 34.0255 100.251 34.0255C98.867 34.0255 97.516 33.6613 96.9229 33.3301L97.3838 30.3831Z" fill="#1A1A1A"/>
<path d="M113.827 16.4427V33.8599H110.466V16.4427H113.827Z" fill="#1A1A1A"/>
<path d="M119.395 33.8599V16.4427H122.493L125.162 23.2638C125.689 24.6215 126.513 26.84 127.007 28.3632H127.073C126.974 26.542 126.743 23.4956 126.743 20.3168V16.4427H129.709V33.8599H126.612L123.975 27.2374C123.415 25.7804 122.624 23.5619 122.229 22.0056H122.163C122.229 23.7605 122.361 26.4427 122.361 29.9195V33.8599H119.395Z" fill="#1A1A1A"/>
<path d="M145.46 24.8533C145.46 31.4096 143.153 34.0586 139.858 34.0586C135.937 34.0586 134.388 29.8864 134.388 25.0851C134.388 20.3169 136.266 16.2109 140.089 16.2109C144.274 16.244 145.46 20.8467 145.46 24.8533ZM137.881 25.1513C137.881 29.0917 138.639 31.1116 139.99 31.1116C141.407 31.1116 141.934 28.5288 141.934 24.9857C141.934 21.9394 141.473 19.1579 139.957 19.1579C138.639 19.191 137.881 21.4096 137.881 25.1513Z" fill="#1A1A1A"/>
<path d="M156.861 16.7076C157.685 16.5089 158.673 16.3764 159.761 16.3764C161.342 16.3764 162.66 16.7076 163.583 17.6016C164.341 18.297 164.703 19.3235 164.703 20.5817C164.703 22.3698 163.715 23.7937 162.034 24.4559V24.489C164.044 25.0188 165.263 26.6744 165.263 28.9261C165.263 30.3831 164.802 31.542 164.044 32.4029C163.056 33.5288 161.441 33.9924 159.464 33.9924C158.179 33.9924 157.421 33.9261 156.861 33.8268V16.7076ZM158.838 23.8268H159.728C161.342 23.8268 162.726 22.6016 162.726 20.7473C162.726 19.1579 161.968 17.8996 159.859 17.8996C159.398 17.8996 159.036 17.9658 158.805 18.0321V23.8268H158.838ZM158.838 32.2705C159.069 32.3367 159.398 32.3698 159.826 32.3698C161.869 32.3698 163.22 31.1446 163.22 28.893C163.22 26.4758 161.54 25.3499 159.695 25.3168H158.805V32.2705H158.838Z" fill="#1A1A1A"/>
<path d="M172.117 16.4427V33.8599H170.14V16.4427H172.117Z" fill="#1A1A1A"/>
<path d="M179.861 18.2307H176.697V16.4427H185.001V18.2307H181.838V33.8599H179.861V18.2307Z" fill="#1A1A1A"/>
<path d="M20.5418 0.681099C19.0919 1.7407 15.3685 6.74071 13.8857 9.32349C12.337 12.0387 11.5461 14.3897 11.5461 14.3897C11.5461 14.3897 16.7524 8.95926 24.9243 7.00561C30.2624 5.71422 35.8972 5.71422 41.4659 6.90628C35.8642 1.67448 28.0876 -0.643404 20.5418 0.681099Z" fill="url(#paint0_radial)"/>
<path d="M43.7397 9.32344C42.0921 8.59496 35.9303 7.83337 32.9647 7.83337C29.8341 7.83337 27.4287 8.29695 27.4287 8.29695C27.4287 8.29695 34.7111 10.1513 40.4446 16.2771C44.201 20.2837 47.0018 25.1844 48.7482 30.6811C50.4617 23.1976 48.6164 15.2837 43.7397 9.32344Z" fill="url(#paint1_radial)"/>
<path d="M47.7598 33.8599C47.5621 32.0387 45.1896 26.3102 43.7068 23.7274C42.1581 21.0122 40.5764 19.1248 40.5764 19.1248C40.5764 19.1248 42.5861 26.4095 40.1477 34.4559C38.5331 39.7208 35.6997 44.5884 31.8442 48.8268C39.1266 46.6083 45.0578 41.0785 47.7598 33.8599Z" fill="url(#paint2_radial)"/>
<path d="M28.5819 49.5553C30.0647 48.4957 33.8213 43.5619 35.3371 40.9791C36.9187 38.2639 37.7425 35.946 37.7425 35.946C37.7425 35.946 32.4372 41.3103 24.2983 43.1646C18.9602 44.3897 13.3256 44.3235 7.75684 43.0321C13.2597 48.3632 21.0032 50.7805 28.5819 49.5553Z" fill="url(#paint3_radial)"/>
<path d="M5.48314 40.6149C7.13069 41.3765 13.2596 42.2043 16.2252 42.2374C19.3556 42.2705 21.761 41.8401 21.761 41.8401C21.761 41.8401 14.4788 39.8864 8.84415 33.6944C5.15363 29.6215 2.41869 24.6877 0.738184 19.191C-1.07413 26.6744 0.672282 34.6215 5.48314 40.6149Z" fill="url(#paint4_radial)"/>
<path d="M1.75977 16.0122C1.75977 16.0122 1.75977 16.0453 1.75977 16.0122C1.75977 16.0453 1.75977 16.0453 1.75977 16.0122C1.92452 17.8334 4.23109 23.595 5.68094 26.2109C7.19669 28.9592 8.77834 30.8466 8.77834 30.8466C8.77834 30.8466 6.86718 23.5619 9.40441 15.5486C11.0849 10.2837 13.9846 5.44929 17.9058 1.2771C10.5577 3.39631 4.5606 8.85989 1.75977 16.0122Z" fill="url(#paint5_radial)"/>
<path d="M136.786 45.823C137.02 45.823 137.225 45.793 137.402 45.733C137.582 45.673 137.731 45.589 137.848 45.481C137.968 45.37 138.058 45.2365 138.118 45.0805C138.178 44.9245 138.208 44.7505 138.208 44.5585C138.208 44.3695 138.178 44.2 138.118 44.05C138.061 43.9 137.974 43.7725 137.857 43.6675C137.74 43.5625 137.591 43.483 137.411 43.429C137.234 43.372 137.026 43.3435 136.786 43.3435H135.823V45.823H136.786ZM136.786 42.52C137.209 42.52 137.575 42.5695 137.884 42.6685C138.196 42.7675 138.452 42.907 138.653 43.087C138.857 43.264 139.009 43.4785 139.108 43.7305C139.207 43.9795 139.256 44.2555 139.256 44.5585C139.256 44.8675 139.204 45.151 139.099 45.409C138.994 45.664 138.838 45.8845 138.631 46.0705C138.424 46.2535 138.166 46.3975 137.857 46.5025C137.551 46.6045 137.194 46.6555 136.786 46.6555H135.823V49H134.77V42.52H136.786Z" fill="#A2A2A2"/>
<path d="M144.143 46.57L143.252 44.203C143.18 44.02 143.107 43.7875 143.032 43.5055C142.999 43.6465 142.963 43.777 142.924 43.897C142.885 44.014 142.849 44.1175 142.816 44.2075L141.925 46.57H144.143ZM146.137 49H145.322C145.229 49 145.154 48.9775 145.097 48.9325C145.04 48.8845 144.997 48.826 144.967 48.757L144.427 47.326H141.637L141.097 48.757C141.073 48.817 141.031 48.8725 140.971 48.9235C140.911 48.9745 140.836 49 140.746 49H139.931L142.501 42.52H143.567L146.137 49Z" fill="#A2A2A2"/>
<path d="M149.674 45.625C149.914 45.625 150.124 45.5965 150.304 45.5395C150.484 45.4795 150.634 45.397 150.754 45.292C150.874 45.187 150.964 45.0625 151.024 44.9185C151.084 44.7715 151.114 44.6095 151.114 44.4325C151.114 44.0785 150.997 43.8085 150.763 43.6225C150.529 43.4365 150.175 43.3435 149.701 43.3435H148.846V45.625H149.674ZM152.725 49H151.785C151.599 49 151.464 48.928 151.38 48.784L149.868 46.6015C149.817 46.5265 149.761 46.4725 149.701 46.4395C149.641 46.4065 149.551 46.39 149.431 46.39H148.846V49H147.793V42.52H149.701C150.127 42.52 150.493 42.5635 150.799 42.6505C151.108 42.7375 151.362 42.862 151.56 43.024C151.758 43.183 151.903 43.375 151.996 43.6C152.092 43.825 152.14 44.0755 152.14 44.3515C152.14 44.5765 152.106 44.7865 152.037 44.9815C151.971 45.1765 151.873 45.3535 151.744 45.5125C151.618 45.6715 151.462 45.8095 151.276 45.9265C151.09 46.0435 150.879 46.135 150.642 46.201C150.771 46.279 150.882 46.3885 150.975 46.5295L152.725 49Z" fill="#A2A2A2"/>
<path d="M158.672 43.3975H156.652V49H155.603V43.3975H153.578V42.52H158.672V43.3975Z" fill="#A2A2A2"/>
<path d="M165.838 42.52V49H165.303C165.222 49 165.153 48.9865 165.096 48.9595C165.039 48.9295 164.985 48.8815 164.934 48.8155L161.374 44.2435C161.383 44.3305 161.389 44.4175 161.392 44.5045C161.398 44.5885 161.401 44.6665 161.401 44.7385V49H160.474V42.52H161.023C161.068 42.52 161.106 42.523 161.136 42.529C161.169 42.532 161.199 42.5395 161.226 42.5515C161.253 42.5635 161.278 42.5815 161.302 42.6055C161.326 42.6295 161.352 42.6595 161.379 42.6955L164.943 47.272C164.934 47.179 164.926 47.0875 164.92 46.9975C164.917 46.9075 164.916 46.8235 164.916 46.7455V42.52H165.838Z" fill="#A2A2A2"/>
<path d="M172.328 48.1495L172.323 49H168.282V42.52H172.323V43.3705H169.34V45.3235H171.725V46.147H169.34V48.1495H172.328Z" fill="#A2A2A2"/>
<path d="M176.249 45.625C176.489 45.625 176.699 45.5965 176.879 45.5395C177.059 45.4795 177.209 45.397 177.329 45.292C177.449 45.187 177.539 45.0625 177.599 44.9185C177.659 44.7715 177.689 44.6095 177.689 44.4325C177.689 44.0785 177.572 43.8085 177.338 43.6225C177.104 43.4365 176.75 43.3435 176.276 43.3435H175.421V45.625H176.249ZM179.3 49H178.359C178.173 49 178.038 48.928 177.954 48.784L176.442 46.6015C176.391 46.5265 176.336 46.4725 176.276 46.4395C176.216 46.4065 176.126 46.39 176.006 46.39H175.421V49H174.368V42.52H176.276C176.702 42.52 177.068 42.5635 177.374 42.6505C177.683 42.7375 177.936 42.862 178.134 43.024C178.332 43.183 178.478 43.375 178.571 43.6C178.667 43.825 178.715 44.0755 178.715 44.3515C178.715 44.5765 178.68 44.7865 178.611 44.9815C178.545 45.1765 178.448 45.3535 178.319 45.5125C178.193 45.6715 178.037 45.8095 177.851 45.9265C177.665 46.0435 177.453 46.135 177.216 46.201C177.345 46.279 177.456 46.3885 177.549 46.5295L179.3 49Z" fill="#A2A2A2"/>
<path d="M184.369 43.627C184.336 43.681 184.302 43.7215 184.266 43.7485C184.23 43.7725 184.185 43.7845 184.131 43.7845C184.074 43.7845 184.009 43.7605 183.937 43.7125C183.868 43.6645 183.781 43.612 183.676 43.555C183.574 43.495 183.453 43.441 183.312 43.393C183.171 43.342 183.003 43.3165 182.808 43.3165C182.628 43.3165 182.469 43.339 182.331 43.384C182.196 43.429 182.082 43.492 181.989 43.573C181.896 43.654 181.825 43.75 181.777 43.861C181.732 43.969 181.71 44.0875 181.71 44.2165C181.71 44.3815 181.753 44.5195 181.84 44.6305C181.927 44.7385 182.041 44.8315 182.182 44.9095C182.326 44.9875 182.49 45.0565 182.673 45.1165C182.856 45.1735 183.042 45.235 183.231 45.301C183.423 45.367 183.61 45.442 183.793 45.526C183.976 45.61 184.138 45.7165 184.279 45.8455C184.423 45.9745 184.539 46.132 184.626 46.318C184.713 46.504 184.756 46.7305 184.756 46.9975C184.756 47.2855 184.707 47.5555 184.608 47.8075C184.509 48.0595 184.365 48.28 184.176 48.469C183.99 48.655 183.759 48.802 183.483 48.91C183.21 49.018 182.898 49.072 182.547 49.072C182.34 49.072 182.137 49.051 181.939 49.009C181.744 48.97 181.557 48.9145 181.377 48.8425C181.2 48.7675 181.033 48.6775 180.877 48.5725C180.721 48.4675 180.582 48.3505 180.459 48.2215L180.765 47.7175C180.792 47.6755 180.826 47.6425 180.868 47.6185C180.91 47.5945 180.957 47.5825 181.008 47.5825C181.077 47.5825 181.153 47.6155 181.237 47.6815C181.321 47.7445 181.422 47.815 181.539 47.893C181.659 47.968 181.803 48.0385 181.971 48.1045C182.139 48.1675 182.34 48.199 182.574 48.199C182.955 48.199 183.249 48.106 183.456 47.92C183.666 47.734 183.771 47.4775 183.771 47.1505C183.771 46.9675 183.727 46.819 183.64 46.705C183.553 46.588 183.438 46.4905 183.294 46.4125C183.153 46.3345 182.991 46.2685 182.808 46.2145C182.625 46.1605 182.439 46.1035 182.25 46.0435C182.061 45.9805 181.875 45.9085 181.692 45.8275C181.509 45.7435 181.345 45.6355 181.201 45.5035C181.06 45.3685 180.946 45.2035 180.859 45.0085C180.772 44.8105 180.729 44.5645 180.729 44.2705C180.729 44.0365 180.774 43.81 180.864 43.591C180.957 43.372 181.09 43.1785 181.264 43.0105C181.441 42.8395 181.659 42.703 181.917 42.601C182.175 42.499 182.469 42.448 182.799 42.448C183.171 42.448 183.511 42.5065 183.82 42.6235C184.132 42.7405 184.401 42.907 184.626 43.123L184.369 43.627Z" fill="#A2A2A2"/>
<defs>
<radialGradient id="paint0_radial" cx="0" cy="0" r="1" gradientUnits="userSpaceOnUse" gradientTransform="translate(10.5552 35.0672) scale(41.262 41.4642)">
<stop stop-color="#1B0248"/>
<stop offset="0.7113" stop-color="#9A06D5"/>
<stop offset="0.8909" stop-color="#AC199A"/>
<stop offset="1" stop-color="#FC19FE"/>
</radialGradient>
<radialGradient id="paint1_radial" cx="0" cy="0" r="1" gradientUnits="userSpaceOnUse" gradientTransform="translate(10.5553 35.0672) scale(41.262 41.4642)">
<stop stop-color="#1B0248"/>
<stop offset="0.7113" stop-color="#9A06D5"/>
<stop offset="0.8909" stop-color="#AC199A"/>
<stop offset="1" stop-color="#FC19FE"/>
</radialGradient>
<radialGradient id="paint2_radial" cx="0" cy="0" r="1" gradientUnits="userSpaceOnUse" gradientTransform="translate(10.5554 35.0672) scale(41.262 41.4642)">
<stop stop-color="#1B0248"/>
<stop offset="0.7113" stop-color="#9A06D5"/>
<stop offset="0.8909" stop-color="#AC199A"/>
<stop offset="1" stop-color="#FC19FE"/>
</radialGradient>
<radialGradient id="paint3_radial" cx="0" cy="0" r="1" gradientUnits="userSpaceOnUse" gradientTransform="translate(10.5553 35.0672) scale(41.262 41.4643)">
<stop stop-color="#1B0248"/>
<stop offset="0.7113" stop-color="#9A06D5"/>
<stop offset="0.8909" stop-color="#AC199A"/>
<stop offset="1" stop-color="#FC19FE"/>
</radialGradient>
<radialGradient id="paint4_radial" cx="0" cy="0" r="1" gradientUnits="userSpaceOnUse" gradientTransform="translate(10.5552 35.0672) scale(41.262 41.4642)">
<stop stop-color="#1B0248"/>
<stop offset="0.7113" stop-color="#9A06D5"/>
<stop offset="0.8909" stop-color="#AC199A"/>
<stop offset="1" stop-color="#FC19FE"/>
</radialGradient>
<radialGradient id="paint5_radial" cx="0" cy="0" r="1" gradientUnits="userSpaceOnUse" gradientTransform="translate(10.5553 35.0672) scale(41.262 41.4642)">
<stop stop-color="#1B0248"/>
<stop offset="0.7113" stop-color="#9A06D5"/>
<stop offset="0.8909" stop-color="#AC199A"/>
<stop offset="1" stop-color="#FC19FE"/>
</radialGradient>
</defs>
</svg>
