<?xml version="1.0" standalone="no"?>
<!DOCTYPE svg PUBLIC "-//W3C//DTD SVG 20010904//EN"
 "http://www.w3.org/TR/2001/REC-SVG-20010904/DTD/svg10.dtd">
<svg version="1.0" xmlns="http://www.w3.org/2000/svg"
 width="196.000000pt" height="196.000000pt" viewBox="0 0 196.000000 196.000000"
 preserveAspectRatio="xMidYMid meet">
<metadata>
Created by potrace 1.11, written by Peter Selinger 2001-2013
</metadata>
<g transform="translate(0.000000,196.000000) scale(0.100000,-0.100000)"
fill="#000000" stroke="none">
<path d="M822 1953 c-28 -6 -151 -144 -224 -255 -92 -139 -170 -308 -142 -308
3 0 29 20 57 43 154 130 335 216 542 259 81 17 390 22 477 8 43 -7 86 -9 95
-5 16 5 13 10 -17 36 -59 50 -112 84 -190 124 -41 20 -83 41 -92 46 -10 5 -25
9 -33 9 -8 0 -23 4 -33 10 -43 23 -166 40 -289 39 -70 -1 -138 -4 -151 -6z"/>
<path d="M545 1860 c-197 -97 -346 -247 -446 -445 -49 -96 -50 -101 -39 -140
25 -82 104 -278 129 -318 14 -23 32 -53 39 -67 7 -14 35 -56 63 -93 47 -65 77
-82 71 -41 -32 202 -34 242 -23 351 19 185 58 319 139 473 42 81 113 188 169
257 24 29 43 57 43 63 0 21 -49 8 -145 -40z"/>
<path d="M1122 1663 c-68 -7 -52 -32 40 -64 315 -110 583 -391 724 -757 52
-137 78 -74 70 168 -4 139 -11 179 -51 295 -34 98 -124 254 -171 297 -36 32
-205 59 -394 62 -96 2 -194 2 -218 -1z"/>
<path d="M953 1323 c-17 -48 -103 -164 -178 -241 -47 -48 -85 -93 -85 -99 0
-7 -4 -13 -10 -13 -16 0 -12 -117 5 -150 24 -47 76 -80 124 -80 45 0 107 33
116 62 9 28 33 30 27 2 -2 -13 -8 -24 -13 -24 -5 0 -9 -8 -9 -18 0 -22 -27
-79 -41 -87 -5 -4 -9 -15 -9 -26 0 -18 8 -19 105 -19 97 0 105 1 105 19 0 11
-7 26 -15 34 -7 8 -17 26 -21 41 -3 14 -10 29 -15 32 -5 3 -9 16 -9 29 0 13
-4 27 -10 30 -5 3 -10 10 -10 15 0 5 22 -13 50 -40 44 -45 53 -50 95 -50 59 0
109 32 135 87 21 45 27 108 10 118 -5 3 -10 15 -10 25 0 10 -8 25 -17 32 -10
7 -33 31 -52 53 -18 22 -52 60 -75 85 -51 56 -86 103 -116 158 -26 45 -65 58
-77 25z"/>
<path d="M1597 1216 c-3 -8 -1 -32 5 -53 29 -105 23 -362 -13 -503 -44 -176
-154 -388 -281 -541 -71 -87 -51 -93 90 -28 129 59 253 156 339 264 69 87 135
202 157 273 7 20 -10 98 -34 157 -5 11 -16 40 -25 65 -38 102 -203 380 -226
380 -4 0 -9 -6 -12 -14z"/>
<path d="M6 1153 c-3 -21 -6 -101 -6 -178 0 -156 12 -224 60 -350 24 -65 91
-185 130 -233 l46 -57 119 -22 c96 -18 156 -23 299 -23 178 0 226 5 226 21 0
12 -40 35 -75 44 -105 24 -301 151 -421 271 -132 133 -228 284 -312 489 -33
81 -56 95 -66 38z"/>
<path d="M1455 534 c-128 -112 -326 -216 -485 -253 -195 -45 -318 -48 -602
-15 -68 8 -63 -13 17 -73 82 -61 209 -126 300 -154 22 -6 51 -16 65 -22 39
-16 354 -22 390 -7 66 27 241 261 323 432 65 135 63 155 -8 92z"/>
</g>
</svg>
