<svg width="74" height="64" viewBox="0 0 74 64" fill="none" xmlns="http://www.w3.org/2000/svg">
<path d="M53.3317 32.3969C52.6281 31.487 51.5663 30.8621 50.1464 30.5224C51.9545 29.6001 52.7492 28.0347 52.531 25.8259C52.4581 25.025 52.2367 24.3309 51.8664 23.7425C51.4959 23.154 50.9959 22.6809 50.3645 22.323C49.7336 21.9646 49.0474 21.6918 48.3075 21.5037C47.5675 21.3157 46.7179 21.1791 45.7592 21.0942V16.5073H42.9563V20.9668C42.471 20.9668 41.7308 20.9789 40.7359 21.0032V16.5073H37.9327V21.0942C37.5321 21.1064 36.9437 21.1126 36.1671 21.1126L32.3083 21.0942V24.0794H34.3286C35.2509 24.0794 35.7909 24.4921 35.9486 25.3171V30.5412C36.0701 30.5412 36.1671 30.5474 36.2399 30.5596H35.9486V37.8764C35.8516 38.4952 35.4998 38.8048 34.893 38.8048H32.8728L32.3085 42.1359H35.9489C36.1795 42.1359 36.513 42.1389 36.95 42.1444C37.3868 42.1505 37.7143 42.1536 37.9328 42.1536V46.795H40.7365V42.2082C41.246 42.2206 41.9862 42.2265 42.9569 42.2265V46.795H45.7598V42.1536C46.7551 42.1051 47.6378 42.0146 48.408 41.8807C49.1786 41.7467 49.916 41.5377 50.6196 41.2524C51.3232 40.9674 51.9116 40.6122 52.3848 40.1875C52.8582 39.7632 53.2492 39.2229 53.5592 38.5675C53.8682 37.9121 54.0656 37.1537 54.1503 36.292C54.3087 34.6057 54.0355 33.3072 53.3317 32.3969ZM40.7904 24.2791C40.8754 24.2791 41.115 24.276 41.5094 24.2699C41.904 24.2637 42.2315 24.2577 42.4924 24.2516C42.7533 24.2456 43.1052 24.2607 43.5483 24.2971C43.9912 24.3335 44.3643 24.3822 44.6675 24.4428C44.9708 24.5033 45.3048 24.6035 45.6685 24.743C46.0329 24.8825 46.3239 25.0524 46.5421 25.2526C46.7607 25.4528 46.9457 25.7077 47.0971 26.0172C47.249 26.3266 47.3248 26.6815 47.3248 27.0819C47.3248 27.4217 47.2703 27.7312 47.1613 28.0104C47.0524 28.2895 46.8881 28.5231 46.67 28.7112C46.4517 28.8994 46.2268 29.0633 45.9962 29.2028C45.7659 29.3422 45.4713 29.4545 45.1135 29.5394C44.7557 29.6244 44.4433 29.6911 44.1765 29.7396C43.9095 29.7881 43.5758 29.8216 43.1753 29.8397C42.7748 29.8578 42.4713 29.8702 42.2651 29.8762C42.0588 29.8822 41.7767 29.8822 41.4186 29.8762C41.0605 29.8702 40.8514 29.867 40.7906 29.867V24.279H40.7904V24.2791ZM48.4446 36.6744C48.329 36.9537 48.1806 37.1965 47.9987 37.403C47.8165 37.6089 47.5767 37.7911 47.2796 37.9486C46.9825 38.1066 46.694 38.2338 46.4152 38.3309C46.1359 38.4284 45.799 38.5128 45.405 38.5859C45.0102 38.6588 44.6646 38.71 44.367 38.7406C44.0698 38.771 43.715 38.7951 43.3023 38.8135C42.8899 38.8313 42.5681 38.8406 42.3376 38.8406C42.107 38.8406 41.8157 38.8373 41.4638 38.8313C41.1117 38.8257 40.8874 38.8226 40.7903 38.8226V32.6701C40.8872 32.6701 41.1755 32.6642 41.6549 32.6518C42.1344 32.6396 42.5255 32.6339 42.8289 32.6339C43.1322 32.6339 43.551 32.6518 44.0852 32.6885C44.6188 32.7246 45.0678 32.779 45.4321 32.8518C45.796 32.9247 46.1932 33.0368 46.6243 33.1887C47.0549 33.3403 47.404 33.5253 47.671 33.7437C47.938 33.9625 48.1624 34.2412 48.3443 34.581C48.5267 34.9207 48.6177 35.3091 48.6177 35.7461C48.6176 36.0862 48.5601 36.3951 48.4446 36.6744Z" fill="white"/>
<path fill-rule="evenodd" clip-rule="evenodd" d="M41.7013 0C24.2209 0 10.05 14.1708 10.05 31.6512C10.05 49.1316 24.2209 63.3024 41.7013 63.3024C59.1816 63.3024 73.3525 49.1316 73.3525 31.6512C73.3525 14.1708 59.1816 0 41.7013 0ZM41.7013 2.2608C25.4694 2.2608 12.3108 15.4194 12.3108 31.6512C12.3108 47.883 25.4694 61.0416 41.7013 61.0416C57.9331 61.0416 71.0917 47.883 71.0917 31.6512C71.0917 15.4194 57.9331 2.2608 41.7013 2.2608Z" fill="url(#paint0_linear)"/>
<path d="M0 31.6512C0 27.1192 3.67389 23.4453 8.20587 23.4453H29.0898C33.6218 23.4453 37.2957 27.1192 37.2957 31.6512V31.6512C37.2957 36.1832 33.6218 39.857 29.0898 39.857H8.20587C3.6739 39.857 0 36.1832 0 31.6512V31.6512Z" fill="#5B2A9F"/>
<path d="M13.3569 34.8116H14.7449L14.4073 28.4907H12.5317L11.8658 30.5914C11.6501 31.2948 11.4344 32.1294 11.2656 32.8609H11.2281C11.0874 32.1201 10.8999 31.3323 10.6936 30.6008L10.0746 28.4907H8.17084L7.76758 34.8116H9.0899L9.21181 32.4108C9.24932 31.623 9.28684 30.6477 9.31497 29.7943H9.33373C9.49316 30.6289 9.69947 31.5199 9.90579 32.2607L10.581 34.7084H11.697L12.466 32.242C12.7099 31.5011 12.9724 30.6008 13.1788 29.7943H13.1975C13.1975 30.7227 13.2257 31.6324 13.2538 32.392L13.3569 34.8116Z" fill="white"/>
<path d="M15.8487 28.4907V34.8116H17.2742V28.4907H15.8487Z" fill="white"/>
<path d="M18.523 34.8116H22.4618V33.6112H19.9485V28.4907H18.523V34.8116Z" fill="white"/>
<path d="M23.3128 34.8116H27.2516V33.6112H24.7383V28.4907H23.3128V34.8116Z" fill="white"/>
<path d="M28.1026 28.4907V34.8116H29.5281V28.4907H28.1026Z" fill="white"/>
<defs>
<linearGradient id="paint0_linear" x1="54.822" y1="56.843" x2="23.8571" y2="6.45943" gradientUnits="userSpaceOnUse">
<stop stop-color="#3C2585"/>
<stop offset="1" stop-color="#9750A4"/>
</linearGradient>
</defs>
</svg>
