<svg id="Слой_1" data-name="Слой 1" xmlns="http://www.w3.org/2000/svg" viewBox="0 0 496 496"><defs><style>.cls-1{fill:#a04af6;}</style></defs><title>baccarat</title><path class="cls-1" d="M248,340.69l-47,47a30.6,30.6,0,0,0,39,46.83V464h16V434.55a30.61,30.61,0,0,0,39-46.83ZM273.38,424A14.75,14.75,0,0,1,263,419.72l-15-15-15,15A14.63,14.63,0,0,1,212.28,399L248,363.31,283.72,399a14.63,14.63,0,0,1-10.34,25Z"/><path class="cls-1" d="M144,328h40.71a96,96,0,1,0,126.58,0H352V264H144Zm104-24a95.54,95.54,0,0,0-24,3.16V280h48v27.16A95.54,95.54,0,0,0,248,304Zm80,96a80,80,0,1,1-80-80A80.09,80.09,0,0,1,328,400Zm8-88H288V280h48ZM160,280h48v32H160Z"/><path class="cls-1" d="M456,184H360v64h72v56a64.07,64.07,0,0,1-64,64h-8v64h8c70.57,0,128-57.43,128-128V224A40.05,40.05,0,0,0,456,184Zm-80,48V200h80a24,24,0,0,1,24,24v24H448a16,16,0,0,0-16-16Zm72,64V264h32v32ZM376,415.72V383.6A80.15,80.15,0,0,0,447.59,312h32A112.11,112.11,0,0,1,376,415.72Z"/><path class="cls-1" d="M0,224v80c0,70.57,57.43,128,128,128h8V368h-8a64.07,64.07,0,0,1-64-64V248h72V184H40A40.05,40.05,0,0,0,0,224Zm48,72H16V264H48Zm72,87.6v32.12A112.13,112.13,0,0,1,16.38,312h32A80.15,80.15,0,0,0,120,383.6ZM120,232H64a16,16,0,0,0-16,16H16V224a24,24,0,0,1,24-24h80Z"/><path class="cls-1" d="M344,214.18a40.22,40.22,0,0,0-25.95-37.47L280,162.46v-6.78a48,48,0,0,0,13.4-20.22A32,32,0,0,0,320,104V72a72,72,0,0,0-144,0v32a32,32,0,0,0,26.6,31.46A48.15,48.15,0,0,0,216,155.68v6.78L178,176.72A40.2,40.2,0,0,0,152,214.18V248H344Zm-57.31-16.83-24.94,20.78,14.94-39.83,4.17,1.57Zm-71.55-17.48,4.18-1.57,14.94,39.83-24.94-20.78ZM248,152a32,32,0,0,1-32-32V87.44a63.12,63.12,0,0,0,32-12.78,63.12,63.12,0,0,0,32,12.78V120A32,32,0,0,1,248,152Zm48-34.22V90.23a15.86,15.86,0,0,1,0,27.55ZM248,16a56.07,56.07,0,0,1,56,56v4.45A31.69,31.69,0,0,0,288,72h-1.38a46.93,46.93,0,0,1-33-13.66L248,52.69l-5.66,5.65a46.93,46.93,0,0,1-33,13.66H208a31.69,31.69,0,0,0-16,4.45V72A56.07,56.07,0,0,1,248,16Zm-56,88a16,16,0,0,1,8-13.78v27.55A15.94,15.94,0,0,1,192,104Zm56,64a47.71,47.71,0,0,0,16-2.8v1.34l-16,42.67-16-42.67V165.2A47.71,47.71,0,0,0,248,168Zm-80,46.18a24.11,24.11,0,0,1,15.57-22.48l12.3-4.61-5.18,15.55L225.9,232H168ZM328,232H270.1l35.21-29.35-5.18-15.55,12.3,4.6A24.11,24.11,0,0,1,328,214.18Z"/></svg>