<svg width="166" height="193" viewBox="0 0 166 193" fill="none" xmlns="http://www.w3.org/2000/svg">
<g clip-path="url(#clip0)">
<path d="M151.18 130.54C149.01 121 145.83 114.71 141.42 110.03C135.6 103.84 124.17 100.28 114.99 97.41C110.73 96.08 104.89 94.26 103.81 93.19C101.73 90.81 100.52 86.73 100.01 84.35C110.01 75 116.55 59.63 116.55 42.23C116.55 11.09 96.48 0 77.67 0C58.86 0 38.77 11.09 38.77 42.23C38.77 59.45 45.2 74.72 55.04 84.07C54.56 86.41 53.34 90.71 51.2 93.16C50.1 94.25 44.27 96.07 40 97.4C30.82 100.28 19.4 103.84 13.55 110C4.21998 119.91 0.399984 153.19 -0.0100156 157C-0.0881922 157.745 0.0610302 158.496 0.418018 159.155C0.775006 159.814 1.32303 160.349 1.98998 160.69C3.04998 161.24 28.52 174.22 77.5 174.22H81.3C84.21 168.22 87.37 162.44 90.57 156.62C95.76 147.18 100.57 137.55 106.05 128.24C106.222 127.916 106.503 127.662 106.842 127.523C107.182 127.385 107.56 127.369 107.91 127.48C113.11 130.21 115.97 131.77 120.46 134C121.64 134.59 121.64 134.59 124.06 135.68L124.72 108.57C129.38 110.41 133.58 112.57 136.03 115.14C138.65 117.93 140.88 119.3 142.68 126.06L151.18 130.54ZM30.55 162.06C22.7512 160.451 15.1161 158.131 7.73998 155.13C9.13998 144.13 13.07 121.43 19.01 115.13C21.5 112.49 25.8 110.32 30.56 108.46L30.55 162.06ZM47.24 53.49C49.69 52.16 53.54 49.33 54.16 44.54C55.09 37.43 54.78 28.76 59.42 27.84C64.06 26.92 74.27 30.47 82.42 28.92C86.8924 28.1544 91.257 26.8551 95.42 25.05C95.42 25.05 99.13 38.05 102.22 43.61C103.898 46.4575 105.991 49.0392 108.43 51.27C105.43 71.27 92.77 86.27 77.62 86.27C63.1 86.3 50.81 72.35 47.24 53.49ZM56.77 98.08C58.9371 95.4069 60.5302 92.316 61.45 89C66.2521 92.0486 71.8161 93.6825 77.5041 93.7143C83.1921 93.7461 88.774 92.1747 93.61 89.18C94.5307 92.4262 96.1026 95.4509 98.23 98.07C99.72 99.77 102.23 100.98 106.29 102.39L77.62 154.07L48.92 102.32C52.86 100.94 55.31 99.75 56.77 98.08Z" fill="#AD52F2"/>
<path d="M81.21 103.89C80.8099 103.375 80.2973 102.958 79.7115 102.671C79.1257 102.385 78.4822 102.236 77.83 102.236C77.1778 102.236 76.5342 102.385 75.9484 102.671C75.3626 102.958 74.8501 103.375 74.45 103.89C70.64 100.1 62.21 95.43 62.21 106.57C62.21 117.71 70.64 113.03 74.45 109.25C74.8501 109.765 75.3626 110.182 75.9484 110.469C76.5342 110.755 77.1778 110.904 77.83 110.904C78.4822 110.904 79.1257 110.755 79.7115 110.469C80.2973 110.182 80.8099 109.765 81.21 109.25C85.02 113.04 93.45 117.71 93.45 106.57C93.45 95.43 85.02 100.1 81.21 103.89Z" fill="#AD52F2"/>
<path d="M97.77 170.94L99.64 171.94L99.28 173.94L100.44 174.56L101.67 167.63L100.29 166.9L95.29 171.79L96.4 172.38L97.77 170.94ZM99.61 169.01C99.9 168.72 100.21 168.35 100.48 168.01C100.39 168.4 100.27 168.85 100.19 169.27L99.88 170.97L98.36 170.16L99.61 169.01ZM128.24 155.63L130.11 156.63L129.75 158.63L130.91 159.25L132.14 152.32L130.76 151.59L125.76 156.48L126.87 157.07L128.24 155.63ZM130.08 153.7C130.37 153.41 130.68 153.04 130.95 152.7C130.86 153.09 130.74 153.54 130.66 153.96L130.35 155.66L128.83 154.85L130.08 153.7ZM113.01 164.8C112.319 165.665 111.402 166.321 110.361 166.697C109.319 167.073 108.194 167.154 107.11 166.93L107.19 167.25L114.41 171.1L114.72 170.99C113.931 170.215 113.371 169.237 113.103 168.164C112.835 167.091 112.868 165.965 113.2 164.91C112.58 168.09 117.2 170.67 120.2 167.81C124.98 163.16 118.65 157.48 118.77 154.3C116.2 156.17 107.95 154.08 106.77 160.64C105.99 164.67 110.71 167.09 113.01 164.8ZM142.01 162.44L143.35 166.83L147.75 165.5L146.41 161.11L142.01 162.44ZM151.65 144.9L152.99 149.29L157.38 147.96L156.04 143.57L151.65 144.9ZM131.05 127.76L124.55 139.91L111.16 132.77C110.391 132.359 109.49 132.271 108.656 132.524C107.821 132.777 107.121 133.351 106.71 134.12L86.62 171.79C86.2094 172.559 86.121 173.46 86.3741 174.294C86.6272 175.129 87.2013 175.829 87.97 176.24L117.63 192C118.399 192.411 119.3 192.499 120.134 192.246C120.969 191.993 121.669 191.419 122.08 190.65L129.26 177.19L141.32 183.62C142.089 184.031 142.99 184.119 143.824 183.866C144.659 183.613 145.359 183.039 145.77 182.27L165.17 145.9C165.581 145.131 165.669 144.23 165.416 143.396C165.163 142.561 164.589 141.861 163.82 141.45L135.55 126.41C135.168 126.204 134.749 126.075 134.318 126.031C133.886 125.987 133.45 126.029 133.034 126.155C132.619 126.28 132.232 126.486 131.897 126.762C131.561 127.038 131.284 127.377 131.08 127.76H131.05ZM127.65 139.76L128.29 141.86L126.92 141.13L127.65 139.76ZM117.03 186.14L93.18 173.42C92.9882 173.319 92.8182 173.181 92.68 173.014C92.5417 172.847 92.438 172.654 92.3748 172.447C92.3115 172.239 92.2901 172.022 92.3116 171.806C92.3331 171.59 92.3971 171.381 92.5 171.19L109.5 139.28C109.601 139.088 109.739 138.918 109.906 138.78C110.073 138.642 110.266 138.538 110.473 138.475C110.681 138.412 110.898 138.39 111.114 138.412C111.33 138.433 111.539 138.497 111.73 138.6L135.58 151.32C135.772 151.421 135.942 151.559 136.08 151.726C136.218 151.893 136.322 152.086 136.385 152.293C136.449 152.5 136.47 152.718 136.449 152.934C136.427 153.15 136.363 153.359 136.26 153.55L119.26 185.46C119.061 185.845 118.719 186.136 118.306 186.269C117.894 186.402 117.446 186.366 117.06 186.17L117.03 186.14ZM130.55 174.89L130.81 174.4L131.04 175.15L130.55 174.89ZM158.8 152.31L158.18 150.31L153.79 151.64L155.13 156.03L157.13 155.42L154 161.29L153.32 159.07L148.92 160.4L150.26 164.79L152.48 164.12L149.22 170.23L148.52 167.94L144.13 169.27L145.47 173.66L147.76 172.97L144.49 179L143.76 176.62L139.36 177.95L139.96 179.9L134.39 176.9L136.18 176.36L134.84 172L131.48 173L135.53 165.41L136.53 168.84L140.92 167.51L139.58 163.12L136.15 164.12L140.2 156.53L141.28 160.07L145.67 158.74L144.33 154.35L140.79 155.42L142.4 152.42L143.63 152.05L143.25 150.82L143.67 150.04L142.89 149.62L142.29 147.62L140.29 148.21L137.15 146.54L141.52 145.22L140.18 140.83L135.79 142.16L137.13 146.53L134.06 145L133.46 143L131.46 143.59L128.46 141.99L132.72 140.7L131.38 136.31L129.14 136.99L132.36 130.99L133.07 133.32L137.46 131.99L136.92 130.23L142.24 133.07L140.64 133.55L141.98 137.94L146.37 136.61L145.88 135.01L150.97 137.72L149.55 138.15L150.89 142.54L155.28 141.21L154.85 139.79L159.85 142.45L158.5 142.86L159.84 147.25L161.71 146.68L158.8 152.31ZM133.87 135.59L135.21 139.98L139.61 138.65L138.27 134.26L133.87 135.59ZM146.87 153.68L148.21 158.07L152.6 156.74L151.26 152.35L146.87 153.68ZM147.13 138.86L142.74 140.19L144.08 144.58L148.47 143.25L147.13 138.86ZM149.21 145.65L144.81 147L146.15 151.39L150.55 150L149.21 145.65ZM137.32 171.29L138.66 175.68L143.06 174.35L141.71 170L137.32 171.29Z" fill="#AD52F2"/>
</g>
<defs>
<clipPath id="clip0">
<rect width="165.55" height="192.43" fill="white"/>
</clipPath>
</defs>
</svg>
