<svg id="Слой_1" data-name="Слой 1" xmlns="http://www.w3.org/2000/svg" viewBox="0 0 432 496"><defs><style>.cls-1{fill:#a04af6;}</style></defs><title>black-jack</title><path class="cls-1" d="M440,160H288V24A24,24,0,0,0,264,0H56A24,24,0,0,0,32,24V312a24,24,0,0,0,24,24H224V472a24,24,0,0,0,24,24H440a24,24,0,0,0,24-24V184A24,24,0,0,0,440,160ZM56,320a8,8,0,0,1-8-8V24a8,8,0,0,1,8-8H264a8,8,0,0,1,8,8V160H256V32H64V304H224v16ZM224,184V288H80V48H240V161.47A24,24,0,0,0,224,184ZM448,472a8,8,0,0,1-8,8H248a8,8,0,0,1-8-8V184a8,8,0,0,1,8-8H440a8,8,0,0,1,8,8Z" transform="translate(-32)"/><path class="cls-1" d="M406.66,314.46,344,244l-62.66,70.5A37,37,0,0,0,309,376h2.25a37.22,37.22,0,0,0,4.95-.36l-3.89,14.26L312,408h64V392l-4.31-16.38a35.88,35.88,0,0,0,5.09.38H379a37,37,0,0,0,27.64-61.54ZM328.3,392l6.64-24.34,9.06-6,9.07,6L359.7,392ZM379,360h-2.25a20.9,20.9,0,0,1-11.64-3.52L344,342.38l-21.14,14.1A20.87,20.87,0,0,1,311.22,360H309a21,21,0,0,1-15.68-34.92L344,268l50.7,57A21,21,0,0,1,379,360Z" transform="translate(-32)"/><path class="cls-1" d="M256,192h16v16H256Z" transform="translate(-32)"/><path class="cls-1" d="M416,448h16v16H416Z" transform="translate(-32)"/><path class="cls-1" d="M136,128h16v64a16,16,0,0,1-32,0H104a32,32,0,0,0,64,0V128h16V112H136Z" transform="translate(-32)"/></svg>