<svg width="159" height="198" viewBox="0 0 159 198" fill="none" xmlns="http://www.w3.org/2000/svg">
<g clip-path="url(#clip0)">
<path d="M72.5 91.57L65.61 98.49L58.75 91.63C56.0978 88.9884 52.5049 87.5086 48.7617 87.5161C45.0185 87.5236 41.4316 89.0178 38.79 91.67C36.1484 94.3222 34.6687 97.9151 34.6762 101.658C34.6837 105.402 36.1778 108.988 38.83 111.63L65.61 138.47L92.37 111.63C93.7275 110.335 94.8132 108.782 95.5636 107.062C96.3141 105.342 96.7142 103.49 96.7406 101.614C96.767 99.7373 96.4192 97.8747 95.7175 96.1344C95.0158 94.3941 93.9742 92.8112 92.6537 91.4781C91.3332 90.1449 89.7603 89.0884 88.0268 88.3701C86.2933 87.6519 84.434 87.2864 82.5576 87.2949C80.6812 87.3035 78.8253 87.686 77.0984 88.42C75.3715 89.154 73.8083 90.2249 72.5 91.57ZM143.56 0H43.23C39.3258 0.0122831 35.5703 1.4984 32.7149 4.16099C29.8595 6.82357 28.1148 10.4662 27.83 14.36H131.56C134.952 14.36 138.205 15.7075 140.604 18.1061C143.002 20.5047 144.35 23.7579 144.35 27.15V169.25C144.351 169.541 144.311 169.83 144.23 170.11C148.205 169.925 151.957 168.217 154.707 165.341C157.457 162.464 158.994 158.64 159 154.66V15.49C159 11.3904 157.375 7.45806 154.481 4.55456C151.587 1.65105 147.66 0.0132329 143.56 0ZM115.79 27.63L30.87 27.85H15.44C11.3415 27.8553 7.4128 29.4878 4.51752 32.3887C1.62225 35.2896 -0.00265123 39.2215 3.2472e-06 43.32V182.49C-0.00265123 186.589 1.62225 190.52 4.51752 193.421C7.4128 196.322 11.3415 197.955 15.44 197.96H115.77C119.867 197.952 123.793 196.318 126.686 193.418C129.579 190.517 131.203 186.587 131.2 182.49V167.05V43.11C131.197 39.0156 129.574 35.0888 126.684 32.188C123.795 29.2873 119.874 27.6485 115.78 27.63H115.79ZM115.74 179.94C115.737 180.621 115.466 181.273 114.984 181.754C114.503 182.236 113.851 182.507 113.17 182.51H18.01C17.3292 182.507 16.677 182.236 16.1956 181.754C15.7142 181.273 15.4426 180.621 15.44 179.94V45.89C15.4426 45.2092 15.7142 44.557 16.1956 44.0756C16.677 43.5942 17.3292 43.3226 18.01 43.32H113.22C113.901 43.3226 114.553 43.5942 115.034 44.0756C115.516 44.557 115.787 45.2092 115.79 45.89L115.74 179.94Z" fill="#AD52F2"/>
</g>
<defs>
<clipPath id="clip0">
<rect width="159" height="197.98" fill="white"/>
</clipPath>
</defs>
</svg>
