<svg id="Слой_1" data-name="Слой 1" xmlns="http://www.w3.org/2000/svg" viewBox="0 0 496 496"><defs><style>.cls-1{fill:#a04af6;}</style></defs><title>bet_on_numbers</title><path class="cls-1" d="M256,304V286.53A23.94,23.94,0,0,0,248,240a8,8,0,1,1,8-8h16a24,24,0,0,0-16-22.53V192H240v17.47A23.94,23.94,0,0,0,248,256a8,8,0,1,1-8,8H224a24,24,0,0,0,16,22.53V304Z"/><path class="cls-1" d="M336,248a88,88,0,1,0-88,88A88.1,88.1,0,0,0,336,248Zm-160,0a72,72,0,1,1,72,72A72.08,72.08,0,0,1,176,248Z"/><path class="cls-1" d="M120,144a8,8,0,0,1-8-8H96a24,24,0,0,0,16,22.53V176h16V158.53A23.94,23.94,0,0,0,120,112a8,8,0,1,1,8-8h16a24,24,0,0,0-16-22.53V64H112V81.47A23.94,23.94,0,0,0,120,128a8,8,0,0,1,0,16Z"/><path class="cls-1" d="M120,208a88,88,0,1,0-88-88A88.1,88.1,0,0,0,120,208Zm0-160a72,72,0,1,1-72,72A72.08,72.08,0,0,1,120,48Z"/><path class="cls-1" d="M376,352a8,8,0,0,1,8,8h16a24,24,0,0,0-16-22.53V320H368v17.47A23.94,23.94,0,0,0,376,384a8,8,0,1,1-8,8H352a24,24,0,0,0,16,22.53V432h16V414.53A23.94,23.94,0,0,0,376,368a8,8,0,0,1,0-16Z"/><path class="cls-1" d="M376,288a88,88,0,1,0,88,88A88.1,88.1,0,0,0,376,288Zm0,160a72,72,0,1,1,72-72A72.08,72.08,0,0,1,376,448Z"/><path class="cls-1" d="M472,0H24A24,24,0,0,0,0,24V472a24,24,0,0,0,24,24H472a24,24,0,0,0,24-24V24A24,24,0,0,0,472,0Zm8,472a8,8,0,0,1-8,8H24a8,8,0,0,1-8-8V24a8,8,0,0,1,8-8H472a8,8,0,0,1,8,8Z"/><path class="cls-1" d="M304,32H240V96h64ZM288,80H256V48h32Z"/><path class="cls-1" d="M384,32H320V96h64ZM368,80H336V48h32Z"/><path class="cls-1" d="M400,96h64V32H400Zm16-48h32V80H416Z"/><path class="cls-1" d="M400,176h64V112H400Zm16-48h32v32H416Z"/><path class="cls-1" d="M384,112H320v64h64Zm-16,48H336V128h32Z"/><path class="cls-1" d="M32,296H96V232H32Zm16-48H80v32H48Z"/><path class="cls-1" d="M400,256h64V192H400Zm16-48h32v32H416Z"/><path class="cls-1" d="M32,464H96V400H32Zm16-48H80v32H48Z"/><path class="cls-1" d="M32,384H96V320H32Zm16-48H80v32H48Z"/><path class="cls-1" d="M112,464h64V400H112Zm16-48h32v32H128Z"/><path class="cls-1" d="M112,384h64V320H112Zm16-48h32v32H128Z"/><path class="cls-1" d="M192,464h64V400H192Zm16-48h32v32H208Z"/></svg>