<svg width="197" height="199" viewBox="0 0 197 199" fill="none" xmlns="http://www.w3.org/2000/svg">
<g clip-path="url(#clip0)">
<path d="M184.16 73.09H147.79C145.722 73.09 143.738 73.9118 142.275 75.3746C140.812 76.8374 139.99 78.8213 139.99 80.89V117.25C139.99 118.274 140.192 119.289 140.584 120.235C140.976 121.181 141.55 122.041 142.275 122.765C142.999 123.49 143.859 124.064 144.805 124.456C145.752 124.848 146.766 125.05 147.79 125.05H184.19C185.215 125.05 186.23 124.848 187.177 124.455C188.124 124.063 188.985 123.487 189.709 122.762C190.434 122.037 191.008 121.176 191.399 120.228C191.791 119.281 191.992 118.265 191.99 117.24V80.88C191.989 79.854 191.785 78.8384 191.391 77.8912C190.996 76.9441 190.419 76.0841 189.692 75.3604C188.964 74.6368 188.101 74.0638 187.152 73.6742C186.203 73.2846 185.186 73.0861 184.16 73.09Z" fill="#AD52F2"/>
<path d="M184.14 6.19H147.79C143.482 6.19 139.99 9.68218 139.99 13.99V50.35C139.99 54.6578 143.482 58.15 147.79 58.15H184.14C188.448 58.15 191.94 54.6578 191.94 50.35V13.99C191.94 9.68218 188.448 6.19 184.14 6.19Z" fill="#AD52F2"/>
<path d="M117.25 139.99H80.8898C76.582 139.99 73.0898 143.482 73.0898 147.79V184.19C73.0898 188.498 76.582 191.99 80.8898 191.99H117.25C121.558 191.99 125.05 188.498 125.05 184.19V147.79C125.05 143.482 121.558 139.99 117.25 139.99Z" fill="#AD52F2"/>
<path d="M117.25 6.19H80.8898C76.582 6.19 73.0898 9.68218 73.0898 13.99V50.35C73.0898 54.6578 76.582 58.15 80.8898 58.15H117.25C121.558 58.15 125.05 54.6578 125.05 50.35V13.99C125.05 9.68218 121.558 6.19 117.25 6.19Z" fill="#AD52F2"/>
<path d="M50.3399 73.09H13.9899C9.68212 73.09 6.18994 76.5821 6.18994 80.89V117.25C6.18994 121.558 9.68212 125.05 13.9899 125.05H50.3399C54.6478 125.05 58.1399 121.558 58.1399 117.25V80.89C58.1399 76.5821 54.6478 73.09 50.3399 73.09Z" fill="#AD52F2"/>
<path d="M50.3399 139.99H13.9899C9.68212 139.99 6.18994 143.482 6.18994 147.79V184.19C6.18994 188.498 9.68212 191.99 13.9899 191.99H50.3399C54.6478 191.99 58.1399 188.498 58.1399 184.19V147.79C58.1399 143.482 54.6478 139.99 50.3399 139.99Z" fill="#AD52F2"/>
<path d="M41.2199 25.83C40.4814 26.4836 39.8112 27.2107 39.2199 28C38.6463 28.8056 38.1252 29.6474 37.6599 30.52C38.0312 30.3693 38.4164 30.2554 38.8099 30.18C39.2009 30.0961 39.6001 30.0558 39.9999 30.06C40.5499 30.0924 41.0956 30.1761 41.6299 30.31C42.1641 30.4607 42.6804 30.6685 43.1699 30.93C43.8675 31.2818 44.4426 31.836 44.8199 32.52C45.1849 33.2018 45.4093 33.9499 45.4799 34.72C45.5527 35.5107 45.4953 36.3079 45.3099 37.08C45.1436 37.814 44.8599 38.5163 44.4699 39.16C43.9883 39.955 43.262 40.5725 42.3999 40.92C41.5549 41.2674 40.6533 41.4572 39.7399 41.48C38.7969 41.518 37.8581 41.333 36.9999 40.94C35.9848 40.5049 35.1168 39.7862 34.4999 38.87C33.8336 37.9344 33.4077 36.8491 33.2599 35.71C33.1162 34.6043 33.1568 33.4825 33.3799 32.39C33.6134 31.2666 33.9898 30.1778 34.4999 29.15C35.0061 28.1251 35.5982 27.1449 36.2699 26.22C36.6399 25.7 37.0599 25.16 37.5199 24.61C37.9489 24.0826 38.4467 23.6151 38.9999 23.22C39.1835 23.0731 39.3957 22.966 39.623 22.9058C39.8503 22.8455 40.0877 22.8333 40.3199 22.87C40.7101 22.9487 41.0624 23.1565 41.3199 23.46C41.5822 23.7739 41.724 24.171 41.7199 24.58C41.7273 24.8116 41.6867 25.0422 41.6006 25.2573C41.5146 25.4724 41.385 25.6674 41.2199 25.83ZM36.8699 35.22C36.8076 35.3243 36.7301 35.4187 36.6399 35.5L36.7199 35.76C36.7199 35.87 36.7999 35.97 36.8299 36.07C36.8567 36.1354 36.8801 36.2022 36.8999 36.27C36.8999 36.27 36.8999 36.27 36.8299 36.19C36.9595 36.4533 37.1318 36.6932 37.3399 36.9C37.5379 37.1104 37.7556 37.3012 37.9899 37.47C38.1445 37.5866 38.3084 37.6903 38.4799 37.78C38.6587 37.8752 38.8509 37.9426 39.0499 37.98C39.4217 38.0286 39.7982 38.0286 40.1699 37.98C40.5587 37.9423 40.9293 37.7968 41.2399 37.56C41.5104 37.38 41.7197 37.1219 41.8399 36.82C41.9754 36.5025 42.0566 36.1644 42.0799 35.82C42.0983 35.4578 42.0509 35.0953 41.9399 34.75C41.8517 34.4343 41.6663 34.1544 41.4099 33.95C41.16 33.7508 40.8645 33.6168 40.5499 33.56C40.2382 33.5152 39.9217 33.5152 39.6099 33.56C39.1407 33.6042 38.6885 33.7584 38.2899 34.01C38.0085 34.16 37.7493 34.3485 37.5199 34.57C37.2919 34.775 37.0749 34.992 36.8699 35.22Z" fill="#AD52F2"/>
<path d="M25.9102 40.22C25.7935 40.5373 25.5888 40.8148 25.3202 41.02C25.0802 41.205 24.7988 41.3286 24.5002 41.38C24.2056 41.4284 23.9034 41.3902 23.6302 41.27C23.3217 41.1311 23.0633 40.9007 22.8902 40.61C22.6485 40.2637 22.5516 39.8367 22.6202 39.42C22.6902 38.98 22.7502 38.58 22.8102 38.23C23.1627 36.1126 23.7255 34.0357 24.4902 32.03C25.2493 30.0252 26.2571 28.1236 27.4902 26.37H20.5902C20.1474 26.3942 19.7128 26.2433 19.3802 25.95C19.0911 25.6896 18.9034 25.3354 18.8502 24.95C18.7854 24.535 18.8747 24.1106 19.1013 23.7569C19.3279 23.4032 19.6761 23.1446 20.0802 23.03C20.2885 22.9712 20.5038 22.9409 20.7202 22.94H26.0002C27.7302 22.94 29.4702 22.94 31.2302 22.94C31.4215 22.944 31.6097 22.9889 31.7822 23.0717C31.9547 23.1545 32.1074 23.2732 32.2302 23.42C32.5023 23.6893 32.6781 24.0407 32.7302 24.42C32.7561 24.6695 32.7323 24.9217 32.6602 25.162C32.5881 25.4023 32.4691 25.6259 32.3102 25.82C31.9902 26.2 31.6702 26.58 31.3102 26.97C30.9502 27.36 30.6602 27.88 30.3102 28.36C29.9602 28.84 29.7302 29.36 29.4402 29.81C28.5431 31.4051 27.7933 33.0787 27.2002 34.81C26.622 36.511 26.2199 38.2669 26.0002 40.05L25.9102 40.22Z" fill="#AD52F2"/>
<path d="M32.17 0C25.8074 0 19.5877 1.88674 14.2973 5.42162C9.00699 8.95651 4.88368 13.9808 2.44881 19.8591C0.0139389 25.7374 -0.623135 32.2057 0.618152 38.4461C1.85944 44.6864 4.92333 50.4186 9.42239 54.9176C13.9214 59.4167 19.6536 62.4806 25.894 63.7219C32.1343 64.9632 38.6026 64.3261 44.4809 61.8912C50.3592 59.4563 55.3835 55.333 58.9184 50.0427C62.4533 44.7524 64.34 38.5326 64.34 32.17C64.34 27.9454 63.5079 23.7621 61.8912 19.8591C60.2745 15.956 57.9049 12.4096 54.9176 9.42237C51.9304 6.43511 48.384 4.06549 44.4809 2.4488C40.5779 0.832101 36.3946 0 32.17 0ZM32.17 55C27.6405 55.0099 23.21 53.6751 19.4398 51.1649C15.6695 48.6546 12.7292 45.0817 10.9913 40.8989C9.25335 36.7161 8.79603 32.1116 9.67727 27.6686C10.5585 23.2257 12.7386 19.1443 15.9415 15.9415C19.1443 12.7386 23.2257 10.5585 27.6686 9.67725C32.1116 8.79602 36.7161 9.25333 40.8989 10.9913C45.0817 12.7292 48.6546 15.6695 51.1649 19.4398C53.6752 23.21 55.0099 27.6405 55 32.17C54.9974 38.2278 52.5925 44.0373 48.3128 48.3245C44.033 52.6117 38.2278 55.0268 32.17 55.04V55Z" fill="#AD52F2"/>
<path d="M32.1701 12.11C28.2022 12.108 24.3228 13.2828 21.0226 15.4858C17.7225 17.6889 15.1498 20.8211 13.63 24.4864C12.1101 28.1517 11.7114 32.1854 12.4843 36.0774C13.2572 39.9693 15.167 43.5446 17.972 46.351C20.7771 49.1575 24.3514 51.069 28.2429 51.8438C32.1344 52.6186 36.1684 52.222 39.8344 50.704C43.5005 49.186 46.634 46.6148 48.8387 43.3158C51.0434 40.0167 52.2201 36.1379 52.2201 32.17C52.2201 26.8515 50.108 21.7507 46.3482 17.989C42.5884 14.2273 37.4886 12.1126 32.1701 12.11ZM32.1701 49.66C28.7109 49.66 25.3294 48.6342 22.4532 46.7124C19.577 44.7906 17.3352 42.059 16.0115 38.8631C14.6877 35.6672 14.3413 32.1506 15.0162 28.7579C15.691 25.3651 17.3568 22.2487 19.8028 19.8027C22.2488 17.3567 25.3652 15.6909 28.758 15.0161C32.1507 14.3412 35.6674 14.6876 38.8632 16.0113C42.0591 17.3351 44.7907 19.5768 46.7125 22.4531C48.6343 25.3293 49.6601 28.7108 49.6601 32.17C49.6575 36.8069 47.8136 41.253 44.5339 44.5308C41.2541 47.8087 36.807 49.65 32.1701 49.65V49.66Z" fill="#AD52F2"/>
<path d="M158.68 170.7C158.66 170.367 158.66 170.033 158.68 169.7C158.676 169.243 158.768 168.79 158.95 168.37C159.132 167.952 159.368 167.559 159.65 167.2C159.933 166.836 160.251 166.501 160.6 166.2C160.944 165.897 161.312 165.623 161.7 165.38C161.376 165.094 161.072 164.787 160.79 164.46C160.5 164.118 160.249 163.746 160.04 163.35C159.493 162.507 159.259 161.498 159.38 160.5C159.519 159.682 159.919 158.932 160.52 158.36C161.183 157.749 161.976 157.298 162.84 157.04C163.753 156.745 164.711 156.613 165.67 156.65C166.601 156.68 167.516 156.897 168.36 157.29C169.178 157.656 169.853 158.281 170.28 159.07C170.459 159.396 170.561 159.759 170.58 160.13C170.58 160.51 170.58 160.88 170.58 161.22C170.561 161.58 170.497 161.936 170.39 162.28C170.282 162.629 170.134 162.965 169.95 163.28C169.689 163.747 169.351 164.166 168.95 164.52C168.53 164.873 168.103 165.207 167.67 165.52L169.05 166.52C169.518 166.859 169.921 167.279 170.24 167.76C170.675 168.39 170.947 169.119 171.03 169.88C171.085 170.54 170.975 171.203 170.71 171.81C170.433 172.431 170.027 172.987 169.52 173.44C168.951 173.949 168.302 174.361 167.6 174.66C166.963 174.936 166.289 175.118 165.6 175.2C164.867 175.299 164.123 175.299 163.39 175.2C162.668 175.095 161.966 174.88 161.31 174.56C160.67 174.255 160.104 173.815 159.65 173.27C159.345 172.918 159.126 172.501 159.01 172.05C158.861 171.61 158.751 171.159 158.68 170.7ZM164.53 167.38C164.078 167.684 163.647 168.018 163.24 168.38C162.834 168.731 162.48 169.139 162.19 169.59C162.18 169.656 162.153 169.719 162.11 169.77C162.032 169.967 162.001 170.179 162.02 170.39C162.02 170.48 162.02 170.58 162.02 170.69C162.038 170.82 162.071 170.948 162.12 171.07C162.426 171.551 162.894 171.905 163.44 172.07C163.981 172.233 164.553 172.268 165.11 172.17C165.663 172.073 166.185 171.843 166.63 171.5C167.078 171.171 167.405 170.704 167.56 170.17C167.483 169.849 167.324 169.553 167.1 169.31C166.859 169.043 166.591 168.802 166.3 168.59C166 168.371 165.69 168.168 165.37 167.98L164.53 167.38ZM162.76 160.96C162.725 161.057 162.725 161.163 162.76 161.26C162.76 161.35 162.81 161.45 162.85 161.56C163.099 161.954 163.391 162.32 163.72 162.65C164.05 162.98 164.41 163.3 164.78 163.65C165.217 163.36 165.637 163.046 166.04 162.71C166.445 162.362 166.801 161.962 167.1 161.52C167.154 161.376 167.201 161.229 167.24 161.08C167.245 160.913 167.218 160.747 167.16 160.59C166.884 160.315 166.538 160.122 166.16 160.03C165.755 159.927 165.336 159.89 164.92 159.92C164.501 159.944 164.091 160.046 163.71 160.22C163.361 160.369 163.053 160.599 162.81 160.89C162.79 160.907 162.773 160.928 162.76 160.95V160.96Z" fill="#AD52F2"/>
<path d="M164.83 133.82C158.468 133.82 152.248 135.707 146.957 139.242C141.667 142.777 137.544 147.801 135.109 153.679C132.674 159.557 132.037 166.026 133.278 172.266C134.52 178.506 137.583 184.239 142.083 188.738C146.582 193.237 152.314 196.301 158.554 197.542C164.794 198.783 171.263 198.146 177.141 195.711C183.019 193.276 188.044 189.153 191.579 183.863C195.113 178.572 197 172.353 197 165.99C197 157.458 193.611 149.275 187.578 143.242C181.545 137.209 173.362 133.82 164.83 133.82ZM164.83 188.82C160.305 188.82 155.881 187.478 152.119 184.964C148.356 182.45 145.424 178.877 143.692 174.696C141.96 170.515 141.507 165.915 142.39 161.476C143.273 157.038 145.452 152.961 148.652 149.761C151.851 146.562 155.928 144.382 160.367 143.5C164.805 142.617 169.405 143.07 173.586 144.802C177.767 146.533 181.34 149.466 183.854 153.229C186.368 156.991 187.71 161.415 187.71 165.94C187.717 168.949 187.13 171.929 185.983 174.711C184.836 177.493 183.152 180.021 181.026 182.151C178.901 184.281 176.377 185.971 173.598 187.124C170.818 188.277 167.839 188.87 164.83 188.87V188.82Z" fill="#AD52F2"/>
<path d="M164.83 145.93C160.863 145.93 156.984 147.106 153.685 149.311C150.386 151.515 147.815 154.648 146.297 158.313C144.779 161.979 144.381 166.012 145.155 169.904C145.929 173.795 147.84 177.369 150.645 180.175C153.451 182.98 157.025 184.891 160.917 185.665C164.808 186.439 168.841 186.041 172.507 184.523C176.172 183.005 179.305 180.434 181.509 177.135C183.714 173.836 184.89 169.957 184.89 165.99C184.89 160.67 182.777 155.567 179.015 151.805C175.253 148.043 170.15 145.93 164.83 145.93ZM164.83 183.48C161.37 183.48 157.989 182.454 155.112 180.532C152.236 178.609 149.994 175.877 148.67 172.681C147.347 169.484 147.001 165.967 147.677 162.574C148.353 159.181 150.019 156.065 152.466 153.619C154.913 151.174 158.031 149.509 161.424 148.835C164.817 148.161 168.334 148.509 171.53 149.834C174.726 151.16 177.457 153.403 179.377 156.28C181.298 159.158 182.322 162.54 182.32 166C182.325 168.3 181.877 170.578 181 172.704C180.123 174.83 178.836 176.762 177.211 178.39C175.586 180.017 173.656 181.308 171.532 182.188C169.407 183.069 167.13 183.521 164.83 183.52V183.48Z" fill="#AD52F2"/>
<path d="M93.1898 94.34C92.8698 93.6733 92.4698 93.34 91.9898 93.34C91.3929 93.3479 90.8143 93.5478 90.3398 93.91C89.9789 94.1326 89.6436 94.3942 89.3398 94.69C89.0254 95.0048 88.6765 95.2832 88.2998 95.52C87.9597 95.7297 87.5693 95.8437 87.1698 95.85C86.9409 95.8258 86.7205 95.7503 86.5248 95.6291C86.3292 95.5079 86.1634 95.3442 86.0398 95.15C85.8943 94.9899 85.7878 94.7982 85.7288 94.59C85.6698 94.3818 85.6599 94.1627 85.6998 93.95C85.7868 93.5265 85.9718 93.1292 86.2398 92.79C86.528 92.4144 86.8642 92.0782 87.2398 91.79C87.6198 91.49 87.9398 91.25 88.2398 91.06C88.8501 90.6241 89.525 90.2867 90.2398 90.06C90.9392 89.8311 91.6748 89.7328 92.4098 89.77C93.1149 89.807 93.8008 90.0128 94.4098 90.37C95.0736 90.7782 95.6104 91.3635 95.9598 92.06C96.3359 92.7477 96.5896 93.4955 96.7098 94.27C96.8237 94.9951 96.7966 95.7353 96.6298 96.45C96.4556 97.163 96.1578 97.8399 95.7498 98.45C95.3146 99.1056 94.762 99.6752 94.1198 100.13C93.6865 100.445 93.2358 100.736 92.7698 101C92.2749 101.281 91.7974 101.592 91.3398 101.93C90.8952 102.252 90.4921 102.629 90.1398 103.05C89.7845 103.475 89.5466 103.985 89.4498 104.53C89.6498 104.53 89.9598 104.53 90.3598 104.59C90.7598 104.65 91.1998 104.65 91.6698 104.67C92.1627 104.699 92.6569 104.699 93.1498 104.67C93.6181 104.642 94.0814 104.558 94.5298 104.42C94.4795 104.474 94.4224 104.521 94.3598 104.56L95.1598 103.79C95.2981 103.676 95.4581 103.592 95.63 103.542C95.8019 103.492 95.9822 103.478 96.1598 103.5C96.4693 103.517 96.766 103.629 97.0098 103.82C97.2577 104.006 97.4567 104.25 97.5898 104.53C97.7203 104.815 97.782 105.127 97.7698 105.44C97.7606 105.765 97.6366 106.077 97.4198 106.32C97.009 106.811 96.531 107.242 95.9998 107.6C95.4516 107.961 94.8061 108.146 94.1498 108.13H87.5098C87.0968 108.137 86.6964 107.987 86.3898 107.71C86.0825 107.451 85.8655 107.101 85.7698 106.71C85.692 106.381 85.692 106.039 85.7698 105.71C85.8398 105.39 85.8898 105.08 85.9198 104.76C86.0153 104.055 86.1828 103.361 86.4198 102.69C86.6342 102.094 86.9268 101.529 87.2898 101.01C87.6547 100.499 88.0813 100.036 88.5598 99.63C89.0996 99.178 89.6748 98.7701 90.2798 98.41C90.5798 98.24 90.9398 98.02 91.3698 97.74C91.7936 97.4483 92.1857 97.1132 92.5398 96.74C92.8765 96.4129 93.1391 96.0173 93.3098 95.58C93.3785 95.3766 93.4034 95.1609 93.3827 94.9472C93.362 94.7334 93.2963 94.5265 93.1898 94.34Z" fill="#AD52F2"/>
<path d="M101.69 106.12C101.491 105.82 101.368 105.477 101.33 105.12C101.279 104.78 101.328 104.433 101.47 104.12C101.601 103.829 101.822 103.587 102.1 103.43C102.407 103.268 102.755 103.202 103.1 103.24C103.522 103.268 103.925 103.429 104.25 103.7C104.57 103.97 104.89 104.22 105.25 104.46C105.549 104.681 105.889 104.841 106.25 104.93C106.739 104.988 107.231 104.851 107.62 104.55C107.744 104.466 107.858 104.369 107.96 104.26L108.24 103.94C108.335 103.821 108.418 103.694 108.49 103.56C108.559 103.432 108.616 103.298 108.66 103.16C108.763 102.872 108.837 102.573 108.88 102.27C108.917 101.971 108.917 101.669 108.88 101.37C108.671 100.932 108.318 100.579 107.88 100.37C107.457 100.202 107.013 100.095 106.56 100.05L105.2 99.89C104.773 99.8509 104.37 99.6756 104.05 99.39C103.786 99.1773 103.603 98.881 103.53 98.55C103.464 98.247 103.485 97.9317 103.59 97.64C103.698 97.3422 103.88 97.0771 104.12 96.87C104.376 96.6438 104.692 96.4977 105.03 96.45C105.31 96.39 105.613 96.34 105.94 96.3C106.256 96.2556 106.567 96.182 106.87 96.08C107.166 95.9779 107.448 95.8403 107.71 95.67C107.973 95.4998 108.192 95.2703 108.35 95C108.363 94.8002 108.363 94.5998 108.35 94.4C108.336 94.2011 108.282 94.0071 108.19 93.83C107.96 93.6427 107.683 93.5217 107.39 93.48C107.03 93.4153 106.665 93.3884 106.3 93.4C105.936 93.4061 105.575 93.4497 105.22 93.53C104.942 93.5855 104.671 93.6693 104.41 93.78C104.257 93.9646 104.067 94.1157 103.853 94.2236C103.639 94.3315 103.405 94.394 103.166 94.4072C102.926 94.4203 102.686 94.3838 102.462 94.3C102.237 94.2161 102.032 94.0868 101.86 93.92C101.541 93.6251 101.333 93.2298 101.27 92.8C101.232 92.5833 101.248 92.3608 101.316 92.1516C101.384 91.9425 101.502 91.7531 101.66 91.6C101.91 91.3137 102.207 91.0734 102.54 90.89C102.883 90.7083 103.246 90.5641 103.62 90.46C104.598 90.1942 105.606 90.0564 106.62 90.05C107.629 90.0324 108.627 90.2697 109.52 90.74C110.198 91.0645 110.768 91.5785 111.16 92.22C111.521 92.828 111.73 93.514 111.77 94.22C111.815 94.9185 111.706 95.6185 111.45 96.27C111.187 96.9539 110.778 97.5719 110.25 98.08C110.872 98.4947 111.392 99.0452 111.77 99.69C112.104 100.265 112.321 100.901 112.41 101.56C112.5 102.228 112.462 102.906 112.3 103.56C112.141 104.221 111.87 104.85 111.5 105.42C111.115 106.011 110.647 106.543 110.11 107C109.557 107.478 108.929 107.86 108.25 108.13C107.693 108.365 107.094 108.481 106.49 108.47C105.914 108.451 105.345 108.347 104.8 108.16C104.237 107.971 103.699 107.712 103.2 107.39C102.692 107.069 102.21 106.708 101.76 106.31L101.69 106.12Z" fill="#AD52F2"/>
<path d="M99.0699 66.9C92.7073 66.9 86.4876 68.7868 81.1972 72.3216C75.9069 75.8565 71.7836 80.8808 69.3487 86.7591C66.9138 92.6374 66.2768 99.1057 67.5181 105.346C68.7593 111.586 71.8232 117.319 76.3223 121.818C80.8213 126.317 86.5535 129.381 92.7939 130.622C99.0342 131.863 105.503 131.226 111.381 128.791C117.259 126.356 122.283 122.233 125.818 116.943C129.353 111.652 131.24 105.433 131.24 99.07C131.24 94.8454 130.408 90.6621 128.791 86.7591C127.174 82.8561 124.805 79.3097 121.818 76.3224C118.83 73.3351 115.284 70.9655 111.381 69.3488C107.478 67.7321 103.295 66.9 99.0699 66.9ZM99.0699 121.9C94.5447 121.9 90.1211 120.558 86.3585 118.044C82.5959 115.53 79.6633 111.957 77.9316 107.776C76.1998 103.595 75.7467 98.9946 76.6295 94.5564C77.5124 90.1181 79.6915 86.0412 82.8913 82.8414C86.0911 79.6416 90.168 77.4625 94.6063 76.5797C99.0445 75.6968 103.645 76.1499 107.826 77.8817C112.006 79.6134 115.58 82.546 118.094 86.3086C120.608 90.0712 121.95 94.4948 121.95 99.02C121.956 102.029 121.37 105.009 120.223 107.791C119.076 110.573 117.391 113.101 115.266 115.231C113.141 117.361 110.616 119.051 107.837 120.204C105.058 121.357 102.079 121.95 99.0699 121.95V121.9Z" fill="#AD52F2"/>
<path d="M99.0698 79.01C95.1023 79.01 91.2239 80.1865 87.925 82.3907C84.6262 84.595 82.055 87.7279 80.5368 91.3934C79.0185 95.0589 78.6212 99.0923 79.3952 102.984C80.1692 106.875 82.0798 110.449 84.8852 113.255C87.6907 116.06 91.265 117.971 95.1563 118.745C99.0475 119.519 103.081 119.121 106.746 117.603C110.412 116.085 113.545 113.514 115.749 110.215C117.953 106.916 119.13 103.038 119.13 99.07C119.13 93.7498 117.016 88.6474 113.254 84.8855C109.492 81.1235 104.39 79.01 99.0698 79.01ZM99.0698 116.56C95.6106 116.56 92.2291 115.534 89.3528 113.612C86.4766 111.691 84.2349 108.959 82.9111 105.763C81.5873 102.567 81.241 99.0506 81.9158 95.6579C82.5907 92.2652 84.2565 89.1487 86.7025 86.7027C89.1485 84.2567 92.2649 82.5909 95.6576 81.9161C99.0504 81.2412 102.567 81.5876 105.763 82.9114C108.959 84.2351 111.69 86.4769 113.612 89.3531C115.534 92.2293 116.56 95.6108 116.56 99.07C116.549 103.702 114.702 108.14 111.423 111.411C108.144 114.683 103.701 116.52 99.0698 116.52V116.56Z" fill="#AD52F2"/>
</g>
<defs>
<clipPath id="clip0">
<rect width="197" height="198.16" fill="white"/>
</clipPath>
</defs>
</svg>
