<svg width="271" height="221" viewBox="0 0 271 221" fill="none" xmlns="http://www.w3.org/2000/svg">
<path fill-rule="evenodd" clip-rule="evenodd" d="M178.669 39.2921H193.757C201.223 39.2921 207.275 45.2089 207.275 52.5074V72.3306C207.275 75.9803 204.249 78.9387 200.516 78.9387H6.75902C3.0261 78.9387 0 75.9796 0 72.3306V52.5074C0 45.2089 6.05187 39.2921 13.5177 39.2921H28.5624C26.5726 36.2146 25.2598 32.7595 24.8848 29.1069C23.6847 17.4254 29.9793 6.94949 40.6904 2.30615C50.5338 -1.95902 61.5963 -0.221248 69.5783 6.84511L88.654 23.747C92.3653 19.7674 97.7074 17.2663 103.637 17.2663C109.557 17.2663 114.891 19.7597 118.601 23.7268L137.652 6.84703C145.621 -0.219327 156.688 -1.96382 166.536 2.30391C177.25 6.94661 183.544 17.419 182.347 29.1012C181.973 32.7567 180.659 36.213 178.669 39.2921ZM83.3603 39.2921V37.0894C83.3603 37.0241 83.3649 36.96 83.3662 36.8947L60.5056 16.638C56.358 12.9681 50.8878 12.2518 45.9499 14.483C42.3536 16.1081 39.5731 19.3182 38.6492 23.0841C36.5506 31.6353 43.1626 39.2921 51.5635 39.2921H83.3603ZM155.042 39.2928C162.085 39.2928 168.431 34.2146 168.934 27.3468C169.404 20.9371 165.63 15.5932 159.202 13.719C154.723 12.4129 149.878 13.8452 146.415 16.9137L123.909 36.8573L123.909 36.8918L123.911 36.9604C123.913 37.0036 123.914 37.0468 123.914 37.0904V39.2928H155.042ZM13.5177 189.068V92.154H90.119V202.284H27.0354C19.5696 202.284 13.5177 196.367 13.5177 189.068ZM150.048 158.429C150.811 159.497 150.756 160.244 150.048 161.312C146.729 166.224 143.463 171.136 140.307 176.1C137.259 180.905 139.164 186.458 144.552 188.486C150.158 190.622 155.709 192.704 161.314 194.733C162.512 195.16 162.893 195.747 162.947 196.922C163.035 198.709 163.156 200.496 163.279 202.283H117.155V92.154H193.757V101.679C193.106 102.07 192.406 102.069 191.466 101.785C187.863 100.771 184.237 99.8249 181.047 98.9927L181.036 98.9898L181.023 98.9863C179.355 98.5511 177.807 98.1477 176.445 97.7813C168.716 95.9664 164.199 99.0628 163.764 105.256C163.328 111.075 163.111 116.841 162.893 122.66C162.838 123.888 162.403 124.422 161.314 124.849C155.763 126.877 150.212 128.959 144.715 131.095C139 133.337 137.204 138.836 140.579 143.908C143.572 148.82 146.783 153.624 150.048 158.429ZM164.782 161.524C164.731 161.257 164.598 160.98 164.376 160.668C161.823 156.903 159.312 153.139 156.972 149.29C154.334 145.316 155.738 141.008 160.206 139.251C162.204 138.472 164.212 137.704 166.224 136.943C168.539 136.069 170.862 135.207 173.184 134.356C174.035 134.022 174.375 133.603 174.418 132.641C174.588 128.081 174.758 123.564 175.099 119.004C175.439 114.151 178.97 111.725 185.013 113.147C186.083 113.436 187.299 113.754 188.609 114.096C191.103 114.748 193.939 115.49 196.757 116.285C197.863 116.62 198.544 116.452 199.309 115.49C201.35 112.857 203.462 110.294 205.575 107.732C206.281 106.875 206.988 106.017 207.692 105.158C210.841 101.351 215.521 101.351 218.627 105.158L219.36 106.04C221.973 109.183 224.612 112.358 227.18 115.532C227.818 116.285 228.329 116.536 229.35 116.243C232.702 115.283 236.079 114.397 239.461 113.509C240.502 113.236 241.542 112.963 242.583 112.687C247.263 111.474 251.093 114.193 251.348 118.962C251.603 123.438 251.859 127.914 252.071 132.432C252.114 133.394 252.454 133.854 253.348 134.189C257.518 135.695 261.688 137.326 265.9 138.832C270.836 140.589 272.325 144.94 269.474 149.29C267.049 153.013 264.624 156.694 262.156 160.376C261.603 161.212 261.56 161.798 262.156 162.634C263.857 165.116 265.521 167.634 267.185 170.153C268.017 171.413 268.85 172.674 269.687 173.929C272.325 177.945 270.878 182.295 266.326 184.052C262.113 185.684 257.901 187.315 253.646 188.863C252.752 189.198 252.284 189.616 252.242 190.662C252.071 195.221 251.816 199.739 251.561 204.299C251.306 208.942 247.434 211.703 242.838 210.49C238.328 209.318 233.86 208.147 229.392 206.934C228.499 206.683 228.031 206.934 227.477 207.603C224.627 211.159 221.776 214.631 218.883 218.145C215.734 221.952 211.138 221.952 207.947 218.145C206.708 216.679 205.476 215.206 204.252 213.729C202.576 211.707 200.914 209.676 199.267 207.645C198.671 206.934 198.161 206.767 197.31 207.018C195.592 207.503 193.86 207.947 192.128 208.392C189.528 209.06 186.928 209.728 184.374 210.532C179.013 212.205 175.056 208.315 175.099 203.88C175.127 200.98 174.928 198.079 174.73 195.178C174.631 193.728 174.531 192.279 174.46 190.829C174.418 189.909 174.12 189.449 173.184 189.114C168.801 187.524 164.461 185.893 160.079 184.22C155.866 182.63 154.377 178.279 156.76 174.514C159.227 170.624 161.78 166.776 164.376 162.927C164.723 162.402 164.869 161.976 164.782 161.524ZM198.246 175.351C197.778 176.857 197.352 178.363 196.927 179.869C196.373 181.877 196.544 182.379 198.544 183.341C201.054 184.512 203.777 185.14 206.5 185.558C208.67 185.851 208.713 185.977 208.756 188.152C208.798 189.156 208.798 190.118 208.798 191.122C208.798 192.377 209.394 193.088 210.713 193.13C212.202 193.171 213.692 193.171 215.18 193.13C216.372 193.13 217.01 192.46 217.01 191.247C217.01 189.909 217.053 188.528 217.01 187.19C216.968 185.809 217.563 185.14 218.925 184.763C222.031 183.927 224.669 182.254 226.712 179.827C232.328 173.05 230.201 163.136 222.159 158.786C220.001 157.635 217.718 156.701 215.444 155.771C215.072 155.619 214.7 155.467 214.33 155.314C212.798 154.686 211.309 153.933 210.032 152.93C207.479 150.921 207.99 147.701 210.968 146.404C211.819 146.027 212.713 145.902 213.606 145.86C217.095 145.651 220.372 146.278 223.521 147.784C225.052 148.537 225.605 148.286 226.116 146.697C226.407 145.815 226.675 144.922 226.938 144.024C227.174 143.217 227.406 142.405 227.648 141.593C227.988 140.463 227.563 139.669 226.457 139.209C224.457 138.33 222.372 137.703 220.202 137.368C218.772 137.137 218.06 137.023 217.704 136.612C217.351 136.203 217.351 135.502 217.351 134.105C217.329 132.135 217.319 131.152 216.811 130.662C216.305 130.173 215.305 130.173 213.308 130.173H211.564C209.692 130.215 209.351 130.508 209.309 132.39V134.9C209.309 136.118 209.309 136.724 209.017 137.132C208.718 137.551 208.112 137.76 206.883 138.205C201.054 140.296 197.437 144.187 197.054 150.461C196.671 156.025 199.607 159.748 204.245 162.467C207.096 164.14 210.245 165.144 213.266 166.441C214.415 166.943 215.564 167.529 216.542 168.324C219.478 170.666 218.925 174.598 215.479 176.062C213.649 176.857 211.692 177.066 209.692 176.815C206.628 176.439 203.65 175.644 200.884 174.222C199.267 173.385 198.799 173.594 198.246 175.351Z" fill="#AD52F2"/>
</svg>
