<svg width="10" height="11" viewBox="0 0 10 11" fill="none" xmlns="http://www.w3.org/2000/svg">
<path fill-rule="evenodd" clip-rule="evenodd" d="M8.38923 0.782217C8.19393 0.586917 7.87733 0.586917 7.68213 0.782217L5.20703 3.25722L2.73213 0.782316C2.53683 0.587116 2.22033 0.587116 2.02503 0.782316L0.61083 2.19652C0.41553 2.39182 0.41553 2.70842 0.61083 2.90362L3.08573 5.37862L0.611031 7.85322C0.415731 8.04852 0.415731 8.36512 0.611031 8.56042L2.02523 9.97462C2.22053 10.1698 2.53713 10.1698 2.73233 9.97462L5.20703 7.49992L7.68183 9.97472C7.87713 10.17 8.19373 10.17 8.38903 9.97472L9.80323 8.56052C9.99843 8.36522 9.99843 8.04872 9.80323 7.85342L7.32833 5.37862L9.80343 2.90352C9.99873 2.70822 9.99873 2.39172 9.80343 2.19642L8.38923 0.782217Z" fill="white"/>
</svg>
