<svg width="195" height="175" viewBox="0 0 195 175" fill="none" xmlns="http://www.w3.org/2000/svg">
<g clip-path="url(#clip0)">
<path d="M60.4998 43C58.6041 42.6766 56.6587 42.807 54.8231 43.3807C52.9875 43.9543 51.314 44.9547 49.9398 46.3C47.5498 48.91 48.3998 51.65 51.8498 52.43C53.7455 52.7542 55.6911 52.6242 57.5268 52.0505C59.3625 51.4769 61.036 50.476 62.4098 49.13C64.7898 46.5 63.9398 43.76 60.4998 43ZM57.1598 34.22C59.5498 31.61 58.6998 28.87 55.2498 28.09C53.3541 27.7666 51.4087 27.897 49.5731 28.4707C47.7375 29.0443 46.064 30.0447 44.6898 31.39C42.2798 34 43.1598 36.74 46.5798 37.52C48.4786 37.8476 50.4281 37.7192 52.2676 37.1454C54.1071 36.5717 55.7839 35.569 57.1598 34.22ZM53.1598 18.91C55.5498 16.3 54.6998 13.56 51.2498 12.78C49.354 12.4558 47.4084 12.5858 45.5727 13.1595C43.737 13.7331 42.0636 14.7341 40.6898 16.08C38.2998 18.69 39.1598 21.43 42.5998 22.21C44.4955 22.5334 46.4409 22.403 48.2765 21.8294C50.112 21.2558 51.7855 20.2553 53.1598 18.91ZM139.84 69.21C136.37 70.31 135.72 73.21 138.39 75.63C139.919 76.8826 141.722 77.7558 143.653 78.1781C145.584 78.6004 147.588 78.56 149.5 78.06C152.97 76.96 153.62 74.06 150.95 71.64C149.425 70.3936 147.629 69.5241 145.705 69.1019C143.782 68.6797 141.786 68.7167 139.88 69.21H139.84ZM91.2598 62.26L115.86 54.35L103.86 16.35C103.523 15.4107 102.964 14.5665 102.231 13.8893C101.498 13.212 100.613 12.7217 99.6498 12.46L45.6498 0.460014C44.5565 -0.00926125 43.3443 -0.126605 42.1814 0.124265C41.0184 0.375135 39.9623 0.981778 39.1598 1.86001L2.15978 42.59C1.25641 43.3122 0.585207 44.2839 0.229622 45.3845C-0.125962 46.485 -0.15025 47.6658 0.159779 48.78C0.159779 48.78 0.159779 48.84 0.159779 48.86L16.9898 102.28C17.3089 103.267 17.8783 104.154 18.6424 104.855C19.4066 105.556 20.3393 106.047 21.3498 106.28L70.2498 117.13L79.9498 73.27C80.5906 70.5482 81.9955 68.0661 83.9991 66.1156C86.0028 64.1652 88.5218 62.8275 91.2598 62.26ZM60.3198 57.88L8.31978 46.35L43.7498 7.35001L95.7498 18.88L60.3198 57.88ZM192.81 93.2L152.05 55.9C150.05 54.11 148.13 53.11 145.74 53.9L93.3698 70.69C92.2146 70.8734 91.1382 71.3904 90.2729 72.1774C89.4077 72.9645 88.7914 73.9873 88.4998 75.12L76.3998 129.82C76.2158 130.831 76.2798 131.871 76.5864 132.852C76.8929 133.832 77.4328 134.724 78.1598 135.45L118.85 172.69C120.77 174.45 123.03 175.47 125.23 174.77L178.55 157.63C179.481 157.269 180.316 156.697 180.988 155.957C181.66 155.218 182.15 154.332 182.42 153.37L194.51 98.69C194.685 97.7057 194.622 96.6938 194.326 95.7388C194.03 94.7838 193.51 93.9133 192.81 93.2ZM136.16 112.27L97.9198 77.27L146.81 61.56L185.05 96.56L136.16 112.27ZM133.52 95.4C130.05 96.5 129.4 99.4 132.07 101.82C133.597 103.068 135.398 103.937 137.325 104.358C139.252 104.778 141.251 104.738 143.16 104.24C146.63 103.14 147.28 100.24 144.61 97.82C143.086 96.5769 141.29 95.71 139.369 95.2896C137.447 94.8692 135.454 94.907 133.55 95.4H133.52Z" fill="#AD52F2"/>
</g>
<defs>
<clipPath id="clip0">
<rect width="194.65" height="175" fill="white"/>
</clipPath>
</defs>
</svg>
