<svg width="206" height="189" viewBox="0 0 206 189" fill="none" xmlns="http://www.w3.org/2000/svg">
<path fill-rule="evenodd" clip-rule="evenodd" d="M71.7593 15.7638C71.7593 15.7638 72.0035 15.6529 72 15.5035C71.9965 15.358 71.7623 15.2626 71.7623 15.2626L60.7892 11.5233L56.7513 0.256477C56.7513 0.256477 56.631 -0.00971204 56.4886 0.000274109C56.3512 0.00991023 56.2458 0.273693 56.2458 0.273693L52.8083 11.5233L41.2516 15.2585C41.2516 15.2585 41.0075 15.3344 41.0002 15.4986C40.9927 15.667 41.2462 15.7639 41.2462 15.7639L52.8083 19.9441L56.2513 30.7628C56.2513 30.7628 56.363 30.9965 56.4961 31C56.633 31.0035 56.7542 30.7629 56.7542 30.7629L60.7892 20.3873L71.7593 15.7638ZM206 31.5047C206.005 31.7023 205.682 31.849 205.682 31.849L190.661 37.374L185.836 51.6864C185.836 51.6864 185.676 52.0047 185.495 51.9999C185.319 51.9953 185.171 51.6863 185.171 51.6863L180.104 37.374L165.326 31.849C165.326 31.849 164.99 31.7209 165 31.4982C165.01 31.281 165.333 31.1806 165.333 31.1806L180.104 25.7659L185.164 11.362C185.164 11.362 185.303 11.0131 185.485 11.0004C185.673 10.9872 185.832 11.3392 185.832 11.3392L190.661 25.7659L205.686 31.1861C205.686 31.1861 205.995 31.3122 206 31.5047ZM15.155 80.3766L32.0151 43.9941L100.639 32.458L169.263 43.9941L186.124 80.3766L100.639 188.933L15.155 80.3766ZM100.639 49.0222L80.2295 71.5028H100.639H121.049L100.639 49.0222ZM100.639 87.1797H75.7926L100.639 162.016L125.486 87.1797H100.639ZM50.6502 55.5298L84.3705 50.7973L67.2146 71.5028L50.6502 55.5298ZM50.6502 71.5028L40.0016 61.15L35.2688 71.5028H50.6502ZM82.5957 141.31L64.8481 87.1797H40.0016L82.5957 141.31ZM173 152.504C173.004 152.663 172.744 152.781 172.744 152.781L160.579 156.621L156.771 168.748C156.771 168.748 156.642 169.004 156.496 169C156.354 168.996 156.235 168.748 156.235 168.748L152.722 156.621L140.262 152.781C140.262 152.781 139.992 152.678 140 152.499C140.008 152.324 140.268 152.243 140.268 152.243L152.722 147.784L156.229 136.291C156.229 136.291 156.342 136.011 156.488 136C156.639 135.99 156.768 136.273 156.768 136.273L160.579 147.784L172.747 152.247C172.747 152.247 172.996 152.349 173 152.504ZM29.7671 118.255C29.7671 118.255 30.0034 118.148 30 118.003C29.9966 117.863 29.77 117.77 29.77 117.77L19.7377 114.152L15.2432 103.248C15.2432 103.248 15.1268 102.991 14.989 103C14.856 103.01 14.754 103.265 14.754 103.265L10.2979 114.152L0.24346 117.766C0.24346 117.766 0.0072363 117.84 0.000157864 117.999C-0.00709977 118.162 0.238302 118.255 0.238302 118.255L10.2979 121.872L14.7593 132.77C14.7593 132.77 14.8675 132.997 14.9963 133C15.1287 133.003 15.246 132.771 15.246 132.771L19.7377 121.872L29.7671 118.255Z" fill="#AD52F2"/>
</svg>
