<svg id="Capa_1" data-name="Capa 1" xmlns="http://www.w3.org/2000/svg" viewBox="0 0 512 511.99"><defs><style>.cls-1{fill:#a04af6;}</style></defs><title>keno</title><path class="cls-1" d="M340,137a38,38,0,1,0,38,38A38,38,0,0,0,340,137Zm0,56a18,18,0,1,1,18-18A18,18,0,0,1,340,193Z" transform="translate(0 -0.01)"/><path class="cls-1" d="M228,67.73a38,38,0,1,0,38,38A38,38,0,0,0,228,67.73Zm0,56a18,18,0,1,1,18-18A18,18,0,0,1,228,123.73Z" transform="translate(0 -0.01)"/><path class="cls-1" d="M170.15,437.9H170c-109.09,0-122.51,0-109.09,10.09C77.36,460.4,27.69,457.9,170,457.9h.19a10,10,0,0,0,0-20Z" transform="translate(0 -0.01)"/><path class="cls-1" d="M502,438H453.39l-58.65-89.32A201.43,201.43,0,0,0,458,202C458,90.62,367.38,0,256,0S54,90.62,54,202a201.43,201.43,0,0,0,63.26,146.67L58.62,438H10A10,10,0,0,0,0,448v54a10,10,0,0,0,10,10H170.19a10,10,0,0,0,10-10V448a10,10,0,0,0-20,0v44H20V458h91.91a10,10,0,0,0,0-20H82.55l50-76.2a201.56,201.56,0,0,0,246.85,0l50,76.2H400.09a10,10,0,1,0,0,20H492v34H351.81V448a10,10,0,0,0-20,0v54a10,10,0,0,0,10,10H502a10,10,0,0,0,10-10V448A10,10,0,0,0,502,438ZM256,384C155.65,384,74,302.35,74,202S155.65,20,256,20s182,81.64,182,182S356.36,384,256,384Z" transform="translate(0 -0.01)"/><path class="cls-1" d="M342,438h-.19a10,10,0,1,0,0,20H342c103.22,0,90.75,1.82,75.45-10C443.34,436.28,429.47,438,342,438Z" transform="translate(0 -0.01)"/><path class="cls-1" d="M299.11,41.43c-32.76-9.31-70.83-7.08-102.68,5.73L210,63.38c48.49-14.93,108.39-3,146.86,33.26.05-.11,2.36.6,2.42.49a33.37,33.37,0,0,1,2.08-2.72,27.8,27.8,0,0,1,2.17-2.74,42.49,42.49,0,0,1,8-6c.71-.44,3.07,1.34,3.82,1C352.57,65.66,326.81,49.31,299.11,41.43Z" transform="translate(0 -0.01)"/><path class="cls-1" d="M384.52,96.93a166.56,166.56,0,0,0-93.71-57.27,10,10,0,0,0-4.18,19.56C353.48,73.49,402,133.54,402,202a145.73,145.73,0,0,1-52.15,111.74,38,38,0,0,0-1.59-8.09A38,38,0,1,0,312,242.91a37.94,37.94,0,0,0-56,0,37.93,37.93,0,0,0-56,0,38,38,0,1,0-36.26,62.74,38,38,0,0,0-1.59,8.1,146,146,0,0,1,60-253.81,10.21,10.21,0,0,0,7.94-11.16,10,10,0,0,0-12.19-8.38A166,166,0,0,0,90,202c0,91.53,74.46,166,166,166h0c91.53,0,166-74.47,166-166A166.3,166.3,0,0,0,384.52,96.93ZM154,268.57a18,18,0,1,1,18,18A18,18,0,0,1,154,268.57ZM200,335a18,18,0,1,1,18-18A18,18,0,0,1,200,335Zm10-66.46a18,18,0,1,1,18,18A18,18,0,0,1,210,268.57ZM256,348h0a18,18,0,1,1,18-18A18,18,0,0,1,256,348Zm10-79.43a18,18,0,1,1,18,18A18,18,0,0,1,266,268.57ZM312,335a18,18,0,1,1,18-18A18,18,0,0,1,312,335Zm10-66.46a18,18,0,1,1,18,18A18,18,0,0,1,322,268.57Z" transform="translate(0 -0.01)"/></svg>