<svg width="195" height="145" viewBox="0 0 195 145" fill="none" xmlns="http://www.w3.org/2000/svg">
<g clip-path="url(#clip0)">
<path d="M96.6701 53.21C84.8508 53.2173 73.4914 57.7907 64.9641 65.9748C56.4368 74.1589 51.4011 85.321 50.9085 97.13C50.4159 108.939 54.5047 120.482 62.3208 129.348C70.1369 138.213 81.076 143.717 92.8535 144.708C104.631 145.7 116.336 142.103 125.525 134.669C134.713 127.235 140.675 116.538 142.164 104.813C143.653 93.0883 140.554 81.2413 133.515 71.7466C126.476 62.2518 116.042 55.8435 104.39 53.86C101.84 53.4261 99.2571 53.2087 96.6701 53.21ZM96.6701 119.82C91.6096 119.815 86.7267 117.955 82.9458 114.591C79.1649 111.228 76.7484 106.595 76.1539 101.57C75.5593 96.5441 76.8281 91.4752 79.7198 87.3224C82.6116 83.1697 86.9256 80.2213 91.8452 79.0357C96.7647 77.85 101.948 78.5092 106.414 80.8887C110.881 83.2681 114.319 87.2025 116.079 91.9469C117.84 96.6913 117.799 101.916 115.965 106.633C114.132 111.35 110.633 115.23 106.13 117.54C103.204 119.043 99.9601 119.825 96.6701 119.82Z" fill="#AD52F2"/>
<path d="M91.6701 49.4C91.7168 48.82 91.7501 48.24 91.7701 47.66C91.7901 47.08 91.7901 46.4933 91.7701 45.9C91.7781 36.8105 89.0894 27.923 84.0445 20.362C78.9996 12.8011 71.8252 6.90668 63.4291 3.42463C55.033 -0.0574145 45.7927 -0.970551 36.8775 0.800779C27.9623 2.57211 19.7729 6.94828 13.3457 13.3755C6.91844 19.8027 2.54226 27.9921 0.770933 36.9074C-1.0004 45.8226 -0.087261 55.0629 3.39479 63.4589C6.87683 71.855 12.7713 79.0295 20.3322 84.0744C27.8931 89.1193 36.7807 91.8079 45.8701 91.8H46.6101H47.2801C48.9127 80.8035 54.1634 70.6646 62.2025 62.986C70.2415 55.3073 80.6104 50.5268 91.6701 49.4ZM45.9001 66.61C41.1091 66.6096 36.4664 64.9481 32.763 61.9086C29.0595 58.8691 26.5245 54.6395 25.5898 49.9406C24.655 45.2416 25.3784 40.3639 27.6366 36.1384C29.8949 31.913 33.5483 28.6012 37.9744 26.7673C42.4006 24.9333 47.3257 24.6908 51.9106 26.0809C56.4956 27.4709 60.4567 30.4077 63.1193 34.3908C65.7818 38.3739 66.981 43.1569 66.5125 47.925C66.0441 52.6931 63.937 57.1512 60.5501 60.54C58.6287 62.4672 56.3452 63.9956 53.831 65.0373C51.3169 66.079 48.6216 66.6135 45.9001 66.61Z" fill="#AD52F2"/>
<path d="M148.66 15.43C146.835 15.4291 145.012 15.536 143.2 15.75C134.037 16.8443 125.415 20.6731 118.459 26.7376C111.502 32.8021 106.534 40.8212 104.2 49.75C112.896 51.0766 121.085 54.686 127.93 60.21C128.173 55.9486 129.729 51.8667 132.383 48.5238C135.037 45.1809 138.66 42.7407 142.755 41.5377C146.85 40.3346 151.217 40.4276 155.258 41.8039C159.298 43.1802 162.814 45.7724 165.323 49.2252C167.833 52.678 169.213 56.8224 169.274 61.0903C169.336 65.3582 168.076 69.5407 165.667 73.0645C163.259 76.5883 159.819 79.2809 155.82 80.7732C151.821 82.2654 147.459 82.4844 143.33 81.4C144.39 84.1852 145.196 87.0601 145.74 89.99C146.299 93.0046 146.58 96.0641 146.58 99.13C146.58 100.497 146.524 101.853 146.41 103.2C146.297 104.547 146.137 105.88 145.93 107.2L147.26 107.26H148.6C154.684 107.35 160.725 106.229 166.372 103.963C172.019 101.697 177.159 98.3305 181.493 94.0598C185.828 89.7892 189.269 84.6994 191.619 79.0865C193.968 73.4736 195.178 67.4497 195.178 61.365C195.178 55.2803 193.968 49.2564 191.619 43.6435C189.269 38.0306 185.828 32.9408 181.493 28.6701C177.159 24.3995 172.019 21.0332 166.372 18.7671C160.725 16.5009 154.684 15.3802 148.6 15.47L148.66 15.43Z" fill="#AD52F2"/>
<path d="M45.4898 35.38C45.4091 35.6674 45.2985 35.9456 45.1598 36.21C45.036 36.4461 44.8813 36.6647 44.6998 36.86C44.4436 37.1283 44.1466 37.3544 43.8198 37.53C43.4737 37.7143 43.1034 37.8489 42.7198 37.93C42.373 38.0003 42.0224 38.0504 41.6698 38.08C41.2231 38.12 40.6831 38.1567 40.0498 38.19V40.94H44.8898V55.14H49.0298V34.56H45.6098C45.6201 34.6731 45.6201 34.7869 45.6098 34.9C45.6098 35.04 45.5698 35.2 45.4898 35.38Z" fill="#AD52F2"/>
<path d="M141.52 61.73C141.258 62.1984 141.06 62.6994 140.93 63.22C140.796 63.7597 140.729 64.3139 140.73 64.87C140.721 65.6908 140.87 66.5057 141.17 67.27C141.478 68.0171 141.93 68.6966 142.5 69.27C143.115 69.8933 143.869 70.3627 144.7 70.64C145.668 70.9584 146.681 71.1138 147.7 71.1C148.741 71.1151 149.778 70.9597 150.77 70.64C151.595 70.3673 152.355 69.926 153 69.3441C153.646 68.7622 154.163 68.0525 154.52 67.26C154.843 66.5015 155.006 65.6845 155 64.86C155.003 64.3044 154.939 63.7503 154.81 63.21C154.683 62.6901 154.488 62.1891 154.23 61.72C153.962 61.249 153.625 60.8209 153.23 60.45C152.83 60.058 152.379 59.7216 151.89 59.45C152.342 59.2 152.756 58.8868 153.12 58.52C153.427 58.2113 153.668 57.844 153.83 57.44C153.97 57.0763 154.081 56.7017 154.16 56.32C154.229 55.991 154.266 55.6561 154.27 55.32C154.278 54.6048 154.135 53.896 153.85 53.24C153.55 52.5764 153.118 51.981 152.58 51.49C152.007 50.9537 151.325 50.5478 150.58 50.3C148.791 49.7727 146.888 49.7727 145.1 50.3C144.355 50.5478 143.673 50.9537 143.1 51.49C142.562 51.981 142.13 52.5764 141.83 53.24C141.545 53.896 141.402 54.6048 141.41 55.32C141.414 55.6561 141.451 55.9911 141.52 56.32C141.602 56.702 141.716 57.0766 141.86 57.44C142.026 57.8539 142.266 58.2336 142.57 58.56C142.938 58.9423 143.351 59.2781 143.8 59.56C143.314 59.7836 142.866 60.0804 142.47 60.44C142.085 60.8154 141.764 61.2512 141.52 61.73ZM145.98 53.85C146.211 53.618 146.491 53.4404 146.8 53.33C147.512 53.1006 148.278 53.1006 148.99 53.33C149.299 53.4382 149.58 53.6161 149.81 53.85C150.038 54.0826 150.212 54.3626 150.32 54.67C150.438 55.021 150.496 55.3896 150.49 55.76C150.492 56.1007 150.434 56.4391 150.32 56.76C150.207 57.0621 150.034 57.3378 149.81 57.57C149.581 57.8075 149.3 57.9889 148.99 58.1C148.279 58.3371 147.511 58.3371 146.8 58.1C146.49 57.987 146.21 57.8059 145.98 57.57C145.752 57.3389 145.575 57.0631 145.46 56.76C145.344 56.4393 145.287 56.1008 145.29 55.76C145.283 55.3895 145.34 55.0207 145.46 54.67C145.57 54.3613 145.748 54.0812 145.98 53.85ZM145.74 62.21C146.005 61.9403 146.326 61.732 146.68 61.6C147.471 61.3288 148.329 61.3288 149.12 61.6C149.483 61.7353 149.81 61.9516 150.077 62.2323C150.344 62.513 150.543 62.8508 150.66 63.22C150.801 63.6695 150.869 64.1389 150.86 64.61C150.866 65.0678 150.799 65.5237 150.66 65.96C150.538 66.3323 150.337 66.6736 150.07 66.96C149.809 67.2391 149.487 67.4546 149.13 67.59C148.327 67.8681 147.453 67.8681 146.65 67.59C146.292 67.4546 145.971 67.2391 145.71 66.96C145.443 66.6736 145.241 66.3323 145.12 65.96C144.981 65.5237 144.913 65.0678 144.92 64.61C144.911 64.1389 144.979 63.6695 145.12 63.22C145.245 62.8396 145.457 62.4938 145.74 62.21Z" fill="#AD52F2"/>
<path d="M100.3 97.33C100.558 97.2273 100.8 97.0893 101.02 96.92C101.276 96.7253 101.511 96.504 101.72 96.26C102.075 95.8519 102.35 95.3802 102.53 94.87C102.714 94.3327 102.805 93.7679 102.8 93.2C102.813 92.4069 102.66 91.6199 102.35 90.89C102.041 90.1965 101.575 89.5839 100.99 89.1C100.375 88.5862 99.6648 88.1988 98.9 87.96C98.0383 87.6963 97.141 87.5681 96.24 87.58C95.7516 87.5791 95.2637 87.6126 94.78 87.68C94.3648 87.7364 93.9561 87.8335 93.56 87.97C93.2123 88.0941 92.8774 88.2515 92.56 88.44C92.2484 88.6223 91.9568 88.8368 91.69 89.08C91.3492 89.4058 91.0411 89.7642 90.77 90.15C90.5145 90.5118 90.2998 90.9009 90.13 91.31C89.9712 91.7734 89.8476 92.248 89.76 92.73C89.6716 93.2223 89.6181 93.7202 89.6 94.22H93.37C93.3565 93.7586 93.407 93.2975 93.52 92.85C93.6179 92.4681 93.7876 92.1084 94.02 91.79C94.2403 91.4901 94.5374 91.2552 94.88 91.11C95.2733 90.9497 95.6953 90.8714 96.12 90.88C96.4945 90.8728 96.8672 90.9338 97.22 91.06C97.5357 91.1762 97.8199 91.3645 98.05 91.61C98.2797 91.8547 98.4567 92.144 98.57 92.46C98.6882 92.8041 98.7457 93.1662 98.74 93.53C98.7575 94.0541 98.6404 94.5739 98.4 95.04C98.1755 95.4425 97.8238 95.759 97.4 95.94C97.0543 96.0799 96.6908 96.1708 96.32 96.21C95.766 96.2806 95.2083 96.3173 94.65 96.32V99.22C95.2315 99.2162 95.8127 99.2496 96.39 99.32C96.8006 99.3653 97.2039 99.4628 97.59 99.61C98.0972 99.8017 98.5287 100.153 98.82 100.61C99.1095 101.125 99.2514 101.71 99.23 102.3C99.2387 102.76 99.1641 103.217 99.01 103.65C98.8718 104.031 98.6457 104.373 98.35 104.65C98.059 104.916 97.7195 105.123 97.35 105.26C96.9959 105.396 96.6193 105.464 96.24 105.46C95.6748 105.481 95.1138 105.357 94.61 105.1C94.1732 104.843 93.8246 104.459 93.61 104C93.4698 103.708 93.3689 103.399 93.31 103.08C93.2406 102.707 93.2071 102.329 93.21 101.95H89.21C89.2342 102.698 89.3347 103.442 89.51 104.17C89.6548 104.783 89.8872 105.373 90.2 105.92C90.7653 106.861 91.6068 107.605 92.61 108.05C93.7762 108.555 95.0395 108.798 96.31 108.76C97.3674 108.781 98.4201 108.615 99.42 108.27C100.275 107.965 101.044 107.457 101.66 106.79C102.241 106.166 102.702 105.441 103.02 104.65C103.323 103.869 103.476 103.038 103.47 102.2C103.481 101.442 103.349 100.689 103.08 99.98C102.827 99.3326 102.431 98.7513 101.92 98.28C101.641 98.014 101.336 97.7762 101.01 97.57C100.8 97.426 100.554 97.3429 100.3 97.33Z" fill="#AD52F2"/>
</g>
<defs>
<clipPath id="clip0">
<rect width="194.55" height="145" fill="white"/>
</clipPath>
</defs>
</svg>
