<svg id="Слой_1" data-name="Слой 1" xmlns="http://www.w3.org/2000/svg" viewBox="0 0 400 496"><defs><style>.cls-1{fill:#a04af6;}</style></defs><title>poker</title><path class="cls-1" d="M200,0H72A24,24,0,0,0,48,24V216a24,24,0,0,0,24,24H200a24,24,0,0,0,24-24V24A24,24,0,0,0,200,0Zm8,216a8,8,0,0,1-8,8H72a8,8,0,0,1-8-8V24a8,8,0,0,1,8-8H200a8,8,0,0,1,8,8Z" transform="translate(-48)"/><path class="cls-1" d="M136,52.69l-47,47a30.6,30.6,0,0,0,39,46.84V176h16V146.55a30.61,30.61,0,0,0,39-46.84ZM161.37,136A14.53,14.53,0,0,1,151,131.71l-15-15-15,15A14.63,14.63,0,1,1,100.29,111L136,75.31,171.71,111a14.63,14.63,0,0,1-10.34,25Z" transform="translate(-48)"/><path class="cls-1" d="M424,0H296a24,24,0,0,0-24,24V216a24,24,0,0,0,24,24H424a24,24,0,0,0,24-24V24A24,24,0,0,0,424,0Zm8,216a8,8,0,0,1-8,8H296a8,8,0,0,1-8-8V24a8,8,0,0,1,8-8H424a8,8,0,0,1,8,8Z" transform="translate(-48)"/><path class="cls-1" d="M200,256H72a24,24,0,0,0-24,24V472a24,24,0,0,0,24,24H200a24,24,0,0,0,24-24V280A24,24,0,0,0,200,256Zm8,216a8,8,0,0,1-8,8H72a8,8,0,0,1-8-8V280a8,8,0,0,1,8-8H200a8,8,0,0,1,8,8Z" transform="translate(-48)"/><path class="cls-1" d="M424,256H296a24,24,0,0,0-24,24V472a24,24,0,0,0,24,24H424a24,24,0,0,0,24-24V280A24,24,0,0,0,424,256Zm8,216a8,8,0,0,1-8,8H296a8,8,0,0,1-8-8V280a8,8,0,0,1,8-8H424a8,8,0,0,1,8,8Z" transform="translate(-48)"/><path class="cls-1" d="M385.37,72a30.39,30.39,0,0,0-21.66,9L360,84.69,356.29,81A30.62,30.62,0,1,0,313,124.29l47,47,47-47A30.62,30.62,0,0,0,385.37,72Zm10.34,41L360,148.69,324.29,113A14.63,14.63,0,1,1,345,92.29l15,15,15-15A14.63,14.63,0,1,1,395.71,113Z" transform="translate(-48)"/><path class="cls-1" d="M80,32H96V48H80Z" transform="translate(-48)"/><path class="cls-1" d="M176,192h16v16H176Z" transform="translate(-48)"/><path class="cls-1" d="M304,192h16v16H304Z" transform="translate(-48)"/><path class="cls-1" d="M400,32h16V48H400Z" transform="translate(-48)"/><path class="cls-1" d="M77.46,376,136,444.3,194.54,376,136,307.7ZM136,419.7,98.54,376,136,332.3,173.46,376Z" transform="translate(-48)"/><path class="cls-1" d="M176,288h16v16H176Z" transform="translate(-48)"/><path class="cls-1" d="M80,448H96v16H80Z" transform="translate(-48)"/><path class="cls-1" d="M392,345c0-.34,0-.67,0-1a32,32,0,0,0-64,0c0,.34,0,.67,0,1a32,32,0,0,0,8,63,31.53,31.53,0,0,0,16-4.5V432h16V403.5a31.53,31.53,0,0,0,16,4.5,32,32,0,0,0,8-63Zm-8,47a16,16,0,0,1-16-16H352a16,16,0,1,1-16.24-16h0l13.41.87L345,349.41a15.79,15.79,0,0,1-1-5.41,16,16,0,1,1,31,5.43l-4.15,11.45,12.16-.74,1-.14a16,16,0,0,1,0,32Z" transform="translate(-48)"/><path class="cls-1" d="M304,288h16v16H304Z" transform="translate(-48)"/><path class="cls-1" d="M400,448h16v16H400Z" transform="translate(-48)"/></svg>