<svg width="198" height="196" viewBox="0 0 198 196" fill="none" xmlns="http://www.w3.org/2000/svg">
<g clip-path="url(#clip0)">
<path d="M47.7498 21.85C43.5098 1.55 9.6598 0.450001 1.9198 24.69C-10.2802 62.85 39.3898 75.1 47.7498 92.3C56.1198 75.1 105.75 62.85 93.5798 24.68C85.8398 0.450001 51.9998 1.55 47.7498 21.85ZM47.7498 110.85C45.1498 117.7 38.8098 126.85 30.0498 135.58C21.2898 144.31 12.1698 150.69 5.3298 153.26C12.1798 155.86 21.3298 162.2 30.0598 170.96C38.7898 179.72 45.1598 188.84 47.7598 195.69C50.3598 188.84 56.6998 179.69 65.4598 170.96C74.2198 162.23 83.3398 155.86 90.1898 153.26C83.3398 150.66 74.1898 144.32 65.4598 135.56C56.7298 126.8 50.3498 117.69 47.7498 110.84V110.85ZM173.89 136.85C171.803 136.857 169.731 137.194 167.75 137.85C170.033 135.301 171.529 132.146 172.057 128.765C172.586 125.385 172.124 121.923 170.728 118.799C169.332 115.675 167.062 113.022 164.191 111.16C161.32 109.299 157.971 108.308 154.55 108.308C151.128 108.308 147.78 109.299 144.909 111.16C142.038 113.022 139.767 115.675 138.371 118.799C136.975 121.923 136.514 125.385 137.042 128.765C137.571 132.146 139.067 135.301 141.35 137.85C139.369 137.194 137.296 136.857 135.21 136.85C131.609 136.828 128.069 137.778 124.964 139.601C121.858 141.424 119.303 144.051 117.566 147.205C115.83 150.36 114.977 153.924 115.099 157.523C115.22 161.122 116.31 164.621 118.255 167.652C120.2 170.682 122.927 173.131 126.148 174.741C129.369 176.35 132.965 177.06 136.556 176.796C140.147 176.531 143.6 175.302 146.55 173.238C149.501 171.175 151.84 168.353 153.32 165.07C151.85 170.624 148.976 175.707 144.975 179.83C140.973 183.952 135.978 186.976 130.47 188.61L131.72 189.98H177.39L178.64 188.61C173.132 186.976 168.137 183.952 164.135 179.83C160.133 175.707 157.259 170.624 155.79 165.07C157.277 168.329 159.615 171.126 162.558 173.169C165.5 175.212 168.938 176.425 172.512 176.68C176.085 176.934 179.66 176.222 182.863 174.617C186.065 173.012 188.776 170.574 190.711 167.559C192.646 164.545 193.733 161.065 193.857 157.485C193.982 153.905 193.14 150.357 191.42 147.215C189.7 144.073 187.165 141.452 184.082 139.628C180.999 137.804 177.482 136.845 173.9 136.85H173.89ZM153.65 0C145.88 16 99.7498 27.35 111.08 62.8C117.8 83.8 145.67 84.31 152.52 68.9C151.096 74.5435 148.226 79.7184 144.193 83.9147C140.16 88.111 135.102 91.1838 129.52 92.83L130.77 94.2H176.45L177.7 92.83C172.117 91.1838 167.06 88.111 163.027 83.9147C158.994 79.7184 156.124 74.5435 154.7 68.9C161.55 84.31 189.42 83.82 196.14 62.8C207.55 27.35 161.42 15.97 153.65 0Z" fill="#AD52F2"/>
</g>
<defs>
<clipPath id="clip0">
<rect width="198" height="195.69" fill="white"/>
</clipPath>
</defs>
</svg>
