<svg id="Слой_1" data-name="Слой 1" xmlns="http://www.w3.org/2000/svg" viewBox="0 0 493.01 493.01"><defs><style>.cls-1{fill:#a04af6;}</style></defs><title>roulette</title><path class="cls-1" d="M246.45,0A247.15,247.15,0,1,0,420.5,72.1,246.15,246.15,0,0,0,246.45,0ZM409.19,408.9c-90,89.43-235.32,89.22-325-.48s-89.91-235.06-.47-325c90-89.43,235.32-89.22,325,.48S498.63,318.94,409.19,408.9Z" transform="translate(-0.29 0)"/><path class="cls-1" d="M246.45,52.28c-106.9,0-193.87,87-193.87,193.87S139.55,440,246.45,440s193.87-87,193.87-193.87S353.35,52.28,246.45,52.28ZM372.13,239.16a125.31,125.31,0,0,0-31.48-76.41L377.45,126a177.17,177.17,0,0,1,46.72,113.2Zm-42.81-87.69a125.39,125.39,0,0,0-75.88-31v-52a177.17,177.17,0,0,1,112.68,46.25Zm-91.87-30.88a125.38,125.38,0,0,0-74.93,31.83l-36.79-36.79A177.29,177.29,0,0,1,237.45,68.5ZM151.3,163.81a125.36,125.36,0,0,0-30.54,75.35h-52A177.22,177.22,0,0,1,114.49,127Zm-30.41,91.34A125.38,125.38,0,0,0,151.77,329L115,365.83A177.2,177.2,0,0,1,68.8,255.15Zm42.16,85.21a125.34,125.34,0,0,0,74.4,31.35V423.8a177.22,177.22,0,0,1-111.2-46.65Zm90.39,31.48a125.4,125.4,0,0,0,75.35-30.55L365.6,378.1a177.18,177.18,0,0,1-112.16,45.78Zm-7-15.79a109.9,109.9,0,1,1,109.89-109.9,109.89,109.89,0,0,1-109.89,109.9ZM377,366.87l-36.78-36.79A125.43,125.43,0,0,0,372,255.15H424.1A177.21,177.21,0,0,1,377,366.86Z" transform="translate(-0.29 0)"/><path class="cls-1" d="M297.41,239.16H280a34.4,34.4,0,0,0-26.6-26.6V195.18a8,8,0,0,0-16,0V213a34.45,34.45,0,0,0-24.6,26.12H195.48a8,8,0,1,0,0,16h17.86a34.42,34.42,0,0,0,24.11,24.11v17.86a8,8,0,1,0,16,0V279.74a34.39,34.39,0,0,0,26.11-24.59h17.86a8,8,0,1,0,0-16Zm-49.89,25.26a8.13,8.13,0,0,0-2.07-.28,8.46,8.46,0,0,0-1.5.14,18.31,18.31,0,0,1-15.63-15.64,8.26,8.26,0,0,0,.14-1.49,8.07,8.07,0,0,0-.28-2.07A18.31,18.31,0,0,1,244,228a8.46,8.46,0,0,0,1.5.14,8.13,8.13,0,0,0,2.07-.28,18.32,18.32,0,0,1,17.2,17.2,8.08,8.08,0,0,0-.29,2.07,9.29,9.29,0,0,0,.15,1.49A18.32,18.32,0,0,1,247.52,264.42Z" transform="translate(-0.29 0)"/></svg>