<svg width="195" height="195" viewBox="0 0 195 195" fill="none" xmlns="http://www.w3.org/2000/svg">
<g clip-path="url(#clip0)">
<path d="M97.07 0.0100098C77.871 0.0100099 59.1031 5.70332 43.1398 16.3699C27.1765 27.0366 14.7348 42.1974 7.3881 59.9352C0.0413961 77.673 -1.88033 97.1911 1.86595 116.021C5.61223 134.851 14.8582 152.147 28.4347 165.722C42.0112 179.297 59.3084 188.542 78.1388 192.286C96.9691 196.03 116.487 194.107 134.224 186.758C151.961 179.41 167.121 166.966 177.786 151.002C188.451 135.038 194.142 116.269 194.14 97.07C194.137 71.3272 183.909 46.6396 165.705 28.4376C147.501 10.2356 122.813 0.0100096 97.07 0.0100098ZM176.59 64.15C179.479 71.1282 181.429 78.4588 182.39 85.95L163.84 88.38C163.088 82.5175 161.562 76.7807 159.3 71.32L176.59 64.15ZM149.44 28.85C155.427 33.4665 160.786 38.8453 165.38 44.85L150.54 56.15C146.941 51.4585 142.746 47.2564 138.06 43.65L149.44 28.85ZM108.26 11.76C115.756 12.7329 123.091 14.6968 130.07 17.6L122.9 34.88C117.438 32.6074 111.697 31.0706 105.83 30.31L108.26 11.76ZM85.86 11.76L88.29 30.31C82.4228 31.0709 76.6826 32.6077 71.22 34.88L64.06 17.61C71.0362 14.7069 78.3669 12.7431 85.86 11.77V11.76ZM44.7 28.85L56.07 43.69C51.3892 47.2833 47.1971 51.472 43.6 56.15L28.76 44.82C33.356 38.8259 38.7146 33.4572 44.7 28.85ZM17.55 64.15L34.83 71.32C32.569 76.7775 31.0424 82.5108 30.29 88.37L11.75 85.98C12.7063 78.4783 14.6568 71.1371 17.55 64.15ZM17.62 130.15C14.7201 123.183 12.7563 115.863 11.78 108.38L30.33 105.95C31.1001 111.794 32.6401 117.51 34.91 122.95L17.62 130.15ZM44.79 165.39C38.8064 160.792 33.4479 155.434 28.85 149.45L43.69 138.08C47.2824 142.75 51.4676 146.931 56.14 150.52L44.79 165.39ZM85.89 182.39C78.4149 181.419 71.1013 179.462 64.14 176.57L71.31 159.29C76.751 161.551 82.4674 163.08 88.31 163.84L85.89 182.39ZM108.24 182.39L105.81 163.84C111.652 163.083 117.368 161.557 122.81 159.3L129.98 176.58C123.018 179.468 115.705 181.422 108.23 182.39H108.24ZM97.08 149.46C86.7203 149.46 76.5931 146.388 67.9793 140.632C59.3654 134.877 52.6518 126.696 48.6872 117.125C44.7227 107.554 43.6854 97.0219 45.7065 86.8612C47.7276 76.7005 52.7163 67.3672 60.0418 60.0418C67.3673 52.7163 76.7005 47.7276 86.8612 45.7065C97.0219 43.6854 107.554 44.7227 117.125 48.6872C126.696 52.6517 134.877 59.3654 140.632 67.9792C146.388 76.5931 149.46 86.7202 149.46 97.08C149.444 110.969 143.919 124.284 134.097 134.104C124.275 143.924 110.959 149.447 97.07 149.46H97.08ZM149.35 165.38L137.98 150.54C142.663 146.949 146.858 142.764 150.46 138.09L165.3 149.46C160.695 155.438 155.329 160.79 149.34 165.38H149.35ZM176.52 130.15L159.24 122.98C161.51 117.54 163.05 111.824 163.82 105.98L182.37 108.41C181.387 115.883 179.42 123.193 176.52 130.15ZM131.36 90.3C130.13 90.3061 128.926 90.6522 127.88 91.3C127.79 91.37 127.69 91.41 127.6 91.48C125.335 92.9719 122.682 93.768 119.97 93.77H109.14C108.552 91.7348 107.455 89.8833 105.952 88.3907C104.448 86.898 102.589 85.8136 100.55 85.24V74.28C100.551 71.5675 101.347 68.9147 102.84 66.65C103.595 65.5418 103.996 64.2308 103.99 62.89C103.922 61.112 103.168 59.4294 101.886 58.1955C100.604 56.9616 98.8943 56.2723 97.115 56.2723C95.3358 56.2723 93.6257 56.9616 92.3438 58.1955C91.0619 59.4294 90.3079 61.112 90.24 62.89C90.2477 64.1198 90.5936 65.3238 91.24 66.37C91.31 66.46 91.35 66.56 91.43 66.65C92.9236 68.9144 93.7198 71.5674 93.72 74.28V85.28C91.7206 85.8736 89.9024 86.9604 88.4329 88.4405C86.9633 89.9205 85.8894 91.7464 85.31 93.75H74.14C71.4273 93.7504 68.7742 92.9541 66.51 91.46C65.4015 90.7071 64.09 90.3095 62.75 90.32C60.9267 90.32 59.178 91.0443 57.8887 92.3336C56.5994 93.623 55.875 95.3716 55.875 97.195C55.875 99.0184 56.5994 100.767 57.8887 102.056C59.178 103.346 60.9267 104.07 62.75 104.07C63.9802 104.065 65.1849 103.719 66.23 103.07C66.32 103 66.42 102.96 66.5 102.89C68.7687 101.399 71.4251 100.606 74.14 100.61H85.14C85.7194 102.614 86.7933 104.439 88.2629 105.92C89.7324 107.4 91.5506 108.486 93.55 109.08V120.08C93.5504 122.793 92.7541 125.446 91.26 127.71C90.5083 128.819 90.1108 130.13 90.12 131.47C90.12 133.293 90.8444 135.042 92.1337 136.331C93.423 137.621 95.1717 138.345 96.995 138.345C98.8184 138.345 100.567 137.621 101.856 136.331C103.146 135.042 103.87 133.293 103.87 131.47C103.865 130.237 103.519 129.029 102.87 127.98C102.8 127.89 102.76 127.79 102.69 127.7C101.196 125.436 100.4 122.783 100.4 120.07V109.15C102.439 108.576 104.298 107.492 105.802 105.999C107.305 104.507 108.402 102.655 108.99 100.62H119.86C122.573 100.619 125.226 101.415 127.49 102.91C128.598 103.665 129.909 104.066 131.25 104.06C132.175 104.095 133.097 103.944 133.962 103.614C134.827 103.284 135.617 102.784 136.284 102.142C136.95 101.5 137.481 100.73 137.843 99.8783C138.206 99.0266 138.392 98.1106 138.392 97.185C138.392 96.2594 138.206 95.3434 137.843 94.4917C137.481 93.64 136.95 92.8701 136.284 92.2283C135.617 91.5864 134.827 91.0856 133.962 90.756C133.097 90.4264 132.175 90.2747 131.25 90.31L131.36 90.3Z" fill="#AD52F2"/>
</g>
<defs>
<clipPath id="clip0">
<rect width="194.14" height="194.14" fill="white"/>
</clipPath>
</defs>
</svg>
