<svg id="Слой_1" data-name="Слой 1" xmlns="http://www.w3.org/2000/svg" viewBox="0 0 444 425.5"><defs><style>.cls-1{fill:#a04af6;}</style></defs><title>slots</title><path class="cls-1" d="M7.92,435h339a7.74,7.74,0,0,0,7.65-8.06V314.15h69.48a8.67,8.67,0,0,0,8.43-8.33V200.49a8.55,8.55,0,0,0-8.43-8.19H412.51V103.8a37.55,37.55,0,1,0-16-.84V192.3H354.58v-141A41.6,41.6,0,0,0,312.83,9.51H42A41.84,41.84,0,0,0,0,51.32V427A8,8,0,0,0,7.92,435Zm377-368.26a21.56,21.56,0,1,1,21.56,21.57A21.55,21.55,0,0,1,384.89,66.75Zm31.62,141.53v89.89H354.58V208.28ZM16,51.32A25.85,25.85,0,0,1,42,25.49H312.83A25.63,25.63,0,0,1,338.6,51.32V419H16Z" transform="translate(0 -9.51)"/><path class="cls-1" d="M311.63,164.33a8,8,0,0,0-8-8H51.94a8,8,0,0,0-8,8V292.18a8,8,0,0,0,8,8h251.7a8,8,0,0,0,8-8Zm-16,118.86H59.93V172.32H295.65Z" transform="translate(0 -9.51)"/><path class="cls-1" d="M156.2,219.46c5.14,0,9.6-2.72,9.6-6v-7.23h19v7.43L157,262a6.15,6.15,0,0,0-.8,3.19c0,5.59,6.22,9.48,11.79,9.48,2.71,0,4.5-.87,5.46-2.65l26.6-50.92c.87-1.63,3.7-7.23,3.7-11V195.89c0-3.06-4.63-5.59-8.23-5.59H155.18c-4.15,0-8.35,2.59-8.35,5.59v17.62C146.83,216.85,151,219.46,156.2,219.46Z" transform="translate(0 -9.51)"/><path class="cls-1" d="M77.79,219.46c5.14,0,9.11-2.72,9.11-6v-7.23h20v7.43L78.84,262a6.39,6.39,0,0,0-.92,3.19c0,5.59,6.16,9.48,11.72,9.48,2.71,0,4.47-.87,5.42-2.65l26.35-50.92c.86-1.63,3.44-7.23,3.44-11V195.89c0-3.06-4.15-5.59-7.74-5.59H76.76c-4.15,0-7.84,2.59-7.84,5.59v17.62C68.92,216.85,72.61,219.46,77.79,219.46Z" transform="translate(0 -9.51)"/><path class="cls-1" d="M239.1,219.46c5.14,0,9.61-2.72,9.61-6v-7.23h19v7.43L239.94,262a6.13,6.13,0,0,0-.77,3.19c0,5.59,6.23,9.48,11.79,9.48,2.71,0,4.51-.87,5.46-2.65L283,221.13c.87-1.63,3.67-7.23,3.67-11V195.89c0-3.06-4.56-5.59-8.16-5.59H238.15c-4.15,0-8.42,2.59-8.42,5.59v17.62C229.73,216.85,233.92,219.46,239.1,219.46Z" transform="translate(0 -9.51)"/><path class="cls-1" d="M311.63,336.13a8,8,0,0,0-8-8H51.94a8,8,0,0,0-8,8v45.94a8,8,0,0,0,8,8h251.7a8,8,0,0,0,8-8Zm-16,36.95H59.93v-29H295.65Z" transform="translate(0 -9.51)"/><path class="cls-1" d="M311.63,74.44a8,8,0,0,0-8-8H51.94a8,8,0,0,0-8,8v45.94a8,8,0,0,0,8,8h251.7a8,8,0,0,0,8-8Zm-16,37H59.93v-29H295.65Z" transform="translate(0 -9.51)"/></svg>