<svg width="199" height="175" viewBox="0 0 199 175" fill="none" xmlns="http://www.w3.org/2000/svg">
<g clip-path="url(#clip0)">
<path d="M162.94 98.01H157.85V52.19C157.845 50.1654 157.038 48.2252 155.606 46.7936C154.175 45.3619 152.235 44.5553 150.21 44.55H130.44L130.18 42.18L138.06 33.51C138.513 33.0149 138.828 32.4093 138.972 31.754C139.117 31.0987 139.086 30.4168 138.883 29.7772C138.68 29.1375 138.313 28.5625 137.817 28.1101C137.322 27.6577 136.715 27.3438 136.06 27.2L124.57 24.83L118.76 14.65C118.426 14.0661 117.943 13.5809 117.361 13.2434C116.779 12.906 116.118 12.7282 115.445 12.7282C114.772 12.7282 114.111 12.906 113.529 13.2434C112.947 13.5809 112.464 14.0661 112.13 14.65L108.55 20.92H108.41L91.07 17.27L82.3 1.92003C81.9657 1.33612 81.483 0.850886 80.9009 0.51342C80.3188 0.175954 79.6579 -0.00177002 78.985 -0.00177002C78.3121 -0.00177002 77.6512 0.175954 77.0691 0.51342C76.487 0.850886 76.0043 1.33612 75.67 1.92003L66.9 17.27L49.57 20.86C49.3646 20.9134 49.1639 20.9836 48.97 21.07L45.3 14.64C44.9656 14.0561 44.483 13.5709 43.9009 13.2334C43.3188 12.896 42.6579 12.7182 41.985 12.7182C41.3121 12.7182 40.6512 12.896 40.0691 13.2334C39.487 13.5709 39.0043 14.0561 38.67 14.64L32.88 24.83L21.41 27.2C20.7545 27.3438 20.1485 27.6577 19.6529 28.1101C19.1573 28.5625 18.7896 29.1375 18.5868 29.7772C18.3841 30.4168 18.3534 31.0987 18.4979 31.754C18.6424 32.4093 18.957 33.0149 19.41 33.51L27.29 42.18L27.03 44.55H7.64C5.61537 44.5553 3.67517 45.3619 2.24354 46.7936C0.811901 48.2252 0.00527938 50.1654 0 52.19V166.75C0.00527938 168.775 0.811901 170.715 2.24354 172.146C3.67517 173.578 5.61537 174.385 7.64 174.39H150.21C152.235 174.385 154.175 173.578 155.606 172.146C157.038 170.715 157.845 168.775 157.85 166.75V143.84H162.94C163.275 143.84 163.606 143.774 163.916 143.646C164.225 143.518 164.506 143.33 164.743 143.093C164.98 142.856 165.168 142.575 165.296 142.266C165.424 141.956 165.49 141.625 165.49 141.29V100.56C165.49 99.8837 165.221 99.2351 164.743 98.7569C164.265 98.2787 163.616 98.01 162.94 98.01ZM105.28 32.84L109.53 31.96C110.061 31.85 110.562 31.6281 111 31.3091C111.438 30.9901 111.803 30.5813 112.07 30.11L115.42 24.25L118.77 30.11C119.037 30.5813 119.402 30.9901 119.84 31.3091C120.278 31.6281 120.779 31.85 121.31 31.96L127.92 33.33L123.38 38.33C123.009 38.7297 122.727 39.2042 122.555 39.7217C122.382 40.2392 122.323 40.7876 122.38 41.33L123.12 48.04L116.97 45.27C116.476 45.0475 115.941 44.9325 115.4 44.9325C114.859 44.9325 114.324 45.0475 113.83 45.27L107.68 48.04L108.42 41.33C108.477 40.7876 108.417 40.2392 108.245 39.7217C108.073 39.2042 107.791 38.7297 107.42 38.33L103.88 34.39L105.28 32.84ZM70.14 24.39C70.6693 24.2799 71.1692 24.0591 71.607 23.742C72.0448 23.4248 72.4105 23.0186 72.68 22.55L78.99 11.55L85.29 22.55C85.5595 23.0186 85.9252 23.4248 86.363 23.742C86.8008 24.0591 87.3008 24.2799 87.83 24.39L100.27 26.99L91.72 36.39C91.3488 36.7897 91.0675 37.2642 90.895 37.7817C90.7225 38.2992 90.6628 38.8476 90.72 39.39L92.11 52.03L80.57 46.79C80.0765 46.5675 79.5413 46.4525 79 46.4525C78.4587 46.4525 77.9235 46.5675 77.43 46.79L65.82 52.02L67.22 39.39C67.2772 38.8476 67.2175 38.2992 67.045 37.7817C66.8725 37.2642 66.5912 36.7897 66.22 36.39L57.7 26.99L70.14 24.39ZM36.14 31.94C36.6706 31.83 37.1716 31.6081 37.6096 31.2891C38.0476 30.9701 38.4125 30.5613 38.68 30.09L42.03 24.23L45.38 30.09C45.6475 30.5613 46.0124 30.9701 46.4504 31.2891C46.8884 31.6081 47.3894 31.83 47.92 31.94L51.79 32.74L52.84 32.96L53.84 34.06L49.98 38.3C49.6088 38.6997 49.3275 39.1742 49.155 39.6917C48.9825 40.2092 48.9228 40.7576 48.98 41.3L49.72 48.01L43.57 45.24C43.0765 45.0175 42.5413 44.9025 42 44.9025C41.4587 44.9025 40.9235 45.0175 40.43 45.24L34.28 48.01L35.02 41.3C35.0772 40.7576 35.0175 40.2092 34.845 39.6917C34.6725 39.1742 34.3912 38.6997 34.02 38.3L29.48 33.3L36.14 31.94ZM113.31 151.46H44.57V143.82H113.31V151.46ZM142.57 118.39C142.57 119.066 142.301 119.715 141.823 120.193C141.345 120.671 140.696 120.94 140.02 120.94H17.82C17.1437 120.94 16.4951 120.671 16.0169 120.193C15.5387 119.715 15.27 119.066 15.27 118.39V62.39C15.27 61.7137 15.5387 61.0651 16.0169 60.5869C16.4951 60.1087 17.1437 59.84 17.82 59.84H140.02C140.696 59.84 141.345 60.1087 141.823 60.5869C142.301 61.0651 142.57 61.7137 142.57 62.39V118.39ZM183.29 7.16003C179.929 7.16053 176.663 8.26959 173.997 10.3153C171.331 12.361 169.414 15.229 168.543 18.4749C167.673 21.7208 167.898 25.1631 169.182 28.2683C170.467 31.3735 172.741 33.9682 175.65 35.65V129.39C177.657 129.391 179.645 128.997 181.499 128.23C183.353 127.462 185.038 126.337 186.458 124.918C187.877 123.498 189.002 121.813 189.77 119.959C190.537 118.105 190.931 116.117 190.93 114.11V35.65C193.839 33.9682 196.113 31.3735 197.398 28.2683C198.682 25.1631 198.907 21.7208 198.037 18.4749C197.166 15.229 195.249 12.361 192.583 10.3153C189.917 8.26959 186.651 7.16053 183.29 7.16003ZM102.68 113.29H134.93V67.46H102.68V113.29ZM111 83.85H127.32L130.61 89.27L119.15 99.13L107.69 89.27L111 83.85ZM62.8 113.29H95.05V67.46H62.8V113.29ZM70.8 83.85H87.08L90.37 89.27L78.91 99.13L67.47 89.27L70.8 83.85ZM22.91 113.29H55.16V67.46H22.91V113.29ZM30.52 83.85H46.84L50.13 89.27L38.67 99.13L27.21 89.27L30.52 83.85Z" fill="#AD52F2"/>
</g>
<defs>
<clipPath id="clip0">
<rect width="198.57" height="174.39" fill="white"/>
</clipPath>
</defs>
</svg>
