<svg width="275" height="223" viewBox="0 0 275 223" fill="none" xmlns="http://www.w3.org/2000/svg">
<path fill-rule="evenodd" clip-rule="evenodd" d="M254.175 0H65.6178C54.3044 0 45.2537 9.30214 45.2537 20.3641V137.521C45.2537 148.834 54.5558 157.885 65.6178 157.885H195.596L225.263 187.551C226.52 188.808 228.028 189.563 229.788 189.563C233.308 189.563 236.325 186.797 236.325 183.026V157.885H254.426C265.74 157.885 274.79 148.583 274.79 137.521V20.3641C274.79 9.30214 265.488 0 254.175 0ZM228.562 98.2004C232.217 99.2752 236.372 100.207 240.17 100.923L237.089 109.378C230.21 107.372 224.478 105.294 217.958 102.571C216.883 102.141 215.737 101.926 214.662 101.855C203.699 101.138 193.525 93.1132 193.525 77.3498C193.525 62.8045 202.696 51.9851 217.17 51.9851C231.858 51.9851 239.955 63.1628 239.955 76.3467C239.955 87.3094 234.868 95.0478 228.562 97.9138V98.2004ZM205.061 76.9915C205.061 86.2346 209.431 93.1848 216.74 93.1848H216.812C224.192 93.1848 228.419 86.2346 228.419 76.7766C228.419 67.9634 224.263 60.655 216.812 60.655C209.36 60.655 205.061 67.8918 205.061 76.9915ZM80.2234 101.066H91.1145V81.6489H108.454V72.7641H91.1145V61.7297H109.672V52.7733H80.2234V101.066ZM116.73 101.855C120.599 101.855 123.179 99.0603 123.179 95.2627C123.107 91.2502 120.527 88.5991 116.802 88.5991C113.004 88.5991 110.353 91.3219 110.353 95.2627C110.353 99.0603 113.004 101.855 116.658 101.855H116.73ZM158.916 101.066L155.19 88.6708H141.29L137.922 101.066H126.601L141.361 52.7733H155.62L170.667 101.066H158.916ZM145.804 70.2563L142.866 80.5025H153.542L150.533 70.2563C150.029 68.4229 149.495 66.267 148.988 64.2199L148.988 64.2188L148.987 64.2159C148.702 63.0643 148.426 61.9473 148.168 60.9416H147.953C147.817 61.5483 147.674 62.1904 147.526 62.8522C146.978 65.3164 146.369 68.0535 145.804 70.2563ZM182.364 101.855C186.233 101.855 188.813 99.0603 188.813 95.2627C188.741 91.2502 186.161 88.5991 182.436 88.5991C178.638 88.5991 175.987 91.3219 175.987 95.2627C175.987 99.0603 178.638 101.855 182.292 101.855H182.364ZM249.467 101.855C253.337 101.855 255.916 99.0603 255.916 95.2627C255.844 91.2502 253.265 88.5991 249.539 88.5991C245.741 88.5991 243.09 91.3219 243.09 95.2627C243.09 99.0603 245.741 101.855 249.396 101.855H249.467ZM33.9403 98.0496V138.024C33.9403 155.622 48.2706 169.953 65.8692 169.953H150.594V189.06C150.594 196.351 144.56 202.384 137.269 202.384H51.7903L32.4318 221.743C31.6776 222.497 30.6719 223 29.4149 223C27.1522 223 25.1409 220.989 25.1409 218.726V202.133V201.63H13.3247C6.03382 201.63 0 195.596 0 188.306V111.374C0 104.083 6.03382 98.0496 13.3247 98.0496H33.9403Z" fill="#AD52F2"/>
</svg>
